<?xml version="1.0" encoding="UTF-8" standalone="no"?>
<!DOCTYPE svg PUBLIC "-//W3C//DTD SVG 1.1//EN"
 "http://www.w3.org/Graphics/SVG/1.1/DTD/svg11.dtd">
<!-- Generated by graphviz version 2.28.0 (20110509.1545)
 -->
<!-- Title: G Pages: 1 -->
<svg width="563pt" height="134pt"
 viewBox="0.00 0.00 562.75 134.00" xmlns="http://www.w3.org/2000/svg" xmlns:xlink="http://www.w3.org/1999/xlink">
<g id="graph1" class="graph" transform="scale(1 1) rotate(0) translate(4 130)">
<title>G</title>
<polygon fill="white" stroke="white" points="-4,5 -4,-130 559.752,-130 559.752,5 -4,5"/>
<!-- 1 -->
<g id="node1" class="node"><title>1</title>
<ellipse fill="none" stroke="black" cx="33" cy="-18" rx="33.3419" ry="18"/>
<text text-anchor="middle" x="33" y="-12.4" font-family="Times,serif" font-size="14.00">state1</text>
</g>
<!-- 2 -->
<g id="node2" class="node"><title>2</title>
<ellipse fill="none" stroke="black" cx="127" cy="-18" rx="33.3419" ry="18"/>
<text text-anchor="middle" x="127" y="-12.4" font-family="Times,serif" font-size="14.00">state2</text>
</g>
<!-- 3 -->
<g id="node3" class="node"><title>3</title>
<ellipse fill="none" stroke="black" cx="268" cy="-108" rx="32.2368" ry="18"/>
<text text-anchor="middle" x="268" y="-102.4" font-family="Times,serif" font-size="14.00">index</text>
</g>
<!-- 3&#45;&gt;1 -->
<g id="edge2" class="edge"><title>3&#45;&gt;1</title>
<path fill="none" stroke="black" d="M236.095,-105.243C184.499,-101.825 85.7422,-92.7188 58.248,-72 49.6695,-65.5355 43.8752,-55.4111 40.0265,-45.7358"/>
<polygon fill="black" stroke="black" points="43.2386,-44.3126 36.6849,-35.988 36.6169,-46.5826 43.2386,-44.3126"/>
<text text-anchor="middle" x="94.376" y="-57.4" font-family="Times,serif" font-size="14.00">../LI[1]/A[1]</text>
<text text-anchor="middle" x="226.753" y="-103.211" font-family="Times,serif" font-size="14.00">/HTML[1]/BODY[1]/DIV[3]/DIV[3]/DIV[1]/UL[1]/LI[1]/UL[1]/LI[1]/A[1]</text>
</g>
<!-- 3&#45;&gt;2 -->
<g id="edge4" class="edge"><title>3&#45;&gt;2</title>
<path fill="none" stroke="black" d="M235.899,-106.261C207.885,-103.9 167.954,-96.1217 143.248,-72 136.293,-65.21 132.297,-55.5289 130.008,-46.2945"/>
<polygon fill="black" stroke="black" points="133.4,-45.3993 128.081,-36.2363 126.525,-46.7162 133.4,-45.3993"/>
<text text-anchor="middle" x="179.376" y="-57.4" font-family="Times,serif" font-size="14.00">../LI[2]/A[1]</text>
<text text-anchor="middle" x="226.458" y="-103.956" font-family="Times,serif" font-size="14.00">/HTML[1]/BODY[1]/DIV[3]/DIV[3]/DIV[1]/UL[1]/LI[1]/UL[1]/LI[2]/A[1]</text>
</g>
<!-- 4 -->
<g id="node4" class="node"><title>4</title>
<ellipse fill="none" stroke="black" cx="221" cy="-18" rx="33.3419" ry="18"/>
<text text-anchor="middle" x="221" y="-12.4" font-family="Times,serif" font-size="14.00">state3</text>
</g>
<!-- 3&#45;&gt;4 -->
<g id="edge6" class="edge"><title>3&#45;&gt;4</title>
<path fill="none" stroke="black" d="M244.717,-95.0841C236.054,-89.3598 227.146,-81.6264 222.248,-72 218.272,-64.1852 217.082,-54.8471 217.156,-46.2017"/>
<polygon fill="black" stroke="black" points="220.654,-46.3434 217.77,-36.1486 213.667,-45.9167 220.654,-46.3434"/>
<text text-anchor="middle" x="258.376" y="-57.4" font-family="Times,serif" font-size="14.00">../LI[3]/A[1]</text>
<text text-anchor="middle" x="234.85" y="-87.8617" font-family="Times,serif" font-size="14.00">/HTML[1]/BODY[1]/DIV[3]/DIV[3]/DIV[1]/UL[1]/LI[1]/UL[1]/LI[3]/A[1]</text>
</g>
<!-- 5 -->
<g id="node5" class="node"><title>5</title>
<ellipse fill="none" stroke="black" cx="315" cy="-18" rx="33.3419" ry="18"/>
<text text-anchor="middle" x="315" y="-12.4" font-family="Times,serif" font-size="14.00">state4</text>
</g>
<!-- 3&#45;&gt;5 -->
<g id="edge8" class="edge"><title>3&#45;&gt;5</title>
<path fill="none" stroke="black" d="M280.498,-91.1222C284.768,-85.2972 289.375,-78.5285 293,-72 297.588,-63.7363 301.797,-54.3183 305.278,-45.7365"/>
<polygon fill="black" stroke="black" points="308.638,-46.7541 309.009,-36.1657 302.116,-44.2118 308.638,-46.7541"/>
<text text-anchor="middle" x="337.376" y="-57.4" font-family="Times,serif" font-size="14.00">../LI[4]/A[1]</text>
<text text-anchor="middle" x="282.407" y="-75.7062" font-family="Times,serif" font-size="14.00">/HTML[1]/BODY[1]/DIV[3]/DIV[3]/DIV[1]/UL[1]/LI[1]/UL[1]/LI[4]/A[1]</text>
</g>
<!-- 6 -->
<g id="node6" class="node"><title>6</title>
<ellipse fill="none" stroke="black" cx="409" cy="-18" rx="33.3419" ry="18"/>
<text text-anchor="middle" x="409" y="-12.4" font-family="Times,serif" font-size="14.00">state5</text>
</g>
<!-- 3&#45;&gt;6 -->
<g id="edge10" class="edge"><title>3&#45;&gt;6</title>
<path fill="none" stroke="black" d="M299.089,-102.803C322.265,-98.3721 353.642,-89.4833 376,-72 385.059,-64.9162 392.277,-54.6011 397.624,-44.9496"/>
<polygon fill="black" stroke="black" points="400.75,-46.5248 402.177,-36.0265 394.514,-43.3436 400.75,-46.5248"/>
<text text-anchor="middle" x="427.376" y="-57.4" font-family="Times,serif" font-size="14.00">../LI[5]/A[1]</text>
<text text-anchor="middle" x="307.123" y="-91.2486" font-family="Times,serif" font-size="14.00">/HTML[1]/BODY[1]/DIV[3]/DIV[3]/DIV[1]/UL[1]/LI[1]/UL[1]/LI[5]/A[1]</text>
</g>
<!-- 7 -->
<g id="node7" class="node"><title>7</title>
<ellipse fill="none" stroke="black" cx="503" cy="-18" rx="33.3419" ry="18"/>
<text text-anchor="middle" x="503" y="-12.4" font-family="Times,serif" font-size="14.00">state6</text>
</g>
<!-- 3&#45;&gt;7 -->
<g id="edge12" class="edge"><title>3&#45;&gt;7</title>
<path fill="none" stroke="black" d="M299.753,-104.352C348.486,-99.8013 438.93,-89.2804 466,-72 476.356,-65.3892 484.621,-54.739 490.69,-44.7136"/>
<polygon fill="black" stroke="black" points="493.838,-46.2559 495.643,-35.8161 487.721,-42.8512 493.838,-46.2559"/>
<text text-anchor="middle" x="519.376" y="-57.4" font-family="Times,serif" font-size="14.00">../LI[6]/A[1]</text>
<text text-anchor="middle" x="308.36" y="-93.6623" font-family="Times,serif" font-size="14.00">/HTML[1]/BODY[1]/DIV[3]/DIV[3]/DIV[1]/UL[1]/LI[1]/UL[1]/LI[6]/A[1]</text>
</g>
</g>
</svg>
