<!-- Generated by graphviz version 2.28.0 (20110509.1545)
 --><!-- Title: G Pages: 1 --><svg xmlns="http://www.w3.org/2000/svg" xmlns:xlink="http://www.w3.org/1999/xlink">

<g class="graph" id="graph1" transform="scale(1 1) rotate(0) translate(250 228)">

<title>G</title>

<polygon fill="white" points="-4,5 -4,-400 1109.1,-400 1109.1,5 -4,5" stroke="white"></polygon>
<!-- 1 -->

<g class="node" id="graph1_node1" onclick="top.clickHighlightNode('browser1', 'graph1_node1_e','browser2', 'graph2_node1_e');" onmouseout=";hideImage('graph1_node1_img');top.removeHighlightOfNode('browser1', 'graph1_node1_e','browser2', 'graph2_node1_e');" onmouseover=";showImage('graph1_node1_img');top.highlightNode('browser1', 'graph1_node1_e','browser2', 'graph2_node1_e');">



<a id="graph1_node1" onclick="selState('state1' , 'graph1_node1_e' , './crawloverview/states/state1.html', 'firefox');">
<title>1</title>
<ellipse cx="579" cy="-378" fill="none" id="graph1_node1_e" rx="33.3419" ry="18" stroke="orange"></ellipse>
<text font-family="Times,serif" font-size="14.00" text-anchor="middle" x="579" y="-372.4">state1</text>
</a>
</g>
<!-- 2 -->

<g class="node" id="graph1_node2" onclick="top.clickHighlightNode('browser1', 'graph1_node2_e','browser2', 'graph2_node2_e');" onmouseout=";hideImage('graph1_node2_img');top.removeHighlightOfNode('browser1', 'graph1_node2_e','browser2', 'graph2_node2_e');" onmouseover=";showImage('graph1_node2_img');top.highlightNode('browser1', 'graph1_node2_e','browser2', 'graph2_node2_e');">



<a id="graph1_node2" onclick="selState('state2' , 'graph1_node2_e' , './crawloverview/states/state2.html', 'firefox');">
<title>2</title>
<ellipse cx="33" cy="-198" fill="none" id="graph1_node2_e" rx="33.3419" ry="18" stroke="orange"></ellipse>
<text font-family="Times,serif" font-size="14.00" text-anchor="middle" x="33" y="-192.4">state2</text>
</a>
</g>
<!-- 1&#45;&gt;2 -->

<g class="edge" id="graph1_edge0" onmouseout="handleEdgeMouseOut('graph1_edge0', '../A[1]/IMG[1]');top.removeHighlightOfEdge('browser2', 'graph2_edge0');" onmouseover="handleEdgeMouseOver('graph1_edge0', '/HTML[1]/BODY[1]/DIV[1]/TABLE[1]/TBODY[1]/TR[2]/TD[1]/TABLE[1]/TBODY[1]/TR[1]/TD[2]/A[1]/IMG[1]');top.highlightEdge('browser2', 'graph2_edge0');">
<title>1-&gt;2</title>

<path d="M547.29,-372.422C507.691,-366.483 437.974,-355.293 379,-342 232.788,-309.043 165.502,-352.157 54,-252 46.4299,-245.2 41.5531,-235.314 38.4274,-225.916" fill="none" stroke="black"></path>

<polygon fill="black" points="41.741,-224.77 35.6782,-216.081 34.9994,-226.654 41.741,-224.77" stroke="black"></polygon>

<text fill="#B0B0B0" font-family="Times,serif" font-size="14.00" text-anchor="middle" x="179.379" y="-282.4">../A[1]/IMG[1]</text>


</g>
<!-- 3 -->

<g class="node" id="graph1_node3" onclick="top.clickHighlightNode('browser1', 'graph1_node3_e','browser2', 'graph2_node3_e');" onmouseout=";hideImage('graph1_node3_img');top.removeHighlightOfNode('browser1', 'graph1_node3_e','browser2', 'graph2_node3_e');" onmouseover=";showImage('graph1_node3_img');top.highlightNode('browser1', 'graph1_node3_e','browser2', 'graph2_node3_e');">



<a id="graph1_node3" onclick="selState('index' , 'graph1_node3_e' , './crawloverview/states/index.html', 'firefox');">
<title>3</title>
<ellipse cx="413" cy="-288" fill="none" id="graph1_node3_e" rx="32.2368" ry="18" stroke="orange"></ellipse>
<text font-family="Times,serif" font-size="14.00" text-anchor="middle" x="413" y="-282.4">index</text>
</a>
</g>
<!-- 1&#45;&gt;3 -->

<g class="edge" id="graph1_edge1" onmouseout="handleEdgeMouseOut('graph1_edge1', '../A[1]/IMG[1]');top.removeHighlightOfEdge('browser2', 'graph2_edge1');" onmouseover="handleEdgeMouseOver('graph1_edge1', '/HTML[1]/BODY[1]/DIV[1]/TABLE[1]/TBODY[1]/TR[2]/TD[1]/TABLE[1]/TBODY[1]/TR[1]/TD[1]/A[1]/IMG[1]');top.highlightEdge('browser2', 'graph2_edge1');">
<title>1-&gt;3</title>

<path d="M549.406,-369.274C529.203,-363.347 502.222,-354.124 480.241,-342 479.056,-341.346 457.443,-324.272 439.036,-309.678" fill="none" stroke="black"></path>

<polygon fill="black" points="440.899,-306.688 430.889,-303.215 436.548,-312.172 440.899,-306.688" stroke="black"></polygon>

<text fill="#B0B0B0" font-family="Times,serif" font-size="14.00" text-anchor="middle" x="523.379" y="-327.4">../A[1]/IMG[1]</text>


</g>
<!-- 4 -->

<g class="node" id="graph1_node4" onclick="top.clickHighlightNode('browser1', 'graph1_node4_e','browser2', 'graph2_node4_e');" onmouseout=";hideImage('graph1_node4_img');top.removeHighlightOfNode('browser1', 'graph1_node4_e','browser2', 'graph2_node4_e');" onmouseover=";showImage('graph1_node4_img');top.highlightNode('browser1', 'graph1_node4_e','browser2', 'graph2_node4_e');">



<a id="graph1_node4" onclick="selState('state3' , 'graph1_node4_e' , './crawloverview/states/state3.html', 'firefox');">
<title>4</title>
<ellipse cx="526" cy="-108" fill="none" id="graph1_node4_e" rx="33.3419" ry="18" stroke="orange"></ellipse>
<text font-family="Times,serif" font-size="14.00" text-anchor="middle" x="526" y="-102.4">state3</text>
</a>
</g>
<!-- 1&#45;&gt;4 -->

<g class="edge" id="graph1_edge2" onmouseout="handleEdgeMouseOut('graph1_edge2', '../A[1]/IMG[1]');top.removeHighlightOfEdge('browser2', 'graph2_edge2');" onmouseover="handleEdgeMouseOver('graph1_edge2', '/HTML[1]/BODY[1]/DIV[1]/TABLE[1]/TBODY[1]/TR[2]/TD[1]/TABLE[1]/TBODY[1]/TR[1]/TD[3]/A[1]/IMG[1]');top.highlightEdge('browser2', 'graph2_edge2');">
<title>1-&gt;4</title>

<path d="M578.72,-359.765C577.892,-318.21 574.863,-213.464 565,-180 560.154,-163.559 551.083,-146.681 542.908,-133.507" fill="none" stroke="black"></path>

<polygon fill="black" points="545.809,-131.547 537.455,-125.03 539.922,-135.334 545.809,-131.547" stroke="black"></polygon>

<text fill="#B0B0B0" font-family="Times,serif" font-size="14.00" text-anchor="middle" x="617.379" y="-237.4">../A[1]/IMG[1]</text>


</g>
<!-- 5 -->

<g class="node" id="graph1_node5" onclick="top.clickHighlightNode('browser1', 'graph1_node5_e','browser2', 'graph2_node5_e');" onmouseout=";hideImage('graph1_node5_img');top.removeHighlightOfNode('browser1', 'graph1_node5_e','browser2', 'graph2_node5_e');" onmouseover=";showImage('graph1_node5_img');top.highlightNode('browser1', 'graph1_node5_e','browser2', 'graph2_node5_e');">



<a id="graph1_node5" onclick="selState('state4' , 'graph1_node5_e' , './crawloverview/states/state4.html', 'firefox');">
<title>5</title>
<ellipse cx="761" cy="-198" fill="none" id="graph1_node5_e" rx="33.3419" ry="18" stroke="orange"></ellipse>
<text font-family="Times,serif" font-size="14.00" text-anchor="middle" x="761" y="-192.4">state4</text>
</a>
</g>
<!-- 1&#45;&gt;5 -->

<g class="edge" id="graph1_edge3" onmouseout="handleEdgeMouseOut('graph1_edge3', '../A[1]/IMG[1]');top.removeHighlightOfEdge('browser2', 'graph2_edge3');" onmouseover="handleEdgeMouseOver('graph1_edge3', '/HTML[1]/BODY[1]/DIV[1]/TABLE[1]/TBODY[1]/TR[2]/TD[1]/TABLE[1]/TBODY[1]/TR[1]/TD[4]/A[1]/IMG[1]');top.highlightEdge('browser2', 'graph2_edge3');">
<title>1-&gt;5</title>

<path d="M607.301,-368.506C652.004,-353.377 737.515,-317.077 773,-252 777.463,-243.815 776.693,-234.053 774.064,-225.15" fill="none" stroke="black"></path>

<polygon fill="black" points="777.271,-223.732 770.487,-215.593 770.715,-226.186 777.271,-223.732" stroke="black"></polygon>

<text fill="#B0B0B0" font-family="Times,serif" font-size="14.00" text-anchor="middle" x="802.379" y="-282.4">../A[1]/IMG[1]</text>


</g>
<!-- 6 -->

<g class="node" id="graph1_node6" onclick="top.clickHighlightNode('browser1', 'graph1_node6_e','browser2', 'graph2_node6_e');" onmouseout=";hideImage('graph1_node6_img');top.removeHighlightOfNode('browser1', 'graph1_node6_e','browser2', 'graph2_node6_e');" onmouseover=";showImage('graph1_node6_img');top.highlightNode('browser1', 'graph1_node6_e','browser2', 'graph2_node6_e');">



<a id="graph1_node6" onclick="selState('state5' , 'graph1_node6_e' , './crawloverview/states/state5.html', 'firefox');">
<title>6</title>
<ellipse cx="746" cy="-108" fill="none" id="graph1_node6_e" rx="33.3419" ry="18" stroke="orange"></ellipse>
<text font-family="Times,serif" font-size="14.00" text-anchor="middle" x="746" y="-102.4">state5</text>
</a>
</g>
<!-- 1&#45;&gt;6 -->

<g class="edge" id="graph1_edge4" onmouseout="handleEdgeMouseOut('graph1_edge4', '../A[1]/IMG[1]');top.removeHighlightOfEdge('browser2', 'graph2_edge4');" onmouseover="handleEdgeMouseOver('graph1_edge4', '/HTML[1]/BODY[1]/DIV[1]/TABLE[1]/TBODY[1]/TR[2]/TD[1]/TABLE[1]/TBODY[1]/TR[1]/TD[5]/A[1]/IMG[1]');top.highlightEdge('browser2', 'graph2_edge4');">
<title>1-&gt;6</title>

<path d="M611.228,-372.965C675.597,-364.221 816.597,-341.418 848,-306 896.129,-251.717 911.656,-201.941 868,-144 850.011,-120.124 816.825,-111.725 789.601,-109.104" fill="none" stroke="black"></path>

<polygon fill="black" points="789.733,-105.604 779.504,-108.362 789.22,-112.585 789.733,-105.604" stroke="black"></polygon>

<text fill="#B0B0B0" font-family="Times,serif" font-size="14.00" text-anchor="middle" x="933.379" y="-237.4">../A[1]/IMG[1]</text>


</g>
<!-- 7 -->

<g class="node" id="graph1_node7" onclick="top.clickHighlightNode('browser1', 'graph1_node7_e','browser2', 'graph2_node7_e');" onmouseout=";hideImage('graph1_node7_img');top.removeHighlightOfNode('browser1', 'graph1_node7_e','browser2', 'graph2_node7_e');" onmouseover=";showImage('graph1_node7_img');top.highlightNode('browser1', 'graph1_node7_e','browser2', 'graph2_node7_e');">



<a id="graph1_node7" onclick="selState('state6' , 'graph1_node7_e' , './crawloverview/states/state6.html', 'firefox');">
<title>7</title>
<ellipse cx="746" cy="-18" fill="none" id="graph1_node7_e" rx="33.3419" ry="18" stroke="orange"></ellipse>
<text font-family="Times,serif" font-size="14.00" text-anchor="middle" x="746" y="-12.4">state6</text>
</a>
</g>
<!-- 1&#45;&gt;7 -->

<g class="edge" id="graph1_edge5" onmouseout="handleEdgeMouseOut('graph1_edge5', '../A[1]/IMG[1]');top.removeHighlightOfEdge('browser2', 'graph2_edge5');" onmouseover="handleEdgeMouseOver('graph1_edge5', '/HTML[1]/BODY[1]/DIV[1]/TABLE[1]/TBODY[1]/TR[2]/TD[1]/TABLE[1]/TBODY[1]/TR[1]/TD[6]/A[1]/IMG[1]');top.highlightEdge('browser2', 'graph2_edge5');">
<title>1-&gt;7</title>

<path d="M612.387,-377.107C711.963,-376.538 1000,-368.057 1000,-289 1000,-289 1000,-289 1000,-107 1000,-62.6856 860.218,-35.691 788.045,-24.7064" fill="none" stroke="black"></path>

<polygon fill="black" points="788.318,-21.2086 777.912,-23.2018 787.29,-28.1327 788.318,-21.2086" stroke="black"></polygon>

<text fill="#B0B0B0" font-family="Times,serif" font-size="14.00" text-anchor="middle" x="1042.38" y="-192.4">../A[1]/IMG[1]</text>


</g>
<!-- 3&#45;&gt;1 -->

<g class="edge" id="graph1_edge6" onmouseout="handleEdgeMouseOut('graph1_edge6', '../LI[1]/A[1]');top.removeHighlightOfEdge('browser2', 'graph2_edge6');" onmouseover="handleEdgeMouseOver('graph1_edge6', '/HTML[1]/BODY[1]/DIV[1]/TABLE[1]/TBODY[1]/TR[1]/TD[1]/UL[1]/LI[1]/A[1]');top.highlightEdge('browser2', 'graph2_edge6');">
<title>3-&gt;1</title>

<path d="M396.657,-304.014C386.39,-315.261 376.737,-330.606 386.248,-342 404.906,-364.35 484.817,-372.46 535.708,-375.38" fill="none" stroke="black"></path>

<polygon fill="black" points="535.612,-378.88 545.783,-375.913 535.982,-371.89 535.612,-378.88" stroke="black"></polygon>

<text fill="#B0B0B0" font-family="Times,serif" font-size="14.00" text-anchor="middle" x="422.376" y="-327.4">../LI[1]/A[1]</text>


</g>
<!-- 3&#45;&gt;2 -->

<g class="edge" id="graph1_edge7" onmouseout="handleEdgeMouseOut('graph1_edge7', '../A[1]/IMG[1]');top.removeHighlightOfEdge('browser2', 'graph2_edge7');" onmouseover="handleEdgeMouseOver('graph1_edge7', '/HTML[1]/BODY[1]/DIV[1]/TABLE[1]/TBODY[1]/TR[2]/TD[1]/TABLE[1]/TBODY[1]/TR[1]/TD[2]/A[1]/IMG[1]');top.highlightEdge('browser2', 'graph2_edge7');">
<title>3-&gt;2</title>

<path d="M380.599,-286.584C307.322,-285.171 131.206,-278.984 79.2412,-252 66.88,-245.581 56.3541,-234.361 48.4821,-223.892" fill="none" stroke="black"></path>

<polygon fill="black" points="51.1253,-221.565 42.5118,-215.396 45.3981,-225.59 51.1253,-221.565" stroke="black"></polygon>

<text fill="#B0B0B0" font-family="Times,serif" font-size="14.00" text-anchor="middle" x="122.379" y="-237.4">../A[1]/IMG[1]</text>


</g>
<!-- 3&#45;&gt;4 -->

<g class="edge" id="graph1_edge8" onmouseout="handleEdgeMouseOut('graph1_edge8', '../A[1]/IMG[1]');top.removeHighlightOfEdge('browser2', 'graph2_edge8');" onmouseover="handleEdgeMouseOver('graph1_edge8', '/HTML[1]/BODY[1]/DIV[1]/TABLE[1]/TBODY[1]/TR[2]/TD[1]/TABLE[1]/TBODY[1]/TR[1]/TD[3]/A[1]/IMG[1]');top.highlightEdge('browser2', 'graph2_edge8');">
<title>3-&gt;4</title>

<path d="M428.349,-272.121C433.995,-266.18 440.18,-259.077 445,-252 465.056,-222.553 462.729,-211.027 480.241,-180 489.143,-164.228 500.106,-147.15 509.069,-133.696" fill="none" stroke="black"></path>

<polygon fill="black" points="512.226,-135.272 514.905,-125.022 506.419,-131.365 512.226,-135.272" stroke="black"></polygon>

<text fill="#B0B0B0" font-family="Times,serif" font-size="14.00" text-anchor="middle" x="523.379" y="-192.4">../A[1]/IMG[1]</text>


</g>
<!-- 3&#45;&gt;5 -->

<g class="edge" id="graph1_edge9" onmouseout="handleEdgeMouseOut('graph1_edge9', '../A[1]/IMG[1]');top.removeHighlightOfEdge('browser2', 'graph2_edge9');" onmouseover="handleEdgeMouseOver('graph1_edge9', '/HTML[1]/BODY[1]/DIV[1]/TABLE[1]/TBODY[1]/TR[2]/TD[1]/TABLE[1]/TBODY[1]/TR[1]/TD[4]/A[1]/IMG[1]');top.highlightEdge('browser2', 'graph2_edge9');">
<title>3-&gt;5</title>

<path d="M445.424,-287.737C494.798,-287.724 590.91,-283.194 665,-252 677.041,-246.93 677.128,-240.87 688.241,-234 700.095,-226.672 713.716,-219.757 725.943,-214.039" fill="none" stroke="black"></path>

<polygon fill="black" points="727.747,-217.063 735.39,-209.726 724.84,-210.696 727.747,-217.063" stroke="black"></polygon>

<text fill="#B0B0B0" font-family="Times,serif" font-size="14.00" text-anchor="middle" x="731.379" y="-237.4">../A[1]/IMG[1]</text>


</g>
<!-- 3&#45;&gt;6 -->

<g class="edge" id="graph1_edge10" onmouseout="handleEdgeMouseOut('graph1_edge10', '../A[1]/IMG[1]');top.removeHighlightOfEdge('browser2', 'graph2_edge10');" onmouseover="handleEdgeMouseOver('graph1_edge10', '/HTML[1]/BODY[1]/DIV[1]/TABLE[1]/TBODY[1]/TR[2]/TD[1]/TABLE[1]/TBODY[1]/TR[1]/TD[5]/A[1]/IMG[1]');top.highlightEdge('browser2', 'graph2_edge10');">
<title>3-&gt;6</title>

<path d="M438.305,-276.599C469.542,-263.506 524.044,-239.834 569,-216 623.28,-187.223 634.357,-175.673 687,-144 696.261,-138.428 706.37,-132.408 715.563,-126.958" fill="none" stroke="black"></path>

<polygon fill="black" points="717.562,-129.842 724.384,-121.736 713.996,-123.818 717.562,-129.842" stroke="black"></polygon>

<text fill="#B0B0B0" font-family="Times,serif" font-size="14.00" text-anchor="middle" x="672.379" y="-192.4">../A[1]/IMG[1]</text>


</g>
<!-- 3&#45;&gt;7 -->

<g class="edge" id="graph1_edge11" onmouseout="handleEdgeMouseOut('graph1_edge11', '../A[1]/IMG[1]');top.removeHighlightOfEdge('browser2', 'graph2_edge11');" onmouseover="handleEdgeMouseOver('graph1_edge11', '/HTML[1]/BODY[1]/DIV[1]/TABLE[1]/TBODY[1]/TR[2]/TD[1]/TABLE[1]/TBODY[1]/TR[1]/TD[6]/A[1]/IMG[1]');top.highlightEdge('browser2', 'graph2_edge11');">
<title>3-&gt;7</title>

<path d="M415.343,-269.944C416.02,-264.249 416.666,-257.862 417,-252 419.301,-211.601 407.056,-202.285 403.241,-162 402.487,-154.036 399.492,-151.067 403.241,-144 460.066,-36.9043 623.528,-20.0771 702.4,-18.4036" fill="none" stroke="black"></path>

<polygon fill="black" points="702.544,-21.9021 712.495,-18.2631 702.447,-14.9028 702.544,-21.9021" stroke="black"></polygon>

<text fill="#B0B0B0" font-family="Times,serif" font-size="14.00" text-anchor="middle" x="446.379" y="-147.4">../A[1]/IMG[1]</text>


</g>
<!-- 8 -->

<g class="node" id="graph1_node8" onclick="top.clickHighlightNode('browser1', 'graph1_node8_e','browser2', 'graph2_node8_e');" onmouseout=";hideImage('graph1_node8_img');top.removeHighlightOfNode('browser1', 'graph1_node8_e','browser2', 'graph2_node8_e');" onmouseover=";showImage('graph1_node8_img');top.highlightNode('browser1', 'graph1_node8_e','browser2', 'graph2_node8_e');">



<a id="graph1_node8" onclick="selState('state7' , 'graph1_node8_e' , './crawloverview/states/state7.html', 'firefox');">
<title>8</title>
<ellipse cx="157" cy="-198" fill="none" id="graph1_node8_e" rx="33.3419" ry="18" stroke="orange"></ellipse>
<text font-family="Times,serif" font-size="14.00" text-anchor="middle" x="157" y="-192.4">state7</text>
</a>
</g>
<!-- 3&#45;&gt;8 -->

<g class="edge" id="graph1_edge12" onmouseout="handleEdgeMouseOut('graph1_edge12', '../LI[2]/A[1]');top.removeHighlightOfEdge('browser2', 'graph2_edge12');" onmouseover="handleEdgeMouseOver('graph1_edge12', '/HTML[1]/BODY[1]/DIV[1]/TABLE[1]/TBODY[1]/TR[1]/TD[1]/UL[1]/LI[2]/A[1]');top.highlightEdge('browser2', 'graph2_edge12');">
<title>3-&gt;8</title>

<path d="M380.887,-285.86C324.825,-283.275 212.12,-275.265 181.248,-252 172.731,-245.582 167.118,-235.466 163.46,-225.784" fill="none" stroke="black"></path>

<polygon fill="black" points="166.714,-224.47 160.316,-216.025 160.051,-226.617 166.714,-224.47" stroke="black"></polygon>

<text fill="#B0B0B0" font-family="Times,serif" font-size="14.00" text-anchor="middle" x="217.376" y="-237.4">../LI[2]/A[1]</text>


</g>
<!-- 9 -->

<g class="node" id="graph1_node9" onclick="top.clickHighlightNode('browser1', 'graph1_node9_e','browser2', 'graph2_node9_e');" onmouseout=";hideImage('graph1_node9_img');top.removeHighlightOfNode('browser1', 'graph1_node9_e','browser2', 'graph2_node9_e');" onmouseover=";showImage('graph1_node9_img');top.highlightNode('browser1', 'graph1_node9_e','browser2', 'graph2_node9_e');">



<a id="graph1_node9" onclick="selState('state8' , 'graph1_node9_e' , './crawloverview/states/state8.html', 'firefox');">
<title>9</title>
<ellipse cx="251" cy="-198" fill="none" id="graph1_node9_e" rx="33.3419" ry="18" stroke="orange"></ellipse>
<text font-family="Times,serif" font-size="14.00" text-anchor="middle" x="251" y="-192.4">state8</text>
</a>
</g>
<!-- 3&#45;&gt;9 -->

<g class="edge" id="graph1_edge13" onmouseout="handleEdgeMouseOut('graph1_edge13', '../LI[4]/A[1]');top.removeHighlightOfEdge('browser2', 'graph2_edge13');" onmouseover="handleEdgeMouseOver('graph1_edge13', '/HTML[1]/BODY[1]/DIV[1]/TABLE[1]/TBODY[1]/TR[1]/TD[1]/UL[1]/LI[4]/A[1]');top.highlightEdge('browser2', 'graph2_edge13');">
<title>3-&gt;9</title>

<path d="M381.561,-283.238C343.538,-278.07 282.585,-267.603 266.248,-252 259.205,-245.274 255.351,-235.525 253.265,-226.218" fill="none" stroke="black"></path>

<polygon fill="black" points="256.673,-225.374 251.584,-216.082 249.767,-226.52 256.673,-225.374" stroke="black"></polygon>

<text fill="#B0B0B0" font-family="Times,serif" font-size="14.00" text-anchor="middle" x="302.376" y="-237.4">../LI[4]/A[1]</text>


</g>
<!-- 10 -->

<g class="node" id="graph1_node10" onclick="top.clickHighlightNode('browser1', 'graph1_node10_e','browser2', 'graph2_node10_e');" onmouseout=";hideImage('graph1_node10_img');top.removeHighlightOfNode('browser1', 'graph1_node10_e','browser2', 'graph2_node10_e');" onmouseover=";showImage('graph1_node10_img');top.highlightNode('browser1', 'graph1_node10_e','browser2', 'graph2_node10_e');">



<a id="graph1_node10" onclick="selState('state9' , 'graph1_node10_e' , './crawloverview/states/state9.html', 'firefox');">
<title>10</title>
<ellipse cx="345" cy="-198" fill="none" id="graph1_node10_e" rx="33.3419" ry="18" stroke="orange"></ellipse>
<text font-family="Times,serif" font-size="14.00" text-anchor="middle" x="345" y="-192.4">state9</text>
</a>
</g>
<!-- 3&#45;&gt;10 -->

<g class="edge" id="graph1_edge14" onmouseout="handleEdgeMouseOut('graph1_edge14', '../LI[5]/A[1]');top.removeHighlightOfEdge('browser2', 'graph2_edge14');" onmouseover="handleEdgeMouseOver('graph1_edge14', '/HTML[1]/BODY[1]/DIV[1]/TABLE[1]/TBODY[1]/TR[1]/TD[1]/UL[1]/LI[5]/A[1]');top.highlightEdge('browser2', 'graph2_edge14');">
<title>3-&gt;10</title>

<path d="M384.201,-279.418C370.225,-274.147 354.67,-265.562 346.248,-252 341.553,-244.44 340.227,-235.03 340.394,-226.247" fill="none" stroke="black"></path>

<polygon fill="black" points="343.904,-226.256 341.213,-216.009 336.927,-225.698 343.904,-226.256" stroke="black"></polygon>

<text fill="#B0B0B0" font-family="Times,serif" font-size="14.00" text-anchor="middle" x="382.376" y="-237.4">../LI[5]/A[1]</text>


</g>
<!-- 5&#45;&gt;4 -->

<g class="edge" id="graph1_edge15" onmouseout="handleEdgeMouseOut('graph1_edge15', '../A[1]/IMG[1]');top.removeHighlightOfEdge('browser2', 'graph2_edge15');" onmouseover="handleEdgeMouseOver('graph1_edge15', '/HTML[1]/BODY[1]/DIV[1]/TABLE[1]/TBODY[1]/TR[2]/TD[1]/TABLE[1]/TBODY[1]/TR[1]/TD[3]/A[1]/IMG[1]');top.highlightEdge('browser2', 'graph2_edge15');">
<title>5-&gt;4</title>

<path d="M734.855,-186.785C727.835,-184.306 720.194,-181.843 713,-180 664.688,-167.626 648.476,-180.697 602.241,-162 583.377,-154.371 564.58,-141.38 550.37,-130.17" fill="none" stroke="black"></path>

<polygon fill="black" points="552.535,-127.419 542.568,-123.829 548.121,-132.852 552.535,-127.419" stroke="black"></polygon>

<text fill="#B0B0B0" font-family="Times,serif" font-size="14.00" text-anchor="middle" x="645.379" y="-147.4">../A[1]/IMG[1]</text>


</g>
<!-- 5&#45;&gt;6 -->

<g class="edge" id="graph1_edge16" onmouseout="handleEdgeMouseOut('graph1_edge16', '../A[1]/IMG[1]');top.removeHighlightOfEdge('browser2', 'graph2_edge16');" onmouseover="handleEdgeMouseOver('graph1_edge16', '/HTML[1]/BODY[1]/DIV[1]/TABLE[1]/TBODY[1]/TR[2]/TD[1]/TABLE[1]/TBODY[1]/TR[1]/TD[5]/A[1]/IMG[1]');top.highlightEdge('browser2', 'graph2_edge16');">
<title>5-&gt;6</title>

<path d="M734.84,-186.83C717.875,-179.641 698.062,-169.916 693.241,-162 684.774,-148.096 697.258,-135.097 712.202,-125.453" fill="none" stroke="black"></path>

<polygon fill="black" points="714.308,-128.274 721.145,-120.18 710.753,-122.244 714.308,-128.274" stroke="black"></polygon>

<text fill="#B0B0B0" font-family="Times,serif" font-size="14.00" text-anchor="middle" x="736.379" y="-147.4">../A[1]/IMG[1]</text>


</g>
<!-- 6&#45;&gt;5 -->

<g class="edge" id="graph1_edge17" onmouseout="handleEdgeMouseOut('graph1_edge17', '../A[1]/IMG[1]');top.removeHighlightOfEdge('browser2', 'graph2_edge17');" onmouseover="handleEdgeMouseOver('graph1_edge17', '/HTML[1]/BODY[1]/DIV[1]/TABLE[1]/TBODY[1]/TR[2]/TD[1]/TABLE[1]/TBODY[1]/TR[1]/TD[4]/A[1]/IMG[1]');top.highlightEdge('browser2', 'graph2_edge17');">
<title>6-&gt;5</title>

<path d="M763.847,-123.6C769.486,-129.305 775.02,-136.325 778,-144 781.405,-152.77 779.761,-162.535 776.416,-171.27" fill="none" stroke="black"></path>

<polygon fill="black" points="773.128,-170.042 772.096,-180.586 779.478,-172.987 773.128,-170.042" stroke="black"></polygon>

<text fill="#B0B0B0" font-family="Times,serif" font-size="14.00" text-anchor="middle" x="822.379" y="-147.4">../A[1]/IMG[1]</text>


</g>
<!-- 6&#45;&gt;7 -->

<g class="edge" id="graph1_edge18" onmouseout="handleEdgeMouseOut('graph1_edge18', '../A[1]/IMG[1]');top.removeHighlightOfEdge('browser2', 'graph2_edge18');" onmouseover="handleEdgeMouseOver('graph1_edge18', '/HTML[1]/BODY[1]/DIV[1]/TABLE[1]/TBODY[1]/TR[2]/TD[1]/TABLE[1]/TBODY[1]/TR[1]/TD[6]/A[1]/IMG[1]');top.highlightEdge('browser2', 'graph2_edge18');">
<title>6-&gt;7</title>

<path d="M720.226,-96.5325C709.888,-90.9027 699.062,-82.8475 693.241,-72 689.458,-64.9509 689.458,-61.0491 693.241,-54 697.425,-46.2033 704.195,-39.8492 711.51,-34.8014" fill="none" stroke="black"></path>

<polygon fill="black" points="713.523,-37.6727 720.226,-29.4675 709.869,-31.702 713.523,-37.6727" stroke="black"></polygon>

<text fill="#B0B0B0" font-family="Times,serif" font-size="14.00" text-anchor="middle" x="736.379" y="-57.4">../A[1]/IMG[1]</text>


</g>
<!-- 7&#45;&gt;6 -->

<g class="edge" id="graph1_edge19" onmouseout="handleEdgeMouseOut('graph1_edge19', '../A[1]/IMG[1]');top.removeHighlightOfEdge('browser2', 'graph2_edge19');" onmouseover="handleEdgeMouseOver('graph1_edge19', '/HTML[1]/BODY[1]/DIV[1]/TABLE[1]/TBODY[1]/TR[2]/TD[1]/TABLE[1]/TBODY[1]/TR[1]/TD[5]/A[1]/IMG[1]');top.highlightEdge('browser2', 'graph2_edge19');">
<title>7-&gt;6</title>

<path d="M763.847,-33.6004C769.486,-39.3054 775.02,-46.3249 778,-54 780.895,-61.4577 780.895,-64.5423 778,-72 776.231,-76.5571 773.561,-80.8831 770.503,-84.84" fill="none" stroke="black"></path>

<polygon fill="black" points="767.828,-82.5814 763.847,-92.3996 773.082,-87.2074 767.828,-82.5814" stroke="black"></polygon>

<text fill="#B0B0B0" font-family="Times,serif" font-size="14.00" text-anchor="middle" x="823.379" y="-57.4">../A[1]/IMG[1]</text>


</g>

<g>
<image height="1px" id="graph1_node1_img" width="1px" x="579" xlink:href="./screenshots/state1.png" y="-378"></image>
</g>
<g>
<image height="1px" id="graph1_node2_img" width="1px" x="33" xlink:href="./screenshots/state2.png" y="-198"></image>
</g>
<g>
<image height="1px" id="graph1_node3_img" width="1px" x="413" xlink:href="./screenshots/index.png" y="-288"></image>
</g>
<g>
<image height="1px" id="graph1_node4_img" width="1px" x="526" xlink:href="./screenshots/state3.png" y="-108"></image>
</g>
<g>
<image height="1px" id="graph1_node5_img" width="1px" x="761" xlink:href="./screenshots/state4.png" y="-198"></image>
</g>
<g>
<image height="1px" id="graph1_node6_img" width="1px" x="746" xlink:href="./screenshots/state5.png" y="-108"></image>
</g>
<g>
<image height="1px" id="graph1_node7_img" width="1px" x="746" xlink:href="./screenshots/state6.png" y="-18"></image>
</g>
<g>
<image height="1px" id="graph1_node8_img" width="1px" x="157" xlink:href="./screenshots/state7.png" y="-198"></image>
</g>
<g>
<image height="1px" id="graph1_node9_img" width="1px" x="251" xlink:href="./screenshots/state8.png" y="-198"></image>
</g>
<g>
<image height="1px" id="graph1_node10_img" width="1px" x="345" xlink:href="./screenshots/state9.png" y="-198"></image>
</g>
</g>

<script xlink:href="../../src/js/SVGPan.js"></script>
</svg>

