<?xml version="1.0" encoding="UTF-8" standalone="no"?>
<!DOCTYPE svg PUBLIC "-//W3C//DTD SVG 1.1//EN"
 "http://www.w3.org/Graphics/SVG/1.1/DTD/svg11.dtd">
<!-- Generated by graphviz version 2.28.0 (20110509.1545)
 -->
<!-- Title: G Pages: 1 -->
<svg width="1112pt" height="404pt"
 viewBox="0.00 0.00 1112.10 404.00" xmlns="http://www.w3.org/2000/svg" xmlns:xlink="http://www.w3.org/1999/xlink">
<g id="graph1" class="graph" transform="scale(1 1) rotate(0) translate(4 400)">
<title>G</title>
<polygon fill="white" stroke="white" points="-4,5 -4,-400 1109.1,-400 1109.1,5 -4,5"/>
<!-- 1 -->
<g id="node1" class="node"><title>1</title>
<ellipse fill="none" stroke="orange" cx="579" cy="-378" rx="33.3419" ry="18"/>
<text text-anchor="middle" x="579" y="-372.4" font-family="Times,serif" font-size="14.00">state1</text>
</g>
<!-- 2 -->
<g id="node2" class="node"><title>2</title>
<ellipse fill="none" stroke="orange" cx="33" cy="-198" rx="33.3419" ry="18"/>
<text text-anchor="middle" x="33" y="-192.4" font-family="Times,serif" font-size="14.00">state2</text>
</g>
<!-- 1&#45;&gt;2 -->
<g id="edge6" class="edge"><title>1&#45;&gt;2</title>
<path fill="none" stroke="black" d="M547.29,-372.422C507.691,-366.483 437.974,-355.293 379,-342 232.788,-309.043 165.502,-352.157 54,-252 46.4299,-245.2 41.5531,-235.314 38.4274,-225.916"/>
<polygon fill="black" stroke="black" points="41.741,-224.77 35.6782,-216.081 34.9994,-226.654 41.741,-224.77"/>
<text text-anchor="middle" x="179.379" y="-282.4" font-family="Times,serif" font-size="14.00">../A[1]/IMG[1]</text>
<text text-anchor="middle" x="537.695" y="-369.639" font-family="Times,serif" font-size="14.00">/HTML[1]/BODY[1]/DIV[1]/TABLE[1]/TBODY[1]/TR[2]/TD[1]/TABLE[1]/TBODY[1]/TR[1]/TD[2]/A[1]/IMG[1]</text>
</g>
<!-- 3 -->
<g id="node3" class="node"><title>3</title>
<ellipse fill="none" stroke="orange" cx="413" cy="-288" rx="32.2368" ry="18"/>
<text text-anchor="middle" x="413" y="-282.4" font-family="Times,serif" font-size="14.00">index</text>
</g>
<!-- 1&#45;&gt;3 -->
<g id="edge4" class="edge"><title>1&#45;&gt;3</title>
<path fill="none" stroke="black" d="M549.406,-369.274C529.203,-363.347 502.222,-354.124 480.241,-342 479.056,-341.346 457.443,-324.272 439.036,-309.678"/>
<polygon fill="black" stroke="black" points="440.899,-306.688 430.889,-303.215 436.548,-312.172 440.899,-306.688"/>
<text text-anchor="middle" x="523.379" y="-327.4" font-family="Times,serif" font-size="14.00">../A[1]/IMG[1]</text>
<text text-anchor="middle" x="539.511" y="-365.117" font-family="Times,serif" font-size="14.00">/HTML[1]/BODY[1]/DIV[1]/TABLE[1]/TBODY[1]/TR[2]/TD[1]/TABLE[1]/TBODY[1]/TR[1]/TD[1]/A[1]/IMG[1]</text>
</g>
<!-- 4 -->
<g id="node4" class="node"><title>4</title>
<ellipse fill="none" stroke="orange" cx="526" cy="-108" rx="33.3419" ry="18"/>
<text text-anchor="middle" x="526" y="-102.4" font-family="Times,serif" font-size="14.00">state3</text>
</g>
<!-- 1&#45;&gt;4 -->
<g id="edge8" class="edge"><title>1&#45;&gt;4</title>
<path fill="none" stroke="black" d="M578.72,-359.765C577.892,-318.21 574.863,-213.464 565,-180 560.154,-163.559 551.083,-146.681 542.908,-133.507"/>
<polygon fill="black" stroke="black" points="545.809,-131.547 537.455,-125.03 539.922,-135.334 545.809,-131.547"/>
<text text-anchor="middle" x="617.379" y="-237.4" font-family="Times,serif" font-size="14.00">../A[1]/IMG[1]</text>
<text text-anchor="middle" x="574.291" y="-345.199" font-family="Times,serif" font-size="14.00">/HTML[1]/BODY[1]/DIV[1]/TABLE[1]/TBODY[1]/TR[2]/TD[1]/TABLE[1]/TBODY[1]/TR[1]/TD[3]/A[1]/IMG[1]</text>
</g>
<!-- 5 -->
<g id="node5" class="node"><title>5</title>
<ellipse fill="none" stroke="orange" cx="761" cy="-198" rx="33.3419" ry="18"/>
<text text-anchor="middle" x="761" y="-192.4" font-family="Times,serif" font-size="14.00">state4</text>
</g>
<!-- 1&#45;&gt;5 -->
<g id="edge10" class="edge"><title>1&#45;&gt;5</title>
<path fill="none" stroke="black" d="M607.301,-368.506C652.004,-353.377 737.515,-317.077 773,-252 777.463,-243.815 776.693,-234.053 774.064,-225.15"/>
<polygon fill="black" stroke="black" points="777.271,-223.732 770.487,-215.593 770.715,-226.186 777.271,-223.732"/>
<text text-anchor="middle" x="802.379" y="-282.4" font-family="Times,serif" font-size="14.00">../A[1]/IMG[1]</text>
<text text-anchor="middle" x="614.421" y="-355.883" font-family="Times,serif" font-size="14.00">/HTML[1]/BODY[1]/DIV[1]/TABLE[1]/TBODY[1]/TR[2]/TD[1]/TABLE[1]/TBODY[1]/TR[1]/TD[4]/A[1]/IMG[1]</text>
</g>
<!-- 6 -->
<g id="node6" class="node"><title>6</title>
<ellipse fill="none" stroke="orange" cx="746" cy="-108" rx="33.3419" ry="18"/>
<text text-anchor="middle" x="746" y="-102.4" font-family="Times,serif" font-size="14.00">state5</text>
</g>
<!-- 1&#45;&gt;6 -->
<g id="edge22" class="edge"><title>1&#45;&gt;6</title>
<path fill="none" stroke="black" d="M611.228,-372.965C675.597,-364.221 816.597,-341.418 848,-306 896.129,-251.717 911.656,-201.941 868,-144 850.011,-120.124 816.825,-111.725 789.601,-109.104"/>
<polygon fill="black" stroke="black" points="789.733,-105.604 779.504,-108.362 789.22,-112.585 789.733,-105.604"/>
<text text-anchor="middle" x="933.379" y="-237.4" font-family="Times,serif" font-size="14.00">../A[1]/IMG[1]</text>
<text text-anchor="middle" x="619.607" y="-361.906" font-family="Times,serif" font-size="14.00">/HTML[1]/BODY[1]/DIV[1]/TABLE[1]/TBODY[1]/TR[2]/TD[1]/TABLE[1]/TBODY[1]/TR[1]/TD[5]/A[1]/IMG[1]</text>
</g>
<!-- 7 -->
<g id="node7" class="node"><title>7</title>
<ellipse fill="none" stroke="orange" cx="746" cy="-18" rx="33.3419" ry="18"/>
<text text-anchor="middle" x="746" y="-12.4" font-family="Times,serif" font-size="14.00">state6</text>
</g>
<!-- 1&#45;&gt;7 -->
<g id="edge24" class="edge"><title>1&#45;&gt;7</title>
<path fill="none" stroke="black" d="M612.387,-377.107C711.963,-376.538 1000,-368.057 1000,-289 1000,-289 1000,-289 1000,-107 1000,-62.6856 860.218,-35.691 788.045,-24.7064"/>
<polygon fill="black" stroke="black" points="788.318,-21.2086 777.912,-23.2018 787.29,-28.1327 788.318,-21.2086"/>
<text text-anchor="middle" x="1042.38" y="-192.4" font-family="Times,serif" font-size="14.00">../A[1]/IMG[1]</text>
<text text-anchor="middle" x="621.393" y="-367.16" font-family="Times,serif" font-size="14.00">/HTML[1]/BODY[1]/DIV[1]/TABLE[1]/TBODY[1]/TR[2]/TD[1]/TABLE[1]/TBODY[1]/TR[1]/TD[6]/A[1]/IMG[1]</text>
</g>
<!-- 3&#45;&gt;1 -->
<g id="edge2" class="edge"><title>3&#45;&gt;1</title>
<path fill="none" stroke="black" d="M396.657,-304.014C386.39,-315.261 376.737,-330.606 386.248,-342 404.906,-364.35 484.817,-372.46 535.708,-375.38"/>
<polygon fill="black" stroke="black" points="535.612,-378.88 545.783,-375.913 535.982,-371.89 535.612,-378.88"/>
<text text-anchor="middle" x="422.376" y="-327.4" font-family="Times,serif" font-size="14.00">../LI[1]/A[1]</text>
<text text-anchor="middle" x="393.885" y="-308.022" font-family="Times,serif" font-size="14.00">/HTML[1]/BODY[1]/DIV[1]/TABLE[1]/TBODY[1]/TR[1]/TD[1]/UL[1]/LI[1]/A[1]</text>
</g>
<!-- 3&#45;&gt;2 -->
<g id="edge32" class="edge"><title>3&#45;&gt;2</title>
<path fill="none" stroke="black" d="M380.599,-286.584C307.322,-285.171 131.206,-278.984 79.2412,-252 66.88,-245.581 56.3541,-234.361 48.4821,-223.892"/>
<polygon fill="black" stroke="black" points="51.1253,-221.565 42.5118,-215.396 45.3981,-225.59 51.1253,-221.565"/>
<text text-anchor="middle" x="122.379" y="-237.4" font-family="Times,serif" font-size="14.00">../A[1]/IMG[1]</text>
<text text-anchor="middle" x="371.439" y="-284.996" font-family="Times,serif" font-size="14.00">/HTML[1]/BODY[1]/DIV[1]/TABLE[1]/TBODY[1]/TR[2]/TD[1]/TABLE[1]/TBODY[1]/TR[1]/TD[2]/A[1]/IMG[1]</text>
</g>
<!-- 3&#45;&gt;4 -->
<g id="edge34" class="edge"><title>3&#45;&gt;4</title>
<path fill="none" stroke="black" d="M428.349,-272.121C433.995,-266.18 440.18,-259.077 445,-252 465.056,-222.553 462.729,-211.027 480.241,-180 489.143,-164.228 500.106,-147.15 509.069,-133.696"/>
<polygon fill="black" stroke="black" points="512.226,-135.272 514.905,-125.022 506.419,-131.365 512.226,-135.272"/>
<text text-anchor="middle" x="523.379" y="-192.4" font-family="Times,serif" font-size="14.00">../A[1]/IMG[1]</text>
<text text-anchor="middle" x="431.481" y="-257.023" font-family="Times,serif" font-size="14.00">/HTML[1]/BODY[1]/DIV[1]/TABLE[1]/TBODY[1]/TR[2]/TD[1]/TABLE[1]/TBODY[1]/TR[1]/TD[3]/A[1]/IMG[1]</text>
</g>
<!-- 3&#45;&gt;5 -->
<g id="edge36" class="edge"><title>3&#45;&gt;5</title>
<path fill="none" stroke="black" d="M445.424,-287.737C494.798,-287.724 590.91,-283.194 665,-252 677.041,-246.93 677.128,-240.87 688.241,-234 700.095,-226.672 713.716,-219.757 725.943,-214.039"/>
<polygon fill="black" stroke="black" points="727.747,-217.063 735.39,-209.726 724.84,-210.696 727.747,-217.063"/>
<text text-anchor="middle" x="731.379" y="-237.4" font-family="Times,serif" font-size="14.00">../A[1]/IMG[1]</text>
<text text-anchor="middle" x="454.444" y="-277.82" font-family="Times,serif" font-size="14.00">/HTML[1]/BODY[1]/DIV[1]/TABLE[1]/TBODY[1]/TR[2]/TD[1]/TABLE[1]/TBODY[1]/TR[1]/TD[4]/A[1]/IMG[1]</text>
</g>
<!-- 3&#45;&gt;6 -->
<g id="edge38" class="edge"><title>3&#45;&gt;6</title>
<path fill="none" stroke="black" d="M438.305,-276.599C469.542,-263.506 524.044,-239.834 569,-216 623.28,-187.223 634.357,-175.673 687,-144 696.261,-138.428 706.37,-132.408 715.563,-126.958"/>
<polygon fill="black" stroke="black" points="717.562,-129.842 724.384,-121.736 713.996,-123.818 717.562,-129.842"/>
<text text-anchor="middle" x="672.379" y="-192.4" font-family="Times,serif" font-size="14.00">../A[1]/IMG[1]</text>
<text text-anchor="middle" x="445.013" y="-263.581" font-family="Times,serif" font-size="14.00">/HTML[1]/BODY[1]/DIV[1]/TABLE[1]/TBODY[1]/TR[2]/TD[1]/TABLE[1]/TBODY[1]/TR[1]/TD[5]/A[1]/IMG[1]</text>
</g>
<!-- 3&#45;&gt;7 -->
<g id="edge40" class="edge"><title>3&#45;&gt;7</title>
<path fill="none" stroke="black" d="M415.343,-269.944C416.02,-264.249 416.666,-257.862 417,-252 419.301,-211.601 407.056,-202.285 403.241,-162 402.487,-154.036 399.492,-151.067 403.241,-144 460.066,-36.9043 623.528,-20.0771 702.4,-18.4036"/>
<polygon fill="black" stroke="black" points="702.544,-21.9021 712.495,-18.2631 702.447,-14.9028 702.544,-21.9021"/>
<text text-anchor="middle" x="446.379" y="-147.4" font-family="Times,serif" font-size="14.00">../A[1]/IMG[1]</text>
<text text-anchor="middle" x="412.197" y="-254.851" font-family="Times,serif" font-size="14.00">/HTML[1]/BODY[1]/DIV[1]/TABLE[1]/TBODY[1]/TR[2]/TD[1]/TABLE[1]/TBODY[1]/TR[1]/TD[6]/A[1]/IMG[1]</text>
</g>
<!-- 8 -->
<g id="node8" class="node"><title>8</title>
<ellipse fill="none" stroke="orange" cx="157" cy="-198" rx="33.3419" ry="18"/>
<text text-anchor="middle" x="157" y="-192.4" font-family="Times,serif" font-size="14.00">state7</text>
</g>
<!-- 3&#45;&gt;8 -->
<g id="edge26" class="edge"><title>3&#45;&gt;8</title>
<path fill="none" stroke="black" d="M380.887,-285.86C324.825,-283.275 212.12,-275.265 181.248,-252 172.731,-245.582 167.118,-235.466 163.46,-225.784"/>
<polygon fill="black" stroke="black" points="166.714,-224.47 160.316,-216.025 160.051,-226.617 166.714,-224.47"/>
<text text-anchor="middle" x="217.376" y="-237.4" font-family="Times,serif" font-size="14.00">../LI[2]/A[1]</text>
<text text-anchor="middle" x="371.618" y="-284.013" font-family="Times,serif" font-size="14.00">/HTML[1]/BODY[1]/DIV[1]/TABLE[1]/TBODY[1]/TR[1]/TD[1]/UL[1]/LI[2]/A[1]</text>
</g>
<!-- 9 -->
<g id="node9" class="node"><title>9</title>
<ellipse fill="none" stroke="orange" cx="251" cy="-198" rx="33.3419" ry="18"/>
<text text-anchor="middle" x="251" y="-192.4" font-family="Times,serif" font-size="14.00">state8</text>
</g>
<!-- 3&#45;&gt;9 -->
<g id="edge28" class="edge"><title>3&#45;&gt;9</title>
<path fill="none" stroke="black" d="M381.561,-283.238C343.538,-278.07 282.585,-267.603 266.248,-252 259.205,-245.274 255.351,-235.525 253.265,-226.218"/>
<polygon fill="black" stroke="black" points="256.673,-225.374 251.584,-216.082 249.767,-226.52 256.673,-225.374"/>
<text text-anchor="middle" x="302.376" y="-237.4" font-family="Times,serif" font-size="14.00">../LI[4]/A[1]</text>
<text text-anchor="middle" x="371.994" y="-280.547" font-family="Times,serif" font-size="14.00">/HTML[1]/BODY[1]/DIV[1]/TABLE[1]/TBODY[1]/TR[1]/TD[1]/UL[1]/LI[4]/A[1]</text>
</g>
<!-- 10 -->
<g id="node10" class="node"><title>10</title>
<ellipse fill="none" stroke="orange" cx="345" cy="-198" rx="33.3419" ry="18"/>
<text text-anchor="middle" x="345" y="-192.4" font-family="Times,serif" font-size="14.00">state9</text>
</g>
<!-- 3&#45;&gt;10 -->
<g id="edge30" class="edge"><title>3&#45;&gt;10</title>
<path fill="none" stroke="black" d="M384.201,-279.418C370.225,-274.147 354.67,-265.562 346.248,-252 341.553,-244.44 340.227,-235.03 340.394,-226.247"/>
<polygon fill="black" stroke="black" points="343.904,-226.256 341.213,-216.009 336.927,-225.698 343.904,-226.256"/>
<text text-anchor="middle" x="382.376" y="-237.4" font-family="Times,serif" font-size="14.00">../LI[5]/A[1]</text>
<text text-anchor="middle" x="374.218" y="-274.397" font-family="Times,serif" font-size="14.00">/HTML[1]/BODY[1]/DIV[1]/TABLE[1]/TBODY[1]/TR[1]/TD[1]/UL[1]/LI[5]/A[1]</text>
</g>
<!-- 5&#45;&gt;4 -->
<g id="edge12" class="edge"><title>5&#45;&gt;4</title>
<path fill="none" stroke="black" d="M734.855,-186.785C727.835,-184.306 720.194,-181.843 713,-180 664.688,-167.626 648.476,-180.697 602.241,-162 583.377,-154.371 564.58,-141.38 550.37,-130.17"/>
<polygon fill="black" stroke="black" points="552.535,-127.419 542.568,-123.829 548.121,-132.852 552.535,-127.419"/>
<text text-anchor="middle" x="645.379" y="-147.4" font-family="Times,serif" font-size="14.00">../A[1]/IMG[1]</text>
<text text-anchor="middle" x="724.905" y="-182.183" font-family="Times,serif" font-size="14.00">/HTML[1]/BODY[1]/DIV[1]/TABLE[1]/TBODY[1]/TR[2]/TD[1]/TABLE[1]/TBODY[1]/TR[1]/TD[3]/A[1]/IMG[1]</text>
</g>
<!-- 5&#45;&gt;6 -->
<g id="edge14" class="edge"><title>5&#45;&gt;6</title>
<path fill="none" stroke="black" d="M734.84,-186.83C717.875,-179.641 698.062,-169.916 693.241,-162 684.774,-148.096 697.258,-135.097 712.202,-125.453"/>
<polygon fill="black" stroke="black" points="714.308,-128.274 721.145,-120.18 710.753,-122.244 714.308,-128.274"/>
<text text-anchor="middle" x="736.379" y="-147.4" font-family="Times,serif" font-size="14.00">../A[1]/IMG[1]</text>
<text text-anchor="middle" x="724.844" y="-181.515" font-family="Times,serif" font-size="14.00">/HTML[1]/BODY[1]/DIV[1]/TABLE[1]/TBODY[1]/TR[2]/TD[1]/TABLE[1]/TBODY[1]/TR[1]/TD[5]/A[1]/IMG[1]</text>
</g>
<!-- 6&#45;&gt;5 -->
<g id="edge16" class="edge"><title>6&#45;&gt;5</title>
<path fill="none" stroke="black" d="M763.847,-123.6C769.486,-129.305 775.02,-136.325 778,-144 781.405,-152.77 779.761,-162.535 776.416,-171.27"/>
<polygon fill="black" stroke="black" points="773.128,-170.042 772.096,-180.586 779.478,-172.987 773.128,-170.042"/>
<text text-anchor="middle" x="822.379" y="-147.4" font-family="Times,serif" font-size="14.00">../A[1]/IMG[1]</text>
<text text-anchor="middle" x="773.178" y="-121.596" font-family="Times,serif" font-size="14.00">/HTML[1]/BODY[1]/DIV[1]/TABLE[1]/TBODY[1]/TR[2]/TD[1]/TABLE[1]/TBODY[1]/TR[1]/TD[4]/A[1]/IMG[1]</text>
</g>
<!-- 6&#45;&gt;7 -->
<g id="edge18" class="edge"><title>6&#45;&gt;7</title>
<path fill="none" stroke="black" d="M720.226,-96.5325C709.888,-90.9027 699.062,-82.8475 693.241,-72 689.458,-64.9509 689.458,-61.0491 693.241,-54 697.425,-46.2033 704.195,-39.8492 711.51,-34.8014"/>
<polygon fill="black" stroke="black" points="713.523,-37.6727 720.226,-29.4675 709.869,-31.702 713.523,-37.6727"/>
<text text-anchor="middle" x="736.379" y="-57.4" font-family="Times,serif" font-size="14.00">../A[1]/IMG[1]</text>
<text text-anchor="middle" x="710.257" y="-90.1423" font-family="Times,serif" font-size="14.00">/HTML[1]/BODY[1]/DIV[1]/TABLE[1]/TBODY[1]/TR[2]/TD[1]/TABLE[1]/TBODY[1]/TR[1]/TD[6]/A[1]/IMG[1]</text>
</g>
<!-- 7&#45;&gt;6 -->
<g id="edge20" class="edge"><title>7&#45;&gt;6</title>
<path fill="none" stroke="black" d="M763.847,-33.6004C769.486,-39.3054 775.02,-46.3249 778,-54 780.895,-61.4577 780.895,-64.5423 778,-72 776.231,-76.5571 773.561,-80.8831 770.503,-84.84"/>
<polygon fill="black" stroke="black" points="767.828,-82.5814 763.847,-92.3996 773.082,-87.2074 767.828,-82.5814"/>
<text text-anchor="middle" x="823.379" y="-57.4" font-family="Times,serif" font-size="14.00">../A[1]/IMG[1]</text>
<text text-anchor="middle" x="773.178" y="-31.5955" font-family="Times,serif" font-size="14.00">/HTML[1]/BODY[1]/DIV[1]/TABLE[1]/TBODY[1]/TR[2]/TD[1]/TABLE[1]/TBODY[1]/TR[1]/TD[5]/A[1]/IMG[1]</text>
</g>
</g>
</svg>
