<?xml version="1.0" encoding="UTF-8" standalone="no"?>
<!DOCTYPE svg PUBLIC "-//W3C//DTD SVG 1.1//EN"
 "http://www.w3.org/Graphics/SVG/1.1/DTD/svg11.dtd">
<!-- Generated by graphviz version 2.28.0 (20110509.1545)
 -->
<!-- Title: G Pages: 1 -->
<svg width="1968pt" height="134pt"
 viewBox="0.00 0.00 1968.05 134.00" xmlns="http://www.w3.org/2000/svg" xmlns:xlink="http://www.w3.org/1999/xlink">
<g id="graph1" class="graph" transform="scale(1 1) rotate(0) translate(4 130)">
<title>G</title>
<polygon fill="white" stroke="white" points="-4,5 -4,-130 1965.05,-130 1965.05,5 -4,5"/>
<!-- 1 -->
<g id="node1" class="node"><title>1</title>
<ellipse fill="none" stroke="orange" cx="940" cy="-108" rx="32.2368" ry="18"/>
<text text-anchor="middle" x="940" y="-102.4" font-family="Times,serif" font-size="14.00">index</text>
</g>
<!-- 2 -->
<g id="node2" class="node"><title>2</title>
<ellipse fill="none" stroke="orange" cx="33" cy="-18" rx="33.3419" ry="18"/>
<text text-anchor="middle" x="33" y="-12.4" font-family="Times,serif" font-size="14.00">state1</text>
</g>
<!-- 1&#45;&gt;2 -->
<g id="edge2" class="edge"><title>1&#45;&gt;2</title>
<path fill="none" stroke="black" d="M907.708,-106.659C752.985,-104.908 93.4529,-96.0537 57.4551,-72 48.4185,-65.9617 42.6613,-55.6806 39.0218,-45.7714"/>
<polygon fill="black" stroke="black" points="42.3463,-44.6746 36.0452,-36.1571 35.6594,-46.745 42.3463,-44.6746"/>
<text text-anchor="middle" x="114.772" y="-57.4" font-family="Times,serif" font-size="14.00">../STRONG[1]/A[1]</text>
<text text-anchor="middle" x="898.594" y="-105.173" font-family="Times,serif" font-size="14.00">/HTML[1]/BODY[1]/TABLE[1]/TBODY[1]/TR[5]/TD[1]/DIV[1]/CENTER[1]/TABLE[1]/TBODY[1]/TR[1]/TD[2]/P[1]/SPAN[1]/SPAN[1]/STRONG[1]/A[1]</text>
</g>
<!-- 3 -->
<g id="node3" class="node"><title>3</title>
<ellipse fill="none" stroke="orange" cx="170" cy="-18" rx="33.3419" ry="18"/>
<text text-anchor="middle" x="170" y="-12.4" font-family="Times,serif" font-size="14.00">state2</text>
</g>
<!-- 1&#45;&gt;3 -->
<g id="edge4" class="edge"><title>1&#45;&gt;3</title>
<path fill="none" stroke="black" d="M907.551,-106.532C766.789,-104.372 214.792,-94.4917 185.954,-72 178.053,-65.8373 173.941,-55.9008 171.843,-46.2878"/>
<polygon fill="black" stroke="black" points="175.266,-45.5216 170.273,-36.1773 168.349,-46.596 175.266,-45.5216"/>
<text text-anchor="middle" x="232.023" y="-57.4" font-family="Times,serif" font-size="14.00">../SPAN[1]/A[1]</text>
<text text-anchor="middle" x="898.42" y="-105.009" font-family="Times,serif" font-size="14.00">/HTML[1]/BODY[1]/TABLE[1]/TBODY[1]/TR[5]/TD[1]/DIV[1]/CENTER[1]/TABLE[1]/TBODY[1]/TR[2]/TD[2]/STRONG[1]/SPAN[1]/SPAN[1]/A[1]</text>
</g>
<!-- 4 -->
<g id="node4" class="node"><title>4</title>
<ellipse fill="none" stroke="orange" cx="330" cy="-18" rx="33.3419" ry="18"/>
<text text-anchor="middle" x="330" y="-12.4" font-family="Times,serif" font-size="14.00">state3</text>
</g>
<!-- 1&#45;&gt;4 -->
<g id="edge6" class="edge"><title>1&#45;&gt;4</title>
<path fill="none" stroke="black" d="M907.449,-106.487C778.269,-104.295 307.705,-94.7665 286.124,-72 275.78,-61.0874 286.216,-48.0925 299.498,-37.7014"/>
<polygon fill="black" stroke="black" points="301.897,-40.2876 307.975,-31.6098 297.812,-34.603 301.897,-40.2876"/>
<text text-anchor="middle" x="320.438" y="-57.4" font-family="Times,serif" font-size="14.00">../B[1]/A[1]</text>
<text text-anchor="middle" x="898.31" y="-104.946" font-family="Times,serif" font-size="14.00">/HTML[1]/BODY[1]/TABLE[1]/TBODY[1]/TR[5]/TD[1]/DIV[1]/CENTER[1]/TABLE[1]/TBODY[1]/TR[2]/TD[4]/B[1]/A[1]</text>
</g>
<!-- 5 -->
<g id="node5" class="node"><title>5</title>
<ellipse fill="none" stroke="orange" cx="522" cy="-18" rx="33.3419" ry="18"/>
<text text-anchor="middle" x="522" y="-12.4" font-family="Times,serif" font-size="14.00">state4</text>
</g>
<!-- 1&#45;&gt;5 -->
<g id="edge10" class="edge"><title>1&#45;&gt;5</title>
<path fill="none" stroke="black" d="M907.621,-107.095C805.621,-107.059 495.931,-104.272 465.954,-72 453.735,-58.8459 469.684,-44.9341 487.65,-34.6655"/>
<polygon fill="black" stroke="black" points="489.34,-37.7307 496.517,-29.9366 486.046,-31.5542 489.34,-37.7307"/>
<text text-anchor="middle" x="512.023" y="-57.4" font-family="Times,serif" font-size="14.00">../SPAN[1]/A[1]</text>
<text text-anchor="middle" x="898.544" y="-105.691" font-family="Times,serif" font-size="14.00">/HTML[1]/BODY[1]/TABLE[1]/TBODY[1]/TR[5]/TD[1]/DIV[1]/CENTER[1]/TABLE[1]/TBODY[1]/TR[3]/TD[2]/SPAN[1]/SPAN[1]/STRONG[1]/FONT[1]/SPAN[1]/A[1]</text>
</g>
<!-- 6 -->
<g id="node6" class="node"><title>6</title>
<ellipse fill="none" stroke="orange" cx="715" cy="-18" rx="33.3419" ry="18"/>
<text text-anchor="middle" x="715" y="-12.4" font-family="Times,serif" font-size="14.00">state5</text>
</g>
<!-- 1&#45;&gt;6 -->
<g id="edge14" class="edge"><title>1&#45;&gt;6</title>
<path fill="none" stroke="black" d="M907.989,-105.168C840.091,-100.956 686.559,-89.5741 671.124,-72 661.267,-60.7768 671.508,-47.8722 684.565,-37.6066"/>
<polygon fill="black" stroke="black" points="686.839,-40.2818 692.904,-31.5945 682.746,-34.6036 686.839,-40.2818"/>
<text text-anchor="middle" x="705.438" y="-57.4" font-family="Times,serif" font-size="14.00">../B[1]/A[1]</text>
<text text-anchor="middle" x="898.671" y="-103.197" font-family="Times,serif" font-size="14.00">/HTML[1]/BODY[1]/TABLE[1]/TBODY[1]/TR[5]/TD[1]/DIV[1]/CENTER[1]/TABLE[1]/TBODY[1]/TR[4]/TD[2]/B[1]/A[1]</text>
</g>
<!-- 7 -->
<g id="node7" class="node"><title>7</title>
<ellipse fill="none" stroke="orange" cx="895" cy="-18" rx="33.3419" ry="18"/>
<text text-anchor="middle" x="895" y="-12.4" font-family="Times,serif" font-size="14.00">state6</text>
</g>
<!-- 1&#45;&gt;7 -->
<g id="edge18" class="edge"><title>1&#45;&gt;7</title>
<path fill="none" stroke="black" d="M908.53,-103.516C888.466,-99.4821 863.911,-90.7787 851.124,-72 842.962,-60.0129 852.409,-47.4754 864.6,-37.6054"/>
<polygon fill="black" stroke="black" points="866.867,-40.2821 872.849,-31.5373 862.72,-34.6433 866.867,-40.2821"/>
<text text-anchor="middle" x="885.438" y="-57.4" font-family="Times,serif" font-size="14.00">../B[1]/A[1]</text>
<text text-anchor="middle" x="898.769" y="-100.088" font-family="Times,serif" font-size="14.00">/HTML[1]/BODY[1]/TABLE[1]/TBODY[1]/TR[5]/TD[1]/DIV[1]/CENTER[1]/TABLE[1]/TBODY[1]/TR[4]/TD[4]/B[1]/A[1]</text>
</g>
<!-- 8 -->
<g id="node8" class="node"><title>8</title>
<ellipse fill="none" stroke="orange" cx="1028" cy="-18" rx="33.3419" ry="18"/>
<text text-anchor="middle" x="1028" y="-12.4" font-family="Times,serif" font-size="14.00">state7</text>
</g>
<!-- 1&#45;&gt;8 -->
<g id="edge22" class="edge"><title>1&#45;&gt;8</title>
<path fill="none" stroke="black" d="M963.554,-95.5485C974.296,-89.5509 986.669,-81.4762 996,-72 1003.81,-64.0733 1010.53,-53.8929 1015.77,-44.5768"/>
<polygon fill="black" stroke="black" points="1018.91,-46.1378 1020.5,-35.6643 1012.72,-42.8548 1018.91,-46.1378"/>
<text text-anchor="middle" x="1057.05" y="-57.4" font-family="Times,serif" font-size="14.00">../FONT[1]/A[1]</text>
<text text-anchor="middle" x="969.337" y="-81.7904" font-family="Times,serif" font-size="14.00">/HTML[1]/BODY[1]/TABLE[1]/TBODY[1]/TR[5]/TD[1]/DIV[1]/CENTER[1]/TABLE[1]/TBODY[1]/TR[5]/TD[2]/B[1]/FONT[1]/A[1]</text>
</g>
<!-- 9 -->
<g id="node9" class="node"><title>9</title>
<ellipse fill="none" stroke="orange" cx="1203" cy="-18" rx="33.3419" ry="18"/>
<text text-anchor="middle" x="1203" y="-12.4" font-family="Times,serif" font-size="14.00">state8</text>
</g>
<!-- 1&#45;&gt;9 -->
<g id="edge24" class="edge"><title>1&#45;&gt;9</title>
<path fill="none" stroke="black" d="M971.446,-103.349C1005.81,-98.6995 1062.08,-89.1335 1108,-72 1120.97,-67.1621 1150.22,-50.4951 1172.86,-37.1275"/>
<polygon fill="black" stroke="black" points="1174.66,-40.1281 1181.48,-32.0139 1171.09,-34.1087 1174.66,-40.1281"/>
<text text-anchor="middle" x="1191.05" y="-57.4" font-family="Times,serif" font-size="14.00">../FONT[1]/A[1]</text>
<text text-anchor="middle" x="979.829" y="-92.2962" font-family="Times,serif" font-size="14.00">/HTML[1]/BODY[1]/TABLE[1]/TBODY[1]/TR[5]/TD[1]/DIV[1]/CENTER[1]/TABLE[1]/TBODY[1]/TR[5]/TD[4]/B[1]/FONT[1]/A[1]</text>
</g>
<!-- 1&#45;&gt;9 -->
<g id="edge26" class="edge"><title>1&#45;&gt;9</title>
<path fill="none" stroke="black" d="M972.064,-105.625C1045.79,-102.136 1222.39,-91.7797 1240,-72 1249.03,-61.8524 1241.25,-49.4497 1230.53,-39.1942"/>
<polygon fill="black" stroke="black" points="1232.66,-36.4067 1222.81,-32.4914 1228.07,-41.6915 1232.66,-36.4067"/>
<text text-anchor="middle" x="1291.05" y="-57.4" font-family="Times,serif" font-size="14.00">../FONT[1]/A[2]</text>
<text text-anchor="middle" x="980.903" y="-95.3489" font-family="Times,serif" font-size="14.00">/HTML[1]/BODY[1]/TABLE[1]/TBODY[1]/TR[5]/TD[1]/DIV[1]/CENTER[1]/TABLE[1]/TBODY[1]/TR[5]/TD[4]/B[1]/FONT[1]/A[2]</text>
</g>
<!-- 10 -->
<g id="node10" class="node"><title>10</title>
<ellipse fill="none" stroke="orange" cx="1379" cy="-18" rx="33.3419" ry="18"/>
<text text-anchor="middle" x="1379" y="-12.4" font-family="Times,serif" font-size="14.00">state9</text>
</g>
<!-- 1&#45;&gt;10 -->
<g id="edge28" class="edge"><title>1&#45;&gt;10</title>
<path fill="none" stroke="black" d="M972.253,-107.64C1056.21,-108.772 1279.38,-108.197 1342,-72 1352.79,-65.7657 1361.18,-54.9715 1367.22,-44.7446"/>
<polygon fill="black" stroke="black" points="1370.45,-46.1233 1372.11,-35.6592 1364.29,-42.805 1370.45,-46.1233"/>
<text text-anchor="middle" x="1408.05" y="-57.4" font-family="Times,serif" font-size="14.00">../FONT[1]/A[1]</text>
<text text-anchor="middle" x="981.353" y="-97.8936" font-family="Times,serif" font-size="14.00">/HTML[1]/BODY[1]/TABLE[1]/TBODY[1]/TR[5]/TD[1]/DIV[1]/CENTER[1]/TABLE[1]/TBODY[1]/TR[6]/TD[2]/B[1]/FONT[1]/A[1]</text>
</g>
<!-- 11 -->
<g id="node11" class="node"><title>11</title>
<ellipse fill="none" stroke="orange" cx="1541" cy="-18" rx="38.0859" ry="18"/>
<text text-anchor="middle" x="1541" y="-12.4" font-family="Times,serif" font-size="14.00">state12</text>
</g>
<!-- 1&#45;&gt;11 -->
<g id="edge34" class="edge"><title>1&#45;&gt;11</title>
<path fill="none" stroke="black" d="M972.324,-106.929C1071.15,-106.382 1368.04,-102.2 1459,-72 1479.63,-65.1498 1500.17,-51.8613 1515.53,-40.3047"/>
<polygon fill="black" stroke="black" points="1517.75,-43.013 1523.5,-34.1145 1513.46,-37.4848 1517.75,-43.013"/>
<text text-anchor="middle" x="1528.44" y="-57.4" font-family="Times,serif" font-size="14.00">../B[1]/A[1]</text>
<text text-anchor="middle" x="981.351" y="-97.0266" font-family="Times,serif" font-size="14.00">/HTML[1]/BODY[1]/TABLE[1]/TBODY[1]/TR[5]/TD[1]/DIV[1]/CENTER[1]/TABLE[1]/TBODY[1]/TR[7]/TD[4]/B[1]/A[1]</text>
</g>
<!-- 12 -->
<g id="node12" class="node"><title>12</title>
<ellipse fill="none" stroke="orange" cx="1700" cy="-18" rx="38.0859" ry="18"/>
<text text-anchor="middle" x="1700" y="-12.4" font-family="Times,serif" font-size="14.00">state13</text>
</g>
<!-- 1&#45;&gt;12 -->
<g id="edge38" class="edge"><title>1&#45;&gt;12</title>
<path fill="none" stroke="black" d="M972.313,-107.193C1105.35,-107.753 1606.59,-107.474 1667,-72 1677.2,-66.0102 1684.7,-55.4965 1689.95,-45.4041"/>
<polygon fill="black" stroke="black" points="1693.27,-46.5625 1694.31,-36.0185 1686.92,-43.6149 1693.27,-46.5625"/>
<text text-anchor="middle" x="1718.44" y="-57.4" font-family="Times,serif" font-size="14.00">../B[1]/A[1]</text>
<text text-anchor="middle" x="981.385" y="-97.3865" font-family="Times,serif" font-size="14.00">/HTML[1]/BODY[1]/TABLE[1]/TBODY[1]/TR[5]/TD[1]/DIV[1]/CENTER[1]/TABLE[1]/TBODY[1]/TR[8]/TD[2]/SPAN[1]/SPAN[1]/B[1]/A[1]</text>
</g>
<!-- 13 -->
<g id="node13" class="node"><title>13</title>
<ellipse fill="none" stroke="orange" cx="1795" cy="-18" rx="38.0859" ry="18"/>
<text text-anchor="middle" x="1795" y="-12.4" font-family="Times,serif" font-size="14.00">state10</text>
</g>
<!-- 1&#45;&gt;13 -->
<g id="edge30" class="edge"><title>1&#45;&gt;13</title>
<path fill="none" stroke="black" d="M972.684,-107.23C1116.01,-108.02 1684.94,-108.794 1755,-72 1766.45,-65.9887 1775.54,-55.0729 1782.15,-44.7032"/>
<polygon fill="black" stroke="black" points="1785.29,-46.2682 1787.31,-35.8682 1779.24,-42.7371 1785.29,-46.2682"/>
<text text-anchor="middle" x="1809.44" y="-57.4" font-family="Times,serif" font-size="14.00">../B[1]/A[1]</text>
<text text-anchor="middle" x="981.762" y="-97.4367" font-family="Times,serif" font-size="14.00">/HTML[1]/BODY[1]/TABLE[1]/TBODY[1]/TR[5]/TD[1]/DIV[1]/CENTER[1]/TABLE[1]/TBODY[1]/TR[6]/TD[4]/P[1]/B[1]/A[1]</text>
</g>
<!-- 14 -->
<g id="node14" class="node"><title>14</title>
<ellipse fill="none" stroke="orange" cx="1889" cy="-18" rx="38.0545" ry="18"/>
<text text-anchor="middle" x="1889" y="-12.4" font-family="Times,serif" font-size="14.00">state11</text>
</g>
<!-- 1&#45;&gt;14 -->
<g id="edge32" class="edge"><title>1&#45;&gt;14</title>
<path fill="none" stroke="black" d="M972.39,-107.321C1124.82,-108.621 1766.68,-111.684 1846,-72 1858.09,-65.9528 1867.94,-54.7727 1875.15,-44.2343"/>
<polygon fill="black" stroke="black" points="1878.19,-45.9815 1880.57,-35.6596 1872.27,-42.2386 1878.19,-45.9815"/>
<text text-anchor="middle" x="1914.02" y="-57.4" font-family="Times,serif" font-size="14.00">../SPAN[1]/A[1]</text>
<text text-anchor="middle" x="981.481" y="-97.5557" font-family="Times,serif" font-size="14.00">/HTML[1]/BODY[1]/TABLE[1]/TBODY[1]/TR[5]/TD[1]/DIV[1]/CENTER[1]/TABLE[1]/TBODY[1]/TR[7]/TD[2]/SPAN[1]/SPAN[1]/A[1]</text>
</g>
<!-- 4&#45;&gt;1 -->
<g id="edge8" class="edge"><title>4&#45;&gt;1</title>
<path fill="none" stroke="black" d="M342.96,-34.8772C354.23,-47.4106 371.76,-64.0627 391.124,-72 437.489,-91.0048 776.862,-102.375 897.549,-105.853"/>
<polygon fill="black" stroke="black" points="897.769,-109.361 907.864,-106.147 897.968,-102.364 897.769,-109.361"/>
<text text-anchor="middle" x="425.438" y="-57.4" font-family="Times,serif" font-size="14.00">../B[1]/A[1]</text>
<text text-anchor="middle" x="352.208" y="-33.0812" font-family="Times,serif" font-size="14.00">/HTML[1]/BODY[1]/P[1]/B[1]/A[1]</text>
</g>
<!-- 5&#45;&gt;1 -->
<g id="edge12" class="edge"><title>5&#45;&gt;1</title>
<path fill="none" stroke="black" d="M537.871,-33.9244C552.178,-46.4069 574.401,-63.4972 597.124,-72 651.227,-92.245 818.764,-101.861 897.85,-105.365"/>
<polygon fill="black" stroke="black" points="897.807,-108.867 907.949,-105.801 898.109,-101.873 897.807,-108.867"/>
<text text-anchor="middle" x="631.438" y="-57.4" font-family="Times,serif" font-size="14.00">../B[1]/A[1]</text>
<text text-anchor="middle" x="547.505" y="-31.0061" font-family="Times,serif" font-size="14.00">/HTML[1]/BODY[1]/DIV[1]/CENTER[1]/TABLE[1]/TBODY[1]/TR[2]/TD[1]/P[1]/FONT[1]/B[1]/A[1]</text>
</g>
<!-- 6&#45;&gt;1 -->
<g id="edge16" class="edge"><title>6&#45;&gt;1</title>
<path fill="none" stroke="black" d="M729.071,-34.3633C740.98,-46.4221 759.107,-62.6799 778.124,-72 816.263,-90.6916 864.286,-99.4657 898.087,-103.544"/>
<polygon fill="black" stroke="black" points="897.767,-107.03 908.094,-104.665 898.546,-100.073 897.767,-107.03"/>
<text text-anchor="middle" x="812.438" y="-57.4" font-family="Times,serif" font-size="14.00">../B[1]/A[1]</text>
<text text-anchor="middle" x="738.478" y="-32.1564" font-family="Times,serif" font-size="14.00">/HTML[1]/BODY[1]/DIV[1]/CENTER[1]/TABLE[1]/TBODY[1]/TR[1]/TD[1]/P[5]/B[1]/A[1]</text>
</g>
<!-- 7&#45;&gt;1 -->
<g id="edge20" class="edge"><title>7&#45;&gt;1</title>
<path fill="none" stroke="black" d="M906.42,-34.9939C910.34,-40.8299 914.595,-47.5758 918,-54 922.427,-62.3513 926.594,-71.792 930.086,-80.3676"/>
<polygon fill="black" stroke="black" points="926.928,-81.8996 933.851,-89.9201 933.44,-79.3331 926.928,-81.8996"/>
<text text-anchor="middle" x="959.662" y="-57.4" font-family="Times,serif" font-size="14.00">../P[2]/A[1]</text>
<text text-anchor="middle" x="914.964" y="-34.5891" font-family="Times,serif" font-size="14.00">/HTML[1]/BODY[1]/P[2]/A[1]</text>
</g>
<!-- 11&#45;&gt;1 -->
<g id="edge36" class="edge"><title>11&#45;&gt;1</title>
<path fill="none" stroke="black" d="M1556.44,-35.0126C1565.64,-46.4754 1573.79,-61.6503 1564,-72 1544.02,-93.1312 1119.77,-103.418 982.468,-106.202"/>
<polygon fill="black" stroke="black" points="982.261,-102.705 972.333,-106.405 982.401,-109.704 982.261,-102.705"/>
<text text-anchor="middle" x="1616.05" y="-57.4" font-family="Times,serif" font-size="14.00">../FONT[1]/A[1]</text>
<text text-anchor="middle" x="1565.31" y="-34.0412" font-family="Times,serif" font-size="14.00">/HTML[1]/BODY[1]/DIV[1]/CENTER[1]/TABLE[1]/TBODY[1]/TR[5]/TD[1]/P[1]/FONT[1]/A[1]</text>
</g>
</g>
</svg>
