<?xml version="1.0" encoding="UTF-8" standalone="no"?>
<!DOCTYPE svg PUBLIC "-//W3C//DTD SVG 1.1//EN"
 "http://www.w3.org/Graphics/SVG/1.1/DTD/svg11.dtd">
<!-- Generated by graphviz version 2.28.0 (20110509.1545)
 -->
<!-- Title: G Pages: 1 -->
<svg width="735pt" height="404pt"
 viewBox="0.00 0.00 734.75 404.00" xmlns="http://www.w3.org/2000/svg" xmlns:xlink="http://www.w3.org/1999/xlink">
<g id="graph1" class="graph" transform="scale(1 1) rotate(0) translate(4 400)">
<title>G</title>
<polygon fill="white" stroke="white" points="-4,5 -4,-400 731.752,-400 731.752,5 -4,5"/>
<!-- 1 -->
<g id="node1" class="node"><title>1</title>
<ellipse fill="none" stroke="orange" cx="279" cy="-378" rx="33.3419" ry="18"/>
<text text-anchor="middle" x="279" y="-372.4" font-family="Times,serif" font-size="14.00">state1</text>
</g>
<!-- 2 -->
<g id="node2" class="node"><title>2</title>
<ellipse fill="none" stroke="orange" cx="406" cy="-288" rx="33.3419" ry="18"/>
<text text-anchor="middle" x="406" y="-282.4" font-family="Times,serif" font-size="14.00">state2</text>
</g>
<!-- 1&#45;&gt;2 -->
<g id="edge6" class="edge"><title>1&#45;&gt;2</title>
<path fill="none" stroke="black" d="M285.354,-360.109C290.487,-348.522 298.755,-333.568 310.248,-324 325.857,-311.005 346.711,-302.628 364.972,-297.339"/>
<polygon fill="black" stroke="black" points="366.046,-300.676 374.801,-294.709 364.236,-293.913 366.046,-300.676"/>
<text text-anchor="middle" x="346.376" y="-327.4" font-family="Times,serif" font-size="14.00">../LI[3]/A[1]</text>
<text text-anchor="middle" x="285.285" y="-344.509" font-family="Times,serif" font-size="14.00">/HTML[1]/BODY[1]/DIV[1]/DIV[4]/DIV[1]/UL[1]/LI[3]/A[1]</text>
</g>
<!-- 3 -->
<g id="node3" class="node"><title>3</title>
<ellipse fill="none" stroke="orange" cx="278" cy="-18" rx="32.2368" ry="18"/>
<text text-anchor="middle" x="278" y="-12.4" font-family="Times,serif" font-size="14.00">index</text>
</g>
<!-- 1&#45;&gt;3 -->
<g id="edge4" class="edge"><title>1&#45;&gt;3</title>
<path fill="none" stroke="black" d="M246.449,-373.691C172.852,-365.307 0,-340.171 0,-289 0,-289 0,-289 0,-107 0,-58.106 158.278,-32.8955 235.977,-23.4654"/>
<polygon fill="black" stroke="black" points="236.859,-26.8856 246.381,-22.2386 236.039,-19.9338 236.859,-26.8856"/>
<text text-anchor="middle" x="35.376" y="-192.4" font-family="Times,serif" font-size="14.00">../LI[1]/A[1]</text>
<text text-anchor="middle" x="236.941" y="-371.187" font-family="Times,serif" font-size="14.00">/HTML[1]/BODY[1]/DIV[1]/DIV[4]/DIV[1]/UL[1]/LI[1]/A[1]</text>
</g>
<!-- 4 -->
<g id="node4" class="node"><title>4</title>
<ellipse fill="none" stroke="orange" cx="404" cy="-108" rx="33.3419" ry="18"/>
<text text-anchor="middle" x="404" y="-102.4" font-family="Times,serif" font-size="14.00">state3</text>
</g>
<!-- 1&#45;&gt;4 -->
<g id="edge32" class="edge"><title>1&#45;&gt;4</title>
<path fill="none" stroke="black" d="M312.272,-375.64C356.072,-372.969 434.907,-365.097 498,-342 570.65,-315.404 608.982,-319.379 647,-252 666.796,-216.916 666.631,-188.885 611,-144 586.468,-124.207 500.588,-115.182 447.46,-111.411"/>
<polygon fill="black" stroke="black" points="447.512,-107.906 437.299,-110.725 447.04,-114.89 447.512,-107.906"/>
<text text-anchor="middle" x="691.376" y="-237.4" font-family="Times,serif" font-size="14.00">../LI[4]/A[1]</text>
<text text-anchor="middle" x="321.025" y="-365.205" font-family="Times,serif" font-size="14.00">/HTML[1]/BODY[1]/DIV[1]/DIV[4]/DIV[1]/UL[1]/LI[4]/A[1]</text>
</g>
<!-- 5 -->
<g id="node5" class="node"><title>5</title>
<ellipse fill="none" stroke="orange" cx="229" cy="-198" rx="33.3419" ry="18"/>
<text text-anchor="middle" x="229" y="-192.4" font-family="Times,serif" font-size="14.00">state4</text>
</g>
<!-- 1&#45;&gt;5 -->
<g id="edge34" class="edge"><title>1&#45;&gt;5</title>
<path fill="none" stroke="black" d="M249.427,-369.671C219.199,-360.426 173.851,-341.293 153.248,-306 134.426,-273.758 170.825,-238.904 199.407,-218.023"/>
<polygon fill="black" stroke="black" points="201.79,-220.625 207.956,-212.009 197.763,-214.9 201.79,-220.625"/>
<text text-anchor="middle" x="189.376" y="-282.4" font-family="Times,serif" font-size="14.00">../LI[5]/A[1]</text>
<text text-anchor="middle" x="239.503" y="-365.294" font-family="Times,serif" font-size="14.00">/HTML[1]/BODY[1]/DIV[1]/DIV[4]/DIV[1]/UL[1]/LI[5]/A[1]</text>
</g>
<!-- 2&#45;&gt;1 -->
<g id="edge10" class="edge"><title>2&#45;&gt;1</title>
<path fill="none" stroke="black" d="M401.789,-305.932C398.093,-317.538 391.611,-332.499 381,-342 364.296,-356.958 340.897,-365.58 320.723,-370.522"/>
<polygon fill="black" stroke="black" points="319.823,-367.136 310.822,-372.724 321.343,-373.969 319.823,-367.136"/>
<text text-anchor="middle" x="430.376" y="-327.4" font-family="Times,serif" font-size="14.00">../LI[2]/A[1]</text>
<text text-anchor="middle" x="402.926" y="-310.267" font-family="Times,serif" font-size="14.00">/HTML[1]/BODY[1]/DIV[1]/DIV[4]/DIV[1]/UL[1]/LI[2]/A[1]</text>
</g>
<!-- 2&#45;&gt;3 -->
<g id="edge8" class="edge"><title>2&#45;&gt;3</title>
<path fill="none" stroke="black" d="M439.14,-286.124C469.944,-283.735 515.66,-275.998 547,-252 588.996,-219.842 612.328,-194.625 597,-144 583.069,-97.9887 577.768,-79.4775 537,-54 501.736,-31.9618 384.192,-23.5394 320.272,-20.5329"/>
<polygon fill="black" stroke="black" points="320.264,-17.0292 310.118,-20.0797 319.952,-24.0222 320.264,-17.0292"/>
<text text-anchor="middle" x="636.376" y="-147.4" font-family="Times,serif" font-size="14.00">../LI[1]/A[1]</text>
<text text-anchor="middle" x="447.778" y="-275.486" font-family="Times,serif" font-size="14.00">/HTML[1]/BODY[1]/DIV[1]/DIV[4]/DIV[1]/UL[1]/LI[1]/A[1]</text>
</g>
<!-- 2&#45;&gt;4 -->
<g id="edge12" class="edge"><title>2&#45;&gt;4</title>
<path fill="none" stroke="black" d="M406.632,-269.78C406.135,-258.341 403.611,-243.697 395,-234 378.271,-215.162 355.965,-236.448 341.248,-216 331.902,-203.014 331.902,-192.986 341.248,-180 355.965,-159.552 378.617,-181.14 395,-162 401.02,-154.967 403.726,-145.428 404.782,-136.38"/>
<polygon fill="black" stroke="black" points="408.29,-136.347 405.365,-126.164 401.301,-135.949 408.29,-136.347"/>
<text text-anchor="middle" x="377.376" y="-192.4" font-family="Times,serif" font-size="14.00">../LI[4]/A[1]</text>
<text text-anchor="middle" x="401.863" y="-255.39" font-family="Times,serif" font-size="14.00">/HTML[1]/BODY[1]/DIV[1]/DIV[4]/DIV[1]/UL[1]/LI[4]/A[1]</text>
</g>
<!-- 2&#45;&gt;5 -->
<g id="edge30" class="edge"><title>2&#45;&gt;5</title>
<path fill="none" stroke="black" d="M379.03,-277.449C362.68,-271.178 341.681,-262.254 324.248,-252 312.984,-245.375 312.102,-240.893 301,-234 289.261,-226.711 275.78,-219.804 263.681,-214.083"/>
<polygon fill="black" stroke="black" points="264.88,-210.781 254.334,-209.764 261.944,-217.136 264.88,-210.781"/>
<text text-anchor="middle" x="360.376" y="-237.4" font-family="Times,serif" font-size="14.00">../LI[5]/A[1]</text>
<text text-anchor="middle" x="369.051" y="-272.501" font-family="Times,serif" font-size="14.00">/HTML[1]/BODY[1]/DIV[1]/DIV[4]/DIV[1]/UL[1]/LI[5]/A[1]</text>
</g>
<!-- 3&#45;&gt;1 -->
<g id="edge2" class="edge"><title>3&#45;&gt;1</title>
<path fill="none" stroke="black" d="M246.237,-21.2545C196.785,-26.6823 107,-45.0653 107,-107 107,-289 107,-289 107,-289 107,-346.897 185.194,-366.726 236.137,-373.501"/>
<polygon fill="black" stroke="black" points="235.895,-376.997 246.243,-374.723 236.736,-370.048 235.895,-376.997"/>
<text text-anchor="middle" x="142.376" y="-192.4" font-family="Times,serif" font-size="14.00">../LI[2]/A[1]</text>
<text text-anchor="middle" x="237.787" y="-21.0026" font-family="Times,serif" font-size="14.00">/HTML[1]/BODY[1]/DIV[1]/DIV[4]/DIV[1]/UL[1]/LI[2]/A[1]</text>
</g>
<!-- 3&#45;&gt;2 -->
<g id="edge36" class="edge"><title>3&#45;&gt;2</title>
<path fill="none" stroke="black" d="M309.853,-21.0977C356.108,-24.7935 438.681,-34.0468 460,-54 492.336,-84.2646 515.219,-169.188 493,-216 481.764,-239.673 458.342,-258.061 438.629,-270.186"/>
<polygon fill="black" stroke="black" points="436.744,-267.234 429.89,-275.314 440.286,-273.272 436.744,-267.234"/>
<text text-anchor="middle" x="537.376" y="-147.4" font-family="Times,serif" font-size="14.00">../LI[3]/A[1]</text>
<text text-anchor="middle" x="319.245" y="-12.0648" font-family="Times,serif" font-size="14.00">/HTML[1]/BODY[1]/DIV[1]/DIV[4]/DIV[1]/UL[1]/LI[3]/A[1]</text>
</g>
<!-- 3&#45;&gt;4 -->
<g id="edge38" class="edge"><title>3&#45;&gt;4</title>
<path fill="none" stroke="black" d="M279.587,-36.3923C281.517,-47.9084 285.79,-62.5731 295.248,-72 305.12,-81.8396 336.931,-91.4244 363.616,-98.0685"/>
<polygon fill="black" stroke="black" points="362.994,-101.519 373.536,-100.465 364.638,-94.7146 362.994,-101.519"/>
<text text-anchor="middle" x="331.376" y="-57.4" font-family="Times,serif" font-size="14.00">../LI[4]/A[1]</text>
<text text-anchor="middle" x="285.385" y="-38.94" font-family="Times,serif" font-size="14.00">/HTML[1]/BODY[1]/DIV[1]/DIV[4]/DIV[1]/UL[1]/LI[4]/A[1]</text>
</g>
<!-- 3&#45;&gt;5 -->
<g id="edge40" class="edge"><title>3&#45;&gt;5</title>
<path fill="none" stroke="black" d="M274.401,-36.1956C269.142,-58.4486 257.767,-97.715 238,-126 230.958,-136.076 222.137,-132.832 217,-144 213.105,-152.469 214.004,-162.297 216.578,-171.172"/>
<polygon fill="black" stroke="black" points="213.322,-172.462 220.028,-180.665 219.901,-170.071 213.322,-172.462"/>
<text text-anchor="middle" x="292.376" y="-102.4" font-family="Times,serif" font-size="14.00">../LI[5]/A[1]</text>
<text text-anchor="middle" x="276.337" y="-40.4065" font-family="Times,serif" font-size="14.00">/HTML[1]/BODY[1]/DIV[1]/DIV[4]/DIV[1]/UL[1]/LI[5]/A[1]</text>
</g>
<!-- 4&#45;&gt;1 -->
<g id="edge16" class="edge"><title>4&#45;&gt;1</title>
<path fill="none" stroke="black" d="M437.322,-110.155C486.622,-112.643 575.306,-120.369 595,-144 600.122,-150.146 596.94,-154.239 595,-162 571.316,-256.737 553.772,-293.526 469,-342 423.599,-367.961 363.016,-375.282 322.59,-377.038"/>
<polygon fill="black" stroke="black" points="322.39,-373.542 312.514,-377.378 322.626,-380.538 322.39,-373.542"/>
<text text-anchor="middle" x="608.376" y="-237.4" font-family="Times,serif" font-size="14.00">../LI[2]/A[1]</text>
<text text-anchor="middle" x="446.614" y="-100.857" font-family="Times,serif" font-size="14.00">/HTML[1]/BODY[1]/DIV[1]/DIV[4]/DIV[1]/UL[1]/LI[2]/A[1]</text>
</g>
<!-- 4&#45;&gt;2 -->
<g id="edge18" class="edge"><title>4&#45;&gt;2</title>
<path fill="none" stroke="black" d="M409.85,-125.885C411.542,-131.568 413.159,-137.992 414,-144 420.658,-191.536 419.382,-204.303 414,-252 413.696,-254.694 413.264,-257.484 412.757,-260.258"/>
<polygon fill="black" stroke="black" points="409.333,-259.534 410.683,-270.042 416.181,-260.986 409.333,-259.534"/>
<text text-anchor="middle" x="454.376" y="-192.4" font-family="Times,serif" font-size="14.00">../LI[3]/A[1]</text>
<text text-anchor="middle" x="416.45" y="-127.798" font-family="Times,serif" font-size="14.00">/HTML[1]/BODY[1]/DIV[1]/DIV[4]/DIV[1]/UL[1]/LI[3]/A[1]</text>
</g>
<!-- 4&#45;&gt;3 -->
<g id="edge14" class="edge"><title>4&#45;&gt;3</title>
<path fill="none" stroke="black" d="M396.702,-90.1579C390.936,-78.5934 381.882,-63.647 370,-54 354.917,-41.754 335.087,-33.4821 317.7,-28.0697"/>
<polygon fill="black" stroke="black" points="318.378,-24.6225 307.8,-25.2049 316.433,-31.3466 318.378,-24.6225"/>
<text text-anchor="middle" x="421.376" y="-57.4" font-family="Times,serif" font-size="14.00">../LI[1]/A[1]</text>
<text text-anchor="middle" x="388.804" y="-78.4241" font-family="Times,serif" font-size="14.00">/HTML[1]/BODY[1]/DIV[1]/DIV[4]/DIV[1]/UL[1]/LI[1]/A[1]</text>
</g>
<!-- 4&#45;&gt;5 -->
<g id="edge20" class="edge"><title>4&#45;&gt;5</title>
<path fill="none" stroke="black" d="M377.339,-118.792C361.448,-125.089 341.146,-133.958 324.248,-144 313.014,-150.676 312.102,-155.107 301,-162 289.261,-169.289 275.78,-176.196 263.681,-181.917"/>
<polygon fill="black" stroke="black" points="261.944,-178.864 254.334,-186.236 264.88,-185.219 261.944,-178.864"/>
<text text-anchor="middle" x="360.376" y="-147.4" font-family="Times,serif" font-size="14.00">../LI[5]/A[1]</text>
<text text-anchor="middle" x="370.504" y="-120.492" font-family="Times,serif" font-size="14.00">/HTML[1]/BODY[1]/DIV[1]/DIV[4]/DIV[1]/UL[1]/LI[5]/A[1]</text>
</g>
<!-- 5&#45;&gt;1 -->
<g id="edge24" class="edge"><title>5&#45;&gt;1</title>
<path fill="none" stroke="black" d="M222.814,-215.797C219.783,-226.263 217.305,-239.979 220,-252 222.317,-262.337 249.505,-317.88 266.154,-351.352"/>
<polygon fill="black" stroke="black" points="263.148,-353.167 270.742,-360.554 269.413,-350.043 263.148,-353.167"/>
<text text-anchor="middle" x="279.376" y="-282.4" font-family="Times,serif" font-size="14.00">../LI[2]/A[1]</text>
<text text-anchor="middle" x="224.488" y="-220.056" font-family="Times,serif" font-size="14.00">/HTML[1]/BODY[1]/DIV[1]/DIV[4]/DIV[1]/UL[1]/LI[2]/A[1]</text>
</g>
<!-- 5&#45;&gt;2 -->
<g id="edge26" class="edge"><title>5&#45;&gt;2</title>
<path fill="none" stroke="black" d="M224.266,-216.268C222.242,-227.729 221.957,-242.378 230.248,-252 245.524,-269.726 311.075,-265.309 334,-270 344.584,-272.166 355.987,-274.744 366.527,-277.229"/>
<polygon fill="black" stroke="black" points="365.773,-280.647 376.313,-279.567 367.4,-273.839 365.773,-280.647"/>
<text text-anchor="middle" x="266.376" y="-237.4" font-family="Times,serif" font-size="14.00">../LI[3]/A[1]</text>
<text text-anchor="middle" x="227.049" y="-220.273" font-family="Times,serif" font-size="14.00">/HTML[1]/BODY[1]/DIV[1]/DIV[4]/DIV[1]/UL[1]/LI[3]/A[1]</text>
</g>
<!-- 5&#45;&gt;3 -->
<g id="edge22" class="edge"><title>5&#45;&gt;3</title>
<path fill="none" stroke="black" d="M206.79,-184.137C198.152,-178.267 188.735,-170.681 182,-162 161.978,-136.191 151.577,-118.66 167.248,-90 182.891,-61.391 215.529,-42.6102 241.343,-31.593"/>
<polygon fill="black" stroke="black" points="242.895,-34.7409 250.853,-27.7464 240.27,-28.2517 242.895,-34.7409"/>
<text text-anchor="middle" x="203.376" y="-102.4" font-family="Times,serif" font-size="14.00">../LI[1]/A[1]</text>
<text text-anchor="middle" x="196.935" y="-176.843" font-family="Times,serif" font-size="14.00">/HTML[1]/BODY[1]/DIV[1]/DIV[4]/DIV[1]/UL[1]/LI[1]/A[1]</text>
</g>
<!-- 5&#45;&gt;4 -->
<g id="edge28" class="edge"><title>5&#45;&gt;4</title>
<path fill="none" stroke="black" d="M222.682,-180.279C219.517,-168.772 217.912,-153.844 226.248,-144 241.936,-125.473 310.216,-130.868 334,-126 343.912,-123.971 354.549,-121.527 364.464,-119.133"/>
<polygon fill="black" stroke="black" points="365.598,-122.459 374.475,-116.675 363.928,-115.66 365.598,-122.459"/>
<text text-anchor="middle" x="262.376" y="-147.4" font-family="Times,serif" font-size="14.00">../LI[4]/A[1]</text>
<text text-anchor="middle" x="216.368" y="-166.925" font-family="Times,serif" font-size="14.00">/HTML[1]/BODY[1]/DIV[1]/DIV[4]/DIV[1]/UL[1]/LI[4]/A[1]</text>
</g>
</g>
</svg>
