<?xml version="1.0" encoding="UTF-8" standalone="no"?>
<!DOCTYPE svg PUBLIC "-//W3C//DTD SVG 1.1//EN"
 "http://www.w3.org/Graphics/SVG/1.1/DTD/svg11.dtd">
<!-- Generated by graphviz version 2.28.0 (20110509.1545)
 -->
<!-- Title: G Pages: 1 -->
<svg width="1470pt" height="224pt"
 viewBox="0.00 0.00 1470.24 224.00" xmlns="http://www.w3.org/2000/svg" xmlns:xlink="http://www.w3.org/1999/xlink">
<g id="graph1" class="graph" transform="scale(1 1) rotate(0) translate(4 220)">
<title>G</title>
<polygon fill="white" stroke="white" points="-4,5 -4,-220 1467.24,-220 1467.24,5 -4,5"/>
<!-- 1 -->
<g id="node1" class="node"><title>1</title>
<ellipse fill="none" stroke="orange" cx="801.037" cy="-198" rx="32.2368" ry="18"/>
<text text-anchor="middle" x="801.037" y="-192.4" font-family="Times,serif" font-size="14.00">index</text>
</g>
<!-- 2 -->
<g id="node2" class="node"><title>2</title>
<ellipse fill="none" stroke="orange" cx="231.037" cy="-108" rx="33.3419" ry="18"/>
<text text-anchor="middle" x="231.037" y="-102.4" font-family="Times,serif" font-size="14.00">state1</text>
</g>
<!-- 1&#45;&gt;2 -->
<g id="edge2" class="edge"><title>1&#45;&gt;2</title>
<path fill="none" stroke="black" d="M768.595,-196.462C659.893,-194.442 312.89,-186.146 269.285,-162 258.152,-155.835 249.433,-144.901 243.149,-134.558"/>
<polygon fill="black" stroke="black" points="246.174,-132.795 238.255,-125.756 240.056,-136.197 246.174,-132.795"/>
<text text-anchor="middle" x="305.413" y="-147.4" font-family="Times,serif" font-size="14.00">../LI[1]/A[1]</text>
<text text-anchor="middle" x="759.448" y="-194.902" font-family="Times,serif" font-size="14.00">/HTML[1]/BODY[1]/TABLE[1]/TBODY[1]/TR[2]/TD[1]/TABLE[1]/TBODY[1]/TR[1]/TD[2]/UL[1]/LI[1]/A[1]</text>
</g>
<!-- 3 -->
<g id="node3" class="node"><title>3</title>
<ellipse fill="none" stroke="orange" cx="325.037" cy="-108" rx="33.3419" ry="18"/>
<text text-anchor="middle" x="325.037" y="-102.4" font-family="Times,serif" font-size="14.00">state2</text>
</g>
<!-- 1&#45;&gt;3 -->
<g id="edge4" class="edge"><title>1&#45;&gt;3</title>
<path fill="none" stroke="black" d="M768.716,-196C673.303,-192.83 397.329,-182.014 362.285,-162 351.443,-155.808 343,-145.02 336.913,-134.785"/>
<polygon fill="black" stroke="black" points="339.827,-132.815 331.985,-125.69 333.672,-136.15 339.827,-132.815"/>
<text text-anchor="middle" x="398.413" y="-147.4" font-family="Times,serif" font-size="14.00">../LI[3]/A[1]</text>
<text text-anchor="middle" x="759.51" y="-194.305" font-family="Times,serif" font-size="14.00">/HTML[1]/BODY[1]/TABLE[1]/TBODY[1]/TR[2]/TD[1]/TABLE[1]/TBODY[1]/TR[1]/TD[2]/UL[1]/LI[3]/A[1]</text>
</g>
<!-- 5 -->
<g id="node5" class="node"><title>5</title>
<ellipse fill="none" stroke="orange" cx="419.037" cy="-108" rx="33.3419" ry="18"/>
<text text-anchor="middle" x="419.037" y="-102.4" font-family="Times,serif" font-size="14.00">state4</text>
</g>
<!-- 1&#45;&gt;5 -->
<g id="edge8" class="edge"><title>1&#45;&gt;5</title>
<path fill="none" stroke="black" d="M768.649,-197.139C693.118,-196.928 507.743,-193.154 455.285,-162 444.718,-155.724 436.529,-145.024 430.631,-134.874"/>
<polygon fill="black" stroke="black" points="433.626,-133.052 425.855,-125.85 427.439,-136.326 433.626,-133.052"/>
<text text-anchor="middle" x="491.413" y="-147.4" font-family="Times,serif" font-size="14.00">../LI[5]/A[1]</text>
<text text-anchor="middle" x="759.554" y="-195.697" font-family="Times,serif" font-size="14.00">/HTML[1]/BODY[1]/TABLE[1]/TBODY[1]/TR[2]/TD[1]/TABLE[1]/TBODY[1]/TR[1]/TD[2]/UL[1]/LI[5]/A[1]</text>
</g>
<!-- 6 -->
<g id="node6" class="node"><title>6</title>
<ellipse fill="none" stroke="orange" cx="513.037" cy="-108" rx="33.3419" ry="18"/>
<text text-anchor="middle" x="513.037" y="-102.4" font-family="Times,serif" font-size="14.00">state5</text>
</g>
<!-- 1&#45;&gt;6 -->
<g id="edge10" class="edge"><title>1&#45;&gt;6</title>
<path fill="none" stroke="black" d="M768.92,-195.931C708.89,-193.398 582.472,-185.376 546.285,-162 536.397,-155.613 528.923,-145.136 523.591,-135.177"/>
<polygon fill="black" stroke="black" points="526.628,-133.418 519.126,-125.937 520.325,-136.463 526.628,-133.418"/>
<text text-anchor="middle" x="582.413" y="-147.4" font-family="Times,serif" font-size="14.00">../LI[7]/A[1]</text>
<text text-anchor="middle" x="759.668" y="-194.126" font-family="Times,serif" font-size="14.00">/HTML[1]/BODY[1]/TABLE[1]/TBODY[1]/TR[2]/TD[1]/TABLE[1]/TBODY[1]/TR[1]/TD[2]/UL[1]/LI[7]/A[1]</text>
</g>
<!-- 7 -->
<g id="node7" class="node"><title>7</title>
<ellipse fill="none" stroke="orange" cx="607.037" cy="-108" rx="33.3419" ry="18"/>
<text text-anchor="middle" x="607.037" y="-102.4" font-family="Times,serif" font-size="14.00">state6</text>
</g>
<!-- 1&#45;&gt;7 -->
<g id="edge12" class="edge"><title>1&#45;&gt;7</title>
<path fill="none" stroke="black" d="M768.777,-197.947C732.769,-197.38 674.428,-191.425 635.285,-162 626.409,-155.328 620.029,-145.034 615.605,-135.287"/>
<polygon fill="black" stroke="black" points="618.796,-133.844 611.812,-125.877 612.304,-136.46 618.796,-133.844"/>
<text text-anchor="middle" x="671.413" y="-147.4" font-family="Times,serif" font-size="14.00">../LI[9]/A[1]</text>
<text text-anchor="middle" x="759.589" y="-196.294" font-family="Times,serif" font-size="14.00">/HTML[1]/BODY[1]/TABLE[1]/TBODY[1]/TR[2]/TD[1]/TABLE[1]/TBODY[1]/TR[1]/TD[2]/UL[1]/LI[9]/A[1]</text>
</g>
<!-- 8 -->
<g id="node8" class="node"><title>8</title>
<ellipse fill="none" stroke="orange" cx="701.037" cy="-108" rx="33.3419" ry="18"/>
<text text-anchor="middle" x="701.037" y="-102.4" font-family="Times,serif" font-size="14.00">state7</text>
</g>
<!-- 1&#45;&gt;8 -->
<g id="edge14" class="edge"><title>1&#45;&gt;8</title>
<path fill="none" stroke="black" d="M771.281,-190.505C754.173,-185.377 733.437,-176.579 719.797,-162 713.111,-154.853 708.785,-145.174 705.995,-136.043"/>
<polygon fill="black" stroke="black" points="709.328,-134.949 703.455,-126.131 702.547,-136.687 709.328,-134.949"/>
<text text-anchor="middle" x="758.656" y="-147.4" font-family="Times,serif" font-size="14.00">../LI[11]/A[1]</text>
<text text-anchor="middle" x="761.367" y="-186.208" font-family="Times,serif" font-size="14.00">/HTML[1]/BODY[1]/TABLE[1]/TBODY[1]/TR[2]/TD[1]/TABLE[1]/TBODY[1]/TR[1]/TD[2]/UL[1]/LI[11]/A[1]</text>
</g>
<!-- 9 -->
<g id="node9" class="node"><title>9</title>
<ellipse fill="none" stroke="orange" cx="801.037" cy="-108" rx="33.3419" ry="18"/>
<text text-anchor="middle" x="801.037" y="-102.4" font-family="Times,serif" font-size="14.00">state8</text>
</g>
<!-- 1&#45;&gt;9 -->
<g id="edge16" class="edge"><title>1&#45;&gt;9</title>
<path fill="none" stroke="black" d="M801.037,-179.614C801.037,-167.24 801.037,-150.369 801.037,-136.22"/>
<polygon fill="black" stroke="black" points="804.537,-136.05 801.037,-126.05 797.537,-136.05 804.537,-136.05"/>
<text text-anchor="middle" x="839.913" y="-147.4" font-family="Times,serif" font-size="14.00">../LI[13]/A[1]</text>
<text text-anchor="middle" x="796.811" y="-164.951" font-family="Times,serif" font-size="14.00">/HTML[1]/BODY[1]/TABLE[1]/TBODY[1]/TR[2]/TD[1]/TABLE[1]/TBODY[1]/TR[1]/TD[2]/UL[1]/LI[13]/A[1]</text>
</g>
<!-- 10 -->
<g id="node10" class="node"><title>10</title>
<ellipse fill="none" stroke="orange" cx="902.037" cy="-108" rx="33.3419" ry="18"/>
<text text-anchor="middle" x="902.037" y="-102.4" font-family="Times,serif" font-size="14.00">state9</text>
</g>
<!-- 1&#45;&gt;10 -->
<g id="edge18" class="edge"><title>1&#45;&gt;10</title>
<path fill="none" stroke="black" d="M830.091,-189.926C846.561,-184.623 866.516,-175.844 880.037,-162 887.091,-154.777 892.008,-144.967 895.374,-135.75"/>
<polygon fill="black" stroke="black" points="898.738,-136.723 898.446,-126.132 892.07,-134.593 898.738,-136.723"/>
<text text-anchor="middle" x="930.913" y="-147.4" font-family="Times,serif" font-size="14.00">../LI[15]/A[1]</text>
<text text-anchor="middle" x="837.33" y="-177.427" font-family="Times,serif" font-size="14.00">/HTML[1]/BODY[1]/TABLE[1]/TBODY[1]/TR[2]/TD[1]/TABLE[1]/TBODY[1]/TR[1]/TD[2]/UL[1]/LI[15]/A[1]</text>
</g>
<!-- 11 -->
<g id="node11" class="node"><title>11</title>
<ellipse fill="none" stroke="orange" cx="1003.04" cy="-108" rx="38.0859" ry="18"/>
<text text-anchor="middle" x="1003.04" y="-102.4" font-family="Times,serif" font-size="14.00">state12</text>
</g>
<!-- 1&#45;&gt;11 -->
<g id="edge24" class="edge"><title>1&#45;&gt;11</title>
<path fill="none" stroke="black" d="M832.733,-193.714C876.091,-188.694 951.032,-177.984 973.037,-162 982.147,-155.382 988.87,-145.098 993.614,-135.343"/>
<polygon fill="black" stroke="black" points="996.933,-136.486 997.714,-125.92 990.515,-133.693 996.933,-136.486"/>
<text text-anchor="middle" x="1027.14" y="-147.4" font-family="Times,serif" font-size="14.00">../TD[2]/A[1]</text>
<text text-anchor="middle" x="841.223" y="-182.831" font-family="Times,serif" font-size="14.00">/HTML[1]/BODY[1]/TABLE[1]/TBODY[1]/TR[1]/TD[1]/TABLE[1]/TBODY[1]/TR[1]/TD[2]/A[1]</text>
</g>
<!-- 12 -->
<g id="node12" class="node"><title>12</title>
<ellipse fill="none" stroke="orange" cx="1102.04" cy="-108" rx="38.0859" ry="18"/>
<text text-anchor="middle" x="1102.04" y="-102.4" font-family="Times,serif" font-size="14.00">state13</text>
</g>
<!-- 1&#45;&gt;12 -->
<g id="edge26" class="edge"><title>1&#45;&gt;12</title>
<path fill="none" stroke="black" d="M833.363,-196.187C895.899,-194.07 1030.67,-186.697 1069.04,-162 1078.91,-155.643 1086.34,-145.171 1091.62,-135.206"/>
<polygon fill="black" stroke="black" points="1094.89,-136.492 1096.04,-125.96 1088.57,-133.474 1094.89,-136.492"/>
<text text-anchor="middle" x="1124.14" y="-147.4" font-family="Times,serif" font-size="14.00">../TD[2]/A[3]</text>
<text text-anchor="middle" x="842.255" y="-186.013" font-family="Times,serif" font-size="14.00">/HTML[1]/BODY[1]/TABLE[1]/TBODY[1]/TR[1]/TD[1]/TABLE[1]/TBODY[1]/TR[1]/TD[2]/A[3]</text>
</g>
<!-- 13 -->
<g id="node13" class="node"><title>13</title>
<ellipse fill="none" stroke="orange" cx="1201.04" cy="-108" rx="38.0859" ry="18"/>
<text text-anchor="middle" x="1201.04" y="-102.4" font-family="Times,serif" font-size="14.00">state10</text>
</g>
<!-- 1&#45;&gt;13 -->
<g id="edge20" class="edge"><title>1&#45;&gt;13</title>
<path fill="none" stroke="black" d="M833.499,-197.398C912.139,-197.813 1110.46,-195.42 1166.04,-162 1176.46,-155.735 1184.39,-145.037 1190.05,-134.885"/>
<polygon fill="black" stroke="black" points="1193.23,-136.362 1194.61,-125.859 1186.98,-133.204 1193.23,-136.362"/>
<text text-anchor="middle" x="1223.91" y="-147.4" font-family="Times,serif" font-size="14.00">../LI[17]/A[1]</text>
<text text-anchor="middle" x="842.564" y="-187.576" font-family="Times,serif" font-size="14.00">/HTML[1]/BODY[1]/TABLE[1]/TBODY[1]/TR[2]/TD[1]/TABLE[1]/TBODY[1]/TR[1]/TD[2]/UL[1]/LI[17]/A[1]</text>
</g>
<!-- 14 -->
<g id="node14" class="node"><title>14</title>
<ellipse fill="none" stroke="orange" cx="1302.04" cy="-108" rx="38.0545" ry="18"/>
<text text-anchor="middle" x="1302.04" y="-102.4" font-family="Times,serif" font-size="14.00">state11</text>
</g>
<!-- 1&#45;&gt;14 -->
<g id="edge22" class="edge"><title>1&#45;&gt;14</title>
<path fill="none" stroke="black" d="M833.178,-196.187C932.291,-193.46 1228.77,-183.568 1266.04,-162 1276.65,-155.857 1284.8,-145.175 1290.64,-135.004"/>
<polygon fill="black" stroke="black" points="1293.84,-136.436 1295.35,-125.95 1287.63,-133.202 1293.84,-136.436"/>
<text text-anchor="middle" x="1323.91" y="-147.4" font-family="Times,serif" font-size="14.00">../LI[19]/A[1]</text>
<text text-anchor="middle" x="842.112" y="-186.096" font-family="Times,serif" font-size="14.00">/HTML[1]/BODY[1]/TABLE[1]/TBODY[1]/TR[2]/TD[1]/TABLE[1]/TBODY[1]/TR[1]/TD[2]/UL[1]/LI[19]/A[1]</text>
</g>
<!-- 15 -->
<g id="node15" class="node"><title>15</title>
<ellipse fill="none" stroke="orange" cx="1403.04" cy="-108" rx="38.0859" ry="18"/>
<text text-anchor="middle" x="1403.04" y="-102.4" font-family="Times,serif" font-size="14.00">state14</text>
</g>
<!-- 1&#45;&gt;15 -->
<g id="edge28" class="edge"><title>1&#45;&gt;15</title>
<path fill="none" stroke="black" d="M833.534,-196.623C946.768,-195.085 1319.6,-188.072 1366.04,-162 1376.9,-155.901 1385.3,-145.125 1391.33,-134.875"/>
<polygon fill="black" stroke="black" points="1394.57,-136.228 1396.2,-125.759 1388.4,-132.927 1394.57,-136.228"/>
<text text-anchor="middle" x="1424.14" y="-147.4" font-family="Times,serif" font-size="14.00">../TD[2]/A[5]</text>
<text text-anchor="middle" x="842.53" y="-186.656" font-family="Times,serif" font-size="14.00">/HTML[1]/BODY[1]/TABLE[1]/TBODY[1]/TR[1]/TD[1]/TABLE[1]/TBODY[1]/TR[1]/TD[2]/A[5]</text>
</g>
<!-- 4 -->
<g id="node4" class="node"><title>4</title>
<ellipse fill="none" stroke="orange" cx="325.037" cy="-18" rx="33.3419" ry="18"/>
<text text-anchor="middle" x="325.037" y="-12.4" font-family="Times,serif" font-size="14.00">state3</text>
</g>
<!-- 3&#45;&gt;4 -->
<g id="edge6" class="edge"><title>3&#45;&gt;4</title>
<path fill="none" stroke="black" d="M325.037,-89.614C325.037,-77.2403 325.037,-60.3686 325.037,-46.2198"/>
<polygon fill="black" stroke="black" points="328.537,-46.0504 325.037,-36.0504 321.537,-46.0504 328.537,-46.0504"/>
<text text-anchor="middle" x="360.413" y="-57.4" font-family="Times,serif" font-size="14.00">../LI[1]/A[1]</text>
<text text-anchor="middle" x="320.811" y="-74.951" font-family="Times,serif" font-size="14.00">/HTML[1]/BODY[1]/TABLE[1]/TBODY[1]/TR[2]/TD[1]/TABLE[1]/TBODY[1]/TR[1]/TD[2]/UL[1]/LI[1]/A[1]</text>
</g>
</g>
</svg>
