<?xml version="1.0" encoding="UTF-8" standalone="no"?>
<!DOCTYPE svg PUBLIC "-//W3C//DTD SVG 1.1//EN"
 "http://www.w3.org/Graphics/SVG/1.1/DTD/svg11.dtd">
<!-- Generated by graphviz version 2.28.0 (20110509.1545)
 -->
<!-- Title: G Pages: 1 -->
<svg width="918pt" height="134pt"
 viewBox="0.00 0.00 918.41 134.00" xmlns="http://www.w3.org/2000/svg" xmlns:xlink="http://www.w3.org/1999/xlink">
<g id="graph1" class="graph" transform="scale(1 1) rotate(0) translate(4 130)">
<title>G</title>
<polygon fill="white" stroke="white" points="-4,5 -4,-130 915.415,-130 915.415,5 -4,5"/>
<!-- 1 -->
<g id="node1" class="node"><title>1</title>
<ellipse fill="none" stroke="orange" cx="57.404" cy="-18" rx="33.3419" ry="18"/>
<text text-anchor="middle" x="57.404" y="-12.4" font-family="Times,serif" font-size="14.00">state1</text>
</g>
<!-- 2 -->
<g id="node2" class="node"><title>2</title>
<ellipse fill="none" stroke="orange" cx="156.404" cy="-18" rx="33.3419" ry="18"/>
<text text-anchor="middle" x="156.404" y="-12.4" font-family="Times,serif" font-size="14.00">state2</text>
</g>
<!-- 3 -->
<g id="node3" class="node"><title>3</title>
<ellipse fill="none" stroke="orange" cx="453.404" cy="-108" rx="32.2368" ry="18"/>
<text text-anchor="middle" x="453.404" y="-102.4" font-family="Times,serif" font-size="14.00">index</text>
</g>
<!-- 3&#45;&gt;1 -->
<g id="edge2" class="edge"><title>3&#45;&gt;1</title>
<path fill="none" stroke="black" d="M421.156,-107.423C343.042,-107.896 146.081,-105.624 91.2038,-72 80.9445,-65.714 73.2529,-55.0124 67.8202,-44.8642"/>
<polygon fill="black" stroke="black" points="70.9619,-43.3213 63.4572,-35.8427 64.6602,-46.369 70.9619,-43.3213"/>
<text text-anchor="middle" x="129.504" y="-57.4" font-family="Times,serif" font-size="14.00">../TD[1]/A[1]</text>
<text text-anchor="middle" x="412.098" y="-106.06" font-family="Times,serif" font-size="14.00">/HTML[1]/BODY[1]/DIV[1]/TABLE[2]/TBODY[1]/TR[2]/TD[1]/TABLE[1]/TBODY[1]/TR[1]/TD[1]/TABLE[1]/TBODY[1]/TR[1]/TD[1]/A[1]</text>
</g>
<!-- 3&#45;&gt;2 -->
<g id="edge4" class="edge"><title>3&#45;&gt;2</title>
<path fill="none" stroke="black" d="M421.229,-106.261C358.994,-104.277 224.933,-97.1281 187.204,-72 177.605,-65.6071 170.614,-55.1295 165.742,-45.1708"/>
<polygon fill="black" stroke="black" points="168.917,-43.6942 161.706,-35.9322 162.502,-46.497 168.917,-43.6942"/>
<text text-anchor="middle" x="224.504" y="-57.4" font-family="Times,serif" font-size="14.00">../TD[1]/A[1]</text>
<text text-anchor="middle" x="412.016" y="-104.55" font-family="Times,serif" font-size="14.00">/HTML[1]/BODY[1]/DIV[1]/TABLE[2]/TBODY[1]/TR[2]/TD[1]/TABLE[1]/TBODY[1]/TR[1]/TD[1]/TABLE[1]/TBODY[1]/TR[2]/TD[1]/A[1]</text>
</g>
<!-- 4 -->
<g id="node4" class="node"><title>4</title>
<ellipse fill="none" stroke="orange" cx="255.404" cy="-18" rx="33.3419" ry="18"/>
<text text-anchor="middle" x="255.404" y="-12.4" font-family="Times,serif" font-size="14.00">state3</text>
</g>
<!-- 3&#45;&gt;4 -->
<g id="edge6" class="edge"><title>3&#45;&gt;4</title>
<path fill="none" stroke="black" d="M421.75,-103.837C378.467,-98.9654 303.723,-88.4321 282.204,-72 273.476,-65.3357 267.372,-55.0436 263.219,-45.2956"/>
<polygon fill="black" stroke="black" points="266.478,-44.019 259.691,-35.8834 259.924,-46.4757 266.478,-44.019"/>
<text text-anchor="middle" x="319.504" y="-57.4" font-family="Times,serif" font-size="14.00">../TD[1]/A[1]</text>
<text text-anchor="middle" x="412.255" y="-101.373" font-family="Times,serif" font-size="14.00">/HTML[1]/BODY[1]/DIV[1]/TABLE[2]/TBODY[1]/TR[2]/TD[1]/TABLE[1]/TBODY[1]/TR[1]/TD[1]/TABLE[1]/TBODY[1]/TR[3]/TD[1]/A[1]</text>
</g>
<!-- 5 -->
<g id="node5" class="node"><title>5</title>
<ellipse fill="none" stroke="orange" cx="354.404" cy="-18" rx="33.3419" ry="18"/>
<text text-anchor="middle" x="354.404" y="-12.4" font-family="Times,serif" font-size="14.00">state4</text>
</g>
<!-- 3&#45;&gt;5 -->
<g id="edge8" class="edge"><title>3&#45;&gt;5</title>
<path fill="none" stroke="black" d="M424.028,-100.411C407.138,-95.249 386.667,-86.4492 373.204,-72 366.531,-64.838 362.201,-55.156 359.402,-46.0267"/>
<polygon fill="black" stroke="black" points="362.734,-44.9289 356.85,-36.1179 355.955,-46.6748 362.734,-44.9289"/>
<text text-anchor="middle" x="410.504" y="-57.4" font-family="Times,serif" font-size="14.00">../TD[1]/A[1]</text>
<text text-anchor="middle" x="414.106" y="-96.0612" font-family="Times,serif" font-size="14.00">/HTML[1]/BODY[1]/DIV[1]/TABLE[2]/TBODY[1]/TR[2]/TD[1]/TABLE[1]/TBODY[1]/TR[1]/TD[1]/TABLE[1]/TBODY[1]/TR[4]/TD[1]/A[1]</text>
</g>
<!-- 6 -->
<g id="node6" class="node"><title>6</title>
<ellipse fill="none" stroke="orange" cx="453.404" cy="-18" rx="33.3419" ry="18"/>
<text text-anchor="middle" x="453.404" y="-12.4" font-family="Times,serif" font-size="14.00">state5</text>
</g>
<!-- 3&#45;&gt;6 -->
<g id="edge10" class="edge"><title>3&#45;&gt;6</title>
<path fill="none" stroke="black" d="M453.404,-89.614C453.404,-77.2403 453.404,-60.3686 453.404,-46.2198"/>
<polygon fill="black" stroke="black" points="456.904,-46.0504 453.404,-36.0504 449.904,-46.0504 456.904,-46.0504"/>
<text text-anchor="middle" x="491.504" y="-57.4" font-family="Times,serif" font-size="14.00">../TD[1]/A[1]</text>
<text text-anchor="middle" x="449.178" y="-74.951" font-family="Times,serif" font-size="14.00">/HTML[1]/BODY[1]/DIV[1]/TABLE[2]/TBODY[1]/TR[2]/TD[1]/TABLE[1]/TBODY[1]/TR[1]/TD[1]/TABLE[1]/TBODY[1]/TR[5]/TD[1]/A[1]</text>
</g>
<!-- 7 -->
<g id="node7" class="node"><title>7</title>
<ellipse fill="none" stroke="orange" cx="552.404" cy="-18" rx="33.3419" ry="18"/>
<text text-anchor="middle" x="552.404" y="-12.4" font-family="Times,serif" font-size="14.00">state6</text>
</g>
<!-- 3&#45;&gt;7 -->
<g id="edge12" class="edge"><title>3&#45;&gt;7</title>
<path fill="none" stroke="black" d="M482.103,-99.632C498.086,-94.2593 517.336,-85.5093 530.404,-72 537.424,-64.7433 542.334,-54.9261 545.704,-45.7129"/>
<polygon fill="black" stroke="black" points="549.065,-46.6936 548.783,-36.1025 542.399,-44.5574 549.065,-46.6936"/>
<text text-anchor="middle" x="579.504" y="-57.4" font-family="Times,serif" font-size="14.00">../TD[1]/A[1]</text>
<text text-anchor="middle" x="489.254" y="-87.0422" font-family="Times,serif" font-size="14.00">/HTML[1]/BODY[1]/DIV[1]/TABLE[2]/TBODY[1]/TR[2]/TD[1]/TABLE[1]/TBODY[1]/TR[1]/TD[1]/TABLE[1]/TBODY[1]/TR[6]/TD[1]/A[1]</text>
</g>
<!-- 8 -->
<g id="node8" class="node"><title>8</title>
<ellipse fill="none" stroke="orange" cx="651.404" cy="-18" rx="33.3419" ry="18"/>
<text text-anchor="middle" x="651.404" y="-12.4" font-family="Times,serif" font-size="14.00">state7</text>
</g>
<!-- 3&#45;&gt;8 -->
<g id="edge14" class="edge"><title>3&#45;&gt;8</title>
<path fill="none" stroke="black" d="M485.957,-107.882C522.324,-107.255 581.338,-101.247 621.404,-72 630.499,-65.3609 637.219,-55.0731 641.965,-45.3214"/>
<polygon fill="black" stroke="black" points="645.283,-46.4691 646.069,-35.9034 638.866,-43.6727 645.283,-46.4691"/>
<text text-anchor="middle" x="674.504" y="-57.4" font-family="Times,serif" font-size="14.00">../TD[1]/A[1]</text>
<text text-anchor="middle" x="494.881" y="-97.7696" font-family="Times,serif" font-size="14.00">/HTML[1]/BODY[1]/DIV[1]/TABLE[2]/TBODY[1]/TR[2]/TD[1]/TABLE[1]/TBODY[1]/TR[1]/TD[1]/TABLE[1]/TBODY[1]/TR[8]/TD[1]/A[1]</text>
</g>
<!-- 9 -->
<g id="node9" class="node"><title>9</title>
<ellipse fill="none" stroke="orange" cx="750.404" cy="-18" rx="33.3419" ry="18"/>
<text text-anchor="middle" x="750.404" y="-12.4" font-family="Times,serif" font-size="14.00">state8</text>
</g>
<!-- 3&#45;&gt;9 -->
<g id="edge16" class="edge"><title>3&#45;&gt;9</title>
<path fill="none" stroke="black" d="M485.576,-106.054C547.106,-103.712 678.7,-95.9738 716.404,-72 726.575,-65.5331 734.291,-54.8063 739.781,-44.6882"/>
<polygon fill="black" stroke="black" points="742.926,-46.2245 744.203,-35.7069 736.646,-43.1324 742.926,-46.2245"/>
<text text-anchor="middle" x="770.504" y="-57.4" font-family="Times,serif" font-size="14.00">../TD[1]/A[1]</text>
<text text-anchor="middle" x="494.45" y="-95.8433" font-family="Times,serif" font-size="14.00">/HTML[1]/BODY[1]/DIV[1]/TABLE[2]/TBODY[1]/TR[2]/TD[1]/TABLE[1]/TBODY[1]/TR[1]/TD[1]/TABLE[1]/TBODY[1]/TR[9]/TD[1]/A[1]</text>
</g>
<!-- 10 -->
<g id="node10" class="node"><title>10</title>
<ellipse fill="none" stroke="orange" cx="849.404" cy="-18" rx="33.3419" ry="18"/>
<text text-anchor="middle" x="849.404" y="-12.4" font-family="Times,serif" font-size="14.00">state9</text>
</g>
<!-- 3&#45;&gt;10 -->
<g id="edge18" class="edge"><title>3&#45;&gt;10</title>
<path fill="none" stroke="black" d="M485.853,-107.247C563.471,-107.304 757.472,-104.131 812.404,-72 823.157,-65.71 831.542,-54.9084 837.591,-44.691"/>
<polygon fill="black" stroke="black" points="840.818,-46.0803 842.49,-35.6181 834.659,-42.7546 840.818,-46.0803"/>
<text text-anchor="middle" x="868.504" y="-57.4" font-family="Times,serif" font-size="14.00">../TD[1]/A[1]</text>
<text text-anchor="middle" x="494.899" y="-97.3848" font-family="Times,serif" font-size="14.00">/HTML[1]/BODY[1]/DIV[1]/TABLE[2]/TBODY[1]/TR[2]/TD[1]/TABLE[1]/TBODY[1]/TR[1]/TD[1]/TABLE[1]/TBODY[1]/TR[10]/TD[1]/A[1]</text>
</g>
</g>
</svg>
