<?xml version="1.0" encoding="UTF-8" standalone="no"?>
<!DOCTYPE svg PUBLIC "-//W3C//DTD SVG 1.1//EN"
 "http://www.w3.org/Graphics/SVG/1.1/DTD/svg11.dtd">
<!-- Generated by graphviz version 2.28.0 (20110509.1545)
 -->
<!-- Title: G Pages: 1 -->
<svg width="1774pt" height="134pt"
 viewBox="0.00 0.00 1773.75 134.00" xmlns="http://www.w3.org/2000/svg" xmlns:xlink="http://www.w3.org/1999/xlink">
<g id="graph1" class="graph" transform="scale(1 1) rotate(0) translate(4 130)">
<title>G</title>
<polygon fill="white" stroke="white" points="-4,5 -4,-130 1770.75,-130 1770.75,5 -4,5"/>
<!-- 1 -->
<g id="node1" class="node"><title>1</title>
<ellipse fill="none" stroke="orange" cx="894" cy="-108" rx="32.2368" ry="18"/>
<text text-anchor="middle" x="894" y="-102.4" font-family="Times,serif" font-size="14.00">index</text>
</g>
<!-- 2 -->
<g id="node2" class="node"><title>2</title>
<ellipse fill="none" stroke="orange" cx="33" cy="-18" rx="33.3419" ry="18"/>
<text text-anchor="middle" x="33" y="-12.4" font-family="Times,serif" font-size="14.00">state1</text>
</g>
<!-- 1&#45;&gt;2 -->
<g id="edge2" class="edge"><title>1&#45;&gt;2</title>
<path fill="none" stroke="black" d="M861.385,-107.318C717.042,-108.498 139.728,-110.739 69.5791,-72 58.7141,-65.9999 50.3935,-55.2367 44.4537,-44.9699"/>
<polygon fill="black" stroke="black" points="47.4062,-43.0636 39.6635,-35.8317 41.2063,-46.3136 47.4062,-43.0636"/>
<text text-anchor="middle" x="111.21" y="-57.4" font-family="Times,serif" font-size="14.00">../DIV[1]/A[1]</text>
<text text-anchor="middle" x="852.349" y="-106" font-family="Times,serif" font-size="14.00">/HTML[1]/BODY[1]/DIV[2]/DIV[1]/DIV[1]/DIV[1]/A[1]</text>
</g>
<!-- 3 -->
<g id="node3" class="node"><title>3</title>
<ellipse fill="none" stroke="orange" cx="138" cy="-18" rx="33.3419" ry="18"/>
<text text-anchor="middle" x="138" y="-12.4" font-family="Times,serif" font-size="14.00">state2</text>
</g>
<!-- 1&#45;&gt;3 -->
<g id="edge4" class="edge"><title>1&#45;&gt;3</title>
<path fill="none" stroke="black" d="M861.621,-107.098C729.469,-107.275 235.091,-105.662 174.579,-72 163.733,-65.9663 155.415,-55.1987 149.472,-44.9376"/>
<polygon fill="black" stroke="black" points="152.425,-43.0334 144.677,-35.8069 146.227,-46.2878 152.425,-43.0334"/>
<text text-anchor="middle" x="216.21" y="-57.4" font-family="Times,serif" font-size="14.00">../DIV[1]/A[2]</text>
<text text-anchor="middle" x="852.555" y="-105.719" font-family="Times,serif" font-size="14.00">/HTML[1]/BODY[1]/DIV[2]/DIV[1]/DIV[1]/DIV[1]/A[2]</text>
</g>
<!-- 4 -->
<g id="node4" class="node"><title>4</title>
<ellipse fill="none" stroke="orange" cx="243" cy="-18" rx="38.0859" ry="18"/>
<text text-anchor="middle" x="243" y="-12.4" font-family="Times,serif" font-size="14.00">state18</text>
</g>
<!-- 1&#45;&gt;4 -->
<g id="edge36" class="edge"><title>1&#45;&gt;4</title>
<path fill="none" stroke="black" d="M861.565,-106.815C741.986,-105.907 330.1,-100.706 279.248,-72 268.471,-65.9164 260.224,-55.1422 254.34,-44.8896"/>
<polygon fill="black" stroke="black" points="257.316,-43.0259 249.596,-35.7702 251.106,-46.2568 257.316,-43.0259"/>
<text text-anchor="middle" x="318.876" y="-57.4" font-family="Times,serif" font-size="14.00">../LI[13]/A[1]</text>
<text text-anchor="middle" x="852.462" y="-105.354" font-family="Times,serif" font-size="14.00">/HTML[1]/BODY[1]/DIV[2]/DIV[1]/DIV[3]/DIV[2]/UL[1]/LI[13]/A[1]</text>
</g>
<!-- 5 -->
<g id="node5" class="node"><title>5</title>
<ellipse fill="none" stroke="orange" cx="344" cy="-18" rx="33.3419" ry="18"/>
<text text-anchor="middle" x="344" y="-12.4" font-family="Times,serif" font-size="14.00">state3</text>
</g>
<!-- 1&#45;&gt;5 -->
<g id="edge6" class="edge"><title>1&#45;&gt;5</title>
<path fill="none" stroke="black" d="M861.773,-106.47C755.446,-104.496 420.167,-96.3813 378.579,-72 368.057,-65.8314 360.158,-55.0459 354.586,-44.8078"/>
<polygon fill="black" stroke="black" points="357.666,-43.139 350.114,-35.7075 351.383,-46.2261 357.666,-43.139"/>
<text text-anchor="middle" x="420.21" y="-57.4" font-family="Times,serif" font-size="14.00">../DIV[1]/A[3]</text>
<text text-anchor="middle" x="852.625" y="-104.909" font-family="Times,serif" font-size="14.00">/HTML[1]/BODY[1]/DIV[2]/DIV[1]/DIV[1]/DIV[1]/A[3]</text>
</g>
<!-- 6 -->
<g id="node6" class="node"><title>6</title>
<ellipse fill="none" stroke="orange" cx="449" cy="-18" rx="33.3419" ry="18"/>
<text text-anchor="middle" x="449" y="-12.4" font-family="Times,serif" font-size="14.00">state4</text>
</g>
<!-- 1&#45;&gt;6 -->
<g id="edge8" class="edge"><title>1&#45;&gt;6</title>
<path fill="none" stroke="black" d="M861.713,-105.895C770.382,-102.543 514.714,-91.5022 482.579,-72 472.313,-65.7695 464.661,-55.0755 459.276,-44.9181"/>
<polygon fill="black" stroke="black" points="462.428,-43.3972 454.958,-35.8842 456.113,-46.4159 462.428,-43.3972"/>
<text text-anchor="middle" x="524.21" y="-57.4" font-family="Times,serif" font-size="14.00">../DIV[1]/A[5]</text>
<text text-anchor="middle" x="852.493" y="-104.167" font-family="Times,serif" font-size="14.00">/HTML[1]/BODY[1]/DIV[2]/DIV[1]/DIV[1]/DIV[1]/A[5]</text>
</g>
<!-- 7 -->
<g id="node7" class="node"><title>7</title>
<ellipse fill="none" stroke="orange" cx="554" cy="-18" rx="33.3419" ry="18"/>
<text text-anchor="middle" x="554" y="-12.4" font-family="Times,serif" font-size="14.00">state5</text>
</g>
<!-- 1&#45;&gt;7 -->
<g id="edge10" class="edge"><title>1&#45;&gt;7</title>
<path fill="none" stroke="black" d="M861.766,-106.954C791.994,-106.29 629.628,-101.519 584.579,-72 574.95,-65.6906 567.994,-55.2257 563.173,-45.2541"/>
<polygon fill="black" stroke="black" points="566.356,-43.7975 559.187,-35.9965 559.927,-46.5655 566.356,-43.7975"/>
<text text-anchor="middle" x="626.21" y="-57.4" font-family="Times,serif" font-size="14.00">../DIV[1]/A[6]</text>
<text text-anchor="middle" x="852.642" y="-105.448" font-family="Times,serif" font-size="14.00">/HTML[1]/BODY[1]/DIV[2]/DIV[1]/DIV[1]/DIV[1]/A[6]</text>
</g>
<!-- 8 -->
<g id="node8" class="node"><title>8</title>
<ellipse fill="none" stroke="orange" cx="659" cy="-18" rx="33.3419" ry="18"/>
<text text-anchor="middle" x="659" y="-12.4" font-family="Times,serif" font-size="14.00">state6</text>
</g>
<!-- 1&#45;&gt;8 -->
<g id="edge12" class="edge"><title>1&#45;&gt;8</title>
<path fill="none" stroke="black" d="M862.095,-105.243C810.499,-101.825 711.742,-92.7188 684.248,-72 675.67,-65.5355 669.875,-55.4111 666.026,-45.7358"/>
<polygon fill="black" stroke="black" points="669.239,-44.3126 662.685,-35.988 662.617,-46.5826 669.239,-44.3126"/>
<text text-anchor="middle" x="720.376" y="-57.4" font-family="Times,serif" font-size="14.00">../LI[1]/A[1]</text>
<text text-anchor="middle" x="852.753" y="-103.211" font-family="Times,serif" font-size="14.00">/HTML[1]/BODY[1]/DIV[2]/DIV[1]/DIV[3]/DIV[2]/UL[1]/LI[1]/A[1]</text>
</g>
<!-- 9 -->
<g id="node9" class="node"><title>9</title>
<ellipse fill="none" stroke="orange" cx="753" cy="-18" rx="33.3419" ry="18"/>
<text text-anchor="middle" x="753" y="-12.4" font-family="Times,serif" font-size="14.00">state7</text>
</g>
<!-- 1&#45;&gt;9 -->
<g id="edge14" class="edge"><title>1&#45;&gt;9</title>
<path fill="none" stroke="black" d="M861.899,-106.261C833.885,-103.9 793.954,-96.1217 769.248,-72 762.293,-65.21 758.297,-55.5289 756.008,-46.2945"/>
<polygon fill="black" stroke="black" points="759.4,-45.3993 754.081,-36.2363 752.525,-46.7162 759.4,-45.3993"/>
<text text-anchor="middle" x="805.376" y="-57.4" font-family="Times,serif" font-size="14.00">../LI[2]/A[1]</text>
<text text-anchor="middle" x="852.458" y="-103.956" font-family="Times,serif" font-size="14.00">/HTML[1]/BODY[1]/DIV[2]/DIV[1]/DIV[3]/DIV[2]/UL[1]/LI[2]/A[1]</text>
</g>
<!-- 10 -->
<g id="node10" class="node"><title>10</title>
<ellipse fill="none" stroke="orange" cx="847" cy="-18" rx="33.3419" ry="18"/>
<text text-anchor="middle" x="847" y="-12.4" font-family="Times,serif" font-size="14.00">state8</text>
</g>
<!-- 1&#45;&gt;10 -->
<g id="edge16" class="edge"><title>1&#45;&gt;10</title>
<path fill="none" stroke="black" d="M870.717,-95.0841C862.054,-89.3598 853.146,-81.6264 848.248,-72 844.272,-64.1852 843.082,-54.8471 843.156,-46.2017"/>
<polygon fill="black" stroke="black" points="846.654,-46.3434 843.77,-36.1486 839.667,-45.9167 846.654,-46.3434"/>
<text text-anchor="middle" x="884.376" y="-57.4" font-family="Times,serif" font-size="14.00">../LI[3]/A[1]</text>
<text text-anchor="middle" x="860.85" y="-87.8617" font-family="Times,serif" font-size="14.00">/HTML[1]/BODY[1]/DIV[2]/DIV[1]/DIV[3]/DIV[2]/UL[1]/LI[3]/A[1]</text>
</g>
<!-- 11 -->
<g id="node11" class="node"><title>11</title>
<ellipse fill="none" stroke="orange" cx="941" cy="-18" rx="33.3419" ry="18"/>
<text text-anchor="middle" x="941" y="-12.4" font-family="Times,serif" font-size="14.00">state9</text>
</g>
<!-- 1&#45;&gt;11 -->
<g id="edge18" class="edge"><title>1&#45;&gt;11</title>
<path fill="none" stroke="black" d="M906.498,-91.1222C910.768,-85.2972 915.375,-78.5285 919,-72 923.588,-63.7363 927.797,-54.3183 931.278,-45.7365"/>
<polygon fill="black" stroke="black" points="934.638,-46.7541 935.009,-36.1657 928.116,-44.2118 934.638,-46.7541"/>
<text text-anchor="middle" x="963.376" y="-57.4" font-family="Times,serif" font-size="14.00">../LI[4]/A[1]</text>
<text text-anchor="middle" x="908.407" y="-75.7062" font-family="Times,serif" font-size="14.00">/HTML[1]/BODY[1]/DIV[2]/DIV[1]/DIV[3]/DIV[2]/UL[1]/LI[4]/A[1]</text>
</g>
<!-- 12 -->
<g id="node12" class="node"><title>12</title>
<ellipse fill="none" stroke="orange" cx="1033" cy="-18" rx="38.0859" ry="18"/>
<text text-anchor="middle" x="1033" y="-12.4" font-family="Times,serif" font-size="14.00">state12</text>
</g>
<!-- 1&#45;&gt;12 -->
<g id="edge24" class="edge"><title>1&#45;&gt;12</title>
<path fill="none" stroke="black" d="M925.229,-102.98C948.478,-98.6412 979.886,-89.7908 1002,-72 1010.72,-64.9841 1017.5,-54.8073 1022.47,-45.2429"/>
<polygon fill="black" stroke="black" points="1025.72,-46.5581 1026.84,-36.0223 1019.39,-43.5624 1025.72,-46.5581"/>
<text text-anchor="middle" x="1053.38" y="-57.4" font-family="Times,serif" font-size="14.00">../LI[7]/A[1]</text>
<text text-anchor="middle" x="933.287" y="-91.4574" font-family="Times,serif" font-size="14.00">/HTML[1]/BODY[1]/DIV[2]/DIV[1]/DIV[3]/DIV[2]/UL[1]/LI[7]/A[1]</text>
</g>
<!-- 13 -->
<g id="node13" class="node"><title>13</title>
<ellipse fill="none" stroke="orange" cx="1128" cy="-18" rx="38.0859" ry="18"/>
<text text-anchor="middle" x="1128" y="-12.4" font-family="Times,serif" font-size="14.00">state13</text>
</g>
<!-- 1&#45;&gt;13 -->
<g id="edge26" class="edge"><title>1&#45;&gt;13</title>
<path fill="none" stroke="black" d="M925.779,-104.393C974.549,-99.8985 1065.04,-89.4532 1092,-72 1102.22,-65.3816 1110.29,-54.7303 1116.17,-44.7062"/>
<polygon fill="black" stroke="black" points="1119.3,-46.2749 1120.95,-35.8103 1113.13,-42.9578 1119.3,-46.2749"/>
<text text-anchor="middle" x="1145.38" y="-57.4" font-family="Times,serif" font-size="14.00">../LI[8]/A[1]</text>
<text text-anchor="middle" x="934.392" y="-93.7132" font-family="Times,serif" font-size="14.00">/HTML[1]/BODY[1]/DIV[2]/DIV[1]/DIV[3]/DIV[2]/UL[1]/LI[8]/A[1]</text>
</g>
<!-- 14 -->
<g id="node14" class="node"><title>14</title>
<ellipse fill="none" stroke="orange" cx="1223" cy="-18" rx="38.0859" ry="18"/>
<text text-anchor="middle" x="1223" y="-12.4" font-family="Times,serif" font-size="14.00">state10</text>
</g>
<!-- 1&#45;&gt;14 -->
<g id="edge20" class="edge"><title>1&#45;&gt;14</title>
<path fill="none" stroke="black" d="M926.236,-106.292C992.382,-104.331 1140.86,-97.1774 1184,-72 1194.99,-65.5869 1203.8,-54.7223 1210.24,-44.4934"/>
<polygon fill="black" stroke="black" points="1213.3,-46.201 1215.3,-35.7959 1207.25,-42.6853 1213.3,-46.201"/>
<text text-anchor="middle" x="1239.38" y="-57.4" font-family="Times,serif" font-size="14.00">../LI[5]/A[1]</text>
<text text-anchor="middle" x="935.149" y="-96.1582" font-family="Times,serif" font-size="14.00">/HTML[1]/BODY[1]/DIV[2]/DIV[1]/DIV[3]/DIV[2]/UL[1]/LI[5]/A[1]</text>
</g>
<!-- 15 -->
<g id="node15" class="node"><title>15</title>
<ellipse fill="none" stroke="orange" cx="1317" cy="-18" rx="38.0545" ry="18"/>
<text text-anchor="middle" x="1317" y="-12.4" font-family="Times,serif" font-size="14.00">state11</text>
</g>
<!-- 1&#45;&gt;15 -->
<g id="edge22" class="edge"><title>1&#45;&gt;15</title>
<path fill="none" stroke="black" d="M926.236,-107.399C1007.44,-107.883 1218.17,-105.757 1278,-72 1289.16,-65.7047 1298.03,-54.7536 1304.47,-44.4342"/>
<polygon fill="black" stroke="black" points="1307.56,-46.0768 1309.5,-35.661 1301.49,-42.5936 1307.56,-46.0768"/>
<text text-anchor="middle" x="1333.38" y="-57.4" font-family="Times,serif" font-size="14.00">../LI[6]/A[1]</text>
<text text-anchor="middle" x="935.304" y="-97.5849" font-family="Times,serif" font-size="14.00">/HTML[1]/BODY[1]/DIV[2]/DIV[1]/DIV[3]/DIV[2]/UL[1]/LI[6]/A[1]</text>
</g>
<!-- 16 -->
<g id="node16" class="node"><title>16</title>
<ellipse fill="none" stroke="orange" cx="1411" cy="-18" rx="38.0859" ry="18"/>
<text text-anchor="middle" x="1411" y="-12.4" font-family="Times,serif" font-size="14.00">state16</text>
</g>
<!-- 1&#45;&gt;16 -->
<g id="edge32" class="edge"><title>1&#45;&gt;16</title>
<path fill="none" stroke="black" d="M926.289,-106.193C1027.35,-103.451 1333.17,-93.4523 1372,-72 1383.21,-65.8043 1392.09,-54.8655 1398.52,-44.5285"/>
<polygon fill="black" stroke="black" points="1401.62,-46.1534 1403.54,-35.7337 1395.54,-42.683 1401.62,-46.1534"/>
<text text-anchor="middle" x="1430.62" y="-57.4" font-family="Times,serif" font-size="14.00">../LI[11]/A[1]</text>
<text text-anchor="middle" x="935.226" y="-96.1053" font-family="Times,serif" font-size="14.00">/HTML[1]/BODY[1]/DIV[2]/DIV[1]/DIV[3]/DIV[2]/UL[1]/LI[11]/A[1]</text>
</g>
<!-- 17 -->
<g id="node17" class="node"><title>17</title>
<ellipse fill="none" stroke="orange" cx="1511" cy="-18" rx="38.0859" ry="18"/>
<text text-anchor="middle" x="1511" y="-12.4" font-family="Times,serif" font-size="14.00">state17</text>
</g>
<!-- 1&#45;&gt;17 -->
<g id="edge34" class="edge"><title>1&#45;&gt;17</title>
<path fill="none" stroke="black" d="M926.491,-106.654C1041.52,-105.211 1425.12,-98.4413 1473,-72 1484.12,-65.8616 1492.78,-54.93 1499.02,-44.5828"/>
<polygon fill="black" stroke="black" points="1502.11,-46.2234 1503.87,-35.7755 1495.98,-42.8463 1502.11,-46.2234"/>
<text text-anchor="middle" x="1531.88" y="-57.4" font-family="Times,serif" font-size="14.00">../LI[12]/A[1]</text>
<text text-anchor="middle" x="935.492" y="-96.6976" font-family="Times,serif" font-size="14.00">/HTML[1]/BODY[1]/DIV[2]/DIV[1]/DIV[3]/DIV[2]/UL[1]/LI[12]/A[1]</text>
</g>
<!-- 18 -->
<g id="node18" class="node"><title>18</title>
<ellipse fill="none" stroke="orange" cx="1612" cy="-18" rx="38.0859" ry="18"/>
<text text-anchor="middle" x="1612" y="-12.4" font-family="Times,serif" font-size="14.00">state14</text>
</g>
<!-- 1&#45;&gt;18 -->
<g id="edge28" class="edge"><title>1&#45;&gt;18</title>
<path fill="none" stroke="black" d="M926.303,-106.97C1053.66,-106.632 1516.82,-103.247 1574,-72 1585.14,-65.9114 1593.82,-54.986 1600.04,-44.63"/>
<polygon fill="black" stroke="black" points="1603.14,-46.2615 1604.89,-35.8118 1597.01,-42.8908 1603.14,-46.2615"/>
<text text-anchor="middle" x="1629.38" y="-57.4" font-family="Times,serif" font-size="14.00">../LI[9]/A[1]</text>
<text text-anchor="middle" x="935.347" y="-97.1025" font-family="Times,serif" font-size="14.00">/HTML[1]/BODY[1]/DIV[2]/DIV[1]/DIV[3]/DIV[2]/UL[1]/LI[9]/A[1]</text>
</g>
<!-- 19 -->
<g id="node19" class="node"><title>19</title>
<ellipse fill="none" stroke="orange" cx="1707" cy="-18" rx="38.0859" ry="18"/>
<text text-anchor="middle" x="1707" y="-12.4" font-family="Times,serif" font-size="14.00">state15</text>
</g>
<!-- 1&#45;&gt;19 -->
<g id="edge30" class="edge"><title>1&#45;&gt;19</title>
<path fill="none" stroke="black" d="M926.436,-107.169C1064.84,-107.67 1601.94,-107.306 1668,-72 1679.3,-65.9613 1688.18,-55.042 1694.6,-44.6773"/>
<polygon fill="black" stroke="black" points="1697.72,-46.2742 1699.6,-35.8482 1691.63,-42.8236 1697.72,-46.2742"/>
<text text-anchor="middle" x="1726.88" y="-57.4" font-family="Times,serif" font-size="14.00">../LI[10]/A[1]</text>
<text text-anchor="middle" x="935.506" y="-97.3582" font-family="Times,serif" font-size="14.00">/HTML[1]/BODY[1]/DIV[2]/DIV[1]/DIV[3]/DIV[2]/UL[1]/LI[10]/A[1]</text>
</g>
</g>
</svg>
