<?xml version="1.0" encoding="UTF-8" standalone="no"?>
<!DOCTYPE svg PUBLIC "-//W3C//DTD SVG 1.1//EN"
 "http://www.w3.org/Graphics/SVG/1.1/DTD/svg11.dtd">
<!-- Generated by graphviz version 2.28.0 (20110509.1545)
 -->
<!-- Title: G Pages: 1 -->
<svg width="751pt" height="134pt"
 viewBox="0.00 0.00 750.75 134.00" xmlns="http://www.w3.org/2000/svg" xmlns:xlink="http://www.w3.org/1999/xlink">
<g id="graph1" class="graph" transform="scale(1 1) rotate(0) translate(4 130)">
<title>G</title>
<polygon fill="white" stroke="white" points="-4,5 -4,-130 747.752,-130 747.752,5 -4,5"/>
<!-- 1 -->
<g id="node1" class="node"><title>1</title>
<ellipse fill="none" stroke="black" cx="33" cy="-18" rx="33.3419" ry="18"/>
<text text-anchor="middle" x="33" y="-12.4" font-family="Times,serif" font-size="14.00">state1</text>
</g>
<!-- 2 -->
<g id="node2" class="node"><title>2</title>
<ellipse fill="none" stroke="black" cx="127" cy="-18" rx="33.3419" ry="18"/>
<text text-anchor="middle" x="127" y="-12.4" font-family="Times,serif" font-size="14.00">state2</text>
</g>
<!-- 3 -->
<g id="node3" class="node"><title>3</title>
<ellipse fill="none" stroke="black" cx="362" cy="-108" rx="32.2368" ry="18"/>
<text text-anchor="middle" x="362" y="-102.4" font-family="Times,serif" font-size="14.00">index</text>
</g>
<!-- 3&#45;&gt;1 -->
<g id="edge2" class="edge"><title>3&#45;&gt;1</title>
<path fill="none" stroke="red" d="M329.722,-106.757C261.927,-105.685 107.419,-100.133 64.248,-72 54.5501,-65.6803 47.4633,-55.2138 42.5147,-45.2438"/>
<polygon fill="red" stroke="red" points="45.6637,-43.7109 38.41,-35.9886 39.2648,-46.5489 45.6637,-43.7109"/>
<text text-anchor="middle" x="100.376" y="-57.4" font-family="Times,serif" font-size="14.00">../LI[4]/A[1]</text>
<text text-anchor="middle" x="320.573" y="-105.193" font-family="Times,serif" font-size="14.00">/HTML[1]/BODY[1]/DIV[1]/DIV[1]/OL[2]/LI[4]/A[1]</text>
</g>
<!-- 3&#45;&gt;2 -->
<g id="edge4" class="edge"><title>3&#45;&gt;2</title>
<path fill="none" stroke="red" d="M330.095,-105.243C278.499,-101.825 179.742,-92.7188 152.248,-72 143.67,-65.5355 137.875,-55.4111 134.026,-45.7358"/>
<polygon fill="red" stroke="red" points="137.239,-44.3126 130.685,-35.988 130.617,-46.5826 137.239,-44.3126"/>
<text text-anchor="middle" x="188.376" y="-57.4" font-family="Times,serif" font-size="14.00">../LI[5]/A[1]</text>
<text text-anchor="middle" x="320.753" y="-103.211" font-family="Times,serif" font-size="14.00">/HTML[1]/BODY[1]/DIV[1]/DIV[1]/OL[2]/LI[5]/A[1]</text>
</g>
<!-- 4 -->
<g id="node4" class="node"><title>4</title>
<ellipse fill="none" stroke="black" cx="221" cy="-18" rx="33.3419" ry="18"/>
<text text-anchor="middle" x="221" y="-12.4" font-family="Times,serif" font-size="14.00">state3</text>
</g>
<!-- 3&#45;&gt;4 -->
<g id="edge6" class="edge"><title>3&#45;&gt;4</title>
<path fill="none" stroke="black" d="M329.899,-106.261C301.885,-103.9 261.954,-96.1217 237.248,-72 230.293,-65.21 226.297,-55.5289 224.008,-46.2945"/>
<polygon fill="black" stroke="black" points="227.4,-45.3993 222.081,-36.2363 220.525,-46.7162 227.4,-45.3993"/>
<text text-anchor="middle" x="273.376" y="-57.4" font-family="Times,serif" font-size="14.00">../LI[1]/A[1]</text>
<text text-anchor="middle" x="320.458" y="-103.956" font-family="Times,serif" font-size="14.00">/HTML[1]/BODY[1]/DIV[3]/DIV[3]/DIV[1]/UL[1]/LI[1]/UL[1]/LI[1]/A[1]</text>
</g>
<!-- 5 -->
<g id="node5" class="node"><title>5</title>
<ellipse fill="none" stroke="black" cx="315" cy="-18" rx="33.3419" ry="18"/>
<text text-anchor="middle" x="315" y="-12.4" font-family="Times,serif" font-size="14.00">state4</text>
</g>
<!-- 3&#45;&gt;5 -->
<g id="edge8" class="edge"><title>3&#45;&gt;5</title>
<path fill="none" stroke="black" d="M338.717,-95.0841C330.054,-89.3598 321.146,-81.6264 316.248,-72 312.272,-64.1852 311.082,-54.8471 311.156,-46.2017"/>
<polygon fill="black" stroke="black" points="314.654,-46.3434 311.77,-36.1486 307.667,-45.9167 314.654,-46.3434"/>
<text text-anchor="middle" x="352.376" y="-57.4" font-family="Times,serif" font-size="14.00">../LI[2]/A[1]</text>
<text text-anchor="middle" x="328.85" y="-87.8617" font-family="Times,serif" font-size="14.00">/HTML[1]/BODY[1]/DIV[3]/DIV[3]/DIV[1]/UL[1]/LI[1]/UL[1]/LI[2]/A[1]</text>
</g>
<!-- 6 -->
<g id="node6" class="node"><title>6</title>
<ellipse fill="none" stroke="black" cx="409" cy="-18" rx="33.3419" ry="18"/>
<text text-anchor="middle" x="409" y="-12.4" font-family="Times,serif" font-size="14.00">state5</text>
</g>
<!-- 3&#45;&gt;6 -->
<g id="edge10" class="edge"><title>3&#45;&gt;6</title>
<path fill="none" stroke="black" d="M374.498,-91.1222C378.768,-85.2972 383.375,-78.5285 387,-72 391.588,-63.7363 395.797,-54.3183 399.278,-45.7365"/>
<polygon fill="black" stroke="black" points="402.638,-46.7541 403.009,-36.1657 396.116,-44.2118 402.638,-46.7541"/>
<text text-anchor="middle" x="431.376" y="-57.4" font-family="Times,serif" font-size="14.00">../LI[3]/A[1]</text>
<text text-anchor="middle" x="376.407" y="-75.7062" font-family="Times,serif" font-size="14.00">/HTML[1]/BODY[1]/DIV[3]/DIV[3]/DIV[1]/UL[1]/LI[1]/UL[1]/LI[3]/A[1]</text>
</g>
<!-- 7 -->
<g id="node7" class="node"><title>7</title>
<ellipse fill="none" stroke="black" cx="503" cy="-18" rx="33.3419" ry="18"/>
<text text-anchor="middle" x="503" y="-12.4" font-family="Times,serif" font-size="14.00">state6</text>
</g>
<!-- 3&#45;&gt;7 -->
<g id="edge12" class="edge"><title>3&#45;&gt;7</title>
<path fill="none" stroke="black" d="M393.089,-102.803C416.265,-98.3721 447.642,-89.4833 470,-72 479.059,-64.9162 486.277,-54.6011 491.624,-44.9496"/>
<polygon fill="black" stroke="black" points="494.75,-46.5248 496.177,-36.0265 488.514,-43.3436 494.75,-46.5248"/>
<text text-anchor="middle" x="521.376" y="-57.4" font-family="Times,serif" font-size="14.00">../LI[4]/A[1]</text>
<text text-anchor="middle" x="401.123" y="-91.2486" font-family="Times,serif" font-size="14.00">/HTML[1]/BODY[1]/DIV[3]/DIV[3]/DIV[1]/UL[1]/LI[1]/UL[1]/LI[4]/A[1]</text>
</g>
<!-- 8 -->
<g id="node8" class="node"><title>8</title>
<ellipse fill="none" stroke="black" cx="597" cy="-18" rx="33.3419" ry="18"/>
<text text-anchor="middle" x="597" y="-12.4" font-family="Times,serif" font-size="14.00">state7</text>
</g>
<!-- 3&#45;&gt;8 -->
<g id="edge14" class="edge"><title>3&#45;&gt;8</title>
<path fill="none" stroke="black" d="M393.753,-104.352C442.486,-99.8013 532.93,-89.2804 560,-72 570.356,-65.3892 578.621,-54.739 584.69,-44.7136"/>
<polygon fill="black" stroke="black" points="587.838,-46.2559 589.643,-35.8161 581.721,-42.8512 587.838,-46.2559"/>
<text text-anchor="middle" x="613.376" y="-57.4" font-family="Times,serif" font-size="14.00">../LI[5]/A[1]</text>
<text text-anchor="middle" x="402.36" y="-93.6623" font-family="Times,serif" font-size="14.00">/HTML[1]/BODY[1]/DIV[3]/DIV[3]/DIV[1]/UL[1]/LI[1]/UL[1]/LI[5]/A[1]</text>
</g>
<!-- 9 -->
<g id="node9" class="node"><title>9</title>
<ellipse fill="none" stroke="black" cx="691" cy="-18" rx="33.3419" ry="18"/>
<text text-anchor="middle" x="691" y="-12.4" font-family="Times,serif" font-size="14.00">state8</text>
</g>
<!-- 3&#45;&gt;9 -->
<g id="edge16" class="edge"><title>3&#45;&gt;9</title>
<path fill="none" stroke="black" d="M394.236,-106.292C460.382,-104.331 608.857,-97.1774 652,-72 663.065,-65.5424 671.92,-54.5712 678.378,-44.2804"/>
<polygon fill="black" stroke="black" points="681.455,-45.9516 683.431,-35.5427 675.395,-42.4472 681.455,-45.9516"/>
<text text-anchor="middle" x="707.376" y="-57.4" font-family="Times,serif" font-size="14.00">../LI[6]/A[1]</text>
<text text-anchor="middle" x="403.149" y="-96.1582" font-family="Times,serif" font-size="14.00">/HTML[1]/BODY[1]/DIV[3]/DIV[3]/DIV[1]/UL[1]/LI[1]/UL[1]/LI[6]/A[1]</text>
</g>
</g>
</svg>
