<?xml version="1.0" encoding="UTF-8" standalone="no"?>
<!DOCTYPE svg PUBLIC "-//W3C//DTD SVG 1.1//EN"
 "http://www.w3.org/Graphics/SVG/1.1/DTD/svg11.dtd">
<!-- Generated by graphviz version 2.28.0 (20110509.1545)
 -->
<!-- Title: G Pages: 1 -->
<svg width="474pt" height="224pt"
 viewBox="0.00 0.00 473.75 224.00" xmlns="http://www.w3.org/2000/svg" xmlns:xlink="http://www.w3.org/1999/xlink">
<g id="graph1" class="graph" transform="scale(1 1) rotate(0) translate(4 220)">
<title>G</title>
<polygon fill="white" stroke="white" points="-4,5 -4,-220 470.752,-220 470.752,5 -4,5"/>
<!-- 1 -->
<g id="node1" class="node"><title>1</title>
<ellipse fill="none" stroke="orange" cx="221" cy="-198" rx="33.3419" ry="18"/>
<text text-anchor="middle" x="221" y="-192.4" font-family="Times,serif" font-size="14.00">state1</text>
</g>
<!-- 3 -->
<g id="node3" class="node"><title>3</title>
<ellipse fill="none" stroke="orange" cx="221" cy="-108" rx="32.2368" ry="18"/>
<text text-anchor="middle" x="221" y="-102.4" font-family="Times,serif" font-size="14.00">index</text>
</g>
<!-- 1&#45;&gt;3 -->
<g id="edge4" class="edge"><title>1&#45;&gt;3</title>
<path fill="none" stroke="black" d="M196.134,-185.893C186.539,-180.222 176.601,-172.31 171.248,-162 167.562,-154.9 167.562,-151.1 171.248,-144 175.046,-136.685 181.152,-130.577 187.807,-125.62"/>
<polygon fill="black" stroke="black" points="189.977,-128.381 196.396,-119.953 186.122,-122.539 189.977,-128.381"/>
<text text-anchor="middle" x="207.376" y="-147.4" font-family="Times,serif" font-size="14.00">../LI[1]/A[1]</text>
<text text-anchor="middle" x="186.199" y="-179.158" font-family="Times,serif" font-size="14.00">/HTML[1]/BODY[1]/DIV[1]/DIV[1]/DIV[2]/UL[1]/LI[1]/A[1]</text>
</g>
<!-- 2 -->
<g id="node2" class="node"><title>2</title>
<ellipse fill="none" stroke="orange" cx="33" cy="-18" rx="33.3419" ry="18"/>
<text text-anchor="middle" x="33" y="-12.4" font-family="Times,serif" font-size="14.00">state2</text>
</g>
<!-- 3&#45;&gt;1 -->
<g id="edge2" class="edge"><title>3&#45;&gt;1</title>
<path fill="none" stroke="black" d="M234.997,-124.229C239.408,-129.993 243.721,-136.889 246,-144 248.441,-151.618 248.441,-154.382 246,-162 244.779,-165.811 242.973,-169.56 240.881,-173.107"/>
<polygon fill="black" stroke="black" points="237.96,-171.179 235.262,-181.424 243.76,-175.097 237.96,-171.179"/>
<text text-anchor="middle" x="283.376" y="-147.4" font-family="Times,serif" font-size="14.00">../LI[2]/A[1]</text>
<text text-anchor="middle" x="243.81" y="-123.354" font-family="Times,serif" font-size="14.00">/HTML[1]/BODY[1]/DIV[1]/DIV[1]/DIV[2]/UL[1]/LI[2]/A[1]</text>
</g>
<!-- 3&#45;&gt;2 -->
<g id="edge6" class="edge"><title>3&#45;&gt;2</title>
<path fill="none" stroke="black" d="M188.631,-107.592C153.822,-106.615 98.475,-100.206 61.248,-72 52.3972,-65.2939 46.0217,-54.9948 41.5937,-45.2529"/>
<polygon fill="black" stroke="black" points="44.7863,-43.8114 37.7954,-35.8503 38.2959,-46.4333 44.7863,-43.8114"/>
<text text-anchor="middle" x="97.376" y="-57.4" font-family="Times,serif" font-size="14.00">../LI[3]/A[1]</text>
<text text-anchor="middle" x="179.395" y="-105.826" font-family="Times,serif" font-size="14.00">/HTML[1]/BODY[1]/DIV[1]/DIV[1]/DIV[2]/UL[1]/LI[3]/A[1]</text>
</g>
<!-- 4 -->
<g id="node4" class="node"><title>4</title>
<ellipse fill="none" stroke="orange" cx="127" cy="-18" rx="33.3419" ry="18"/>
<text text-anchor="middle" x="127" y="-12.4" font-family="Times,serif" font-size="14.00">state3</text>
</g>
<!-- 3&#45;&gt;4 -->
<g id="edge8" class="edge"><title>3&#45;&gt;4</title>
<path fill="none" stroke="black" d="M192.54,-99.5267C177.021,-94.1504 158.528,-85.4316 146.248,-72 139.625,-64.7558 135.237,-55.056 132.35,-45.9354"/>
<polygon fill="black" stroke="black" points="135.667,-44.7925 129.688,-36.0457 128.908,-46.6118 135.667,-44.7925"/>
<text text-anchor="middle" x="182.376" y="-57.4" font-family="Times,serif" font-size="14.00">../LI[4]/A[1]</text>
<text text-anchor="middle" x="182.58" y="-94.8153" font-family="Times,serif" font-size="14.00">/HTML[1]/BODY[1]/DIV[1]/DIV[1]/DIV[2]/UL[1]/LI[4]/A[1]</text>
</g>
<!-- 5 -->
<g id="node5" class="node"><title>5</title>
<ellipse fill="none" stroke="orange" cx="221" cy="-18" rx="33.3419" ry="18"/>
<text text-anchor="middle" x="221" y="-12.4" font-family="Times,serif" font-size="14.00">state4</text>
</g>
<!-- 3&#45;&gt;5 -->
<g id="edge10" class="edge"><title>3&#45;&gt;5</title>
<path fill="none" stroke="black" d="M221,-89.614C221,-77.2403 221,-60.3686 221,-46.2198"/>
<polygon fill="black" stroke="black" points="224.5,-46.0504 221,-36.0504 217.5,-46.0504 224.5,-46.0504"/>
<text text-anchor="middle" x="256.376" y="-57.4" font-family="Times,serif" font-size="14.00">../LI[5]/A[1]</text>
<text text-anchor="middle" x="216.774" y="-74.951" font-family="Times,serif" font-size="14.00">/HTML[1]/BODY[1]/DIV[1]/DIV[1]/DIV[2]/UL[1]/LI[5]/A[1]</text>
</g>
<!-- 6 -->
<g id="node6" class="node"><title>6</title>
<ellipse fill="none" stroke="orange" cx="315" cy="-18" rx="33.3419" ry="18"/>
<text text-anchor="middle" x="315" y="-12.4" font-family="Times,serif" font-size="14.00">state5</text>
</g>
<!-- 3&#45;&gt;6 -->
<g id="edge12" class="edge"><title>3&#45;&gt;6</title>
<path fill="none" stroke="black" d="M248.904,-98.816C263.638,-93.2829 281.083,-84.6419 293,-72 299.926,-64.6531 304.816,-54.8172 308.196,-45.6142"/>
<polygon fill="black" stroke="black" points="311.551,-46.6161 311.297,-36.0243 304.89,-44.4623 311.551,-46.6161"/>
<text text-anchor="middle" x="340.376" y="-57.4" font-family="Times,serif" font-size="14.00">../LI[6]/A[1]</text>
<text text-anchor="middle" x="255.81" y="-85.9834" font-family="Times,serif" font-size="14.00">/HTML[1]/BODY[1]/DIV[1]/DIV[1]/DIV[2]/UL[1]/LI[6]/A[1]</text>
</g>
<!-- 7 -->
<g id="node7" class="node"><title>7</title>
<ellipse fill="none" stroke="orange" cx="409" cy="-18" rx="33.3419" ry="18"/>
<text text-anchor="middle" x="409" y="-12.4" font-family="Times,serif" font-size="14.00">state6</text>
</g>
<!-- 3&#45;&gt;7 -->
<g id="edge14" class="edge"><title>3&#45;&gt;7</title>
<path fill="none" stroke="black" d="M253.512,-107.293C287.863,-106.017 342.069,-99.3171 379,-72 388.053,-65.3037 394.766,-55.0063 399.519,-45.2629"/>
<polygon fill="black" stroke="black" points="402.831,-46.4226 403.632,-35.8581 396.418,-43.6174 402.831,-46.4226"/>
<text text-anchor="middle" x="430.376" y="-57.4" font-family="Times,serif" font-size="14.00">../LI[7]/A[1]</text>
<text text-anchor="middle" x="262.346" y="-97.0054" font-family="Times,serif" font-size="14.00">/HTML[1]/BODY[1]/DIV[1]/DIV[1]/DIV[2]/UL[1]/LI[7]/A[1]</text>
</g>
</g>
</svg>
