<?xml version="1.0" encoding="UTF-8" standalone="no"?>
<!DOCTYPE svg PUBLIC "-//W3C//DTD SVG 1.1//EN"
 "http://www.w3.org/Graphics/SVG/1.1/DTD/svg11.dtd">
<!-- Generated by graphviz version 2.28.0 (20110509.1545)
 -->
<!-- Title: G Pages: 1 -->
<svg width="625pt" height="224pt"
 viewBox="0.00 0.00 624.61 224.00" xmlns="http://www.w3.org/2000/svg" xmlns:xlink="http://www.w3.org/1999/xlink">
<g id="graph1" class="graph" transform="scale(1 1) rotate(0) translate(4 220)">
<title>G</title>
<polygon fill="white" stroke="white" points="-4,5 -4,-220 621.608,-220 621.608,5 -4,5"/>
<!-- 1 -->
<g id="node1" class="node"><title>1</title>
<ellipse fill="none" stroke="orange" cx="257.647" cy="-108" rx="33.3419" ry="18"/>
<text text-anchor="middle" x="257.647" y="-102.4" font-family="Times,serif" font-size="14.00">state1</text>
</g>
<!-- 2 -->
<g id="node2" class="node"><title>2</title>
<ellipse fill="none" stroke="orange" cx="116.647" cy="-18" rx="33.3419" ry="18"/>
<text text-anchor="middle" x="116.647" y="-12.4" font-family="Times,serif" font-size="14.00">state2</text>
</g>
<!-- 1&#45;&gt;2 -->
<g id="edge4" class="edge"><title>1&#45;&gt;2</title>
<path fill="none" stroke="black" d="M224.446,-106.166C196.494,-103.694 157.28,-95.8074 132.895,-72 125.941,-65.21 121.945,-55.5289 119.655,-46.2945"/>
<polygon fill="black" stroke="black" points="123.047,-45.3993 117.729,-36.2363 116.172,-46.7162 123.047,-45.3993"/>
<text text-anchor="middle" x="169.023" y="-57.4" font-family="Times,serif" font-size="14.00">../LI[1]/A[1]</text>
<text text-anchor="middle" x="214.99" y="-103.822" font-family="Times,serif" font-size="14.00">/HTML[1]/BODY[1]/DIV[1]/DIV[1]/DIV[4]/OL[1]/LI[2]/OL[1]/LI[1]/A[1]</text>
</g>
<!-- 4 -->
<g id="node4" class="node"><title>4</title>
<ellipse fill="none" stroke="orange" cx="210.647" cy="-18" rx="33.3419" ry="18"/>
<text text-anchor="middle" x="210.647" y="-12.4" font-family="Times,serif" font-size="14.00">state3</text>
</g>
<!-- 1&#45;&gt;4 -->
<g id="edge6" class="edge"><title>1&#45;&gt;4</title>
<path fill="none" stroke="black" d="M234.364,-95.0841C225.701,-89.3598 216.793,-81.6264 211.895,-72 207.919,-64.1852 206.73,-54.8471 206.803,-46.2017"/>
<polygon fill="black" stroke="black" points="210.301,-46.3434 207.417,-36.1486 203.314,-45.9167 210.301,-46.3434"/>
<text text-anchor="middle" x="248.023" y="-57.4" font-family="Times,serif" font-size="14.00">../LI[2]/A[1]</text>
<text text-anchor="middle" x="224.497" y="-87.8617" font-family="Times,serif" font-size="14.00">/HTML[1]/BODY[1]/DIV[1]/DIV[1]/DIV[4]/OL[1]/LI[2]/OL[1]/LI[2]/A[1]</text>
</g>
<!-- 5 -->
<g id="node5" class="node"><title>5</title>
<ellipse fill="none" stroke="orange" cx="304.647" cy="-18" rx="33.3419" ry="18"/>
<text text-anchor="middle" x="304.647" y="-12.4" font-family="Times,serif" font-size="14.00">state4</text>
</g>
<!-- 1&#45;&gt;5 -->
<g id="edge8" class="edge"><title>1&#45;&gt;5</title>
<path fill="none" stroke="black" d="M270.145,-91.1222C274.415,-85.2972 279.022,-78.5285 282.647,-72 287.236,-63.7363 291.445,-54.3183 294.925,-45.7365"/>
<polygon fill="black" stroke="black" points="298.285,-46.7541 298.656,-36.1657 291.763,-44.2118 298.285,-46.7541"/>
<text text-anchor="middle" x="327.023" y="-57.4" font-family="Times,serif" font-size="14.00">../LI[3]/A[1]</text>
<text text-anchor="middle" x="272.055" y="-75.7062" font-family="Times,serif" font-size="14.00">/HTML[1]/BODY[1]/DIV[1]/DIV[1]/DIV[4]/OL[1]/LI[2]/OL[1]/LI[3]/A[1]</text>
</g>
<!-- 6 -->
<g id="node6" class="node"><title>6</title>
<ellipse fill="none" stroke="orange" cx="398.647" cy="-18" rx="33.3419" ry="18"/>
<text text-anchor="middle" x="398.647" y="-12.4" font-family="Times,serif" font-size="14.00">state5</text>
</g>
<!-- 1&#45;&gt;6 -->
<g id="edge10" class="edge"><title>1&#45;&gt;6</title>
<path fill="none" stroke="black" d="M285.148,-97.7444C292.752,-95.2092 301.013,-92.4777 308.647,-90 333.916,-81.7992 344.658,-88.286 365.647,-72 374.733,-64.9503 381.955,-54.641 387.299,-44.9846"/>
<polygon fill="black" stroke="black" points="390.428,-46.5537 391.846,-36.0542 384.189,-43.3777 390.428,-46.5537"/>
<text text-anchor="middle" x="417.023" y="-57.4" font-family="Times,serif" font-size="14.00">../LI[4]/A[1]</text>
<text text-anchor="middle" x="292.411" y="-85.2707" font-family="Times,serif" font-size="14.00">/HTML[1]/BODY[1]/DIV[1]/DIV[1]/DIV[4]/OL[1]/LI[2]/OL[1]/LI[4]/A[1]</text>
</g>
<!-- 3 -->
<g id="node3" class="node"><title>3</title>
<ellipse fill="none" stroke="orange" cx="398.647" cy="-198" rx="32.2368" ry="18"/>
<text text-anchor="middle" x="398.647" y="-192.4" font-family="Times,serif" font-size="14.00">index</text>
</g>
<!-- 3&#45;&gt;1 -->
<g id="edge2" class="edge"><title>3&#45;&gt;1</title>
<path fill="none" stroke="red" d="M366.547,-196.261C338.532,-193.9 298.602,-186.122 273.895,-162 266.941,-155.21 262.945,-145.529 260.655,-136.294"/>
<polygon fill="red" stroke="red" points="264.047,-135.399 258.729,-126.236 257.172,-136.716 264.047,-135.399"/>
<text text-anchor="middle" x="310.023" y="-147.4" font-family="Times,serif" font-size="14.00">../LI[2]/A[1]</text>
<text text-anchor="middle" x="357.105" y="-193.956" font-family="Times,serif" font-size="14.00">/HTML[1]/BODY[1]/DIV[1]/DIV[1]/DIV[5]/OL[1]/LI[2]/A[1]</text>
</g>
<!-- 7 -->
<g id="node7" class="node"><title>7</title>
<ellipse fill="none" stroke="orange" cx="351.647" cy="-108" rx="33.3419" ry="18"/>
<text text-anchor="middle" x="351.647" y="-102.4" font-family="Times,serif" font-size="14.00">state6</text>
</g>
<!-- 3&#45;&gt;7 -->
<g id="edge12" class="edge"><title>3&#45;&gt;7</title>
<path fill="none" stroke="red" d="M375.364,-185.084C366.701,-179.36 357.793,-171.626 352.895,-162 348.919,-154.185 347.73,-144.847 347.803,-136.202"/>
<polygon fill="red" stroke="red" points="351.301,-136.343 348.417,-126.149 344.314,-135.917 351.301,-136.343"/>
<text text-anchor="middle" x="389.023" y="-147.4" font-family="Times,serif" font-size="14.00">../LI[3]/A[1]</text>
<text text-anchor="middle" x="365.497" y="-177.862" font-family="Times,serif" font-size="14.00">/HTML[1]/BODY[1]/DIV[1]/DIV[1]/DIV[5]/OL[1]/LI[3]/A[1]</text>
</g>
<!-- 8 -->
<g id="node8" class="node"><title>8</title>
<ellipse fill="none" stroke="orange" cx="445.647" cy="-108" rx="33.3419" ry="18"/>
<text text-anchor="middle" x="445.647" y="-102.4" font-family="Times,serif" font-size="14.00">state7</text>
</g>
<!-- 3&#45;&gt;8 -->
<g id="edge14" class="edge"><title>3&#45;&gt;8</title>
<path fill="none" stroke="red" d="M411.145,-181.122C415.415,-175.297 420.022,-168.528 423.647,-162 428.236,-153.736 432.445,-144.318 435.925,-135.737"/>
<polygon fill="red" stroke="red" points="439.285,-136.754 439.656,-126.166 432.763,-134.212 439.285,-136.754"/>
<text text-anchor="middle" x="468.023" y="-147.4" font-family="Times,serif" font-size="14.00">../LI[4]/A[1]</text>
<text text-anchor="middle" x="413.055" y="-165.706" font-family="Times,serif" font-size="14.00">/HTML[1]/BODY[1]/DIV[1]/DIV[1]/DIV[5]/OL[1]/LI[4]/A[1]</text>
</g>
<!-- 9 -->
<g id="node9" class="node"><title>9</title>
<ellipse fill="none" stroke="orange" cx="539.647" cy="-108" rx="33.3419" ry="18"/>
<text text-anchor="middle" x="539.647" y="-102.4" font-family="Times,serif" font-size="14.00">state8</text>
</g>
<!-- 3&#45;&gt;9 -->
<g id="edge16" class="edge"><title>3&#45;&gt;9</title>
<path fill="none" stroke="red" d="M429.736,-192.803C452.912,-188.372 484.289,-179.483 506.647,-162 515.706,-154.916 522.924,-144.601 528.272,-134.95"/>
<polygon fill="red" stroke="red" points="531.397,-136.525 532.824,-126.027 525.162,-133.344 531.397,-136.525"/>
<text text-anchor="middle" x="558.023" y="-147.4" font-family="Times,serif" font-size="14.00">../LI[5]/A[1]</text>
<text text-anchor="middle" x="437.77" y="-181.249" font-family="Times,serif" font-size="14.00">/HTML[1]/BODY[1]/DIV[1]/DIV[1]/DIV[5]/OL[1]/LI[5]/A[1]</text>
</g>
</g>
</svg>
