<?xml version="1.0" encoding="UTF-8" standalone="no"?>
<!DOCTYPE svg PUBLIC "-//W3C//DTD SVG 1.1//EN"
 "http://www.w3.org/Graphics/SVG/1.1/DTD/svg11.dtd">
<!-- Generated by graphviz version 2.28.0 (20110509.1545)
 -->
<!-- Title: G Pages: 1 -->
<svg width="734pt" height="314pt"
 viewBox="0.00 0.00 734.08 314.00" xmlns="http://www.w3.org/2000/svg" xmlns:xlink="http://www.w3.org/1999/xlink">
<g id="graph1" class="graph" transform="scale(1 1) rotate(0) translate(4 310)">
<title>G</title>
<polygon fill="white" stroke="white" points="-4,5 -4,-310 731.081,-310 731.081,5 -4,5"/>
<!-- 1 -->
<g id="node1" class="node"><title>1</title>
<ellipse fill="none" stroke="orange" cx="427.329" cy="-288" rx="33.3419" ry="18"/>
<text text-anchor="middle" x="427.329" y="-282.4" font-family="Times,serif" font-size="14.00">state1</text>
</g>
<!-- 2 -->
<g id="node2" class="node"><title>2</title>
<ellipse fill="none" stroke="orange" cx="194.329" cy="-198" rx="33.3419" ry="18"/>
<text text-anchor="middle" x="194.329" y="-192.4" font-family="Times,serif" font-size="14.00">state2</text>
</g>
<!-- 1&#45;&gt;2 -->
<g id="edge6" class="edge"><title>1&#45;&gt;2</title>
<path fill="none" stroke="black" d="M393.699,-286.998C335.806,-286.208 221.064,-280.929 195.578,-252 189.389,-244.975 187.921,-235.165 188.4,-225.893"/>
<polygon fill="black" stroke="black" points="191.891,-226.177 189.619,-215.829 184.941,-225.335 191.891,-226.177"/>
<text text-anchor="middle" x="231.705" y="-237.4" font-family="Times,serif" font-size="14.00">../LI[3]/A[1]</text>
<text text-anchor="middle" x="384.55" y="-285.436" font-family="Times,serif" font-size="14.00">/HTML[1]/BODY[1]/DIV[1]/DIV[4]/UL[1]/LI[3]/A[1]</text>
</g>
<!-- 3 -->
<g id="node3" class="node"><title>3</title>
<ellipse fill="none" stroke="orange" cx="331.329" cy="-18" rx="32.2368" ry="18"/>
<text text-anchor="middle" x="331.329" y="-12.4" font-family="Times,serif" font-size="14.00">index</text>
</g>
<!-- 1&#45;&gt;3 -->
<g id="edge4" class="edge"><title>1&#45;&gt;3</title>
<path fill="none" stroke="black" d="M455.518,-278.223C482.74,-268.068 522.397,-248.445 540.329,-216 548.069,-201.996 545.881,-195.006 540.329,-180 514.74,-110.825 493.291,-95.5167 432.329,-54 414.043,-41.5465 390.884,-33.1015 371.357,-27.6324"/>
<polygon fill="black" stroke="black" points="372.083,-24.2044 361.521,-25.0382 370.298,-30.9729 372.083,-24.2044"/>
<text text-anchor="middle" x="567.705" y="-147.4" font-family="Times,serif" font-size="14.00">../LI[1]/A[1]</text>
<text text-anchor="middle" x="462.414" y="-265.381" font-family="Times,serif" font-size="14.00">/HTML[1]/BODY[1]/DIV[1]/DIV[4]/UL[1]/LI[1]/A[1]</text>
</g>
<!-- 4 -->
<g id="node4" class="node"><title>4</title>
<ellipse fill="none" stroke="orange" cx="331.329" cy="-108" rx="33.3419" ry="18"/>
<text text-anchor="middle" x="331.329" y="-102.4" font-family="Times,serif" font-size="14.00">state3</text>
</g>
<!-- 1&#45;&gt;4 -->
<g id="edge20" class="edge"><title>1&#45;&gt;4</title>
<path fill="none" stroke="black" d="M439.566,-271.169C454.78,-249.403 476.743,-209.573 459.329,-180 440.388,-147.834 401.04,-129.205 370.94,-119.169"/>
<polygon fill="black" stroke="black" points="371.719,-115.745 361.13,-116.087 369.621,-122.423 371.719,-115.745"/>
<text text-anchor="middle" x="501.705" y="-192.4" font-family="Times,serif" font-size="14.00">../LI[4]/A[1]</text>
<text text-anchor="middle" x="441.101" y="-255.687" font-family="Times,serif" font-size="14.00">/HTML[1]/BODY[1]/DIV[1]/DIV[4]/UL[1]/LI[4]/A[1]</text>
</g>
<!-- 2&#45;&gt;1 -->
<g id="edge10" class="edge"><title>2&#45;&gt;1</title>
<path fill="none" stroke="black" d="M219.664,-209.764C233.777,-216.139 251.452,-224.762 266.329,-234 277.431,-240.893 277.833,-246.271 289.578,-252 319.995,-266.837 357.36,-275.823 385.497,-280.967"/>
<polygon fill="black" stroke="black" points="384.964,-284.427 395.416,-282.693 386.164,-277.531 384.964,-284.427"/>
<text text-anchor="middle" x="325.705" y="-237.4" font-family="Times,serif" font-size="14.00">../LI[2]/A[1]</text>
<text text-anchor="middle" x="229.663" y="-204.082" font-family="Times,serif" font-size="14.00">/HTML[1]/BODY[1]/DIV[1]/DIV[4]/UL[1]/LI[2]/A[1]</text>
</g>
<!-- 2&#45;&gt;3 -->
<g id="edge8" class="edge"><title>2&#45;&gt;3</title>
<path fill="none" stroke="black" d="M166.26,-187.959C120.922,-171.794 39.4501,-135.342 68.5775,-90 92.5055,-52.7522 222.177,-31.993 289.973,-23.5404"/>
<polygon fill="black" stroke="black" points="290.397,-27.0147 299.902,-22.3353 289.553,-20.0657 290.397,-27.0147"/>
<text text-anchor="middle" x="104.705" y="-102.4" font-family="Times,serif" font-size="14.00">../LI[1]/A[1]</text>
<text text-anchor="middle" x="156.29" y="-183.137" font-family="Times,serif" font-size="14.00">/HTML[1]/BODY[1]/DIV[1]/DIV[4]/UL[1]/LI[1]/A[1]</text>
</g>
<!-- 2&#45;&gt;4 -->
<g id="edge12" class="edge"><title>2&#45;&gt;4</title>
<path fill="none" stroke="black" d="M219.754,-186.381C233.897,-180.051 251.569,-171.425 266.329,-162 270.627,-159.256 289.683,-143.646 306.06,-130.072"/>
<polygon fill="black" stroke="black" points="308.351,-132.719 313.807,-123.637 303.878,-127.334 308.351,-132.719"/>
<text text-anchor="middle" x="324.705" y="-147.4" font-family="Times,serif" font-size="14.00">../LI[4]/A[1]</text>
<text text-anchor="middle" x="226.267" y="-173.192" font-family="Times,serif" font-size="14.00">/HTML[1]/BODY[1]/DIV[1]/DIV[4]/UL[1]/LI[4]/A[1]</text>
</g>
<!-- 3&#45;&gt;1 -->
<g id="edge2" class="edge"><title>3&#45;&gt;1</title>
<path fill="none" stroke="black" d="M363.497,-19.9527C425.019,-22.3069 556.601,-30.0654 594.329,-54 634.513,-79.4915 638.894,-98.3494 652.329,-144 667.712,-196.267 639.221,-221.125 594.329,-252 557.786,-277.133 506.866,-284.84 470.884,-286.907"/>
<polygon fill="black" stroke="black" points="470.526,-283.419 460.694,-287.366 470.841,-290.412 470.526,-283.419"/>
<text text-anchor="middle" x="690.705" y="-147.4" font-family="Times,serif" font-size="14.00">../LI[2]/A[1]</text>
<text text-anchor="middle" x="372.734" y="-10.5208" font-family="Times,serif" font-size="14.00">/HTML[1]/BODY[1]/DIV[1]/DIV[4]/UL[1]/LI[2]/A[1]</text>
</g>
<!-- 3&#45;&gt;2 -->
<g id="edge22" class="edge"><title>3&#45;&gt;2</title>
<path fill="none" stroke="black" d="M307.021,-30.2383C282.438,-42.4486 244.348,-63.7677 217.578,-90 197.107,-110.059 190.502,-116.529 182.329,-144 179.805,-152.486 180.744,-161.872 182.946,-170.359"/>
<polygon fill="black" stroke="black" points="179.703,-171.706 186.111,-180.143 186.364,-169.551 179.703,-171.706"/>
<text text-anchor="middle" x="253.705" y="-102.4" font-family="Times,serif" font-size="14.00">../LI[3]/A[1]</text>
<text text-anchor="middle" x="300.849" y="-32.5061" font-family="Times,serif" font-size="14.00">/HTML[1]/BODY[1]/DIV[1]/DIV[4]/UL[1]/LI[3]/A[1]</text>
</g>
<!-- 3&#45;&gt;4 -->
<g id="edge24" class="edge"><title>3&#45;&gt;4</title>
<path fill="none" stroke="black" d="M345.327,-34.2288C349.737,-39.9928 354.051,-46.8889 356.329,-54 358.771,-61.6184 358.771,-64.3816 356.329,-72 355.108,-75.8111 353.303,-79.5604 351.211,-83.1069"/>
<polygon fill="black" stroke="black" points="348.29,-81.1785 345.591,-91.424 354.09,-85.0974 348.29,-81.1785"/>
<text text-anchor="middle" x="393.705" y="-57.4" font-family="Times,serif" font-size="14.00">../LI[4]/A[1]</text>
<text text-anchor="middle" x="354.14" y="-33.3544" font-family="Times,serif" font-size="14.00">/HTML[1]/BODY[1]/DIV[1]/DIV[4]/UL[1]/LI[4]/A[1]</text>
</g>
<!-- 4&#45;&gt;1 -->
<g id="edge16" class="edge"><title>4&#45;&gt;1</title>
<path fill="none" stroke="black" d="M345.747,-124.232C350.806,-130.103 356.24,-137.067 360.329,-144 377.793,-173.608 374.037,-184.852 388.578,-216 395.795,-231.462 404.891,-248.241 412.457,-261.604"/>
<polygon fill="black" stroke="black" points="409.639,-263.725 417.646,-270.663 415.713,-260.246 409.639,-263.725"/>
<text text-anchor="middle" x="424.705" y="-192.4" font-family="Times,serif" font-size="14.00">../LI[2]/A[1]</text>
<text text-anchor="middle" x="354.841" y="-122.791" font-family="Times,serif" font-size="14.00">/HTML[1]/BODY[1]/DIV[1]/DIV[4]/UL[1]/LI[2]/A[1]</text>
</g>
<!-- 4&#45;&gt;2 -->
<g id="edge18" class="edge"><title>4&#45;&gt;2</title>
<path fill="none" stroke="black" d="M300.232,-114.704C261.144,-122.186 198.31,-135.374 191.578,-144 185.894,-151.283 185.084,-160.991 186.203,-170.108"/>
<polygon fill="black" stroke="black" points="182.78,-170.842 188.128,-179.988 189.651,-169.503 182.78,-170.842"/>
<text text-anchor="middle" x="227.705" y="-147.4" font-family="Times,serif" font-size="14.00">../LI[3]/A[1]</text>
<text text-anchor="middle" x="292.143" y="-114.983" font-family="Times,serif" font-size="14.00">/HTML[1]/BODY[1]/DIV[1]/DIV[4]/UL[1]/LI[3]/A[1]</text>
</g>
<!-- 4&#45;&gt;3 -->
<g id="edge14" class="edge"><title>4&#45;&gt;3</title>
<path fill="none" stroke="black" d="M307.933,-95.1412C299.252,-89.4257 290.362,-81.6834 285.578,-72 282.034,-64.8276 282.034,-61.1724 285.578,-54 288.867,-47.3427 294.097,-41.6028 299.865,-36.8082"/>
<polygon fill="black" stroke="black" points="301.962,-39.6108 307.933,-30.8588 297.807,-33.977 301.962,-39.6108"/>
<text text-anchor="middle" x="321.705" y="-57.4" font-family="Times,serif" font-size="14.00">../LI[1]/A[1]</text>
<text text-anchor="middle" x="298.063" y="-87.9314" font-family="Times,serif" font-size="14.00">/HTML[1]/BODY[1]/DIV[1]/DIV[4]/UL[1]/LI[1]/A[1]</text>
</g>
</g>
</svg>
