<!-- Generated by graphviz version 2.28.0 (20110509.1545)
 --><!-- Title: G Pages: 1 --><svg xmlns="http://www.w3.org/2000/svg" xmlns:xlink="http://www.w3.org/1999/xlink">

<g class="graph" id="graph1" transform="scale(1 1) rotate(0) translate(250 228)">

<title>G</title>

<polygon fill="white" points="-4,5 -4,-310 731.081,-310 731.081,5 -4,5" stroke="white"></polygon>
<!-- 1 -->

<g class="node" id="graph1_node1" onclick="top.clickHighlightNode('browser1', 'graph1_node1_e','browser2', 'graph2_node1_e');" onmouseout=";hideImage('graph1_node1_img');top.removeHighlightOfNode('browser1', 'graph1_node1_e','browser2', 'graph2_node1_e');" onmouseover=";showImage('graph1_node1_img');top.highlightNode('browser1', 'graph1_node1_e','browser2', 'graph2_node1_e');">



<a id="graph1_node1" onclick="selState('state1' , 'graph1_node1_e' , './crawloverview/states/state1.html', 'firefox');">
<title>1</title>
<ellipse cx="427.329" cy="-288" fill="none" id="graph1_node1_e" rx="33.3419" ry="18" stroke="orange"></ellipse>
<text font-family="Times,serif" font-size="14.00" text-anchor="middle" x="427.329" y="-282.4">state1</text>
</a>
</g>
<!-- 2 -->

<g class="node" id="graph1_node2" onclick="top.clickHighlightNode('browser1', 'graph1_node2_e','browser2', 'graph2_node2_e');" onmouseout=";hideImage('graph1_node2_img');top.removeHighlightOfNode('browser1', 'graph1_node2_e','browser2', 'graph2_node2_e');" onmouseover=";showImage('graph1_node2_img');top.highlightNode('browser1', 'graph1_node2_e','browser2', 'graph2_node2_e');">



<a id="graph1_node2" onclick="selState('state2' , 'graph1_node2_e' , './crawloverview/states/state2.html', 'firefox');">
<title>2</title>
<ellipse cx="194.329" cy="-198" fill="none" id="graph1_node2_e" rx="33.3419" ry="18" stroke="orange"></ellipse>
<text font-family="Times,serif" font-size="14.00" text-anchor="middle" x="194.329" y="-192.4">state2</text>
</a>
</g>
<!-- 1&#45;&gt;2 -->

<g class="edge" id="graph1_edge0" onmouseout="handleEdgeMouseOut('graph1_edge0', '../LI[3]/A[1]');top.removeHighlightOfEdge('browser2', 'graph2_edge0');" onmouseover="handleEdgeMouseOver('graph1_edge0', '/HTML[1]/BODY[1]/DIV[1]/DIV[4]/UL[1]/LI[3]/A[1]');top.highlightEdge('browser2', 'graph2_edge0');">
<title>1-&gt;2</title>

<path d="M393.699,-286.998C335.806,-286.208 221.064,-280.929 195.578,-252 189.389,-244.975 187.921,-235.165 188.4,-225.893" fill="none" stroke="black"></path>

<polygon fill="black" points="191.891,-226.177 189.619,-215.829 184.941,-225.335 191.891,-226.177" stroke="black"></polygon>

<text fill="#B0B0B0" font-family="Times,serif" font-size="14.00" text-anchor="middle" x="231.705" y="-237.4">../LI[3]/A[1]</text>


</g>
<!-- 3 -->

<g class="node" id="graph1_node3" onclick="top.clickHighlightNode('browser1', 'graph1_node3_e','browser2', 'graph2_node3_e');" onmouseout=";hideImage('graph1_node3_img');top.removeHighlightOfNode('browser1', 'graph1_node3_e','browser2', 'graph2_node3_e');" onmouseover=";showImage('graph1_node3_img');top.highlightNode('browser1', 'graph1_node3_e','browser2', 'graph2_node3_e');">



<a id="graph1_node3" onclick="selState('index' , 'graph1_node3_e' , './crawloverview/states/index.html', 'firefox');">
<title>3</title>
<ellipse cx="331.329" cy="-18" fill="none" id="graph1_node3_e" rx="32.2368" ry="18" stroke="orange"></ellipse>
<text font-family="Times,serif" font-size="14.00" text-anchor="middle" x="331.329" y="-12.4">index</text>
</a>
</g>
<!-- 1&#45;&gt;3 -->

<g class="edge" id="graph1_edge1" onmouseout="handleEdgeMouseOut('graph1_edge1', '../LI[1]/A[1]');top.removeHighlightOfEdge('browser2', 'graph2_edge1');" onmouseover="handleEdgeMouseOver('graph1_edge1', '/HTML[1]/BODY[1]/DIV[1]/DIV[4]/UL[1]/LI[1]/A[1]');top.highlightEdge('browser2', 'graph2_edge1');">
<title>1-&gt;3</title>

<path d="M455.518,-278.223C482.74,-268.068 522.397,-248.445 540.329,-216 548.069,-201.996 545.881,-195.006 540.329,-180 514.74,-110.825 493.291,-95.5167 432.329,-54 414.043,-41.5465 390.884,-33.1015 371.357,-27.6324" fill="none" stroke="black"></path>

<polygon fill="black" points="372.083,-24.2044 361.521,-25.0382 370.298,-30.9729 372.083,-24.2044" stroke="black"></polygon>

<text fill="#B0B0B0" font-family="Times,serif" font-size="14.00" text-anchor="middle" x="567.705" y="-147.4">../LI[1]/A[1]</text>


</g>
<!-- 4 -->

<g class="node" id="graph1_node4" onclick="top.clickHighlightNode('browser1', 'graph1_node4_e','browser2', 'graph2_node4_e');" onmouseout=";hideImage('graph1_node4_img');top.removeHighlightOfNode('browser1', 'graph1_node4_e','browser2', 'graph2_node4_e');" onmouseover=";showImage('graph1_node4_img');top.highlightNode('browser1', 'graph1_node4_e','browser2', 'graph2_node4_e');">



<a id="graph1_node4" onclick="selState('state3' , 'graph1_node4_e' , './crawloverview/states/state3.html', 'firefox');">
<title>4</title>
<ellipse cx="331.329" cy="-108" fill="none" id="graph1_node4_e" rx="33.3419" ry="18" stroke="orange"></ellipse>
<text font-family="Times,serif" font-size="14.00" text-anchor="middle" x="331.329" y="-102.4">state3</text>
</a>
</g>
<!-- 1&#45;&gt;4 -->

<g class="edge" id="graph1_edge2" onmouseout="handleEdgeMouseOut('graph1_edge2', '../LI[4]/A[1]');top.removeHighlightOfEdge('browser2', 'graph2_edge2');" onmouseover="handleEdgeMouseOver('graph1_edge2', '/HTML[1]/BODY[1]/DIV[1]/DIV[4]/UL[1]/LI[4]/A[1]');top.highlightEdge('browser2', 'graph2_edge2');">
<title>1-&gt;4</title>

<path d="M439.566,-271.169C454.78,-249.403 476.743,-209.573 459.329,-180 440.388,-147.834 401.04,-129.205 370.94,-119.169" fill="none" stroke="black"></path>

<polygon fill="black" points="371.719,-115.745 361.13,-116.087 369.621,-122.423 371.719,-115.745" stroke="black"></polygon>

<text fill="#B0B0B0" font-family="Times,serif" font-size="14.00" text-anchor="middle" x="501.705" y="-192.4">../LI[4]/A[1]</text>


</g>
<!-- 2&#45;&gt;1 -->

<g class="edge" id="graph1_edge3" onmouseout="handleEdgeMouseOut('graph1_edge3', '../LI[2]/A[1]');top.removeHighlightOfEdge('browser2', 'graph2_edge3');" onmouseover="handleEdgeMouseOver('graph1_edge3', '/HTML[1]/BODY[1]/DIV[1]/DIV[4]/UL[1]/LI[2]/A[1]');top.highlightEdge('browser2', 'graph2_edge3');">
<title>2-&gt;1</title>

<path d="M219.664,-209.764C233.777,-216.139 251.452,-224.762 266.329,-234 277.431,-240.893 277.833,-246.271 289.578,-252 319.995,-266.837 357.36,-275.823 385.497,-280.967" fill="none" stroke="black"></path>

<polygon fill="black" points="384.964,-284.427 395.416,-282.693 386.164,-277.531 384.964,-284.427" stroke="black"></polygon>

<text fill="#B0B0B0" font-family="Times,serif" font-size="14.00" text-anchor="middle" x="325.705" y="-237.4">../LI[2]/A[1]</text>


</g>
<!-- 2&#45;&gt;3 -->

<g class="edge" id="graph1_edge4" onmouseout="handleEdgeMouseOut('graph1_edge4', '../LI[1]/A[1]');top.removeHighlightOfEdge('browser2', 'graph2_edge4');" onmouseover="handleEdgeMouseOver('graph1_edge4', '/HTML[1]/BODY[1]/DIV[1]/DIV[4]/UL[1]/LI[1]/A[1]');top.highlightEdge('browser2', 'graph2_edge4');">
<title>2-&gt;3</title>

<path d="M166.26,-187.959C120.922,-171.794 39.4501,-135.342 68.5775,-90 92.5055,-52.7522 222.177,-31.993 289.973,-23.5404" fill="none" stroke="black"></path>

<polygon fill="black" points="290.397,-27.0147 299.902,-22.3353 289.553,-20.0657 290.397,-27.0147" stroke="black"></polygon>

<text fill="#B0B0B0" font-family="Times,serif" font-size="14.00" text-anchor="middle" x="104.705" y="-102.4">../LI[1]/A[1]</text>


</g>
<!-- 2&#45;&gt;4 -->

<g class="edge" id="graph1_edge5" onmouseout="handleEdgeMouseOut('graph1_edge5', '../LI[4]/A[1]');top.removeHighlightOfEdge('browser2', 'graph2_edge5');" onmouseover="handleEdgeMouseOver('graph1_edge5', '/HTML[1]/BODY[1]/DIV[1]/DIV[4]/UL[1]/LI[4]/A[1]');top.highlightEdge('browser2', 'graph2_edge5');">
<title>2-&gt;4</title>

<path d="M219.754,-186.381C233.897,-180.051 251.569,-171.425 266.329,-162 270.627,-159.256 289.683,-143.646 306.06,-130.072" fill="none" stroke="black"></path>

<polygon fill="black" points="308.351,-132.719 313.807,-123.637 303.878,-127.334 308.351,-132.719" stroke="black"></polygon>

<text fill="#B0B0B0" font-family="Times,serif" font-size="14.00" text-anchor="middle" x="324.705" y="-147.4">../LI[4]/A[1]</text>


</g>
<!-- 3&#45;&gt;1 -->

<g class="edge" id="graph1_edge6" onmouseout="handleEdgeMouseOut('graph1_edge6', '../LI[2]/A[1]');top.removeHighlightOfEdge('browser2', 'graph2_edge6');" onmouseover="handleEdgeMouseOver('graph1_edge6', '/HTML[1]/BODY[1]/DIV[1]/DIV[4]/UL[1]/LI[2]/A[1]');top.highlightEdge('browser2', 'graph2_edge6');">
<title>3-&gt;1</title>

<path d="M363.497,-19.9527C425.019,-22.3069 556.601,-30.0654 594.329,-54 634.513,-79.4915 638.894,-98.3494 652.329,-144 667.712,-196.267 639.221,-221.125 594.329,-252 557.786,-277.133 506.866,-284.84 470.884,-286.907" fill="none" stroke="black"></path>

<polygon fill="black" points="470.526,-283.419 460.694,-287.366 470.841,-290.412 470.526,-283.419" stroke="black"></polygon>

<text fill="#B0B0B0" font-family="Times,serif" font-size="14.00" text-anchor="middle" x="690.705" y="-147.4">../LI[2]/A[1]</text>


</g>
<!-- 3&#45;&gt;2 -->

<g class="edge" id="graph1_edge7" onmouseout="handleEdgeMouseOut('graph1_edge7', '../LI[3]/A[1]');top.removeHighlightOfEdge('browser2', 'graph2_edge7');" onmouseover="handleEdgeMouseOver('graph1_edge7', '/HTML[1]/BODY[1]/DIV[1]/DIV[4]/UL[1]/LI[3]/A[1]');top.highlightEdge('browser2', 'graph2_edge7');">
<title>3-&gt;2</title>

<path d="M307.021,-30.2383C282.438,-42.4486 244.348,-63.7677 217.578,-90 197.107,-110.059 190.502,-116.529 182.329,-144 179.805,-152.486 180.744,-161.872 182.946,-170.359" fill="none" stroke="black"></path>

<polygon fill="black" points="179.703,-171.706 186.111,-180.143 186.364,-169.551 179.703,-171.706" stroke="black"></polygon>

<text fill="#B0B0B0" font-family="Times,serif" font-size="14.00" text-anchor="middle" x="253.705" y="-102.4">../LI[3]/A[1]</text>


</g>
<!-- 3&#45;&gt;4 -->

<g class="edge" id="graph1_edge8" onmouseout="handleEdgeMouseOut('graph1_edge8', '../LI[4]/A[1]');top.removeHighlightOfEdge('browser2', 'graph2_edge8');" onmouseover="handleEdgeMouseOver('graph1_edge8', '/HTML[1]/BODY[1]/DIV[1]/DIV[4]/UL[1]/LI[4]/A[1]');top.highlightEdge('browser2', 'graph2_edge8');">
<title>3-&gt;4</title>

<path d="M345.327,-34.2288C349.737,-39.9928 354.051,-46.8889 356.329,-54 358.771,-61.6184 358.771,-64.3816 356.329,-72 355.108,-75.8111 353.303,-79.5604 351.211,-83.1069" fill="none" stroke="black"></path>

<polygon fill="black" points="348.29,-81.1785 345.591,-91.424 354.09,-85.0974 348.29,-81.1785" stroke="black"></polygon>

<text fill="#B0B0B0" font-family="Times,serif" font-size="14.00" text-anchor="middle" x="393.705" y="-57.4">../LI[4]/A[1]</text>


</g>
<!-- 4&#45;&gt;1 -->

<g class="edge" id="graph1_edge9" onmouseout="handleEdgeMouseOut('graph1_edge9', '../LI[2]/A[1]');top.removeHighlightOfEdge('browser2', 'graph2_edge9');" onmouseover="handleEdgeMouseOver('graph1_edge9', '/HTML[1]/BODY[1]/DIV[1]/DIV[4]/UL[1]/LI[2]/A[1]');top.highlightEdge('browser2', 'graph2_edge9');">
<title>4-&gt;1</title>

<path d="M345.747,-124.232C350.806,-130.103 356.24,-137.067 360.329,-144 377.793,-173.608 374.037,-184.852 388.578,-216 395.795,-231.462 404.891,-248.241 412.457,-261.604" fill="none" stroke="black"></path>

<polygon fill="black" points="409.639,-263.725 417.646,-270.663 415.713,-260.246 409.639,-263.725" stroke="black"></polygon>

<text fill="#B0B0B0" font-family="Times,serif" font-size="14.00" text-anchor="middle" x="424.705" y="-192.4">../LI[2]/A[1]</text>


</g>
<!-- 4&#45;&gt;2 -->

<g class="edge" id="graph1_edge10" onmouseout="handleEdgeMouseOut('graph1_edge10', '../LI[3]/A[1]');top.removeHighlightOfEdge('browser2', 'graph2_edge10');" onmouseover="handleEdgeMouseOver('graph1_edge10', '/HTML[1]/BODY[1]/DIV[1]/DIV[4]/UL[1]/LI[3]/A[1]');top.highlightEdge('browser2', 'graph2_edge10');">
<title>4-&gt;2</title>

<path d="M300.232,-114.704C261.144,-122.186 198.31,-135.374 191.578,-144 185.894,-151.283 185.084,-160.991 186.203,-170.108" fill="none" stroke="black"></path>

<polygon fill="black" points="182.78,-170.842 188.128,-179.988 189.651,-169.503 182.78,-170.842" stroke="black"></polygon>

<text fill="#B0B0B0" font-family="Times,serif" font-size="14.00" text-anchor="middle" x="227.705" y="-147.4">../LI[3]/A[1]</text>


</g>
<!-- 4&#45;&gt;3 -->

<g class="edge" id="graph1_edge11" onmouseout="handleEdgeMouseOut('graph1_edge11', '../LI[1]/A[1]');top.removeHighlightOfEdge('browser2', 'graph2_edge11');" onmouseover="handleEdgeMouseOver('graph1_edge11', '/HTML[1]/BODY[1]/DIV[1]/DIV[4]/UL[1]/LI[1]/A[1]');top.highlightEdge('browser2', 'graph2_edge11');">
<title>4-&gt;3</title>

<path d="M307.933,-95.1412C299.252,-89.4257 290.362,-81.6834 285.578,-72 282.034,-64.8276 282.034,-61.1724 285.578,-54 288.867,-47.3427 294.097,-41.6028 299.865,-36.8082" fill="none" stroke="black"></path>

<polygon fill="black" points="301.962,-39.6108 307.933,-30.8588 297.807,-33.977 301.962,-39.6108" stroke="black"></polygon>

<text fill="#B0B0B0" font-family="Times,serif" font-size="14.00" text-anchor="middle" x="321.705" y="-57.4">../LI[1]/A[1]</text>


</g>

<g>
<image height="1px" id="graph1_node1_img" width="1px" x="427.329" xlink:href="./screenshots/state1.png" y="-288"></image>
</g>
<g>
<image height="1px" id="graph1_node2_img" width="1px" x="194.329" xlink:href="./screenshots/state2.png" y="-198"></image>
</g>
<g>
<image height="1px" id="graph1_node3_img" width="1px" x="331.329" xlink:href="./screenshots/index.png" y="-18"></image>
</g>
<g>
<image height="1px" id="graph1_node4_img" width="1px" x="331.329" xlink:href="./screenshots/state3.png" y="-108"></image>
</g>
</g>

<script xlink:href="../../src/js/SVGPan.js"></script>
</svg>

