<?xml version="1.0" encoding="UTF-8" standalone="no"?>
<!DOCTYPE svg PUBLIC "-//W3C//DTD SVG 1.1//EN"
 "http://www.w3.org/Graphics/SVG/1.1/DTD/svg11.dtd">
<!-- Generated by graphviz version 2.28.0 (20110509.1545)
 -->
<!-- Title: G Pages: 1 -->
<svg width="1591pt" height="134pt"
 viewBox="0.00 0.00 1590.65 134.00" xmlns="http://www.w3.org/2000/svg" xmlns:xlink="http://www.w3.org/1999/xlink">
<g id="graph1" class="graph" transform="scale(1 1) rotate(0) translate(4 130)">
<title>G</title>
<polygon fill="white" stroke="white" points="-4,5 -4,-130 1587.65,-130 1587.65,5 -4,5"/>
<!-- 1 -->
<g id="node1" class="node"><title>1</title>
<ellipse fill="none" stroke="orange" cx="786" cy="-108" rx="32.2368" ry="18"/>
<text text-anchor="middle" x="786" y="-102.4" font-family="Times,serif" font-size="14.00">index</text>
</g>
<!-- 2 -->
<g id="node2" class="node"><title>2</title>
<ellipse fill="none" stroke="orange" cx="33" cy="-18" rx="33.3419" ry="18"/>
<text text-anchor="middle" x="33" y="-12.4" font-family="Times,serif" font-size="14.00">state1</text>
</g>
<!-- 1&#45;&gt;2 -->
<g id="edge2" class="edge"><title>1&#45;&gt;2</title>
<path fill="none" stroke="black" d="M753.761,-107.089C622.182,-107.228 129.945,-105.487 69.6758,-72 58.817,-65.9667 50.4791,-55.1992 44.5176,-44.938"/>
<polygon fill="black" stroke="black" points="47.4647,-43.0229 39.7068,-35.8072 41.2717,-46.2859 47.4647,-43.0229"/>
<text text-anchor="middle" x="102.662" y="-57.4" font-family="Times,serif" font-size="14.00">../P[1]/A[1]</text>
<text text-anchor="middle" x="744.694" y="-105.707" font-family="Times,serif" font-size="14.00">/HTML[1]/BODY[1]/DIV[1]/DIV[1]/DIV[1]/DIV[2]/P[1]/A[1]</text>
</g>
<!-- 3 -->
<g id="node3" class="node"><title>3</title>
<ellipse fill="none" stroke="orange" cx="121" cy="-18" rx="33.3419" ry="18"/>
<text text-anchor="middle" x="121" y="-12.4" font-family="Times,serif" font-size="14.00">state2</text>
</g>
<!-- 1&#45;&gt;3 -->
<g id="edge4" class="edge"><title>1&#45;&gt;3</title>
<path fill="none" stroke="black" d="M753.626,-106.874C632.287,-106.173 208.758,-101.61 156.676,-72 145.971,-65.9143 137.842,-55.1398 132.067,-44.8876"/>
<polygon fill="black" stroke="black" points="135.079,-43.0888 127.419,-35.7686 128.842,-46.2675 135.079,-43.0888"/>
<text text-anchor="middle" x="189.662" y="-57.4" font-family="Times,serif" font-size="14.00">../P[1]/A[1]</text>
<text text-anchor="middle" x="744.53" y="-105.429" font-family="Times,serif" font-size="14.00">/HTML[1]/BODY[1]/DIV[1]/DIV[1]/DIV[1]/DIV[3]/P[1]/A[1]</text>
</g>
<!-- 4 -->
<g id="node4" class="node"><title>4</title>
<ellipse fill="none" stroke="orange" cx="209" cy="-18" rx="33.3419" ry="18"/>
<text text-anchor="middle" x="209" y="-12.4" font-family="Times,serif" font-size="14.00">state3</text>
</g>
<!-- 1&#45;&gt;4 -->
<g id="edge6" class="edge"><title>1&#45;&gt;4</title>
<path fill="none" stroke="black" d="M753.633,-106.586C643.487,-104.948 287.582,-97.6981 243.579,-72 233.047,-65.8491 225.146,-55.066 219.576,-44.8249"/>
<polygon fill="black" stroke="black" points="222.655,-43.1549 215.107,-35.7206 216.372,-46.2396 222.655,-43.1549"/>
<text text-anchor="middle" x="285.21" y="-57.4" font-family="Times,serif" font-size="14.00">../DIV[1]/A[1]</text>
<text text-anchor="middle" x="744.5" y="-105.058" font-family="Times,serif" font-size="14.00">/HTML[1]/BODY[1]/DIV[1]/DIV[1]/DIV[1]/DIV[5]/UL[1]/LI[2]/DIV[1]/A[1]</text>
</g>
<!-- 5 -->
<g id="node5" class="node"><title>5</title>
<ellipse fill="none" stroke="orange" cx="314" cy="-18" rx="33.3419" ry="18"/>
<text text-anchor="middle" x="314" y="-12.4" font-family="Times,serif" font-size="14.00">state4</text>
</g>
<!-- 1&#45;&gt;5 -->
<g id="edge8" class="edge"><title>1&#45;&gt;5</title>
<path fill="none" stroke="black" d="M753.911,-106.111C658.507,-103.237 381.086,-93.1355 346.579,-72 336.528,-65.8438 329.126,-55.3056 323.941,-45.2399"/>
<polygon fill="black" stroke="black" points="326.998,-43.5106 319.635,-35.8924 320.64,-46.4395 326.998,-43.5106"/>
<text text-anchor="middle" x="388.21" y="-57.4" font-family="Times,serif" font-size="14.00">../DIV[1]/A[1]</text>
<text text-anchor="middle" x="744.717" y="-104.443" font-family="Times,serif" font-size="14.00">/HTML[1]/BODY[1]/DIV[1]/DIV[1]/DIV[1]/DIV[5]/UL[1]/LI[3]/DIV[1]/A[1]</text>
</g>
<!-- 6 -->
<g id="node6" class="node"><title>6</title>
<ellipse fill="none" stroke="orange" cx="419" cy="-18" rx="33.3419" ry="18"/>
<text text-anchor="middle" x="419" y="-12.4" font-family="Times,serif" font-size="14.00">state5</text>
</g>
<!-- 1&#45;&gt;6 -->
<g id="edge10" class="edge"><title>1&#45;&gt;6</title>
<path fill="none" stroke="black" d="M753.648,-107.354C679.171,-107.591 498.19,-104.685 448.579,-72 439.044,-65.7177 432.281,-55.257 427.652,-45.2811"/>
<polygon fill="black" stroke="black" points="430.884,-43.9377 423.847,-36.0174 424.409,-46.5973 430.884,-43.9377"/>
<text text-anchor="middle" x="490.21" y="-57.4" font-family="Times,serif" font-size="14.00">../DIV[1]/A[1]</text>
<text text-anchor="middle" x="744.576" y="-105.963" font-family="Times,serif" font-size="14.00">/HTML[1]/BODY[1]/DIV[1]/DIV[1]/DIV[1]/DIV[5]/UL[1]/LI[4]/DIV[1]/A[1]</text>
</g>
<!-- 7 -->
<g id="node7" class="node"><title>7</title>
<ellipse fill="none" stroke="orange" cx="524" cy="-18" rx="33.3419" ry="18"/>
<text text-anchor="middle" x="524" y="-12.4" font-family="Times,serif" font-size="14.00">state6</text>
</g>
<!-- 1&#45;&gt;7 -->
<g id="edge12" class="edge"><title>1&#45;&gt;7</title>
<path fill="none" stroke="black" d="M753.85,-106.047C696.462,-103.745 579.41,-96.1469 547.579,-72 539.123,-65.5853 533.633,-55.4697 530.1,-45.7875"/>
<polygon fill="black" stroke="black" points="533.381,-44.5491 527.085,-36.0279 526.693,-46.6155 533.381,-44.5491"/>
<text text-anchor="middle" x="589.21" y="-57.4" font-family="Times,serif" font-size="14.00">../DIV[1]/A[1]</text>
<text text-anchor="middle" x="744.604" y="-104.255" font-family="Times,serif" font-size="14.00">/HTML[1]/BODY[1]/DIV[1]/DIV[1]/DIV[1]/DIV[5]/UL[1]/LI[5]/DIV[1]/A[1]</text>
</g>
<!-- 8 -->
<g id="node8" class="node"><title>8</title>
<ellipse fill="none" stroke="orange" cx="629" cy="-18" rx="33.3419" ry="18"/>
<text text-anchor="middle" x="629" y="-12.4" font-family="Times,serif" font-size="14.00">state7</text>
</g>
<!-- 1&#45;&gt;8 -->
<g id="edge14" class="edge"><title>1&#45;&gt;8</title>
<path fill="none" stroke="black" d="M754.808,-103.054C717.828,-97.7587 659.228,-87.225 643.579,-72 636.621,-65.2309 632.891,-55.4735 630.922,-46.1712"/>
<polygon fill="black" stroke="black" points="634.345,-45.3993 629.369,-36.0456 627.426,-46.4607 634.345,-45.3993"/>
<text text-anchor="middle" x="685.21" y="-57.4" font-family="Times,serif" font-size="14.00">../DIV[1]/A[1]</text>
<text text-anchor="middle" x="745.219" y="-100.294" font-family="Times,serif" font-size="14.00">/HTML[1]/BODY[1]/DIV[1]/DIV[1]/DIV[1]/DIV[5]/UL[1]/LI[6]/DIV[1]/A[1]</text>
</g>
<!-- 9 -->
<g id="node9" class="node"><title>9</title>
<ellipse fill="none" stroke="orange" cx="734" cy="-18" rx="33.3419" ry="18"/>
<text text-anchor="middle" x="734" y="-12.4" font-family="Times,serif" font-size="14.00">state8</text>
</g>
<!-- 1&#45;&gt;9 -->
<g id="edge16" class="edge"><title>1&#45;&gt;9</title>
<path fill="none" stroke="black" d="M760.918,-96.3545C750.85,-90.6917 740.293,-82.66 734.579,-72 730.438,-64.2737 729.298,-54.9582 729.5,-46.3064"/>
<polygon fill="black" stroke="black" points="732.997,-46.4792 730.3,-36.2335 726.019,-45.925 732.997,-46.4792"/>
<text text-anchor="middle" x="776.21" y="-57.4" font-family="Times,serif" font-size="14.00">../DIV[1]/A[1]</text>
<text text-anchor="middle" x="750.96" y="-89.8315" font-family="Times,serif" font-size="14.00">/HTML[1]/BODY[1]/DIV[1]/DIV[1]/DIV[1]/DIV[5]/UL[1]/LI[7]/DIV[1]/A[1]</text>
</g>
<!-- 10 -->
<g id="node10" class="node"><title>10</title>
<ellipse fill="none" stroke="orange" cx="888" cy="-18" rx="33.3419" ry="18"/>
<text text-anchor="middle" x="888" y="-12.4" font-family="Times,serif" font-size="14.00">state9</text>
</g>
<!-- 1&#45;&gt;10 -->
<g id="edge18" class="edge"><title>1&#45;&gt;10</title>
<path fill="none" stroke="black" d="M800.696,-91.5651C811.341,-80.6638 826.277,-65.9315 840.352,-54 846.38,-48.8893 853.093,-43.6866 859.533,-38.9096"/>
<polygon fill="black" stroke="black" points="862.029,-41.4218 868.056,-32.7079 857.91,-35.7617 862.029,-41.4218"/>
<text text-anchor="middle" x="878.324" y="-57.4" font-family="Times,serif" font-size="14.00">../H2[1]/A[1]</text>
<text text-anchor="middle" x="804.03" y="-76.5371" font-family="Times,serif" font-size="14.00">/HTML[1]/BODY[1]/DIV[1]/DIV[1]/DIV[2]/DIV[1]/TABLE[1]/TBODY[1]/TR[1]/TD[1]/H2[1]/A[1]</text>
</g>
<!-- 1&#45;&gt;10 -->
<g id="edge20" class="edge"><title>1&#45;&gt;10</title>
<path fill="none" stroke="black" d="M817.052,-102.925C851.303,-97.7179 903.158,-87.4832 915,-72 922.058,-62.7722 917.698,-51.4195 910.593,-41.5915"/>
<polygon fill="black" stroke="black" points="913.223,-39.2785 904.169,-33.7747 907.814,-43.7228 913.223,-39.2785"/>
<text text-anchor="middle" x="956.324" y="-57.4" font-family="Times,serif" font-size="14.00">../H2[2]/A[1]</text>
<text text-anchor="middle" x="825.337" y="-91.7244" font-family="Times,serif" font-size="14.00">/HTML[1]/BODY[1]/DIV[1]/DIV[1]/DIV[2]/DIV[1]/TABLE[1]/TBODY[1]/TR[1]/TD[1]/H2[2]/A[1]</text>
</g>
<!-- 11 -->
<g id="node11" class="node"><title>11</title>
<ellipse fill="none" stroke="orange" cx="1084" cy="-18" rx="38.0859" ry="18"/>
<text text-anchor="middle" x="1084" y="-12.4" font-family="Times,serif" font-size="14.00">state12</text>
</g>
<!-- 1&#45;&gt;11 -->
<g id="edge26" class="edge"><title>1&#45;&gt;11</title>
<path fill="none" stroke="black" d="M818.072,-105.479C860.289,-102.632 936.261,-94.5691 997,-72 1018.12,-64.1514 1039.77,-50.9877 1056.19,-39.7432"/>
<polygon fill="black" stroke="black" points="1058.56,-42.3519 1064.73,-33.7397 1054.54,-36.624 1058.56,-42.3519"/>
<text text-anchor="middle" x="1070.32" y="-57.4" font-family="Times,serif" font-size="14.00">../H2[1]/A[1]</text>
<text text-anchor="middle" x="826.794" y="-94.9883" font-family="Times,serif" font-size="14.00">/HTML[1]/BODY[1]/DIV[1]/DIV[1]/DIV[2]/DIV[3]/TABLE[1]/TBODY[1]/TR[1]/TD[1]/H2[1]/A[1]</text>
</g>
<!-- 1&#45;&gt;11 -->
<g id="edge28" class="edge"><title>1&#45;&gt;11</title>
<path fill="none" stroke="black" d="M818.099,-105.931C896.288,-102.996 1091.64,-93.5596 1111,-72 1118.76,-63.3566 1114.49,-52.0747 1107.26,-42.1424"/>
<polygon fill="black" stroke="black" points="1109.76,-39.6764 1100.69,-34.2043 1104.37,-44.1396 1109.76,-39.6764"/>
<text text-anchor="middle" x="1153.32" y="-57.4" font-family="Times,serif" font-size="14.00">../H2[2]/A[1]</text>
<text text-anchor="middle" x="826.984" y="-95.7409" font-family="Times,serif" font-size="14.00">/HTML[1]/BODY[1]/DIV[1]/DIV[1]/DIV[2]/DIV[3]/TABLE[1]/TBODY[1]/TR[1]/TD[1]/H2[2]/A[1]</text>
</g>
<!-- 12 -->
<g id="node12" class="node"><title>12</title>
<ellipse fill="none" stroke="orange" cx="1280" cy="-18" rx="38.0859" ry="18"/>
<text text-anchor="middle" x="1280" y="-12.4" font-family="Times,serif" font-size="14.00">state13</text>
</g>
<!-- 1&#45;&gt;12 -->
<g id="edge30" class="edge"><title>1&#45;&gt;12</title>
<path fill="none" stroke="black" d="M818.35,-106.153C902.111,-103.653 1124.38,-94.9887 1194,-72 1215.36,-64.9472 1236.9,-51.6592 1253.08,-40.1534"/>
<polygon fill="black" stroke="black" points="1255.49,-42.7297 1261.49,-33.9956 1251.35,-37.0834 1255.49,-42.7297"/>
<text text-anchor="middle" x="1269.32" y="-57.4" font-family="Times,serif" font-size="14.00">../H2[1]/A[1]</text>
<text text-anchor="middle" x="827.27" y="-96.0343" font-family="Times,serif" font-size="14.00">/HTML[1]/BODY[1]/DIV[1]/DIV[1]/DIV[2]/DIV[4]/TABLE[1]/TBODY[1]/TR[1]/TD[1]/H2[1]/A[1]</text>
</g>
<!-- 1&#45;&gt;12 -->
<g id="edge32" class="edge"><title>1&#45;&gt;12</title>
<path fill="none" stroke="black" d="M818.489,-107.328C927.253,-108.089 1273.64,-107.674 1307,-72 1314.93,-63.5144 1310.68,-52.2516 1303.42,-42.2911"/>
<polygon fill="black" stroke="black" points="1305.89,-39.7865 1296.81,-34.3202 1300.5,-44.2532 1305.89,-39.7865"/>
<text text-anchor="middle" x="1349.32" y="-57.4" font-family="Times,serif" font-size="14.00">../H2[1]/A[2]</text>
<text text-anchor="middle" x="827.569" y="-97.5384" font-family="Times,serif" font-size="14.00">/HTML[1]/BODY[1]/DIV[1]/DIV[1]/DIV[2]/DIV[4]/TABLE[1]/TBODY[1]/TR[1]/TD[1]/H2[1]/A[2]</text>
</g>
<!-- 13 -->
<g id="node13" class="node"><title>13</title>
<ellipse fill="none" stroke="orange" cx="1427" cy="-18" rx="38.0859" ry="18"/>
<text text-anchor="middle" x="1427" y="-12.4" font-family="Times,serif" font-size="14.00">state10</text>
</g>
<!-- 1&#45;&gt;13 -->
<g id="edge22" class="edge"><title>1&#45;&gt;13</title>
<path fill="none" stroke="black" d="M818.264,-106.765C936.244,-105.684 1339.97,-99.9583 1390,-72 1400.87,-65.9226 1409.28,-55.1492 1415.3,-44.8955"/>
<polygon fill="black" stroke="black" points="1418.55,-46.2444 1420.18,-35.7747 1412.38,-42.9466 1418.55,-46.2444"/>
<text text-anchor="middle" x="1447.32" y="-57.4" font-family="Times,serif" font-size="14.00">../H2[1]/A[1]</text>
<text text-anchor="middle" x="827.28" y="-96.8385" font-family="Times,serif" font-size="14.00">/HTML[1]/BODY[1]/DIV[1]/DIV[1]/DIV[2]/DIV[2]/TABLE[1]/TBODY[1]/TR[1]/TD[1]/H2[1]/A[1]</text>
</g>
<!-- 14 -->
<g id="node14" class="node"><title>14</title>
<ellipse fill="none" stroke="orange" cx="1525" cy="-18" rx="38.0545" ry="18"/>
<text text-anchor="middle" x="1525" y="-12.4" font-family="Times,serif" font-size="14.00">state11</text>
</g>
<!-- 1&#45;&gt;14 -->
<g id="edge24" class="edge"><title>1&#45;&gt;14</title>
<path fill="none" stroke="black" d="M818.47,-107.047C948.703,-107.012 1429.01,-104.652 1488,-72 1498.9,-65.9665 1507.3,-55.1989 1513.33,-44.9378"/>
<polygon fill="black" stroke="black" points="1516.58,-46.2782 1518.19,-35.807 1510.4,-42.9861 1516.58,-46.2782"/>
<text text-anchor="middle" x="1545.32" y="-57.4" font-family="Times,serif" font-size="14.00">../H2[2]/A[1]</text>
<text text-anchor="middle" x="827.523" y="-97.201" font-family="Times,serif" font-size="14.00">/HTML[1]/BODY[1]/DIV[1]/DIV[1]/DIV[2]/DIV[2]/TABLE[1]/TBODY[1]/TR[1]/TD[1]/H2[2]/A[1]</text>
</g>
</g>
</svg>
