<?xml version="1.0" encoding="UTF-8" standalone="no"?>
<!DOCTYPE svg PUBLIC "-//W3C//DTD SVG 1.1//EN"
 "http://www.w3.org/Graphics/SVG/1.1/DTD/svg11.dtd">
<!-- Generated by graphviz version 2.28.0 (20110509.1545)
 -->
<!-- Title: G Pages: 1 -->
<svg width="1759pt" height="224pt"
 viewBox="0.00 0.00 1759.00 224.00" xmlns="http://www.w3.org/2000/svg" xmlns:xlink="http://www.w3.org/1999/xlink">
<g id="graph1" class="graph" transform="scale(1 1) rotate(0) translate(4 220)">
<title>G</title>
<polygon fill="white" stroke="white" points="-4,5 -4,-220 1756,-220 1756,5 -4,5"/>
<!-- 1 -->
<g id="node1" class="node"><title>1</title>
<ellipse fill="none" stroke="orange" cx="812" cy="-198" rx="32.2368" ry="18"/>
<text text-anchor="middle" x="812" y="-192.4" font-family="Times,serif" font-size="14.00">index</text>
</g>
<!-- 2 -->
<g id="node2" class="node"><title>2</title>
<ellipse fill="none" stroke="orange" cx="33" cy="-108" rx="33.3419" ry="18"/>
<text text-anchor="middle" x="33" y="-102.4" font-family="Times,serif" font-size="14.00">state1</text>
</g>
<!-- 1&#45;&gt;2 -->
<g id="edge2" class="edge"><title>1&#45;&gt;2</title>
<path fill="none" stroke="black" d="M779.822,-196.764C636.333,-195.558 60.7207,-189.046 34.248,-162 27.6993,-155.309 26.1577,-145.568 26.678,-136.257"/>
<polygon fill="black" stroke="black" points="30.1784,-136.477 27.9846,-126.112 23.2358,-135.583 30.1784,-136.477"/>
<text text-anchor="middle" x="70.376" y="-147.4" font-family="Times,serif" font-size="14.00">../LI[1]/A[1]</text>
<text text-anchor="middle" x="770.718" y="-195.302" font-family="Times,serif" font-size="14.00">/HTML[1]/BODY[1]/TABLE[1]/TBODY[1]/TR[2]/TD[1]/TABLE[1]/TBODY[1]/TR[1]/TD[2]/UL[1]/LI[1]/A[1]</text>
</g>
<!-- 3 -->
<g id="node3" class="node"><title>3</title>
<ellipse fill="none" stroke="orange" cx="812" cy="-108" rx="33.3419" ry="18"/>
<text text-anchor="middle" x="812" y="-102.4" font-family="Times,serif" font-size="14.00">state2</text>
</g>
<!-- 1&#45;&gt;3 -->
<g id="edge4" class="edge"><title>1&#45;&gt;3</title>
<path fill="none" stroke="black" d="M812,-179.614C812,-167.24 812,-150.369 812,-136.22"/>
<polygon fill="black" stroke="black" points="815.5,-136.05 812,-126.05 808.5,-136.05 815.5,-136.05"/>
<text text-anchor="middle" x="847.376" y="-147.4" font-family="Times,serif" font-size="14.00">../LI[3]/A[1]</text>
<text text-anchor="middle" x="807.774" y="-164.951" font-family="Times,serif" font-size="14.00">/HTML[1]/BODY[1]/TABLE[1]/TBODY[1]/TR[2]/TD[1]/TABLE[1]/TBODY[1]/TR[1]/TD[2]/UL[1]/LI[3]/A[1]</text>
</g>
<!-- 5 -->
<g id="node5" class="node"><title>5</title>
<ellipse fill="none" stroke="orange" cx="361" cy="-18" rx="33.3419" ry="18"/>
<text text-anchor="middle" x="361" y="-12.4" font-family="Times,serif" font-size="14.00">state4</text>
</g>
<!-- 1&#45;&gt;5 -->
<g id="edge28" class="edge"><title>1&#45;&gt;5</title>
<path fill="none" stroke="black" d="M780.152,-195.162C684.943,-189.237 404.139,-168.5 324.248,-126 287.411,-106.404 240.02,-88.1461 264,-54 276.323,-36.4531 298.346,-27.6639 318.296,-23.2785"/>
<polygon fill="black" stroke="black" points="318.997,-26.7081 328.173,-21.4119 317.697,-19.8298 318.997,-26.7081"/>
<text text-anchor="middle" x="360.376" y="-102.4" font-family="Times,serif" font-size="14.00">../LI[5]/A[1]</text>
<text text-anchor="middle" x="770.83" y="-193.182" font-family="Times,serif" font-size="14.00">/HTML[1]/BODY[1]/TABLE[1]/TBODY[1]/TR[2]/TD[1]/TABLE[1]/TBODY[1]/TR[1]/TD[2]/UL[1]/LI[5]/A[1]</text>
</g>
<!-- 6 -->
<g id="node6" class="node"><title>6</title>
<ellipse fill="none" stroke="orange" cx="595" cy="-18" rx="33.3419" ry="18"/>
<text text-anchor="middle" x="595" y="-12.4" font-family="Times,serif" font-size="14.00">state5</text>
</g>
<!-- 1&#45;&gt;6 -->
<g id="edge30" class="edge"><title>1&#45;&gt;6</title>
<path fill="none" stroke="black" d="M780.562,-193.894C730.386,-187.74 630.598,-170.507 559.248,-126 526.565,-105.613 489.633,-86.051 511,-54 520.58,-39.6306 537.294,-31.1512 553.303,-26.1516"/>
<polygon fill="black" stroke="black" points="554.389,-29.4832 563.11,-23.4668 552.541,-22.7316 554.389,-29.4832"/>
<text text-anchor="middle" x="595.376" y="-102.4" font-family="Times,serif" font-size="14.00">../LI[7]/A[1]</text>
<text text-anchor="middle" x="771.02" y="-191.285" font-family="Times,serif" font-size="14.00">/HTML[1]/BODY[1]/TABLE[1]/TBODY[1]/TR[2]/TD[1]/TABLE[1]/TBODY[1]/TR[1]/TD[2]/UL[1]/LI[7]/A[1]</text>
</g>
<!-- 7 -->
<g id="node7" class="node"><title>7</title>
<ellipse fill="none" stroke="orange" cx="699" cy="-18" rx="33.3419" ry="18"/>
<text text-anchor="middle" x="699" y="-12.4" font-family="Times,serif" font-size="14.00">state6</text>
</g>
<!-- 1&#45;&gt;7 -->
<g id="edge32" class="edge"><title>1&#45;&gt;7</title>
<path fill="none" stroke="black" d="M784.251,-188.614C739.996,-173.54 654.97,-137.194 621,-72 610.347,-51.5557 635.011,-37.5671 659.364,-29.1176"/>
<polygon fill="black" stroke="black" points="660.506,-32.4269 668.962,-26.0434 658.371,-25.7605 660.506,-32.4269"/>
<text text-anchor="middle" x="700.376" y="-102.4" font-family="Times,serif" font-size="14.00">../LI[9]/A[1]</text>
<text text-anchor="middle" x="774.293" y="-183.932" font-family="Times,serif" font-size="14.00">/HTML[1]/BODY[1]/TABLE[1]/TBODY[1]/TR[2]/TD[1]/TABLE[1]/TBODY[1]/TR[1]/TD[2]/UL[1]/LI[9]/A[1]</text>
</g>
<!-- 8 -->
<g id="node8" class="node"><title>8</title>
<ellipse fill="none" stroke="orange" cx="188" cy="-18" rx="33.3419" ry="18"/>
<text text-anchor="middle" x="188" y="-12.4" font-family="Times,serif" font-size="14.00">state7</text>
</g>
<!-- 1&#45;&gt;8 -->
<g id="edge34" class="edge"><title>1&#45;&gt;8</title>
<path fill="none" stroke="black" d="M779.722,-195.907C656.824,-191.408 223.106,-172.328 184.761,-126 166.387,-103.801 171.459,-69.24 178.315,-45.4356"/>
<polygon fill="black" stroke="black" points="181.732,-46.2392 181.407,-35.6494 175.057,-44.1308 181.732,-46.2392"/>
<text text-anchor="middle" x="223.62" y="-102.4" font-family="Times,serif" font-size="14.00">../LI[11]/A[1]</text>
<text text-anchor="middle" x="770.499" y="-194.171" font-family="Times,serif" font-size="14.00">/HTML[1]/BODY[1]/TABLE[1]/TBODY[1]/TR[2]/TD[1]/TABLE[1]/TBODY[1]/TR[1]/TD[2]/UL[1]/LI[11]/A[1]</text>
</g>
<!-- 9 -->
<g id="node9" class="node"><title>9</title>
<ellipse fill="none" stroke="orange" cx="1480" cy="-18" rx="33.3419" ry="18"/>
<text text-anchor="middle" x="1480" y="-12.4" font-family="Times,serif" font-size="14.00">state8</text>
</g>
<!-- 1&#45;&gt;9 -->
<g id="edge36" class="edge"><title>1&#45;&gt;9</title>
<path fill="none" stroke="black" d="M844.355,-196.456C979.84,-193.836 1496.67,-180.318 1542,-126 1564.69,-98.8128 1532.41,-62.242 1506.57,-39.6646"/>
<polygon fill="black" stroke="black" points="1508.72,-36.9049 1498.82,-33.133 1504.21,-42.2558 1508.72,-36.9049"/>
<text text-anchor="middle" x="1588.88" y="-102.4" font-family="Times,serif" font-size="14.00">../LI[13]/A[1]</text>
<text text-anchor="middle" x="853.321" y="-186.428" font-family="Times,serif" font-size="14.00">/HTML[1]/BODY[1]/TABLE[1]/TBODY[1]/TR[2]/TD[1]/TABLE[1]/TBODY[1]/TR[1]/TD[2]/UL[1]/LI[13]/A[1]</text>
</g>
<!-- 10 -->
<g id="node10" class="node"><title>10</title>
<ellipse fill="none" stroke="orange" cx="1049" cy="-18" rx="33.3419" ry="18"/>
<text text-anchor="middle" x="1049" y="-12.4" font-family="Times,serif" font-size="14.00">state9</text>
</g>
<!-- 1&#45;&gt;10 -->
<g id="edge38" class="edge"><title>1&#45;&gt;10</title>
<path fill="none" stroke="black" d="M844.405,-196.183C907.223,-193.358 1048.4,-180.875 1151,-126 1182.06,-109.389 1194.94,-104.294 1209,-72 1212.19,-64.6648 1214.02,-60.232 1209,-54 1207.1,-51.6333 1136.38,-36.8192 1089.61,-27.2378"/>
<polygon fill="black" stroke="black" points="1090.24,-23.7934 1079.74,-25.2202 1088.83,-30.6517 1090.24,-23.7934"/>
<text text-anchor="middle" x="1238.88" y="-102.4" font-family="Times,serif" font-size="14.00">../LI[15]/A[1]</text>
<text text-anchor="middle" x="853.22" y="-185.861" font-family="Times,serif" font-size="14.00">/HTML[1]/BODY[1]/TABLE[1]/TBODY[1]/TR[2]/TD[1]/TABLE[1]/TBODY[1]/TR[1]/TD[2]/UL[1]/LI[15]/A[1]</text>
</g>
<!-- 11 -->
<g id="node11" class="node"><title>11</title>
<ellipse fill="none" stroke="orange" cx="1323" cy="-18" rx="38.0859" ry="18"/>
<text text-anchor="middle" x="1323" y="-12.4" font-family="Times,serif" font-size="14.00">state12</text>
</g>
<!-- 1&#45;&gt;11 -->
<g id="edge46" class="edge"><title>1&#45;&gt;11</title>
<path fill="none" stroke="black" d="M844.268,-196.466C954.575,-194.142 1315.27,-182.307 1414,-126 1446.99,-107.188 1483.29,-83.9908 1460,-54 1448.86,-39.6624 1404.87,-30.2092 1369.7,-24.7823"/>
<polygon fill="black" stroke="black" points="1369.98,-21.2867 1359.58,-23.292 1368.96,-28.212 1369.98,-21.2867"/>
<text text-anchor="middle" x="1500.1" y="-102.4" font-family="Times,serif" font-size="14.00">../TD[2]/A[3]</text>
<text text-anchor="middle" x="853.221" y="-186.411" font-family="Times,serif" font-size="14.00">/HTML[1]/BODY[1]/TABLE[1]/TBODY[1]/TR[1]/TD[1]/TABLE[1]/TBODY[1]/TR[1]/TD[2]/A[3]</text>
</g>
<!-- 12 -->
<g id="node12" class="node"><title>12</title>
<ellipse fill="none" stroke="orange" cx="476" cy="-18" rx="38.0859" ry="18"/>
<text text-anchor="middle" x="476" y="-12.4" font-family="Times,serif" font-size="14.00">state13</text>
</g>
<!-- 1&#45;&gt;12 -->
<g id="edge48" class="edge"><title>1&#45;&gt;12</title>
<path fill="none" stroke="black" d="M780.184,-194.668C699.059,-188.169 486.995,-167.538 431.8,-126 404.128,-105.175 383.472,-83.2595 402,-54 409.019,-42.9152 420.6,-35.2736 432.539,-30.0333"/>
<polygon fill="black" stroke="black" points="434.049,-33.2015 442.11,-26.3256 431.521,-26.6741 434.049,-33.2015"/>
<text text-anchor="middle" x="470.1" y="-102.4" font-family="Times,serif" font-size="14.00">../TD[2]/A[5]</text>
<text text-anchor="middle" x="770.795" y="-192.511" font-family="Times,serif" font-size="14.00">/HTML[1]/BODY[1]/TABLE[1]/TBODY[1]/TR[1]/TD[1]/TABLE[1]/TBODY[1]/TR[1]/TD[2]/A[5]</text>
</g>
<!-- 13 -->
<g id="node13" class="node"><title>13</title>
<ellipse fill="none" stroke="orange" cx="954" cy="-18" rx="38.0859" ry="18"/>
<text text-anchor="middle" x="954" y="-12.4" font-family="Times,serif" font-size="14.00">state10</text>
</g>
<!-- 1&#45;&gt;13 -->
<g id="edge42" class="edge"><title>1&#45;&gt;13</title>
<path fill="none" stroke="black" d="M843.237,-193.504C902.741,-184.969 1031.28,-157.101 1086,-72 1119.71,-19.5715 1045.09,-46.7611 1006,-36 1001.93,-34.8797 997.707,-33.6362 993.506,-32.3458"/>
<polygon fill="black" stroke="black" points="994.415,-28.9627 983.826,-29.2863 992.306,-35.6373 994.415,-28.9627"/>
<text text-anchor="middle" x="1108.88" y="-102.4" font-family="Times,serif" font-size="14.00">../LI[19]/A[1]</text>
<text text-anchor="middle" x="851.515" y="-182.293" font-family="Times,serif" font-size="14.00">/HTML[1]/BODY[1]/TABLE[1]/TBODY[1]/TR[2]/TD[1]/TABLE[1]/TBODY[1]/TR[1]/TD[2]/UL[1]/LI[19]/A[1]</text>
</g>
<!-- 14 -->
<g id="node14" class="node"><title>14</title>
<ellipse fill="none" stroke="orange" cx="1181" cy="-18" rx="38.0545" ry="18"/>
<text text-anchor="middle" x="1181" y="-12.4" font-family="Times,serif" font-size="14.00">state11</text>
</g>
<!-- 1&#45;&gt;14 -->
<g id="edge44" class="edge"><title>1&#45;&gt;14</title>
<path fill="none" stroke="black" d="M843.956,-194.978C936.803,-188.669 1204.77,-167.255 1281,-126 1315.95,-107.087 1358.77,-85.0721 1334,-54 1330.53,-49.651 1269.25,-36.6114 1225.31,-27.7364"/>
<polygon fill="black" stroke="black" points="1225.88,-24.2824 1215.39,-25.7443 1224.51,-31.1453 1225.88,-24.2824"/>
<text text-anchor="middle" x="1372.1" y="-102.4" font-family="Times,serif" font-size="14.00">../TD[2]/A[1]</text>
<text text-anchor="middle" x="852.693" y="-184.514" font-family="Times,serif" font-size="14.00">/HTML[1]/BODY[1]/TABLE[1]/TBODY[1]/TR[1]/TD[1]/TABLE[1]/TBODY[1]/TR[1]/TD[2]/A[1]</text>
</g>
<!-- 15 -->
<g id="node15" class="node"><title>15</title>
<ellipse fill="none" stroke="orange" cx="1713" cy="-108" rx="38.0859" ry="18"/>
<text text-anchor="middle" x="1713" y="-102.4" font-family="Times,serif" font-size="14.00">state14</text>
</g>
<!-- 1&#45;&gt;15 -->
<g id="edge40" class="edge"><title>1&#45;&gt;15</title>
<path fill="none" stroke="black" d="M844.486,-197.138C973.182,-197.441 1447.31,-196.164 1593,-162 1624.12,-154.701 1657.19,-139.472 1680.72,-127.204"/>
<polygon fill="black" stroke="black" points="1682.37,-130.289 1689.56,-122.5 1679.08,-124.109 1682.37,-130.289"/>
<text text-anchor="middle" x="1682.88" y="-147.4" font-family="Times,serif" font-size="14.00">../LI[17]/A[1]</text>
<text text-anchor="middle" x="853.55" y="-187.315" font-family="Times,serif" font-size="14.00">/HTML[1]/BODY[1]/TABLE[1]/TBODY[1]/TR[2]/TD[1]/TABLE[1]/TBODY[1]/TR[1]/TD[2]/UL[1]/LI[17]/A[1]</text>
</g>
<!-- 4 -->
<g id="node4" class="node"><title>4</title>
<ellipse fill="none" stroke="orange" cx="812" cy="-18" rx="33.3419" ry="18"/>
<text text-anchor="middle" x="812" y="-12.4" font-family="Times,serif" font-size="14.00">state3</text>
</g>
<!-- 3&#45;&gt;4 -->
<g id="edge6" class="edge"><title>3&#45;&gt;4</title>
<path fill="none" stroke="black" d="M812,-89.614C812,-77.2403 812,-60.3686 812,-46.2198"/>
<polygon fill="black" stroke="black" points="815.5,-46.0504 812,-36.0504 808.5,-46.0504 815.5,-46.0504"/>
<text text-anchor="middle" x="847.376" y="-57.4" font-family="Times,serif" font-size="14.00">../LI[1]/A[1]</text>
<text text-anchor="middle" x="807.774" y="-74.951" font-family="Times,serif" font-size="14.00">/HTML[1]/BODY[1]/TABLE[1]/TBODY[1]/TR[2]/TD[1]/TABLE[1]/TBODY[1]/TR[1]/TD[2]/UL[1]/LI[1]/A[1]</text>
</g>
<!-- 3&#45;&gt;5 -->
<g id="edge8" class="edge"><title>3&#45;&gt;5</title>
<path fill="none" stroke="red" d="M779.918,-102.96C750.161,-99.2916 704.632,-93.8774 665,-90 565.267,-80.2424 534.897,-104.917 440.248,-72 420.253,-65.0463 400.457,-51.8118 385.651,-40.308"/>
<polygon fill="red" stroke="red" points="387.534,-37.3312 377.547,-33.7953 383.15,-42.7876 387.534,-37.3312"/>
<text text-anchor="middle" x="476.376" y="-57.4" font-family="Times,serif" font-size="14.00">../LI[5]/A[1]</text>
<text text-anchor="middle" x="770.408" y="-100.452" font-family="Times,serif" font-size="14.00">/HTML[1]/BODY[1]/TABLE[1]/TBODY[1]/TR[2]/TD[1]/TABLE[1]/TBODY[1]/TR[1]/TD[2]/UL[1]/LI[5]/A[1]</text>
</g>
<!-- 3&#45;&gt;6 -->
<g id="edge10" class="edge"><title>3&#45;&gt;6</title>
<path fill="none" stroke="red" d="M778.801,-105.536C744.076,-102.772 688.927,-94.8198 647.248,-72 634.063,-64.7807 622.07,-53.1766 612.91,-42.6643"/>
<polygon fill="red" stroke="red" points="615.567,-40.3848 606.485,-34.929 610.182,-44.8577 615.567,-40.3848"/>
<text text-anchor="middle" x="683.376" y="-57.4" font-family="Times,serif" font-size="14.00">../LI[7]/A[1]</text>
<text text-anchor="middle" x="769.394" y="-103.329" font-family="Times,serif" font-size="14.00">/HTML[1]/BODY[1]/TABLE[1]/TBODY[1]/TR[2]/TD[1]/TABLE[1]/TBODY[1]/TR[1]/TD[2]/UL[1]/LI[7]/A[1]</text>
</g>
<!-- 3&#45;&gt;7 -->
<g id="edge12" class="edge"><title>3&#45;&gt;7</title>
<path fill="none" stroke="red" d="M784.147,-97.8612C769.188,-92.039 751.042,-83.4266 737.248,-72 727.881,-64.2412 719.653,-53.6881 713.252,-44.041"/>
<polygon fill="red" stroke="red" points="716.194,-42.1438 707.907,-35.5422 710.268,-45.8706 716.194,-42.1438"/>
<text text-anchor="middle" x="773.376" y="-57.4" font-family="Times,serif" font-size="14.00">../LI[9]/A[1]</text>
<text text-anchor="middle" x="774.162" y="-92.819" font-family="Times,serif" font-size="14.00">/HTML[1]/BODY[1]/TABLE[1]/TBODY[1]/TR[2]/TD[1]/TABLE[1]/TBODY[1]/TR[1]/TD[2]/UL[1]/LI[9]/A[1]</text>
</g>
<!-- 3&#45;&gt;8 -->
<g id="edge14" class="edge"><title>3&#45;&gt;8</title>
<path fill="none" stroke="red" d="M779.94,-102.71C750.2,-98.8682 704.681,-93.3408 665,-90 514.105,-77.2957 472.822,-103.757 324.761,-72 287.951,-64.1048 248.045,-47.6521 220.896,-35.1592"/>
<polygon fill="red" stroke="red" points="222.04,-31.8305 211.5,-30.759 219.071,-38.1698 222.04,-31.8305"/>
<text text-anchor="middle" x="363.62" y="-57.4" font-family="Times,serif" font-size="14.00">../LI[11]/A[1]</text>
<text text-anchor="middle" x="770.414" y="-100.152" font-family="Times,serif" font-size="14.00">/HTML[1]/BODY[1]/TABLE[1]/TBODY[1]/TR[2]/TD[1]/TABLE[1]/TBODY[1]/TR[1]/TD[2]/UL[1]/LI[11]/A[1]</text>
</g>
<!-- 3&#45;&gt;9 -->
<g id="edge16" class="edge"><title>3&#45;&gt;9</title>
<path fill="none" stroke="red" d="M844.875,-104.876C959.07,-97.49 1331.94,-73.3034 1338,-72 1376.32,-63.7598 1418.11,-47.1681 1446.37,-34.7318"/>
<polygon fill="red" stroke="red" points="1448.07,-37.8044 1455.77,-30.5267 1445.22,-31.4143 1448.07,-37.8044"/>
<text text-anchor="middle" x="1436.88" y="-57.4" font-family="Times,serif" font-size="14.00">../LI[13]/A[1]</text>
<text text-anchor="middle" x="853.646" y="-94.473" font-family="Times,serif" font-size="14.00">/HTML[1]/BODY[1]/TABLE[1]/TBODY[1]/TR[2]/TD[1]/TABLE[1]/TBODY[1]/TR[1]/TD[2]/UL[1]/LI[13]/A[1]</text>
</g>
<!-- 3&#45;&gt;10 -->
<g id="edge18" class="edge"><title>3&#45;&gt;10</title>
<path fill="none" stroke="red" d="M845.072,-105.11C881.052,-101.984 939.515,-93.7276 985,-72 1000.65,-64.5225 1015.72,-52.3757 1027.3,-41.596"/>
<polygon fill="red" stroke="red" points="1029.96,-43.8906 1034.73,-34.4258 1025.1,-38.8556 1029.96,-43.8906"/>
<text text-anchor="middle" x="1050.88" y="-57.4" font-family="Times,serif" font-size="14.00">../LI[15]/A[1]</text>
<text text-anchor="middle" x="853.688" y="-94.4348" font-family="Times,serif" font-size="14.00">/HTML[1]/BODY[1]/TABLE[1]/TBODY[1]/TR[2]/TD[1]/TABLE[1]/TBODY[1]/TR[1]/TD[2]/UL[1]/LI[15]/A[1]</text>
</g>
<!-- 3&#45;&gt;11 -->
<g id="edge24" class="edge"><title>3&#45;&gt;11</title>
<path fill="none" stroke="red" d="M844.972,-104.751C933.885,-98.5944 1174.24,-81.3038 1209,-72 1237.96,-64.2466 1268.67,-49.5525 1290.91,-37.5994"/>
<polygon fill="red" stroke="red" points="1292.81,-40.5505 1299.89,-32.6727 1289.44,-34.413 1292.81,-40.5505"/>
<text text-anchor="middle" x="1296.1" y="-57.4" font-family="Times,serif" font-size="14.00">../TD[2]/A[3]</text>
<text text-anchor="middle" x="853.717" y="-94.3021" font-family="Times,serif" font-size="14.00">/HTML[1]/BODY[1]/TABLE[1]/TBODY[1]/TR[1]/TD[1]/TABLE[1]/TBODY[1]/TR[1]/TD[2]/A[3]</text>
</g>
<!-- 3&#45;&gt;12 -->
<g id="edge26" class="edge"><title>3&#45;&gt;12</title>
<path fill="none" stroke="red" d="M779.758,-103.231C711.046,-95.1354 555.549,-76.4603 544.8,-72 527.892,-64.9844 511.548,-52.7029 499.035,-41.7281"/>
<polygon fill="red" stroke="red" points="501.148,-38.9187 491.398,-34.7732 496.435,-44.0942 501.148,-38.9187"/>
<text text-anchor="middle" x="583.1" y="-57.4" font-family="Times,serif" font-size="14.00">../TD[2]/A[5]</text>
<text text-anchor="middle" x="770.261" y="-100.762" font-family="Times,serif" font-size="14.00">/HTML[1]/BODY[1]/TABLE[1]/TBODY[1]/TR[1]/TD[1]/TABLE[1]/TBODY[1]/TR[1]/TD[2]/A[5]</text>
</g>
<!-- 3&#45;&gt;13 -->
<g id="edge20" class="edge"><title>3&#45;&gt;13</title>
<path fill="none" stroke="red" d="M837.334,-96.2364C851.448,-89.8609 869.122,-81.2378 884,-72 895.102,-65.1068 896.851,-61.9159 907.248,-54 913.349,-49.3551 919.925,-44.4001 926.163,-39.7237"/>
<polygon fill="red" stroke="red" points="928.473,-42.3669 934.384,-33.5746 924.28,-36.7615 928.473,-42.3669"/>
<text text-anchor="middle" x="946.876" y="-57.4" font-family="Times,serif" font-size="14.00">../LI[19]/A[1]</text>
<text text-anchor="middle" x="843.824" y="-83.0286" font-family="Times,serif" font-size="14.00">/HTML[1]/BODY[1]/TABLE[1]/TBODY[1]/TR[2]/TD[1]/TABLE[1]/TBODY[1]/TR[1]/TD[2]/UL[1]/LI[19]/A[1]</text>
</g>
<!-- 3&#45;&gt;14 -->
<g id="edge22" class="edge"><title>3&#45;&gt;14</title>
<path fill="none" stroke="red" d="M845.455,-107.273C899.162,-106.741 1007.28,-101.649 1093,-72 1114.82,-64.454 1137.07,-50.9895 1153.74,-39.5205"/>
<polygon fill="red" stroke="red" points="1155.76,-42.3741 1161.91,-33.7468 1151.73,-36.656 1155.76,-42.3741"/>
<text text-anchor="middle" x="1167.1" y="-57.4" font-family="Times,serif" font-size="14.00">../TD[2]/A[1]</text>
<text text-anchor="middle" x="854.441" y="-97.2852" font-family="Times,serif" font-size="14.00">/HTML[1]/BODY[1]/TABLE[1]/TBODY[1]/TR[1]/TD[1]/TABLE[1]/TBODY[1]/TR[1]/TD[2]/A[1]</text>
</g>
</g>
</svg>
