<?xml version="1.0" encoding="UTF-8" standalone="no"?>
<!DOCTYPE svg PUBLIC "-//W3C//DTD SVG 1.1//EN"
 "http://www.w3.org/Graphics/SVG/1.1/DTD/svg11.dtd">
<!-- Generated by graphviz version 2.28.0 (20110509.1545)
 -->
<!-- Title: G Pages: 1 -->
<svg width="2512pt" height="134pt"
 viewBox="0.00 0.00 2511.59 134.00" xmlns="http://www.w3.org/2000/svg" xmlns:xlink="http://www.w3.org/1999/xlink">
<g id="graph1" class="graph" transform="scale(1 1) rotate(0) translate(4 130)">
<title>G</title>
<polygon fill="white" stroke="white" points="-4,5 -4,-130 2508.59,-130 2508.59,5 -4,5"/>
<!-- 1 -->
<g id="node1" class="node"><title>1</title>
<ellipse fill="none" stroke="orange" cx="1130.24" cy="-108" rx="32.2368" ry="18"/>
<text text-anchor="middle" x="1130.24" y="-102.4" font-family="Times,serif" font-size="14.00">index</text>
</g>
<!-- 2 -->
<g id="node2" class="node"><title>2</title>
<ellipse fill="none" stroke="orange" cx="106.236" cy="-18" rx="33.3419" ry="18"/>
<text text-anchor="middle" x="106.236" y="-12.4" font-family="Times,serif" font-size="14.00">state1</text>
</g>
<!-- 1&#45;&gt;2 -->
<g id="edge2" class="edge"><title>1&#45;&gt;2</title>
<path fill="none" stroke="black" d="M1097.86,-106.921C929.719,-106.381 162.312,-102.261 122.691,-72 114.707,-65.9017 110.497,-55.9772 108.311,-46.3556"/>
<polygon fill="black" stroke="black" points="111.723,-45.5316 106.651,-36.2295 104.815,-46.664 111.723,-45.5316"/>
<text text-anchor="middle" x="180.009" y="-57.4" font-family="Times,serif" font-size="14.00">../STRONG[1]/A[1]</text>
<text text-anchor="middle" x="1088.78" y="-105.508" font-family="Times,serif" font-size="14.00">/HTML[1]/BODY[1]/TABLE[1]/TBODY[1]/TR[5]/TD[1]/DIV[1]/CENTER[1]/TABLE[1]/TBODY[1]/TR[1]/TD[2]/P[1]/SPAN[1]/SPAN[1]/STRONG[1]/A[1]</text>
</g>
<!-- 3 -->
<g id="node3" class="node"><title>3</title>
<ellipse fill="none" stroke="orange" cx="300.236" cy="-18" rx="33.3419" ry="18"/>
<text text-anchor="middle" x="300.236" y="-12.4" font-family="Times,serif" font-size="14.00">state2</text>
</g>
<!-- 1&#45;&gt;3 -->
<g id="edge4" class="edge"><title>1&#45;&gt;3</title>
<path fill="none" stroke="black" d="M1097.83,-106.962C941.801,-106.626 274.329,-103.353 244.19,-72 231.669,-58.9739 247.914,-44.9565 266.081,-34.611"/>
<polygon fill="black" stroke="black" points="267.851,-37.6338 275.037,-29.8477 264.564,-31.4536 267.851,-37.6338"/>
<text text-anchor="middle" x="290.259" y="-57.4" font-family="Times,serif" font-size="14.00">../SPAN[1]/A[1]</text>
<text text-anchor="middle" x="1088.75" y="-105.557" font-family="Times,serif" font-size="14.00">/HTML[1]/BODY[1]/TABLE[1]/TBODY[1]/TR[5]/TD[1]/DIV[1]/CENTER[1]/TABLE[1]/TBODY[1]/TR[2]/TD[2]/STRONG[1]/SPAN[1]/SPAN[1]/A[1]</text>
</g>
<!-- 4 -->
<g id="node4" class="node"><title>4</title>
<ellipse fill="none" stroke="orange" cx="520.236" cy="-18" rx="33.3419" ry="18"/>
<text text-anchor="middle" x="520.236" y="-12.4" font-family="Times,serif" font-size="14.00">state3</text>
</g>
<!-- 1&#45;&gt;4 -->
<g id="edge8" class="edge"><title>1&#45;&gt;4</title>
<path fill="none" stroke="black" d="M1097.69,-106.487C968.505,-104.295 497.941,-94.7665 476.36,-72 466.016,-61.0874 476.452,-48.0925 489.734,-37.7014"/>
<polygon fill="black" stroke="black" points="492.133,-40.2876 498.211,-31.6098 488.048,-34.603 492.133,-40.2876"/>
<text text-anchor="middle" x="510.674" y="-57.4" font-family="Times,serif" font-size="14.00">../B[1]/A[1]</text>
<text text-anchor="middle" x="1088.55" y="-104.946" font-family="Times,serif" font-size="14.00">/HTML[1]/BODY[1]/TABLE[1]/TBODY[1]/TR[5]/TD[1]/DIV[1]/CENTER[1]/TABLE[1]/TBODY[1]/TR[2]/TD[4]/B[1]/A[1]</text>
</g>
<!-- 5 -->
<g id="node5" class="node"><title>5</title>
<ellipse fill="none" stroke="orange" cx="712.236" cy="-18" rx="33.3419" ry="18"/>
<text text-anchor="middle" x="712.236" y="-12.4" font-family="Times,serif" font-size="14.00">state4</text>
</g>
<!-- 1&#45;&gt;5 -->
<g id="edge12" class="edge"><title>1&#45;&gt;5</title>
<path fill="none" stroke="black" d="M1097.86,-107.095C995.857,-107.059 686.168,-104.272 656.19,-72 643.972,-58.8459 659.92,-44.9341 677.886,-34.6655"/>
<polygon fill="black" stroke="black" points="679.577,-37.7307 686.753,-29.9366 676.282,-31.5542 679.577,-37.7307"/>
<text text-anchor="middle" x="702.259" y="-57.4" font-family="Times,serif" font-size="14.00">../SPAN[1]/A[1]</text>
<text text-anchor="middle" x="1088.78" y="-105.691" font-family="Times,serif" font-size="14.00">/HTML[1]/BODY[1]/TABLE[1]/TBODY[1]/TR[5]/TD[1]/DIV[1]/CENTER[1]/TABLE[1]/TBODY[1]/TR[3]/TD[2]/SPAN[1]/SPAN[1]/STRONG[1]/FONT[1]/SPAN[1]/A[1]</text>
</g>
<!-- 6 -->
<g id="node6" class="node"><title>6</title>
<ellipse fill="none" stroke="orange" cx="905.236" cy="-18" rx="33.3419" ry="18"/>
<text text-anchor="middle" x="905.236" y="-12.4" font-family="Times,serif" font-size="14.00">state5</text>
</g>
<!-- 1&#45;&gt;6 -->
<g id="edge16" class="edge"><title>1&#45;&gt;6</title>
<path fill="none" stroke="black" d="M1098.23,-105.168C1030.33,-100.956 876.795,-89.5741 861.36,-72 851.503,-60.7768 861.745,-47.8722 874.801,-37.6066"/>
<polygon fill="black" stroke="black" points="877.076,-40.2818 883.14,-31.5945 872.982,-34.6036 877.076,-40.2818"/>
<text text-anchor="middle" x="895.674" y="-57.4" font-family="Times,serif" font-size="14.00">../B[1]/A[1]</text>
<text text-anchor="middle" x="1088.91" y="-103.197" font-family="Times,serif" font-size="14.00">/HTML[1]/BODY[1]/TABLE[1]/TBODY[1]/TR[5]/TD[1]/DIV[1]/CENTER[1]/TABLE[1]/TBODY[1]/TR[4]/TD[2]/B[1]/A[1]</text>
</g>
<!-- 7 -->
<g id="node7" class="node"><title>7</title>
<ellipse fill="none" stroke="orange" cx="1085.24" cy="-18" rx="33.3419" ry="18"/>
<text text-anchor="middle" x="1085.24" y="-12.4" font-family="Times,serif" font-size="14.00">state6</text>
</g>
<!-- 1&#45;&gt;7 -->
<g id="edge20" class="edge"><title>1&#45;&gt;7</title>
<path fill="none" stroke="black" d="M1098.77,-103.516C1078.7,-99.4821 1054.15,-90.7787 1041.36,-72 1033.2,-60.0129 1042.65,-47.4754 1054.84,-37.6054"/>
<polygon fill="black" stroke="black" points="1057.1,-40.2821 1063.09,-31.5373 1052.96,-34.6433 1057.1,-40.2821"/>
<text text-anchor="middle" x="1075.67" y="-57.4" font-family="Times,serif" font-size="14.00">../B[1]/A[1]</text>
<text text-anchor="middle" x="1089.01" y="-100.088" font-family="Times,serif" font-size="14.00">/HTML[1]/BODY[1]/TABLE[1]/TBODY[1]/TR[5]/TD[1]/DIV[1]/CENTER[1]/TABLE[1]/TBODY[1]/TR[4]/TD[4]/B[1]/A[1]</text>
</g>
<!-- 8 -->
<g id="node8" class="node"><title>8</title>
<ellipse fill="none" stroke="orange" cx="1218.24" cy="-18" rx="33.3419" ry="18"/>
<text text-anchor="middle" x="1218.24" y="-12.4" font-family="Times,serif" font-size="14.00">state7</text>
</g>
<!-- 1&#45;&gt;8 -->
<g id="edge24" class="edge"><title>1&#45;&gt;8</title>
<path fill="none" stroke="black" d="M1153.79,-95.5485C1164.53,-89.5509 1176.9,-81.4762 1186.24,-72 1194.04,-64.0733 1200.77,-53.8929 1206.01,-44.5768"/>
<polygon fill="black" stroke="black" points="1209.14,-46.1378 1210.74,-35.6643 1202.96,-42.8548 1209.14,-46.1378"/>
<text text-anchor="middle" x="1247.28" y="-57.4" font-family="Times,serif" font-size="14.00">../FONT[1]/A[1]</text>
<text text-anchor="middle" x="1159.57" y="-81.7904" font-family="Times,serif" font-size="14.00">/HTML[1]/BODY[1]/TABLE[1]/TBODY[1]/TR[5]/TD[1]/DIV[1]/CENTER[1]/TABLE[1]/TBODY[1]/TR[5]/TD[2]/B[1]/FONT[1]/A[1]</text>
</g>
<!-- 9 -->
<g id="node9" class="node"><title>9</title>
<ellipse fill="none" stroke="orange" cx="1393.24" cy="-18" rx="33.3419" ry="18"/>
<text text-anchor="middle" x="1393.24" y="-12.4" font-family="Times,serif" font-size="14.00">state8</text>
</g>
<!-- 1&#45;&gt;9 -->
<g id="edge26" class="edge"><title>1&#45;&gt;9</title>
<path fill="none" stroke="black" d="M1161.68,-103.349C1196.04,-98.6995 1252.32,-89.1335 1298.24,-72 1311.2,-67.1621 1340.45,-50.4951 1363.1,-37.1275"/>
<polygon fill="black" stroke="black" points="1364.9,-40.1281 1371.71,-32.0139 1361.33,-34.1087 1364.9,-40.1281"/>
<text text-anchor="middle" x="1381.28" y="-57.4" font-family="Times,serif" font-size="14.00">../FONT[1]/A[1]</text>
<text text-anchor="middle" x="1170.07" y="-92.2962" font-family="Times,serif" font-size="14.00">/HTML[1]/BODY[1]/TABLE[1]/TBODY[1]/TR[5]/TD[1]/DIV[1]/CENTER[1]/TABLE[1]/TBODY[1]/TR[5]/TD[4]/B[1]/FONT[1]/A[1]</text>
</g>
<!-- 1&#45;&gt;9 -->
<g id="edge28" class="edge"><title>1&#45;&gt;9</title>
<path fill="none" stroke="black" d="M1162.3,-105.625C1236.02,-102.136 1412.63,-91.7797 1430.24,-72 1439.27,-61.8524 1431.48,-49.4497 1420.77,-39.1942"/>
<polygon fill="black" stroke="black" points="1422.9,-36.4067 1413.05,-32.4914 1418.31,-41.6915 1422.9,-36.4067"/>
<text text-anchor="middle" x="1481.28" y="-57.4" font-family="Times,serif" font-size="14.00">../FONT[1]/A[2]</text>
<text text-anchor="middle" x="1171.14" y="-95.3489" font-family="Times,serif" font-size="14.00">/HTML[1]/BODY[1]/TABLE[1]/TBODY[1]/TR[5]/TD[1]/DIV[1]/CENTER[1]/TABLE[1]/TBODY[1]/TR[5]/TD[4]/B[1]/FONT[1]/A[2]</text>
</g>
<!-- 10 -->
<g id="node10" class="node"><title>10</title>
<ellipse fill="none" stroke="orange" cx="1569.24" cy="-18" rx="33.3419" ry="18"/>
<text text-anchor="middle" x="1569.24" y="-12.4" font-family="Times,serif" font-size="14.00">state9</text>
</g>
<!-- 1&#45;&gt;10 -->
<g id="edge30" class="edge"><title>1&#45;&gt;10</title>
<path fill="none" stroke="black" d="M1162.49,-107.64C1246.45,-108.772 1469.61,-108.197 1532.24,-72 1543.02,-65.7657 1551.41,-54.9715 1557.45,-44.7446"/>
<polygon fill="black" stroke="black" points="1560.69,-46.1233 1562.35,-35.6592 1554.52,-42.805 1560.69,-46.1233"/>
<text text-anchor="middle" x="1598.28" y="-57.4" font-family="Times,serif" font-size="14.00">../FONT[1]/A[1]</text>
<text text-anchor="middle" x="1171.59" y="-97.8936" font-family="Times,serif" font-size="14.00">/HTML[1]/BODY[1]/TABLE[1]/TBODY[1]/TR[5]/TD[1]/DIV[1]/CENTER[1]/TABLE[1]/TBODY[1]/TR[6]/TD[2]/B[1]/FONT[1]/A[1]</text>
</g>
<!-- 11 -->
<g id="node11" class="node"><title>11</title>
<ellipse fill="none" stroke="orange" cx="1731.24" cy="-18" rx="38.0859" ry="18"/>
<text text-anchor="middle" x="1731.24" y="-12.4" font-family="Times,serif" font-size="14.00">state12</text>
</g>
<!-- 1&#45;&gt;11 -->
<g id="edge38" class="edge"><title>1&#45;&gt;11</title>
<path fill="none" stroke="black" d="M1162.56,-106.929C1261.38,-106.382 1558.28,-102.2 1649.24,-72 1669.87,-65.1498 1690.41,-51.8613 1705.77,-40.3047"/>
<polygon fill="black" stroke="black" points="1707.99,-43.013 1713.74,-34.1145 1703.69,-37.4848 1707.99,-43.013"/>
<text text-anchor="middle" x="1718.67" y="-57.4" font-family="Times,serif" font-size="14.00">../B[1]/A[1]</text>
<text text-anchor="middle" x="1171.59" y="-97.0266" font-family="Times,serif" font-size="14.00">/HTML[1]/BODY[1]/TABLE[1]/TBODY[1]/TR[5]/TD[1]/DIV[1]/CENTER[1]/TABLE[1]/TBODY[1]/TR[7]/TD[4]/B[1]/A[1]</text>
</g>
<!-- 12 -->
<g id="node12" class="node"><title>12</title>
<ellipse fill="none" stroke="orange" cx="1890.24" cy="-18" rx="38.0859" ry="18"/>
<text text-anchor="middle" x="1890.24" y="-12.4" font-family="Times,serif" font-size="14.00">state13</text>
</g>
<!-- 1&#45;&gt;12 -->
<g id="edge42" class="edge"><title>1&#45;&gt;12</title>
<path fill="none" stroke="black" d="M1162.55,-107.193C1295.59,-107.753 1796.83,-107.474 1857.24,-72 1867.44,-66.0102 1874.94,-55.4965 1880.19,-45.4041"/>
<polygon fill="black" stroke="black" points="1883.51,-46.5625 1884.54,-36.0185 1877.16,-43.6149 1883.51,-46.5625"/>
<text text-anchor="middle" x="1908.67" y="-57.4" font-family="Times,serif" font-size="14.00">../B[1]/A[1]</text>
<text text-anchor="middle" x="1171.62" y="-97.3865" font-family="Times,serif" font-size="14.00">/HTML[1]/BODY[1]/TABLE[1]/TBODY[1]/TR[5]/TD[1]/DIV[1]/CENTER[1]/TABLE[1]/TBODY[1]/TR[8]/TD[2]/SPAN[1]/SPAN[1]/B[1]/A[1]</text>
</g>
<!-- 13 -->
<g id="node13" class="node"><title>13</title>
<ellipse fill="none" stroke="orange" cx="1985.24" cy="-18" rx="38.0859" ry="18"/>
<text text-anchor="middle" x="1985.24" y="-12.4" font-family="Times,serif" font-size="14.00">state10</text>
</g>
<!-- 1&#45;&gt;13 -->
<g id="edge32" class="edge"><title>1&#45;&gt;13</title>
<path fill="none" stroke="black" d="M1162.92,-107.23C1306.25,-108.02 1875.18,-108.794 1945.24,-72 1956.68,-65.9887 1965.78,-55.0729 1972.38,-44.7032"/>
<polygon fill="black" stroke="black" points="1975.52,-46.2682 1977.54,-35.8682 1969.48,-42.7371 1975.52,-46.2682"/>
<text text-anchor="middle" x="1999.67" y="-57.4" font-family="Times,serif" font-size="14.00">../B[1]/A[1]</text>
<text text-anchor="middle" x="1172" y="-97.4367" font-family="Times,serif" font-size="14.00">/HTML[1]/BODY[1]/TABLE[1]/TBODY[1]/TR[5]/TD[1]/DIV[1]/CENTER[1]/TABLE[1]/TBODY[1]/TR[6]/TD[4]/P[1]/B[1]/A[1]</text>
</g>
<!-- 14 -->
<g id="node14" class="node"><title>14</title>
<ellipse fill="none" stroke="orange" cx="2134.24" cy="-18" rx="38.0545" ry="18"/>
<text text-anchor="middle" x="2134.24" y="-12.4" font-family="Times,serif" font-size="14.00">state11</text>
</g>
<!-- 1&#45;&gt;14 -->
<g id="edge34" class="edge"><title>1&#45;&gt;14</title>
<path fill="none" stroke="black" d="M1162.61,-106.619C1314.28,-104.719 1950.74,-95.4031 2036.24,-72 2043.29,-70.0699 2076.19,-51.9369 2101.95,-37.4107"/>
<polygon fill="black" stroke="black" points="2103.72,-40.4255 2110.71,-32.4554 2100.28,-34.3328 2103.72,-40.4255"/>
<text text-anchor="middle" x="2117.26" y="-57.4" font-family="Times,serif" font-size="14.00">../SPAN[1]/A[1]</text>
<text text-anchor="middle" x="1171.62" y="-96.6708" font-family="Times,serif" font-size="14.00">/HTML[1]/BODY[1]/TABLE[1]/TBODY[1]/TR[5]/TD[1]/DIV[1]/CENTER[1]/TABLE[1]/TBODY[1]/TR[7]/TD[2]/SPAN[1]/SPAN[1]/A[1]</text>
</g>
<!-- 3&#45;&gt;1 -->
<g id="edge6" class="edge"><title>3&#45;&gt;1</title>
<path fill="none" stroke="red" d="M315.692,-34.2366C329.665,-46.9194 351.468,-64.128 374.14,-72 441.497,-95.3881 938.118,-104.276 1087.71,-106.44"/>
<polygon fill="red" stroke="red" points="1087.82,-109.942 1097.87,-106.584 1087.92,-102.942 1087.82,-109.942"/>
<text text-anchor="middle" x="421.285" y="-57.4" font-family="Times,serif" font-size="14.00">../FONT[1]/A[1]</text>
<text text-anchor="middle" x="325.274" y="-31.4966" font-family="Times,serif" font-size="14.00">/HTML[1]/BODY[1]/DIV[1]/CENTER[1]/TABLE[1]/TBODY[1]/TR[4]/TD[1]/P[2]/B[1]/FONT[1]/FONT[1]/A[1]</text>
</g>
<!-- 4&#45;&gt;1 -->
<g id="edge10" class="edge"><title>4&#45;&gt;1</title>
<path fill="none" stroke="black" d="M533.196,-34.8772C544.467,-47.4106 561.996,-64.0627 581.36,-72 627.725,-91.0048 967.099,-102.375 1087.78,-105.853"/>
<polygon fill="black" stroke="black" points="1088.01,-109.361 1098.1,-106.147 1088.2,-102.364 1088.01,-109.361"/>
<text text-anchor="middle" x="615.674" y="-57.4" font-family="Times,serif" font-size="14.00">../B[1]/A[1]</text>
<text text-anchor="middle" x="542.444" y="-33.0812" font-family="Times,serif" font-size="14.00">/HTML[1]/BODY[1]/P[1]/B[1]/A[1]</text>
</g>
<!-- 5&#45;&gt;1 -->
<g id="edge14" class="edge"><title>5&#45;&gt;1</title>
<path fill="none" stroke="black" d="M728.107,-33.9244C742.414,-46.4069 764.638,-63.4972 787.36,-72 841.463,-92.245 1009,-101.861 1088.09,-105.365"/>
<polygon fill="black" stroke="black" points="1088.04,-108.867 1098.19,-105.801 1088.35,-101.873 1088.04,-108.867"/>
<text text-anchor="middle" x="821.674" y="-57.4" font-family="Times,serif" font-size="14.00">../B[1]/A[1]</text>
<text text-anchor="middle" x="737.741" y="-31.0061" font-family="Times,serif" font-size="14.00">/HTML[1]/BODY[1]/DIV[1]/CENTER[1]/TABLE[1]/TBODY[1]/TR[2]/TD[1]/P[1]/FONT[1]/B[1]/A[1]</text>
</g>
<!-- 6&#45;&gt;1 -->
<g id="edge18" class="edge"><title>6&#45;&gt;1</title>
<path fill="none" stroke="black" d="M919.307,-34.3633C931.217,-46.4221 949.343,-62.6799 968.36,-72 1006.5,-90.6916 1054.52,-99.4657 1088.32,-103.544"/>
<polygon fill="black" stroke="black" points="1088,-107.03 1098.33,-104.665 1088.78,-100.073 1088,-107.03"/>
<text text-anchor="middle" x="1002.67" y="-57.4" font-family="Times,serif" font-size="14.00">../B[1]/A[1]</text>
<text text-anchor="middle" x="928.714" y="-32.1564" font-family="Times,serif" font-size="14.00">/HTML[1]/BODY[1]/DIV[1]/CENTER[1]/TABLE[1]/TBODY[1]/TR[1]/TD[1]/P[5]/B[1]/A[1]</text>
</g>
<!-- 7&#45;&gt;1 -->
<g id="edge22" class="edge"><title>7&#45;&gt;1</title>
<path fill="none" stroke="black" d="M1096.66,-34.9939C1100.58,-40.8299 1104.83,-47.5758 1108.24,-54 1112.66,-62.3513 1116.83,-71.792 1120.32,-80.3676"/>
<polygon fill="black" stroke="black" points="1117.16,-81.8996 1124.09,-89.9201 1123.68,-79.3331 1117.16,-81.8996"/>
<text text-anchor="middle" x="1149.9" y="-57.4" font-family="Times,serif" font-size="14.00">../P[2]/A[1]</text>
<text text-anchor="middle" x="1105.2" y="-34.5891" font-family="Times,serif" font-size="14.00">/HTML[1]/BODY[1]/P[2]/A[1]</text>
</g>
<!-- 11&#45;&gt;1 -->
<g id="edge40" class="edge"><title>11&#45;&gt;1</title>
<path fill="none" stroke="black" d="M1746.68,-35.0126C1755.87,-46.4754 1764.02,-61.6503 1754.24,-72 1734.26,-93.1312 1310.01,-103.418 1172.7,-106.202"/>
<polygon fill="black" stroke="black" points="1172.5,-102.705 1162.57,-106.405 1172.64,-109.704 1172.5,-102.705"/>
<text text-anchor="middle" x="1806.28" y="-57.4" font-family="Times,serif" font-size="14.00">../FONT[1]/A[1]</text>
<text text-anchor="middle" x="1755.54" y="-34.0412" font-family="Times,serif" font-size="14.00">/HTML[1]/BODY[1]/DIV[1]/CENTER[1]/TABLE[1]/TBODY[1]/TR[5]/TD[1]/P[1]/FONT[1]/A[1]</text>
</g>
<!-- 14&#45;&gt;1 -->
<g id="edge36" class="edge"><title>14&#45;&gt;1</title>
<path fill="none" stroke="red" d="M2152.93,-33.6978C2165.2,-45.0657 2177.14,-60.7178 2166.24,-72 2131.19,-108.25 1363.35,-107.853 1172.76,-107.193"/>
<polygon fill="red" stroke="red" points="1172.59,-103.692 1162.58,-107.156 1172.56,-110.692 1172.59,-103.692"/>
<text text-anchor="middle" x="2217.28" y="-57.4" font-family="Times,serif" font-size="14.00">../FONT[1]/A[1]</text>
<text text-anchor="middle" x="2162.38" y="-31.3603" font-family="Times,serif" font-size="14.00">/HTML[1]/BODY[1]/DIV[1]/CENTER[1]/TABLE[1]/TBODY[1]/TR[1]/TD[3]/P[13]/I[1]/B[1]/FONT[1]/FONT[1]/A[1]</text>
</g>
</g>
</svg>
