<?xml version="1.0" encoding="UTF-8" standalone="no"?>
<!DOCTYPE svg PUBLIC "-//W3C//DTD SVG 1.1//EN"
 "http://www.w3.org/Graphics/SVG/1.1/DTD/svg11.dtd">
<!-- Generated by graphviz version 2.28.0 (20110509.1545)
 -->
<!-- Title: G Pages: 1 -->
<svg width="831pt" height="134pt"
 viewBox="0.00 0.00 831.20 134.00" xmlns="http://www.w3.org/2000/svg" xmlns:xlink="http://www.w3.org/1999/xlink">
<g id="graph1" class="graph" transform="scale(1 1) rotate(0) translate(4 130)">
<title>G</title>
<polygon fill="white" stroke="white" points="-4,5 -4,-130 828.204,-130 828.204,5 -4,5"/>
<!-- 1 -->
<g id="node1" class="node"><title>1</title>
<ellipse fill="none" stroke="orange" cx="265.786" cy="-18" rx="33.3419" ry="18"/>
<text text-anchor="middle" x="265.786" y="-12.4" font-family="Times,serif" font-size="14.00">state1</text>
</g>
<!-- 2 -->
<g id="node2" class="node"><title>2</title>
<ellipse fill="none" stroke="orange" cx="363.786" cy="-18" rx="33.3419" ry="18"/>
<text text-anchor="middle" x="363.786" y="-12.4" font-family="Times,serif" font-size="14.00">state2</text>
</g>
<!-- 3 -->
<g id="node3" class="node"><title>3</title>
<ellipse fill="none" stroke="orange" cx="412.786" cy="-108" rx="32.2368" ry="18"/>
<text text-anchor="middle" x="412.786" y="-102.4" font-family="Times,serif" font-size="14.00">index</text>
</g>
<!-- 3&#45;&gt;1 -->
<g id="edge2" class="edge"><title>3&#45;&gt;1</title>
<path fill="none" stroke="black" d="M380.349,-106.765C350.991,-104.802 308.437,-97.3308 282.138,-72 275.083,-65.2051 271.053,-55.4424 268.758,-46.1431"/>
<polygon fill="black" stroke="black" points="272.14,-45.1945 266.835,-36.0237 265.263,-46.5014 272.14,-45.1945"/>
<text text-anchor="middle" x="320.11" y="-57.4" font-family="Times,serif" font-size="14.00">../H2[1]/A[1]</text>
<text text-anchor="middle" x="370.966" y="-104.622" font-family="Times,serif" font-size="14.00">/HTML[1]/BODY[1]/DIV[1]/DIV[2]/DIV[1]/TABLE[1]/TBODY[1]/TR[1]/TD[1]/TABLE[1]/TBODY[1]/TR[1]/TD[2]/H2[1]/A[1]</text>
</g>
<!-- 3&#45;&gt;2 -->
<g id="edge4" class="edge"><title>3&#45;&gt;2</title>
<path fill="none" stroke="black" d="M389.071,-95.5979C379.898,-89.8769 370.365,-82.0075 365.138,-72 361.078,-64.2279 359.852,-54.9007 359.914,-46.2522"/>
<polygon fill="black" stroke="black" points="363.412,-46.3829 360.524,-36.1896 356.425,-45.9596 363.412,-46.3829"/>
<text text-anchor="middle" x="403.11" y="-57.4" font-family="Times,serif" font-size="14.00">../H2[1]/A[1]</text>
<text text-anchor="middle" x="379.164" y="-88.6322" font-family="Times,serif" font-size="14.00">/HTML[1]/BODY[1]/DIV[1]/DIV[2]/DIV[1]/TABLE[1]/TBODY[1]/TR[2]/TD[1]/TABLE[1]/TBODY[1]/TR[1]/TD[1]/H2[1]/A[1]</text>
</g>
<!-- 4 -->
<g id="node4" class="node"><title>4</title>
<ellipse fill="none" stroke="orange" cx="461.786" cy="-18" rx="33.3419" ry="18"/>
<text text-anchor="middle" x="461.786" y="-12.4" font-family="Times,serif" font-size="14.00">state3</text>
</g>
<!-- 3&#45;&gt;4 -->
<g id="edge6" class="edge"><title>3&#45;&gt;4</title>
<path fill="none" stroke="black" d="M426.082,-91.5938C430.777,-85.7046 435.861,-78.7726 439.786,-72 444.65,-63.608 448.996,-53.9335 452.515,-45.1657"/>
<polygon fill="black" stroke="black" points="455.806,-46.3587 456.12,-35.7685 449.27,-43.8515 455.806,-46.3587"/>
<text text-anchor="middle" x="486.11" y="-57.4" font-family="Times,serif" font-size="14.00">../H2[1]/A[1]</text>
<text text-anchor="middle" x="428.381" y="-76.2618" font-family="Times,serif" font-size="14.00">/HTML[1]/BODY[1]/DIV[1]/DIV[2]/DIV[1]/TABLE[1]/TBODY[1]/TR[3]/TD[1]/TABLE[1]/TBODY[1]/TR[1]/TD[2]/H2[1]/A[1]</text>
</g>
<!-- 5 -->
<g id="node5" class="node"><title>5</title>
<ellipse fill="none" stroke="orange" cx="559.786" cy="-18" rx="33.3419" ry="18"/>
<text text-anchor="middle" x="559.786" y="-12.4" font-family="Times,serif" font-size="14.00">state4</text>
</g>
<!-- 3&#45;&gt;5 -->
<g id="edge8" class="edge"><title>3&#45;&gt;5</title>
<path fill="none" stroke="black" d="M444.07,-103.462C468.658,-99.346 502.667,-90.5606 526.786,-72 535.9,-64.9867 543.127,-54.6836 548.467,-45.0221"/>
<polygon fill="black" stroke="black" points="551.599,-46.5846 553.007,-36.0838 545.358,-43.4141 551.599,-46.5846"/>
<text text-anchor="middle" x="580.11" y="-57.4" font-family="Times,serif" font-size="14.00">../H2[1]/A[1]</text>
<text text-anchor="middle" x="452.238" y="-92.0924" font-family="Times,serif" font-size="14.00">/HTML[1]/BODY[1]/DIV[1]/DIV[2]/DIV[1]/TABLE[1]/TBODY[1]/TR[4]/TD[1]/TABLE[1]/TBODY[1]/TR[1]/TD[1]/H2[1]/A[1]</text>
</g>
</g>
</svg>
