<?xml version="1.0" encoding="UTF-8" standalone="no"?>
<!DOCTYPE svg PUBLIC "-//W3C//DTD SVG 1.1//EN"
 "http://www.w3.org/Graphics/SVG/1.1/DTD/svg11.dtd">
<!-- Generated by graphviz version 2.28.0 (20110509.1545)
 -->
<!-- Title: G Pages: 1 -->
<svg width="1098pt" height="584pt"
 viewBox="0.00 0.00 1097.59 584.00" xmlns="http://www.w3.org/2000/svg" xmlns:xlink="http://www.w3.org/1999/xlink">
<g id="graph1" class="graph" transform="scale(1 1) rotate(0) translate(4 580)">
<title>G</title>
<polygon fill="white" stroke="white" points="-4,5 -4,-580 1094.59,-580 1094.59,5 -4,5"/>
<!-- 1 -->
<g id="node1" class="node"><title>1</title>
<ellipse fill="none" stroke="orange" cx="429.826" cy="-558" rx="33.3419" ry="18"/>
<text text-anchor="middle" x="429.826" y="-552.4" font-family="Times,serif" font-size="14.00">state1</text>
</g>
<!-- 2 -->
<g id="node2" class="node"><title>2</title>
<ellipse fill="none" stroke="orange" cx="570.826" cy="-468" rx="33.3419" ry="18"/>
<text text-anchor="middle" x="570.826" y="-462.4" font-family="Times,serif" font-size="14.00">state2</text>
</g>
<!-- 1&#45;&gt;2 -->
<g id="edge6" class="edge"><title>1&#45;&gt;2</title>
<path fill="none" stroke="black" d="M450.935,-543.826C474.817,-528.921 513.895,-504.532 540.912,-487.67"/>
<polygon fill="black" stroke="black" points="542.943,-490.528 549.573,-482.265 539.236,-484.59 542.943,-490.528"/>
<text text-anchor="middle" x="556.206" y="-507.4" font-family="Times,serif" font-size="14.00">../A[1]/IMG[1]</text>
<text text-anchor="middle" x="456.386" y="-529.842" font-family="Times,serif" font-size="14.00">/HTML[1]/BODY[1]/DIV[1]/TABLE[1]/TBODY[1]/TR[2]/TD[1]/TABLE[1]/TBODY[1]/TR[1]/TD[2]/A[1]/IMG[1]</text>
</g>
<!-- 3 -->
<g id="node3" class="node"><title>3</title>
<ellipse fill="none" stroke="orange" cx="462.826" cy="-378" rx="32.2368" ry="18"/>
<text text-anchor="middle" x="462.826" y="-372.4" font-family="Times,serif" font-size="14.00">index</text>
</g>
<!-- 1&#45;&gt;3 -->
<g id="edge4" class="edge"><title>1&#45;&gt;3</title>
<path fill="none" stroke="black" d="M407.832,-544.315C377.466,-525.073 328.635,-486.838 349.068,-450 365.31,-420.717 399.212,-401.926 425.803,-391.081"/>
<polygon fill="black" stroke="black" points="427.156,-394.311 435.222,-387.441 424.632,-387.781 427.156,-394.311"/>
<text text-anchor="middle" x="392.206" y="-462.4" font-family="Times,serif" font-size="14.00">../A[1]/IMG[1]</text>
<text text-anchor="middle" x="397.94" y="-537.249" font-family="Times,serif" font-size="14.00">/HTML[1]/BODY[1]/DIV[1]/TABLE[1]/TBODY[1]/TR[2]/TD[1]/TABLE[1]/TBODY[1]/TR[1]/TD[1]/A[1]/IMG[1]</text>
</g>
<!-- 4 -->
<g id="node4" class="node"><title>4</title>
<ellipse fill="none" stroke="orange" cx="744.826" cy="-288" rx="33.3419" ry="18"/>
<text text-anchor="middle" x="744.826" y="-282.4" font-family="Times,serif" font-size="14.00">state3</text>
</g>
<!-- 1&#45;&gt;4 -->
<g id="edge26" class="edge"><title>1&#45;&gt;4</title>
<path fill="none" stroke="black" d="M463.33,-556.786C548.075,-554.172 770.294,-533.908 855.826,-396 880.171,-356.749 821.263,-321.797 780.275,-303.182"/>
<polygon fill="black" stroke="black" points="781.634,-299.956 771.071,-299.135 778.817,-306.364 781.634,-299.956"/>
<text text-anchor="middle" x="885.206" y="-417.4" font-family="Times,serif" font-size="14.00">../A[1]/IMG[1]</text>
<text text-anchor="middle" x="472.178" y="-546.528" font-family="Times,serif" font-size="14.00">/HTML[1]/BODY[1]/DIV[1]/TABLE[1]/TBODY[1]/TR[2]/TD[1]/TABLE[1]/TBODY[1]/TR[1]/TD[3]/A[1]/IMG[1]</text>
</g>
<!-- 5 -->
<g id="node5" class="node"><title>5</title>
<ellipse fill="none" stroke="orange" cx="642.826" cy="-198" rx="33.3419" ry="18"/>
<text text-anchor="middle" x="642.826" y="-192.4" font-family="Times,serif" font-size="14.00">state4</text>
</g>
<!-- 1&#45;&gt;5 -->
<g id="edge28" class="edge"><title>1&#45;&gt;5</title>
<path fill="none" stroke="black" d="M462.806,-555.461C584.986,-549.326 1004.83,-524.228 1004.83,-469 1004.83,-469 1004.83,-469 1004.83,-287 1004.83,-222.088 782.274,-204.868 686.168,-200.457"/>
<polygon fill="black" stroke="black" points="686.053,-196.949 675.911,-200.014 685.75,-203.943 686.053,-196.949"/>
<text text-anchor="middle" x="1047.21" y="-372.4" font-family="Times,serif" font-size="14.00">../A[1]/IMG[1]</text>
<text text-anchor="middle" x="471.628" y="-545.152" font-family="Times,serif" font-size="14.00">/HTML[1]/BODY[1]/DIV[1]/TABLE[1]/TBODY[1]/TR[2]/TD[1]/TABLE[1]/TBODY[1]/TR[1]/TD[4]/A[1]/IMG[1]</text>
</g>
<!-- 6 -->
<g id="node6" class="node"><title>6</title>
<ellipse fill="none" stroke="orange" cx="490.826" cy="-108" rx="33.3419" ry="18"/>
<text text-anchor="middle" x="490.826" y="-102.4" font-family="Times,serif" font-size="14.00">state5</text>
</g>
<!-- 1&#45;&gt;6 -->
<g id="edge30" class="edge"><title>1&#45;&gt;6</title>
<path fill="none" stroke="black" d="M397.672,-552.931C328.511,-543.28 171.826,-516.207 171.826,-469 171.826,-469 171.826,-469 171.826,-197 171.826,-140.413 360.716,-118.806 447.794,-111.852"/>
<polygon fill="black" stroke="black" points="448.187,-115.332 457.889,-111.075 447.65,-108.352 448.187,-115.332"/>
<text text-anchor="middle" x="214.206" y="-327.4" font-family="Times,serif" font-size="14.00">../A[1]/IMG[1]</text>
<text text-anchor="middle" x="388.088" y="-550.186" font-family="Times,serif" font-size="14.00">/HTML[1]/BODY[1]/DIV[1]/TABLE[1]/TBODY[1]/TR[2]/TD[1]/TABLE[1]/TBODY[1]/TR[1]/TD[5]/A[1]/IMG[1]</text>
</g>
<!-- 7 -->
<g id="node7" class="node"><title>7</title>
<ellipse fill="none" stroke="orange" cx="289.826" cy="-18" rx="33.3419" ry="18"/>
<text text-anchor="middle" x="289.826" y="-12.4" font-family="Times,serif" font-size="14.00">state6</text>
</g>
<!-- 1&#45;&gt;7 -->
<g id="edge32" class="edge"><title>1&#45;&gt;7</title>
<path fill="none" stroke="black" d="M396.576,-556.174C305.514,-553.018 58.8263,-538.093 58.8263,-469 58.8263,-469 58.8263,-469 58.8263,-107 58.8263,-66.9765 181.454,-38.5598 248.017,-26.0832"/>
<polygon fill="black" stroke="black" points="248.986,-29.464 258.191,-24.2183 247.724,-22.5787 248.986,-29.464"/>
<text text-anchor="middle" x="101.206" y="-282.4" font-family="Times,serif" font-size="14.00">../A[1]/IMG[1]</text>
<text text-anchor="middle" x="387.342" y="-554.412" font-family="Times,serif" font-size="14.00">/HTML[1]/BODY[1]/DIV[1]/TABLE[1]/TBODY[1]/TR[2]/TD[1]/TABLE[1]/TBODY[1]/TR[1]/TD[6]/A[1]/IMG[1]</text>
</g>
<!-- 2&#45;&gt;3 -->
<g id="edge8" class="edge"><title>2&#45;&gt;3</title>
<path fill="none" stroke="red" d="M567.331,-449.774C564.212,-438.332 558.582,-423.688 548.826,-414 536.229,-401.489 518.552,-393.265 502.499,-387.955"/>
<polygon fill="red" stroke="red" points="503.358,-384.558 492.773,-385.013 501.331,-391.258 503.358,-384.558"/>
<text text-anchor="middle" x="604.206" y="-417.4" font-family="Times,serif" font-size="14.00">../A[1]/IMG[1]</text>
<text text-anchor="middle" x="560.764" y="-436.632" font-family="Times,serif" font-size="14.00">/HTML[1]/BODY[1]/DIV[1]/TABLE[1]/TBODY[1]/TR[2]/TD[1]/TABLE[1]/TBODY[1]/TR[1]/TD[1]/A[1]/IMG[1]</text>
</g>
<!-- 2&#45;&gt;4 -->
<g id="edge10" class="edge"><title>2&#45;&gt;4</title>
<path fill="none" stroke="red" d="M604.13,-465.846C648.741,-462.253 726.076,-448.353 758.826,-396 774.059,-371.649 766.026,-338.089 757.13,-315.083"/>
<polygon fill="red" stroke="red" points="760.269,-313.516 753.197,-305.627 753.806,-316.205 760.269,-313.516"/>
<text text-anchor="middle" x="810.206" y="-372.4" font-family="Times,serif" font-size="14.00">../A[1]/IMG[1]</text>
<text text-anchor="middle" x="612.732" y="-455.147" font-family="Times,serif" font-size="14.00">/HTML[1]/BODY[1]/DIV[1]/TABLE[1]/TBODY[1]/TR[2]/TD[1]/TABLE[1]/TBODY[1]/TR[1]/TD[3]/A[1]/IMG[1]</text>
</g>
<!-- 3&#45;&gt;1 -->
<g id="edge2" class="edge"><title>3&#45;&gt;1</title>
<path fill="none" stroke="black" d="M456.327,-395.903C454.332,-401.587 452.28,-408.007 450.826,-414 441.225,-453.569 435.358,-500.431 432.349,-529.441"/>
<polygon fill="black" stroke="black" points="428.842,-529.336 431.334,-539.634 435.808,-530.03 428.842,-529.336"/>
<text text-anchor="middle" x="479.202" y="-462.4" font-family="Times,serif" font-size="14.00">../LI[1]/A[1]</text>
<text text-anchor="middle" x="457.345" y="-400.251" font-family="Times,serif" font-size="14.00">/HTML[1]/BODY[1]/DIV[1]/TABLE[1]/TBODY[1]/TR[1]/TD[1]/UL[1]/LI[1]/A[1]</text>
</g>
<!-- 3&#45;&gt;2 -->
<g id="edge40" class="edge"><title>3&#45;&gt;2</title>
<path fill="none" stroke="black" d="M456.818,-395.863C453.941,-407.144 452.552,-421.744 460.068,-432 464.512,-438.065 501.369,-448.942 531.365,-456.966"/>
<polygon fill="black" stroke="black" points="530.656,-460.399 541.218,-459.567 532.442,-453.631 530.656,-460.399"/>
<text text-anchor="middle" x="503.206" y="-417.4" font-family="Times,serif" font-size="14.00">../A[1]/IMG[1]</text>
<text text-anchor="middle" x="458.874" y="-400.05" font-family="Times,serif" font-size="14.00">/HTML[1]/BODY[1]/DIV[1]/TABLE[1]/TBODY[1]/TR[2]/TD[1]/TABLE[1]/TBODY[1]/TR[1]/TD[2]/A[1]/IMG[1]</text>
</g>
<!-- 3&#45;&gt;4 -->
<g id="edge42" class="edge"><title>3&#45;&gt;4</title>
<path fill="none" stroke="black" d="M494.403,-373.755C526.088,-369.591 575.675,-360.559 614.826,-342 626.632,-336.404 626.527,-330.124 638.068,-324 639.703,-323.132 676.954,-310.982 706.997,-301.237"/>
<polygon fill="black" stroke="black" points="708.414,-304.457 716.847,-298.045 706.255,-297.798 708.414,-304.457"/>
<text text-anchor="middle" x="681.206" y="-327.4" font-family="Times,serif" font-size="14.00">../A[1]/IMG[1]</text>
<text text-anchor="middle" x="502.794" y="-362.715" font-family="Times,serif" font-size="14.00">/HTML[1]/BODY[1]/DIV[1]/TABLE[1]/TBODY[1]/TR[2]/TD[1]/TABLE[1]/TBODY[1]/TR[1]/TD[3]/A[1]/IMG[1]</text>
</g>
<!-- 3&#45;&gt;5 -->
<g id="edge44" class="edge"><title>3&#45;&gt;5</title>
<path fill="none" stroke="black" d="M495.161,-376.075C523.451,-373.589 563.958,-365.734 589.826,-342 590.956,-340.964 618.218,-266.508 633.19,-225.461"/>
<polygon fill="black" stroke="black" points="636.571,-226.404 636.708,-215.81 629.995,-224.006 636.571,-226.404"/>
<text text-anchor="middle" x="659.206" y="-282.4" font-family="Times,serif" font-size="14.00">../A[1]/IMG[1]</text>
<text text-anchor="middle" x="503.738" y="-365.334" font-family="Times,serif" font-size="14.00">/HTML[1]/BODY[1]/DIV[1]/TABLE[1]/TBODY[1]/TR[2]/TD[1]/TABLE[1]/TBODY[1]/TR[1]/TD[4]/A[1]/IMG[1]</text>
</g>
<!-- 3&#45;&gt;6 -->
<g id="edge46" class="edge"><title>3&#45;&gt;6</title>
<path fill="none" stroke="black" d="M494.462,-374.005C515.379,-370.194 541.343,-361.556 554.826,-342 559.367,-335.414 555.98,-331.916 554.826,-324 552.076,-305.122 516.044,-189.193 499.288,-135.834"/>
<polygon fill="black" stroke="black" points="502.548,-134.533 496.209,-126.044 495.87,-136.633 502.548,-134.533"/>
<text text-anchor="middle" x="578.206" y="-237.4" font-family="Times,serif" font-size="14.00">../A[1]/IMG[1]</text>
<text text-anchor="middle" x="502.509" y="-362.468" font-family="Times,serif" font-size="14.00">/HTML[1]/BODY[1]/DIV[1]/TABLE[1]/TBODY[1]/TR[2]/TD[1]/TABLE[1]/TBODY[1]/TR[1]/TD[5]/A[1]/IMG[1]</text>
</g>
<!-- 3&#45;&gt;7 -->
<g id="edge48" class="edge"><title>3&#45;&gt;7</title>
<path fill="none" stroke="black" d="M430.948,-375.036C399.123,-371.868 349.763,-363.594 312.826,-342 270.26,-317.114 260.826,-293.307 260.826,-244 260.826,-244 260.826,-244 260.826,-107 260.826,-85.3505 268.842,-62.1423 276.444,-44.9979"/>
<polygon fill="black" stroke="black" points="279.745,-46.2031 280.81,-35.6619 273.403,-43.2382 279.745,-46.2031"/>
<text text-anchor="middle" x="303.206" y="-192.4" font-family="Times,serif" font-size="14.00">../A[1]/IMG[1]</text>
<text text-anchor="middle" x="421.475" y="-372.639" font-family="Times,serif" font-size="14.00">/HTML[1]/BODY[1]/DIV[1]/TABLE[1]/TBODY[1]/TR[2]/TD[1]/TABLE[1]/TBODY[1]/TR[1]/TD[6]/A[1]/IMG[1]</text>
</g>
<!-- 8 -->
<g id="node8" class="node"><title>8</title>
<ellipse fill="none" stroke="orange" cx="322.826" cy="-288" rx="33.3419" ry="18"/>
<text text-anchor="middle" x="322.826" y="-282.4" font-family="Times,serif" font-size="14.00">state7</text>
</g>
<!-- 3&#45;&gt;8 -->
<g id="edge34" class="edge"><title>3&#45;&gt;8</title>
<path fill="none" stroke="black" d="M431.525,-373.594C394.532,-368.849 336.31,-358.877 323.074,-342 317.442,-334.818 316.137,-325.245 316.652,-316.212"/>
<polygon fill="black" stroke="black" points="320.157,-316.393 317.941,-306.032 313.212,-315.513 320.157,-316.393"/>
<text text-anchor="middle" x="359.202" y="-327.4" font-family="Times,serif" font-size="14.00">../LI[2]/A[1]</text>
<text text-anchor="middle" x="421.977" y="-370.964" font-family="Times,serif" font-size="14.00">/HTML[1]/BODY[1]/DIV[1]/TABLE[1]/TBODY[1]/TR[1]/TD[1]/UL[1]/LI[2]/A[1]</text>
</g>
<!-- 9 -->
<g id="node9" class="node"><title>9</title>
<ellipse fill="none" stroke="orange" cx="407.826" cy="-288" rx="33.3419" ry="18"/>
<text text-anchor="middle" x="407.826" y="-282.4" font-family="Times,serif" font-size="14.00">state8</text>
</g>
<!-- 3&#45;&gt;9 -->
<g id="edge36" class="edge"><title>3&#45;&gt;9</title>
<path fill="none" stroke="black" d="M435.042,-368.544C422.32,-363.124 408.457,-354.671 401.074,-342 396.51,-334.166 396.415,-324.587 398.043,-315.738"/>
<polygon fill="black" stroke="black" points="401.489,-316.39 400.58,-305.834 394.708,-314.653 401.489,-316.39"/>
<text text-anchor="middle" x="437.202" y="-327.4" font-family="Times,serif" font-size="14.00">../LI[4]/A[1]</text>
<text text-anchor="middle" x="425.044" y="-363.103" font-family="Times,serif" font-size="14.00">/HTML[1]/BODY[1]/DIV[1]/TABLE[1]/TBODY[1]/TR[1]/TD[1]/UL[1]/LI[4]/A[1]</text>
</g>
<!-- 10 -->
<g id="node10" class="node"><title>10</title>
<ellipse fill="none" stroke="orange" cx="492.826" cy="-288" rx="33.3419" ry="18"/>
<text text-anchor="middle" x="492.826" y="-282.4" font-family="Times,serif" font-size="14.00">state9</text>
</g>
<!-- 3&#45;&gt;10 -->
<g id="edge38" class="edge"><title>3&#45;&gt;10</title>
<path fill="none" stroke="black" d="M468.611,-360.033C472.885,-347.493 478.79,-330.172 483.699,-315.773"/>
<polygon fill="black" stroke="black" points="487.146,-316.51 487.06,-305.915 480.52,-314.251 487.146,-316.51"/>
<text text-anchor="middle" x="516.202" y="-327.4" font-family="Times,serif" font-size="14.00">../LI[5]/A[1]</text>
<text text-anchor="middle" x="467.535" y="-344.491" font-family="Times,serif" font-size="14.00">/HTML[1]/BODY[1]/DIV[1]/TABLE[1]/TBODY[1]/TR[1]/TD[1]/UL[1]/LI[5]/A[1]</text>
</g>
<!-- 4&#45;&gt;2 -->
<g id="edge12" class="edge"><title>4&#45;&gt;2</title>
<path fill="none" stroke="red" d="M741.506,-306.408C738.466,-317.931 732.857,-332.598 722.826,-342 704.75,-358.943 687.1,-342.008 670.068,-360 647.215,-384.139 671.592,-406.876 649.826,-432 639.691,-443.699 624.891,-451.654 610.833,-456.981"/>
<polygon fill="red" stroke="red" points="609.605,-453.702 601.287,-460.264 611.881,-460.322 609.605,-453.702"/>
<text text-anchor="middle" x="713.206" y="-372.4" font-family="Times,serif" font-size="14.00">../A[1]/IMG[1]</text>
<text text-anchor="middle" x="743.135" y="-310.674" font-family="Times,serif" font-size="14.00">/HTML[1]/BODY[1]/DIV[1]/TABLE[1]/TBODY[1]/TR[2]/TD[1]/TABLE[1]/TBODY[1]/TR[1]/TD[2]/A[1]/IMG[1]</text>
</g>
<!-- 4&#45;&gt;5 -->
<g id="edge14" class="edge"><title>4&#45;&gt;5</title>
<path fill="none" stroke="red" d="M716.887,-277.919C686.853,-268.093 643.216,-253.604 642.068,-252 636.755,-244.578 635.673,-234.951 636.341,-225.942"/>
<polygon fill="red" stroke="red" points="639.837,-226.212 637.78,-215.819 632.907,-225.227 639.837,-226.212"/>
<text text-anchor="middle" x="685.206" y="-237.4" font-family="Times,serif" font-size="14.00">../A[1]/IMG[1]</text>
<text text-anchor="middle" x="706.958" y="-273.51" font-family="Times,serif" font-size="14.00">/HTML[1]/BODY[1]/DIV[1]/TABLE[1]/TBODY[1]/TR[2]/TD[1]/TABLE[1]/TBODY[1]/TR[1]/TD[4]/A[1]/IMG[1]</text>
</g>
<!-- 5&#45;&gt;4 -->
<g id="edge16" class="edge"><title>5&#45;&gt;4</title>
<path fill="none" stroke="black" d="M673.649,-205.186C691.359,-210.205 712.801,-218.996 726.826,-234 733.48,-241.118 737.683,-250.79 740.334,-259.924"/>
<polygon fill="black" stroke="black" points="736.978,-260.937 742.716,-269.843 743.784,-259.303 736.978,-260.937"/>
<text text-anchor="middle" x="780.206" y="-237.4" font-family="Times,serif" font-size="14.00">../A[1]/IMG[1]</text>
<text text-anchor="middle" x="683.544" y="-198.138" font-family="Times,serif" font-size="14.00">/HTML[1]/BODY[1]/DIV[1]/TABLE[1]/TBODY[1]/TR[2]/TD[1]/TABLE[1]/TBODY[1]/TR[1]/TD[3]/A[1]/IMG[1]</text>
</g>
<!-- 5&#45;&gt;6 -->
<g id="edge18" class="edge"><title>5&#45;&gt;6</title>
<path fill="none" stroke="black" d="M611.599,-191.052C589.713,-185.853 560.484,-176.771 538.068,-162 526.649,-154.476 516.256,-143.52 508.143,-133.52"/>
<polygon fill="black" stroke="black" points="510.78,-131.208 501.892,-125.441 505.243,-135.492 510.78,-131.208"/>
<text text-anchor="middle" x="581.206" y="-147.4" font-family="Times,serif" font-size="14.00">../A[1]/IMG[1]</text>
<text text-anchor="middle" x="601.786" y="-187.374" font-family="Times,serif" font-size="14.00">/HTML[1]/BODY[1]/DIV[1]/TABLE[1]/TBODY[1]/TR[2]/TD[1]/TABLE[1]/TBODY[1]/TR[1]/TD[5]/A[1]/IMG[1]</text>
</g>
<!-- 6&#45;&gt;5 -->
<g id="edge20" class="edge"><title>6&#45;&gt;5</title>
<path fill="none" stroke="black" d="M524.089,-109.586C553.467,-111.833 595.731,-119.528 622.826,-144 630.33,-150.777 635.033,-160.659 637.973,-170.059"/>
<polygon fill="black" stroke="black" points="634.627,-171.097 640.522,-179.9 641.403,-169.342 634.627,-171.097"/>
<text text-anchor="middle" x="677.206" y="-147.4" font-family="Times,serif" font-size="14.00">../A[1]/IMG[1]</text>
<text text-anchor="middle" x="533.503" y="-100.613" font-family="Times,serif" font-size="14.00">/HTML[1]/BODY[1]/DIV[1]/TABLE[1]/TBODY[1]/TR[2]/TD[1]/TABLE[1]/TBODY[1]/TR[1]/TD[4]/A[1]/IMG[1]</text>
</g>
<!-- 6&#45;&gt;7 -->
<g id="edge22" class="edge"><title>6&#45;&gt;7</title>
<path fill="none" stroke="black" d="M457.66,-105.909C424.002,-103.434 371.518,-95.7006 333.068,-72 321.808,-65.06 312.162,-54.127 304.855,-43.9889"/>
<polygon fill="black" stroke="black" points="307.554,-41.7312 299.055,-35.4047 301.754,-45.6501 307.554,-41.7312"/>
<text text-anchor="middle" x="376.206" y="-57.4" font-family="Times,serif" font-size="14.00">../A[1]/IMG[1]</text>
<text text-anchor="middle" x="448.269" y="-103.746" font-family="Times,serif" font-size="14.00">/HTML[1]/BODY[1]/DIV[1]/TABLE[1]/TBODY[1]/TR[2]/TD[1]/TABLE[1]/TBODY[1]/TR[1]/TD[6]/A[1]/IMG[1]</text>
</g>
<!-- 7&#45;&gt;6 -->
<g id="edge24" class="edge"><title>7&#45;&gt;6</title>
<path fill="none" stroke="black" d="M321.199,-24.29C347.823,-29.539 386.567,-38.9985 417.826,-54 435.249,-62.3612 452.835,-74.9752 466.381,-85.7999"/>
<polygon fill="black" stroke="black" points="464.302,-88.6216 474.254,-92.2545 468.74,-83.208 464.302,-88.6216"/>
<text text-anchor="middle" x="490.206" y="-57.4" font-family="Times,serif" font-size="14.00">../A[1]/IMG[1]</text>
<text text-anchor="middle" x="330.924" y="-16.3637" font-family="Times,serif" font-size="14.00">/HTML[1]/BODY[1]/DIV[1]/TABLE[1]/TBODY[1]/TR[2]/TD[1]/TABLE[1]/TBODY[1]/TR[1]/TD[5]/A[1]/IMG[1]</text>
</g>
</g>
</svg>
