<?xml version="1.0" encoding="UTF-8" standalone="no"?>
<!DOCTYPE svg PUBLIC "-//W3C//DTD SVG 1.1//EN"
 "http://www.w3.org/Graphics/SVG/1.1/DTD/svg11.dtd">
<!-- Generated by graphviz version 2.28.0 (20110509.1545)
 -->
<!-- Title: G Pages: 1 -->
<svg width="3362pt" height="1214pt"
 viewBox="0.00 0.00 3362.23 1214.00" xmlns="http://www.w3.org/2000/svg" xmlns:xlink="http://www.w3.org/1999/xlink">
<g id="graph1" class="graph" transform="scale(1 1) rotate(0) translate(4 1210)">
<title>G</title>
<polygon fill="white" stroke="white" points="-4,5 -4,-1210 3359.23,-1210 3359.23,5 -4,5"/>
<!-- 1 -->
<g id="node1" class="node"><title>1</title>
<ellipse fill="none" stroke="orange" cx="1682.92" cy="-1188" rx="32.2368" ry="18"/>
<text text-anchor="middle" x="1682.92" y="-1182.4" font-family="Times,serif" font-size="14.00">index</text>
</g>
<!-- 2 -->
<g id="node2" class="node"><title>2</title>
<ellipse fill="none" stroke="orange" cx="1364.92" cy="-1098" rx="33.3419" ry="18"/>
<text text-anchor="middle" x="1364.92" y="-1092.4" font-family="Times,serif" font-size="14.00">state1</text>
</g>
<!-- 1&#45;&gt;2 -->
<g id="edge2" class="edge"><title>1&#45;&gt;2</title>
<path fill="none" stroke="black" d="M1651.18,-1184.35C1610.12,-1180.3 1536.72,-1170.96 1476.61,-1152 1448.13,-1143.02 1417.62,-1128.14 1395.7,-1116.44"/>
<polygon fill="black" stroke="black" points="1397.31,-1113.33 1386.86,-1111.64 1393.98,-1119.49 1397.31,-1113.33"/>
<text text-anchor="middle" x="1523.57" y="-1137.4" font-family="Times,serif" font-size="14.00">../TD[2]/IMG[1]</text>
<text text-anchor="middle" x="1641.73" y="-1182.01" font-family="Times,serif" font-size="14.00">/HTML[1]/BODY[1]/TABLE[1]/TBODY[1]/TR[1]/TD[1]/TABLE[1]/TBODY[1]/TR[1]/TD[1]/TABLE[1]/TBODY[1]/TR[1]/TD[2]/IMG[1]</text>
</g>
<!-- 3 -->
<g id="node3" class="node"><title>3</title>
<ellipse fill="none" stroke="orange" cx="1966.92" cy="-198" rx="33.3419" ry="18"/>
<text text-anchor="middle" x="1966.92" y="-192.4" font-family="Times,serif" font-size="14.00">state2</text>
</g>
<!-- 1&#45;&gt;3 -->
<g id="edge208" class="edge"><title>1&#45;&gt;3</title>
<path fill="none" stroke="black" d="M1715.25,-1186.54C1870.29,-1184.24 2538.58,-1173.25 2745.92,-1152 2855.88,-1140.73 2988.92,-1209.54 2988.92,-1099 2988.92,-1099 2988.92,-1099 2988.92,-737 2988.92,-548.945 2967.59,-498.272 2896.92,-324 2886.91,-299.315 2889.27,-289.306 2870.92,-270 2847.9,-245.783 2837.12,-242.93 2804.92,-234 2728.2,-212.723 2170.98,-202.256 2010.22,-199.658"/>
<polygon fill="black" stroke="black" points="2010.27,-196.158 2000.22,-199.498 2010.16,-203.157 2010.27,-196.158"/>
<text text-anchor="middle" x="3035.57" y="-687.4" font-family="Times,serif" font-size="14.00">../TD[3]/IMG[1]</text>
<text text-anchor="middle" x="1724.25" y="-1176.57" font-family="Times,serif" font-size="14.00">/HTML[1]/BODY[1]/TABLE[1]/TBODY[1]/TR[1]/TD[1]/TABLE[1]/TBODY[1]/TR[1]/TD[1]/TABLE[1]/TBODY[1]/TR[1]/TD[3]/IMG[1]</text>
</g>
<!-- 4 -->
<g id="node4" class="node"><title>4</title>
<ellipse fill="none" stroke="orange" cx="1133.92" cy="-378" rx="33.3419" ry="18"/>
<text text-anchor="middle" x="1133.92" y="-372.4" font-family="Times,serif" font-size="14.00">state3</text>
</g>
<!-- 1&#45;&gt;4 -->
<g id="edge210" class="edge"><title>1&#45;&gt;4</title>
<path fill="none" stroke="black" d="M1715.15,-1186C1890.53,-1180.35 2721.92,-1150.82 2721.92,-1099 2721.92,-1099 2721.92,-1099 2721.92,-692 2721.92,-651.343 2566.88,-556.063 2534.92,-540 2369.51,-456.877 2320.33,-445.517 2137.92,-414 2042.55,-397.523 1357.85,-383.308 1177.41,-379.818"/>
<polygon fill="black" stroke="black" points="1177.3,-376.316 1167.24,-379.623 1177.17,-383.314 1177.3,-376.316"/>
<text text-anchor="middle" x="2768.57" y="-777.4" font-family="Times,serif" font-size="14.00">../TD[4]/IMG[1]</text>
<text text-anchor="middle" x="1724.07" y="-1175.87" font-family="Times,serif" font-size="14.00">/HTML[1]/BODY[1]/TABLE[1]/TBODY[1]/TR[1]/TD[1]/TABLE[1]/TBODY[1]/TR[1]/TD[1]/TABLE[1]/TBODY[1]/TR[1]/TD[4]/IMG[1]</text>
</g>
<!-- 5 -->
<g id="node5" class="node"><title>5</title>
<ellipse fill="none" stroke="orange" cx="1244.92" cy="-828" rx="33.3419" ry="18"/>
<text text-anchor="middle" x="1244.92" y="-822.4" font-family="Times,serif" font-size="14.00">state4</text>
</g>
<!-- 1&#45;&gt;5 -->
<g id="edge212" class="edge"><title>1&#45;&gt;5</title>
<path fill="none" stroke="black" d="M1650.51,-1186.89C1519.18,-1185.7 1029.08,-1173.71 935.92,-1062 930.796,-1055.86 930.731,-1050.09 935.92,-1044 968.619,-1005.63 1001.58,-1045.86 1047.92,-1026 1132.77,-989.646 1200.6,-898.006 1229.62,-853.718"/>
<polygon fill="black" stroke="black" points="1232.59,-855.575 1235.06,-845.273 1226.71,-851.784 1232.59,-855.575"/>
<text text-anchor="middle" x="1153.57" y="-1002.4" font-family="Times,serif" font-size="14.00">../TD[5]/IMG[1]</text>
<text text-anchor="middle" x="1641.39" y="-1185.37" font-family="Times,serif" font-size="14.00">/HTML[1]/BODY[1]/TABLE[1]/TBODY[1]/TR[1]/TD[1]/TABLE[1]/TBODY[1]/TR[1]/TD[1]/TABLE[1]/TBODY[1]/TR[1]/TD[5]/IMG[1]</text>
</g>
<!-- 6 -->
<g id="node6" class="node"><title>6</title>
<ellipse fill="none" stroke="orange" cx="2209.92" cy="-918" rx="33.3419" ry="18"/>
<text text-anchor="middle" x="2209.92" y="-912.4" font-family="Times,serif" font-size="14.00">state5</text>
</g>
<!-- 1&#45;&gt;6 -->
<g id="edge214" class="edge"><title>1&#45;&gt;6</title>
<path fill="none" stroke="black" d="M1715.31,-1186.46C1842.76,-1184.16 2303.76,-1174.34 2324.92,-1152 2349.67,-1125.86 2342.46,-1021.44 2324.92,-990 2308.58,-960.709 2274.63,-941.992 2247.83,-931.173"/>
<polygon fill="black" stroke="black" points="2248.92,-927.842 2238.33,-927.539 2246.42,-934.38 2248.92,-927.842"/>
<text text-anchor="middle" x="2387.57" y="-1047.4" font-family="Times,serif" font-size="14.00">../TD[6]/IMG[1]</text>
<text text-anchor="middle" x="1724.29" y="-1176.46" font-family="Times,serif" font-size="14.00">/HTML[1]/BODY[1]/TABLE[1]/TBODY[1]/TR[1]/TD[1]/TABLE[1]/TBODY[1]/TR[1]/TD[1]/TABLE[1]/TBODY[1]/TR[1]/TD[6]/IMG[1]</text>
</g>
<!-- 7 -->
<g id="node7" class="node"><title>7</title>
<ellipse fill="none" stroke="orange" cx="741.92" cy="-18" rx="33.3419" ry="18"/>
<text text-anchor="middle" x="741.92" y="-12.4" font-family="Times,serif" font-size="14.00">state6</text>
</g>
<!-- 1&#45;&gt;7 -->
<g id="edge216" class="edge"><title>1&#45;&gt;7</title>
<path fill="none" stroke="red" d="M1715.39,-1186.95C1916.92,-1186.53 2992.94,-1182.86 3135.92,-1152 3194.9,-1139.27 3260.92,-1159.34 3260.92,-1099 3260.92,-1099 3260.92,-1099 3260.92,-107 3260.92,-42.4381 1119.02,-22.1171 785.38,-19.3434"/>
<polygon fill="red" stroke="red" points="785.184,-15.8417 775.156,-19.2592 785.126,-22.8415 785.184,-15.8417"/>
<text text-anchor="middle" x="3307.57" y="-597.4" font-family="Times,serif" font-size="14.00">../TD[7]/IMG[1]</text>
<text text-anchor="middle" x="1724.44" y="-1177.1" font-family="Times,serif" font-size="14.00">/HTML[1]/BODY[1]/TABLE[1]/TBODY[1]/TR[1]/TD[1]/TABLE[1]/TBODY[1]/TR[1]/TD[1]/TABLE[1]/TBODY[1]/TR[1]/TD[7]/IMG[1]</text>
</g>
<!-- 8 -->
<g id="node8" class="node"><title>8</title>
<ellipse fill="none" stroke="orange" cx="1133.92" cy="-468" rx="33.3419" ry="18"/>
<text text-anchor="middle" x="1133.92" y="-462.4" font-family="Times,serif" font-size="14.00">state7</text>
</g>
<!-- 1&#45;&gt;8 -->
<g id="edge224" class="edge"><title>1&#45;&gt;8</title>
<path fill="none" stroke="black" d="M1650.73,-1186.89C1492.39,-1186.19 800.092,-1181.46 708.92,-1152 600.068,-1116.83 494.92,-1123.39 494.92,-1009 494.92,-1009 494.92,-1009 494.92,-782 494.92,-654.274 543.257,-610.264 649.92,-540 722.086,-492.46 985.385,-475.636 1090.32,-470.735"/>
<polygon fill="black" stroke="black" points="1090.73,-474.22 1100.56,-470.271 1090.41,-467.227 1090.73,-474.22"/>
<text text-anchor="middle" x="541.575" y="-822.4" font-family="Times,serif" font-size="14.00">../TD[1]/IMG[5]</text>
<text text-anchor="middle" x="1641.64" y="-1185.46" font-family="Times,serif" font-size="14.00">/HTML[1]/BODY[1]/TABLE[1]/TBODY[1]/TR[2]/TD[1]/TABLE[1]/TBODY[1]/TR[1]/TD[1]/TABLE[1]/TBODY[1]/TR[1]/TD[1]/DIV[1]/TABLE[1]/TBODY[1]/TR[1]/TD[1]/IMG[5]</text>
</g>
<!-- 11 -->
<g id="node11" class="node"><title>11</title>
<ellipse fill="none" stroke="orange" cx="1850.92" cy="-108" rx="38.0859" ry="18"/>
<text text-anchor="middle" x="1850.92" y="-102.4" font-family="Times,serif" font-size="14.00">state12</text>
</g>
<!-- 1&#45;&gt;11 -->
<g id="edge220" class="edge"><title>1&#45;&gt;11</title>
<path fill="none" stroke="black" d="M1715.35,-1186.96C1882.08,-1186.63 2643.92,-1183.39 2877.92,-1152 2977.17,-1138.68 3096.92,-1199.14 3096.92,-1099 3096.92,-1099 3096.92,-1099 3096.92,-737 3096.92,-712.636 3099.79,-701.578 3082.92,-684 3064.14,-664.431 3043.42,-685.543 3024.61,-666 3024.47,-665.86 2966.98,-450.185 2966.92,-450 2954.08,-409.378 2949.73,-399.562 2933.92,-360 2917.74,-319.519 2927.45,-299.024 2894.92,-270 2792.32,-178.455 2731.41,-216.795 2598.92,-180 2535.77,-162.462 2520.7,-153.937 2455.92,-144 2250.82,-112.539 2002.65,-108.78 1899.51,-108.713"/>
<polygon fill="black" stroke="black" points="1899.4,-105.212 1889.41,-108.718 1899.41,-112.212 1899.4,-105.212"/>
<text text-anchor="middle" x="3071.57" y="-642.4" font-family="Times,serif" font-size="14.00">../TD[1]/IMG[3]</text>
<text text-anchor="middle" x="1724.4" y="-1177.11" font-family="Times,serif" font-size="14.00">/HTML[1]/BODY[1]/TABLE[1]/TBODY[1]/TR[2]/TD[1]/TABLE[1]/TBODY[1]/TR[1]/TD[1]/TABLE[1]/TBODY[1]/TR[1]/TD[1]/DIV[1]/TABLE[1]/TBODY[1]/TR[1]/TD[1]/IMG[3]</text>
</g>
<!-- 12 -->
<g id="node12" class="node"><title>12</title>
<ellipse fill="none" stroke="orange" cx="428.92" cy="-1008" rx="38.0859" ry="18"/>
<text text-anchor="middle" x="428.92" y="-1002.4" font-family="Times,serif" font-size="14.00">state13</text>
</g>
<!-- 1&#45;&gt;12 -->
<g id="edge218" class="edge"><title>1&#45;&gt;12</title>
<path fill="none" stroke="black" d="M1650.61,-1186.64C1464.46,-1184.47 532.802,-1172.65 406.92,-1152 353.101,-1143.17 322.026,-1159.86 289.609,-1116 257.678,-1072.8 335.646,-1038.39 387.392,-1021.13"/>
<polygon fill="black" stroke="black" points="388.598,-1024.42 397.034,-1018.01 386.442,-1017.76 388.598,-1024.42"/>
<text text-anchor="middle" x="336.575" y="-1092.4" font-family="Times,serif" font-size="14.00">../TD[1]/IMG[2]</text>
<text text-anchor="middle" x="1641.49" y="-1185.15" font-family="Times,serif" font-size="14.00">/HTML[1]/BODY[1]/TABLE[1]/TBODY[1]/TR[2]/TD[1]/TABLE[1]/TBODY[1]/TR[1]/TD[1]/TABLE[1]/TBODY[1]/TR[1]/TD[1]/DIV[1]/TABLE[1]/TBODY[1]/TR[1]/TD[1]/IMG[2]</text>
</g>
<!-- 14 -->
<g id="node14" class="node"><title>14</title>
<ellipse fill="none" stroke="orange" cx="1747.92" cy="-288" rx="38.0545" ry="18"/>
<text text-anchor="middle" x="1747.92" y="-282.4" font-family="Times,serif" font-size="14.00">state11</text>
</g>
<!-- 1&#45;&gt;14 -->
<g id="edge222" class="edge"><title>1&#45;&gt;14</title>
<path fill="none" stroke="black" d="M1715.1,-1186.26C1901.05,-1181.78 2829.92,-1156.51 2829.92,-1099 2829.92,-1099 2829.92,-1099 2829.92,-782 2829.92,-737.456 2832.1,-724.376 2850.92,-684 2855.2,-674.814 2861.63,-675.586 2864.92,-666 2870.11,-650.866 2872.21,-644.24 2864.92,-630 2771.58,-447.781 2197.06,-362.195 1995.92,-324 1926.33,-310.785 1844.87,-300.215 1794.84,-294.276"/>
<polygon fill="black" stroke="black" points="1795,-290.77 1784.66,-293.079 1794.18,-297.722 1795,-290.77"/>
<text text-anchor="middle" x="2883.57" y="-732.4" font-family="Times,serif" font-size="14.00">../TD[1]/IMG[4]</text>
<text text-anchor="middle" x="1724.05" y="-1176.2" font-family="Times,serif" font-size="14.00">/HTML[1]/BODY[1]/TABLE[1]/TBODY[1]/TR[2]/TD[1]/TABLE[1]/TBODY[1]/TR[1]/TD[1]/TABLE[1]/TBODY[1]/TR[1]/TD[1]/DIV[1]/TABLE[1]/TBODY[1]/TR[1]/TD[1]/IMG[4]</text>
</g>
<!-- 2&#45;&gt;1 -->
<g id="edge4" class="edge"><title>2&#45;&gt;1</title>
<path fill="none" stroke="black" d="M1397.51,-1101.83C1438.49,-1106.01 1510.66,-1115.42 1569.92,-1134 1598.87,-1143.08 1629.95,-1158.08 1652.17,-1169.81"/>
<polygon fill="black" stroke="black" points="1650.66,-1172.96 1661.12,-1174.61 1653.96,-1166.8 1650.66,-1172.96"/>
<text text-anchor="middle" x="1661.57" y="-1137.4" font-family="Times,serif" font-size="14.00">../TD[1]/IMG[2]</text>
<text text-anchor="middle" x="1406.97" y="-1093" font-family="Times,serif" font-size="14.00">/HTML[1]/BODY[1]/TABLE[1]/TBODY[1]/TR[1]/TD[1]/TABLE[1]/TBODY[1]/TR[1]/TD[1]/TABLE[1]/TBODY[1]/TR[1]/TD[1]/IMG[2]</text>
</g>
<!-- 2&#45;&gt;3 -->
<g id="edge6" class="edge"><title>2&#45;&gt;3</title>
<path fill="none" stroke="black" d="M1398.35,-1096.9C1568.72,-1096.27 2336.25,-1091.79 2437.92,-1062 2447.29,-1059.25 2581.58,-978.441 2588.92,-972 2627.22,-938.398 2634.99,-926.432 2659.92,-882 2684.97,-837.36 2682.06,-821.969 2699.92,-774 2728.9,-696.172 2830.92,-507.047 2830.92,-424 2830.92,-424 2830.92,-424 2830.92,-287 2830.92,-203.609 2185.68,-198.629 2010.4,-198.814"/>
<polygon fill="black" stroke="black" points="2010.25,-195.314 2000.26,-198.831 2010.27,-202.314 2010.25,-195.314"/>
<text text-anchor="middle" x="2810.57" y="-642.4" font-family="Times,serif" font-size="14.00">../TD[3]/IMG[1]</text>
<text text-anchor="middle" x="1407.4" y="-1087.03" font-family="Times,serif" font-size="14.00">/HTML[1]/BODY[1]/TABLE[1]/TBODY[1]/TR[1]/TD[1]/TABLE[1]/TBODY[1]/TR[1]/TD[1]/TABLE[1]/TBODY[1]/TR[1]/TD[3]/IMG[1]</text>
</g>
<!-- 2&#45;&gt;4 -->
<g id="edge184" class="edge"><title>2&#45;&gt;4</title>
<path fill="none" stroke="black" d="M1332.18,-1093.98C1296.79,-1089.89 1239.22,-1080.82 1192.92,-1062 1179.21,-1056.43 1178.95,-1048.68 1164.92,-1044 1112.29,-1026.46 963.857,-1053.93 915.92,-1026 882.688,-1006.64 891.169,-984.636 867.92,-954 797.748,-861.537 743.818,-862.481 697.609,-756 659.386,-667.922 644.138,-622.101 693.92,-540 726.139,-486.864 746.579,-480.144 800.92,-450 895.127,-397.74 1023.97,-383.905 1090.39,-380.271"/>
<polygon fill="black" stroke="black" points="1090.68,-383.761 1100.5,-379.771 1090.34,-376.769 1090.68,-383.761"/>
<text text-anchor="middle" x="744.575" y="-732.4" font-family="Times,serif" font-size="14.00">../TD[4]/IMG[1]</text>
<text text-anchor="middle" x="1322.67" y="-1091.47" font-family="Times,serif" font-size="14.00">/HTML[1]/BODY[1]/TABLE[1]/TBODY[1]/TR[1]/TD[1]/TABLE[1]/TBODY[1]/TR[1]/TD[1]/TABLE[1]/TBODY[1]/TR[1]/TD[4]/IMG[1]</text>
</g>
<!-- 2&#45;&gt;5 -->
<g id="edge186" class="edge"><title>2&#45;&gt;5</title>
<path fill="none" stroke="black" d="M1365.04,-1079.94C1364.65,-1052.33 1361.39,-996.64 1342.92,-954 1325.29,-913.306 1291.14,-874.411 1268.18,-851.113"/>
<polygon fill="black" stroke="black" points="1270.42,-848.404 1260.86,-843.83 1265.48,-853.365 1270.42,-848.404"/>
<text text-anchor="middle" x="1396.57" y="-957.4" font-family="Times,serif" font-size="14.00">../TD[5]/IMG[1]</text>
<text text-anchor="middle" x="1360.6" y="-1065.38" font-family="Times,serif" font-size="14.00">/HTML[1]/BODY[1]/TABLE[1]/TBODY[1]/TR[1]/TD[1]/TABLE[1]/TBODY[1]/TR[1]/TD[1]/TABLE[1]/TBODY[1]/TR[1]/TD[5]/IMG[1]</text>
</g>
<!-- 2&#45;&gt;6 -->
<g id="edge188" class="edge"><title>2&#45;&gt;6</title>
<path fill="none" stroke="black" d="M1398.47,-1097.19C1524.75,-1097.37 1970.38,-1093.17 2091.92,-1026 2111.64,-1015.1 2111.14,-1005.37 2127.61,-990 2146.06,-972.788 2167.69,-954.189 2184.14,-940.346"/>
<polygon fill="black" stroke="black" points="2186.81,-942.677 2192.23,-933.574 2182.32,-937.31 2186.81,-942.677"/>
<text text-anchor="middle" x="2174.57" y="-1002.4" font-family="Times,serif" font-size="14.00">../TD[6]/IMG[1]</text>
<text text-anchor="middle" x="1407.52" y="-1087.34" font-family="Times,serif" font-size="14.00">/HTML[1]/BODY[1]/TABLE[1]/TBODY[1]/TR[1]/TD[1]/TABLE[1]/TBODY[1]/TR[1]/TD[1]/TABLE[1]/TBODY[1]/TR[1]/TD[6]/IMG[1]</text>
</g>
<!-- 2&#45;&gt;7 -->
<g id="edge190" class="edge"><title>2&#45;&gt;7</title>
<path fill="none" stroke="red" d="M1331.56,-1096.49C1163.53,-1093.82 416.135,-1080.95 370.92,-1062 158.744,-973.096 6.91954,-924.049 6.91954,-694 6.91954,-694 6.91954,-694 6.91954,-107 6.91954,-36.9619 539.868,-22.3938 698.124,-19.6118"/>
<polygon fill="red" stroke="red" points="698.489,-23.1063 708.428,-19.4382 698.371,-16.1073 698.489,-23.1063"/>
<text text-anchor="middle" x="53.5748" y="-552.4" font-family="Times,serif" font-size="14.00">../TD[7]/IMG[1]</text>
<text text-anchor="middle" x="1322.43" y="-1094.96" font-family="Times,serif" font-size="14.00">/HTML[1]/BODY[1]/TABLE[1]/TBODY[1]/TR[1]/TD[1]/TABLE[1]/TBODY[1]/TR[1]/TD[1]/TABLE[1]/TBODY[1]/TR[1]/TD[7]/IMG[1]</text>
</g>
<!-- 2&#45;&gt;12 -->
<g id="edge192" class="edge"><title>2&#45;&gt;12</title>
<path fill="none" stroke="black" d="M1331.78,-1095.32C1265.29,-1091.58 1118,-1081.33 1071.61,-1062 1059.73,-1057.05 1060.95,-1048.58 1048.92,-1044 1022.35,-1033.89 618.501,-1016.67 477.252,-1010.93"/>
<polygon fill="black" stroke="black" points="477.285,-1007.43 467.152,-1010.52 477.002,-1014.42 477.285,-1007.43"/>
<text text-anchor="middle" x="1118.57" y="-1047.4" font-family="Times,serif" font-size="14.00">../TD[1]/IMG[2]</text>
<text text-anchor="middle" x="1322.48" y="-1093.4" font-family="Times,serif" font-size="14.00">/HTML[1]/BODY[1]/TABLE[1]/TBODY[1]/TR[2]/TD[1]/TABLE[1]/TBODY[1]/TR[1]/TD[1]/TABLE[1]/TBODY[1]/TR[1]/TD[1]/DIV[1]/TABLE[1]/TBODY[1]/TR[1]/TD[1]/IMG[2]</text>
</g>
<!-- 3&#45;&gt;1 -->
<g id="edge8" class="edge"><title>3&#45;&gt;1</title>
<path fill="none" stroke="black" d="M2000.46,-199.035C2131.1,-199.394 2605.93,-202.863 2752.92,-234 2795.87,-243.099 2818.34,-235.049 2844.92,-270 2942.27,-398.033 2873.69,-469.368 2881.92,-630 2882.74,-645.979 2885.35,-650.373 2881.92,-666 2880.03,-674.606 2875.5,-675.394 2873.61,-684 2871.89,-691.814 2868.83,-695.585 2873.61,-702 2890.32,-724.431 2914.36,-700 2933.92,-720 2953.9,-740.429 2950.92,-753.427 2950.92,-782 2950.92,-1099 2950.92,-1099 2950.92,-1099 2950.92,-1161.86 1946.07,-1182.54 1725.42,-1186.32"/>
<polygon fill="black" stroke="black" points="1725.16,-1182.83 1715.22,-1186.5 1725.27,-1189.83 1725.16,-1182.83"/>
<text text-anchor="middle" x="2920.57" y="-687.4" font-family="Times,serif" font-size="14.00">../TD[1]/IMG[2]</text>
<text text-anchor="middle" x="2009.54" y="-189.25" font-family="Times,serif" font-size="14.00">/HTML[1]/BODY[1]/TABLE[1]/TBODY[1]/TR[1]/TD[1]/TABLE[1]/TBODY[1]/TR[1]/TD[1]/TABLE[1]/TBODY[1]/TR[1]/TD[1]/IMG[2]</text>
</g>
<!-- 3&#45;&gt;2 -->
<g id="edge10" class="edge"><title>3&#45;&gt;2</title>
<path fill="none" stroke="black" d="M2000.05,-199.895C2133.69,-203.936 2625.92,-223.155 2625.92,-287 2625.92,-424 2625.92,-424 2625.92,-424 2625.92,-468.367 2650.53,-477.99 2644.92,-522 2641.78,-546.594 2643.26,-554.496 2630.92,-576 2613.98,-605.523 2589.68,-598.571 2576.61,-630 2570.46,-644.773 2568.5,-652.205 2576.61,-666 2584.94,-680.173 2600.59,-669.827 2608.92,-684 2612.97,-690.897 2610.2,-694.103 2608.92,-702 2591.36,-810.21 2607.63,-857.687 2530.92,-936 2440.34,-1028.47 2378.48,-990.779 2253.92,-1026 2192.51,-1043.36 2178.02,-1052.46 2114.92,-1062 1977.22,-1082.82 1546.85,-1093.27 1408.34,-1096.15"/>
<polygon fill="black" stroke="black" points="1408.04,-1092.66 1398.11,-1096.36 1408.18,-1099.66 1408.04,-1092.66"/>
<text text-anchor="middle" x="2623.57" y="-642.4" font-family="Times,serif" font-size="14.00">../TD[2]/IMG[1]</text>
<text text-anchor="middle" x="2009.25" y="-190.379" font-family="Times,serif" font-size="14.00">/HTML[1]/BODY[1]/TABLE[1]/TBODY[1]/TR[1]/TD[1]/TABLE[1]/TBODY[1]/TR[1]/TD[1]/TABLE[1]/TBODY[1]/TR[1]/TD[2]/IMG[1]</text>
</g>
<!-- 3&#45;&gt;4 -->
<g id="edge12" class="edge"><title>3&#45;&gt;4</title>
<path fill="none" stroke="black" d="M1933.51,-199.562C1819.14,-201.684 1443.93,-210.324 1325.92,-234 1279.07,-243.399 1263.92,-242.838 1224.61,-270 1192.81,-291.969 1165.58,-327.829 1149.48,-351.908"/>
<polygon fill="black" stroke="black" points="1146.4,-350.22 1143.86,-360.507 1152.26,-354.046 1146.4,-350.22"/>
<text text-anchor="middle" x="1271.57" y="-282.4" font-family="Times,serif" font-size="14.00">../TD[4]/IMG[1]</text>
<text text-anchor="middle" x="1924.53" y="-198.371" font-family="Times,serif" font-size="14.00">/HTML[1]/BODY[1]/TABLE[1]/TBODY[1]/TR[1]/TD[1]/TABLE[1]/TBODY[1]/TR[1]/TD[1]/TABLE[1]/TBODY[1]/TR[1]/TD[4]/IMG[1]</text>
</g>
<!-- 3&#45;&gt;5 -->
<g id="edge162" class="edge"><title>3&#45;&gt;5</title>
<path fill="none" stroke="black" d="M1988.67,-212.145C1998.08,-218.271 2008.96,-225.973 2017.92,-234 2103.3,-310.509 2129,-339.33 2158.92,-450 2187.53,-555.826 2101.37,-576.299 2080.92,-684 2079.43,-691.86 2076.64,-695.24 2080.92,-702 2090.91,-717.791 2108.93,-704.209 2118.92,-720 2127.48,-733.52 2128.18,-742.953 2118.92,-756 2090.85,-795.544 2063.57,-782.995 2015.92,-792 1910.6,-811.904 1640.98,-804.853 1533.92,-810 1446.49,-814.204 1344.26,-820.556 1287.84,-824.187"/>
<polygon fill="black" stroke="black" points="1287.6,-820.695 1277.85,-824.833 1288.05,-827.681 1287.6,-820.695"/>
<text text-anchor="middle" x="2210.57" y="-507.4" font-family="Times,serif" font-size="14.00">../TD[5]/IMG[1]</text>
<text text-anchor="middle" x="1998.57" y="-207.996" font-family="Times,serif" font-size="14.00">/HTML[1]/BODY[1]/TABLE[1]/TBODY[1]/TR[1]/TD[1]/TABLE[1]/TBODY[1]/TR[1]/TD[1]/TABLE[1]/TBODY[1]/TR[1]/TD[5]/IMG[1]</text>
</g>
<!-- 3&#45;&gt;6 -->
<g id="edge164" class="edge"><title>3&#45;&gt;6</title>
<path fill="none" stroke="black" d="M2000.29,-200.197C2058.66,-202.837 2182.81,-210.891 2284.92,-234 2354.7,-249.792 2436.92,-215.455 2436.92,-287 2436.92,-559 2436.92,-559 2436.92,-559 2436.92,-618.138 2440.92,-632.862 2440.92,-692 2440.92,-829 2440.92,-829 2440.92,-829 2440.92,-859.615 2423.31,-866.484 2396.92,-882 2352.75,-907.969 2293.44,-915.316 2253.56,-917.075"/>
<polygon fill="black" stroke="black" points="2253.23,-913.584 2243.36,-917.422 2253.47,-920.58 2253.23,-913.584"/>
<text text-anchor="middle" x="2484.57" y="-552.4" font-family="Times,serif" font-size="14.00">../TD[6]/IMG[1]</text>
<text text-anchor="middle" x="2009.55" y="-190.826" font-family="Times,serif" font-size="14.00">/HTML[1]/BODY[1]/TABLE[1]/TBODY[1]/TR[1]/TD[1]/TABLE[1]/TBODY[1]/TR[1]/TD[1]/TABLE[1]/TBODY[1]/TR[1]/TD[6]/IMG[1]</text>
</g>
<!-- 3&#45;&gt;7 -->
<g id="edge166" class="edge"><title>3&#45;&gt;7</title>
<path fill="none" stroke="red" d="M1935.1,-192.376C1766.18,-167.832 975.115,-52.8847 783.701,-25.0711"/>
<polygon fill="red" stroke="red" points="784.152,-21.5999 773.752,-23.6255 783.145,-28.5272 784.152,-21.5999"/>
<text text-anchor="middle" x="1523.57" y="-102.4" font-family="Times,serif" font-size="14.00">../TD[7]/IMG[1]</text>
<text text-anchor="middle" x="1925.52" y="-189.655" font-family="Times,serif" font-size="14.00">/HTML[1]/BODY[1]/TABLE[1]/TBODY[1]/TR[1]/TD[1]/TABLE[1]/TBODY[1]/TR[1]/TD[1]/TABLE[1]/TBODY[1]/TR[1]/TD[7]/IMG[1]</text>
</g>
<!-- 3&#45;&gt;11 -->
<g id="edge168" class="edge"><title>3&#45;&gt;11</title>
<path fill="none" stroke="black" d="M1963.52,-179.68C1960.44,-168.196 1954.82,-153.54 1944.92,-144 1931.61,-131.172 1913.17,-122.964 1896.15,-117.751"/>
<polygon fill="black" stroke="black" points="1896.91,-114.33 1886.34,-115.015 1895.03,-121.073 1896.91,-114.33"/>
<text text-anchor="middle" x="2004.57" y="-147.4" font-family="Times,serif" font-size="14.00">../TD[1]/IMG[3]</text>
<text text-anchor="middle" x="1956.98" y="-166.513" font-family="Times,serif" font-size="14.00">/HTML[1]/BODY[1]/TABLE[1]/TBODY[1]/TR[2]/TD[1]/TABLE[1]/TBODY[1]/TR[1]/TD[1]/TABLE[1]/TBODY[1]/TR[1]/TD[1]/DIV[1]/TABLE[1]/TBODY[1]/TR[1]/TD[1]/IMG[3]</text>
</g>
<!-- 4&#45;&gt;1 -->
<g id="edge14" class="edge"><title>4&#45;&gt;1</title>
<path fill="none" stroke="black" d="M1100.52,-379.704C980.341,-382.401 574.115,-392.995 519.92,-414 437.141,-446.083 425.761,-475.347 364.92,-540 331.194,-575.838 260.144,-677.163 235.92,-720 223.052,-742.754 217.899,-748.4 212.609,-774 181.279,-925.628 219.348,-973.088 278.92,-1116 286.318,-1133.75 286.082,-1142.71 302.92,-1152 362.826,-1185.04 1414.09,-1186.99 1640.27,-1187.02"/>
<polygon fill="black" stroke="black" points="1640.41,-1190.52 1650.41,-1187.02 1640.41,-1183.52 1640.41,-1190.52"/>
<text text-anchor="middle" x="259.575" y="-777.4" font-family="Times,serif" font-size="14.00">../TD[1]/IMG[2]</text>
<text text-anchor="middle" x="1091.56" y="-378.545" font-family="Times,serif" font-size="14.00">/HTML[1]/BODY[1]/TABLE[1]/TBODY[1]/TR[1]/TD[1]/TABLE[1]/TBODY[1]/TR[1]/TD[1]/TABLE[1]/TBODY[1]/TR[1]/TD[1]/IMG[2]</text>
</g>
<!-- 4&#45;&gt;2 -->
<g id="edge16" class="edge"><title>4&#45;&gt;2</title>
<path fill="none" stroke="black" d="M1100.49,-379.019C994.462,-379.397 666.758,-383.1 565.92,-414 535.821,-423.223 525.107,-425.845 504.92,-450 455.682,-508.913 496.78,-555.382 444.92,-612 432.297,-625.781 421.628,-618.471 406.92,-630 366.316,-661.827 350.9,-671.393 333.609,-720 328.246,-735.075 332.194,-740.063 333.609,-756 338.998,-816.714 337.008,-984.791 381.92,-1026 451.915,-1090.22 1140.21,-1096.45 1321.4,-1096.97"/>
<polygon fill="black" stroke="black" points="1321.6,-1100.47 1331.61,-1097 1321.62,-1093.47 1321.6,-1100.47"/>
<text text-anchor="middle" x="380.575" y="-732.4" font-family="Times,serif" font-size="14.00">../TD[2]/IMG[1]</text>
<text text-anchor="middle" x="1091.45" y="-377.701" font-family="Times,serif" font-size="14.00">/HTML[1]/BODY[1]/TABLE[1]/TBODY[1]/TR[1]/TD[1]/TABLE[1]/TBODY[1]/TR[1]/TD[1]/TABLE[1]/TBODY[1]/TR[1]/TD[2]/IMG[1]</text>
</g>
<!-- 4&#45;&gt;3 -->
<g id="edge18" class="edge"><title>4&#45;&gt;3</title>
<path fill="none" stroke="black" d="M1161.67,-368.032C1240.21,-342.986 1471.14,-271.658 1667.92,-234 1758.05,-216.752 1865.19,-206.7 1923.61,-202.086"/>
<polygon fill="black" stroke="black" points="1924.24,-205.548 1933.94,-201.287 1923.7,-198.569 1924.24,-205.548"/>
<text text-anchor="middle" x="1550.57" y="-282.4" font-family="Times,serif" font-size="14.00">../TD[3]/IMG[1]</text>
<text text-anchor="middle" x="1169.04" y="-355.674" font-family="Times,serif" font-size="14.00">/HTML[1]/BODY[1]/TABLE[1]/TBODY[1]/TR[1]/TD[1]/TABLE[1]/TBODY[1]/TR[1]/TD[1]/TABLE[1]/TBODY[1]/TR[1]/TD[3]/IMG[1]</text>
</g>
<!-- 4&#45;&gt;5 -->
<g id="edge20" class="edge"><title>4&#45;&gt;5</title>
<path fill="none" stroke="black" d="M1104.69,-386.776C1013.99,-412.71 745.767,-503.897 785.92,-666 790.269,-683.561 793.317,-688.118 804.92,-702 813.244,-711.96 818.39,-711.186 827.92,-720 859.787,-749.477 855.101,-772.568 893.92,-792 946.775,-818.459 1119.5,-824.916 1201.26,-826.491"/>
<polygon fill="black" stroke="black" points="1201.41,-829.995 1211.47,-826.672 1201.53,-822.996 1201.41,-829.995"/>
<text text-anchor="middle" x="834.575" y="-597.4" font-family="Times,serif" font-size="14.00">../TD[5]/IMG[1]</text>
<text text-anchor="middle" x="1097.25" y="-387.855" font-family="Times,serif" font-size="14.00">/HTML[1]/BODY[1]/TABLE[1]/TBODY[1]/TR[1]/TD[1]/TABLE[1]/TBODY[1]/TR[1]/TD[1]/TABLE[1]/TBODY[1]/TR[1]/TD[5]/IMG[1]</text>
</g>
<!-- 4&#45;&gt;6 -->
<g id="edge142" class="edge"><title>4&#45;&gt;6</title>
<path fill="none" stroke="black" d="M1167.23,-379.748C1336.6,-383.606 2095.12,-401.553 2115.92,-414 2131.81,-423.51 2128.67,-433.414 2136.92,-450 2152.35,-481.041 2152.38,-490.531 2166.92,-522 2189.52,-570.897 2206.47,-578.396 2221.92,-630 2238.03,-683.817 2232.23,-699.825 2231.92,-756 2231.54,-824.865 2231.61,-875.988 2229.92,-882 2228.96,-885.405 2227.61,-888.829 2226.04,-892.133"/>
<polygon fill="black" stroke="black" points="2222.92,-890.544 2221.25,-901.007 2229.08,-893.869 2222.92,-890.544"/>
<text text-anchor="middle" x="2277.57" y="-642.4" font-family="Times,serif" font-size="14.00">../TD[6]/IMG[1]</text>
<text text-anchor="middle" x="1176.39" y="-370.134" font-family="Times,serif" font-size="14.00">/HTML[1]/BODY[1]/TABLE[1]/TBODY[1]/TR[1]/TD[1]/TABLE[1]/TBODY[1]/TR[1]/TD[1]/TABLE[1]/TBODY[1]/TR[1]/TD[6]/IMG[1]</text>
</g>
<!-- 4&#45;&gt;7 -->
<g id="edge144" class="edge"><title>4&#45;&gt;7</title>
<path fill="none" stroke="red" d="M1101.5,-373.411C1029.57,-364.547 862.92,-338.652 862.92,-289 862.92,-289 862.92,-289 862.92,-107 862.92,-65.8062 816.483,-41.8791 781.145,-29.6345"/>
<polygon fill="red" stroke="red" points="782.112,-26.2685 771.519,-26.486 779.936,-32.9216 782.112,-26.2685"/>
<text text-anchor="middle" x="909.575" y="-192.4" font-family="Times,serif" font-size="14.00">../TD[7]/IMG[1]</text>
<text text-anchor="middle" x="1091.96" y="-370.819" font-family="Times,serif" font-size="14.00">/HTML[1]/BODY[1]/TABLE[1]/TBODY[1]/TR[1]/TD[1]/TABLE[1]/TBODY[1]/TR[1]/TD[1]/TABLE[1]/TBODY[1]/TR[1]/TD[7]/IMG[1]</text>
</g>
<!-- 4&#45;&gt;14 -->
<g id="edge146" class="edge"><title>4&#45;&gt;14</title>
<path fill="none" stroke="black" d="M1167.06,-374.649C1228.29,-370.074 1363.18,-358.918 1475.92,-342 1516.56,-335.902 1526.28,-331.894 1566.61,-324 1613.2,-314.88 1666.55,-304.6 1703.26,-297.554"/>
<polygon fill="black" stroke="black" points="1703.99,-300.977 1713.15,-295.656 1702.67,-294.103 1703.99,-300.977"/>
<text text-anchor="middle" x="1613.57" y="-327.4" font-family="Times,serif" font-size="14.00">../TD[1]/IMG[4]</text>
<text text-anchor="middle" x="1175.78" y="-364.143" font-family="Times,serif" font-size="14.00">/HTML[1]/BODY[1]/TABLE[1]/TBODY[1]/TR[2]/TD[1]/TABLE[1]/TBODY[1]/TR[1]/TD[1]/TABLE[1]/TBODY[1]/TR[1]/TD[1]/DIV[1]/TABLE[1]/TBODY[1]/TR[1]/TD[1]/IMG[4]</text>
</g>
<!-- 5&#45;&gt;1 -->
<g id="edge22" class="edge"><title>5&#45;&gt;1</title>
<path fill="none" stroke="black" d="M1213.75,-834.362C1187.53,-839.634 1149.54,-849.087 1118.92,-864 1058.34,-893.506 1047.49,-909.477 996.92,-954 955.393,-990.558 931.51,-992.648 910.92,-1044 892.979,-1088.74 885.748,-1119.04 920.92,-1152 947.308,-1176.73 1483.66,-1184.74 1640.31,-1186.56"/>
<polygon fill="black" stroke="black" points="1640.46,-1190.06 1650.5,-1186.67 1640.54,-1183.06 1640.46,-1190.06"/>
<text text-anchor="middle" x="997.575" y="-1002.4" font-family="Times,serif" font-size="14.00">../TD[1]/IMG[2]</text>
<text text-anchor="middle" x="1205.74" y="-834.748" font-family="Times,serif" font-size="14.00">/HTML[1]/BODY[1]/TABLE[1]/TBODY[1]/TR[1]/TD[1]/TABLE[1]/TBODY[1]/TR[1]/TD[1]/TABLE[1]/TBODY[1]/TR[1]/TD[1]/IMG[2]</text>
</g>
<!-- 5&#45;&gt;2 -->
<g id="edge24" class="edge"><title>5&#45;&gt;2</title>
<path fill="none" stroke="black" d="M1241.78,-846.085C1237.49,-873.735 1232.18,-929.479 1249.61,-972 1267.77,-1016.32 1309.22,-1054.66 1337.15,-1076.81"/>
<polygon fill="black" stroke="black" points="1335.29,-1079.8 1345.34,-1083.15 1339.57,-1074.26 1335.29,-1079.8"/>
<text text-anchor="middle" x="1296.57" y="-957.4" font-family="Times,serif" font-size="14.00">../TD[2]/IMG[1]</text>
<text text-anchor="middle" x="1244.69" y="-850.053" font-family="Times,serif" font-size="14.00">/HTML[1]/BODY[1]/TABLE[1]/TBODY[1]/TR[1]/TD[1]/TABLE[1]/TBODY[1]/TR[1]/TD[1]/TABLE[1]/TBODY[1]/TR[1]/TD[2]/IMG[1]</text>
</g>
<!-- 5&#45;&gt;3 -->
<g id="edge26" class="edge"><title>5&#45;&gt;3</title>
<path fill="none" stroke="black" d="M1277.85,-824.931C1331.49,-821.59 1441.07,-814.89 1533.92,-810 1597.12,-806.672 2060.8,-804.941 2100.92,-756 2111.06,-743.627 2110.03,-733.151 2100.92,-720 2087.94,-701.273 2072.08,-714.335 2052.92,-702 2033.89,-689.75 2025.58,-686.905 2016.92,-666 2005.03,-637.301 1989.27,-584.038 2022.61,-504 2041.71,-458.136 2100.44,-462.33 2088.92,-414 2068.13,-326.802 2048.27,-308.163 1997.92,-234 1995.16,-229.933 1991.97,-225.831 1988.71,-221.939"/>
<polygon fill="black" stroke="black" points="1991.25,-219.534 1982.03,-214.322 1985.99,-224.149 1991.25,-219.534"/>
<text text-anchor="middle" x="2069.57" y="-507.4" font-family="Times,serif" font-size="14.00">../TD[3]/IMG[1]</text>
<text text-anchor="middle" x="1286.64" y="-814.552" font-family="Times,serif" font-size="14.00">/HTML[1]/BODY[1]/TABLE[1]/TBODY[1]/TR[1]/TD[1]/TABLE[1]/TBODY[1]/TR[1]/TD[1]/TABLE[1]/TBODY[1]/TR[1]/TD[3]/IMG[1]</text>
</g>
<!-- 5&#45;&gt;4 -->
<g id="edge28" class="edge"><title>5&#45;&gt;4</title>
<path fill="none" stroke="black" d="M1211.48,-826.629C1130.9,-825.304 928.181,-819.275 866.92,-792 860.48,-789.133 693.487,-626.456 687.609,-612 684.596,-604.589 684.056,-601.168 687.609,-594 734.564,-499.288 784.124,-500.638 876.92,-450 918.017,-427.573 930.968,-427.091 975.92,-414 1015.11,-402.587 1060.7,-392.856 1092.81,-386.574"/>
<polygon fill="black" stroke="black" points="1093.58,-389.99 1102.74,-384.657 1092.25,-383.117 1093.58,-389.99"/>
<text text-anchor="middle" x="734.575" y="-597.4" font-family="Times,serif" font-size="14.00">../TD[4]/IMG[1]</text>
<text text-anchor="middle" x="1202.33" y="-825.072" font-family="Times,serif" font-size="14.00">/HTML[1]/BODY[1]/TABLE[1]/TBODY[1]/TR[1]/TD[1]/TABLE[1]/TBODY[1]/TR[1]/TD[1]/TABLE[1]/TBODY[1]/TR[1]/TD[4]/IMG[1]</text>
</g>
<!-- 5&#45;&gt;6 -->
<g id="edge30" class="edge"><title>5&#45;&gt;6</title>
<path fill="none" stroke="black" d="M1277.34,-832.175C1363.18,-840.558 1603.48,-863.888 1803.61,-882 1936.01,-893.982 2092.77,-907.216 2166.93,-913.42"/>
<polygon fill="black" stroke="black" points="2167,-916.938 2177.26,-914.283 2167.58,-909.962 2167,-916.938"/>
<text text-anchor="middle" x="1850.57" y="-867.4" font-family="Times,serif" font-size="14.00">../TD[6]/IMG[1]</text>
<text text-anchor="middle" x="1286.77" y="-823.248" font-family="Times,serif" font-size="14.00">/HTML[1]/BODY[1]/TABLE[1]/TBODY[1]/TR[1]/TD[1]/TABLE[1]/TBODY[1]/TR[1]/TD[1]/TABLE[1]/TBODY[1]/TR[1]/TD[6]/IMG[1]</text>
</g>
<!-- 5&#45;&gt;7 -->
<g id="edge44" class="edge"><title>5&#45;&gt;7</title>
<path fill="none" stroke="red" d="M1211.51,-826.602C1137.62,-825.229 954.981,-819.127 804.92,-792 747.608,-781.64 730.23,-783.554 678.92,-756 650.523,-740.751 237.92,-411.232 237.92,-379 237.92,-379 237.92,-379 237.92,-107 237.92,-60.3935 576.689,-31.0579 698.745,-22.001"/>
<polygon fill="red" stroke="red" points="699.133,-25.482 708.851,-21.2609 698.622,-18.5007 699.133,-25.482"/>
<text text-anchor="middle" x="330.575" y="-417.4" font-family="Times,serif" font-size="14.00">../TD[7]/IMG[1]</text>
<text text-anchor="middle" x="1202.36" y="-825.023" font-family="Times,serif" font-size="14.00">/HTML[1]/BODY[1]/TABLE[1]/TBODY[1]/TR[1]/TD[1]/TABLE[1]/TBODY[1]/TR[1]/TD[1]/TABLE[1]/TBODY[1]/TR[1]/TD[7]/IMG[1]</text>
</g>
<!-- 5&#45;&gt;8 -->
<g id="edge46" class="edge"><title>5&#45;&gt;8</title>
<path fill="none" stroke="black" d="M1211.64,-827.306C1151.74,-827.07 1029.52,-822.73 1002.92,-792 982.166,-768.029 1083.2,-566.806 1120.52,-494.635"/>
<polygon fill="black" stroke="black" points="1123.64,-496.21 1125.14,-485.722 1117.43,-492.986 1123.64,-496.21"/>
<text text-anchor="middle" x="1100.57" y="-642.4" font-family="Times,serif" font-size="14.00">../TD[1]/IMG[5]</text>
<text text-anchor="middle" x="1202.53" y="-825.833" font-family="Times,serif" font-size="14.00">/HTML[1]/BODY[1]/TABLE[1]/TBODY[1]/TR[2]/TD[1]/TABLE[1]/TBODY[1]/TR[1]/TD[1]/TABLE[1]/TBODY[1]/TR[1]/TD[1]/DIV[1]/TABLE[1]/TBODY[1]/TR[1]/TD[1]/IMG[5]</text>
</g>
<!-- 9 -->
<g id="node9" class="node"><title>9</title>
<ellipse fill="none" stroke="orange" cx="1594.92" cy="-558" rx="33.3419" ry="18"/>
<text text-anchor="middle" x="1594.92" y="-552.4" font-family="Times,serif" font-size="14.00">state8</text>
</g>
<!-- 5&#45;&gt;9 -->
<g id="edge136" class="edge"><title>5&#45;&gt;9</title>
<path fill="none" stroke="black" d="M1277.11,-822.845C1296.21,-818.541 1318.95,-809.789 1330.92,-792 1335.38,-785.362 1335.2,-780.76 1330.92,-774 1320.93,-758.209 1302.91,-771.791 1292.92,-756 1284.36,-742.48 1282.74,-732.342 1292.92,-720 1319.71,-687.525 1348.56,-721.4 1385.92,-702 1396.15,-696.686 1394.23,-689.026 1404.61,-684 1431.32,-671.069 1517.4,-688.352 1536.92,-666 1547.44,-653.948 1544.59,-644.043 1536.92,-630 1529.83,-617.015 1516.01,-624.985 1508.92,-612 1505.09,-604.978 1504.45,-600.638 1508.92,-594 1518.83,-579.268 1536.13,-570.734 1552.63,-565.792"/>
<polygon fill="black" stroke="black" points="1553.93,-569.069 1562.72,-563.155 1552.17,-562.296 1553.93,-569.069"/>
<text text-anchor="middle" x="1451.57" y="-687.4" font-family="Times,serif" font-size="14.00">../TD[1]/IMG[7]</text>
<text text-anchor="middle" x="1284.91" y="-810.98" font-family="Times,serif" font-size="14.00">/HTML[1]/BODY[1]/TABLE[1]/TBODY[1]/TR[2]/TD[1]/TABLE[1]/TBODY[1]/TR[1]/TD[1]/TABLE[1]/TBODY[1]/TR[1]/TD[1]/DIV[1]/TABLE[1]/TBODY[1]/TR[1]/TD[1]/IMG[7]</text>
</g>
<!-- 10 -->
<g id="node10" class="node"><title>10</title>
<ellipse fill="none" stroke="orange" cx="1632.92" cy="-648" rx="33.3419" ry="18"/>
<text text-anchor="middle" x="1632.92" y="-642.4" font-family="Times,serif" font-size="14.00">state9</text>
</g>
<!-- 5&#45;&gt;10 -->
<g id="edge138" class="edge"><title>5&#45;&gt;10</title>
<path fill="none" stroke="black" d="M1278.17,-827.125C1305.53,-825.241 1342.8,-817.678 1361.92,-792 1390.64,-753.436 1315.58,-772.217 1303.61,-756 1294.11,-743.125 1292.82,-731.814 1303.61,-720 1333.45,-687.327 1460.07,-716.378 1501.92,-702 1515.91,-697.193 1516.56,-690.352 1529.92,-684 1553.15,-672.956 1560.57,-674.294 1584.92,-666 1588.67,-664.722 1592.58,-663.369 1596.48,-662.009"/>
<polygon fill="black" stroke="black" points="1597.78,-665.264 1606.05,-658.645 1595.45,-658.66 1597.78,-665.264"/>
<text text-anchor="middle" x="1350.57" y="-732.4" font-family="Times,serif" font-size="14.00">../TD[1]/IMG[8]</text>
<text text-anchor="middle" x="1286.83" y="-816.519" font-family="Times,serif" font-size="14.00">/HTML[1]/BODY[1]/TABLE[1]/TBODY[1]/TR[2]/TD[1]/TABLE[1]/TBODY[1]/TR[1]/TD[1]/TABLE[1]/TBODY[1]/TR[1]/TD[1]/DIV[1]/TABLE[1]/TBODY[1]/TR[1]/TD[1]/IMG[8]</text>
</g>
<!-- 13 -->
<g id="node13" class="node"><title>13</title>
<ellipse fill="none" stroke="orange" cx="1117.92" cy="-738" rx="38.0859" ry="18"/>
<text text-anchor="middle" x="1117.92" y="-732.4" font-family="Times,serif" font-size="14.00">state10</text>
</g>
<!-- 5&#45;&gt;13 -->
<g id="edge140" class="edge"><title>5&#45;&gt;13</title>
<path fill="none" stroke="black" d="M1211.45,-826.979C1183.53,-825.022 1144.96,-817.433 1123.61,-792 1117.71,-784.97 1115.52,-775.431 1115.06,-766.383"/>
<polygon fill="black" stroke="black" points="1118.57,-766.211 1115.2,-756.167 1111.57,-766.12 1118.57,-766.211"/>
<text text-anchor="middle" x="1170.57" y="-777.4" font-family="Times,serif" font-size="14.00">../TD[1]/IMG[9]</text>
<text text-anchor="middle" x="1202.05" y="-824.788" font-family="Times,serif" font-size="14.00">/HTML[1]/BODY[1]/TABLE[1]/TBODY[1]/TR[2]/TD[1]/TABLE[1]/TBODY[1]/TR[1]/TD[1]/TABLE[1]/TBODY[1]/TR[1]/TD[1]/DIV[1]/TABLE[1]/TBODY[1]/TR[1]/TD[1]/IMG[9]</text>
</g>
<!-- 6&#45;&gt;1 -->
<g id="edge32" class="edge"><title>6&#45;&gt;1</title>
<path fill="none" stroke="black" d="M2243.03,-920.908C2275.49,-924.032 2325.44,-932.271 2362.92,-954 2409.99,-981.29 2426.12,-993.318 2445.92,-1044 2467.95,-1100.39 2417.73,-1126.29 2362.92,-1152 2305.42,-1178.97 1865.27,-1185.32 1725.42,-1186.67"/>
<polygon fill="black" stroke="black" points="1725.09,-1183.17 1715.12,-1186.76 1725.15,-1190.17 1725.09,-1183.17"/>
<text text-anchor="middle" x="2497.57" y="-1047.4" font-family="Times,serif" font-size="14.00">../TD[1]/IMG[2]</text>
<text text-anchor="middle" x="2252.49" y="-912.074" font-family="Times,serif" font-size="14.00">/HTML[1]/BODY[1]/TABLE[1]/TBODY[1]/TR[1]/TD[1]/TABLE[1]/TBODY[1]/TR[1]/TD[1]/TABLE[1]/TBODY[1]/TR[1]/TD[1]/IMG[2]</text>
</g>
<!-- 6&#45;&gt;2 -->
<g id="edge34" class="edge"><title>6&#45;&gt;2</title>
<path fill="none" stroke="black" d="M2179.63,-925.885C2137.45,-936.194 2059.35,-957.922 1998.61,-990 1950.6,-1015.35 1950.96,-1043.49 1899.92,-1062 1809.95,-1094.62 1519.37,-1097.42 1408.48,-1097.26"/>
<polygon fill="black" stroke="black" points="1408.33,-1093.76 1398.32,-1097.23 1408.31,-1100.76 1408.33,-1093.76"/>
<text text-anchor="middle" x="2045.57" y="-1002.4" font-family="Times,serif" font-size="14.00">../TD[2]/IMG[1]</text>
<text text-anchor="middle" x="2171.87" y="-926.591" font-family="Times,serif" font-size="14.00">/HTML[1]/BODY[1]/TABLE[1]/TBODY[1]/TR[1]/TD[1]/TABLE[1]/TBODY[1]/TR[1]/TD[1]/TABLE[1]/TBODY[1]/TR[1]/TD[2]/IMG[1]</text>
</g>
<!-- 6&#45;&gt;3 -->
<g id="edge36" class="edge"><title>6&#45;&gt;3</title>
<path fill="none" stroke="black" d="M2243.1,-916.35C2298.28,-913.318 2402.92,-898.416 2402.92,-829 2402.92,-829 2402.92,-829 2402.92,-692 2402.92,-647.716 2414.71,-626.77 2384.92,-594 2365.24,-572.353 2339.53,-599.119 2321.61,-576 2292.46,-538.404 2318.92,-516.571 2318.92,-469 2318.92,-469 2318.92,-469 2318.92,-287 2318.92,-224.007 2104.07,-205.73 2010.08,-200.748"/>
<polygon fill="black" stroke="black" points="2010.2,-197.249 2000.03,-200.242 2009.85,-204.24 2010.2,-197.249"/>
<text text-anchor="middle" x="2368.57" y="-552.4" font-family="Times,serif" font-size="14.00">../TD[3]/IMG[1]</text>
<text text-anchor="middle" x="2251.83" y="-905.874" font-family="Times,serif" font-size="14.00">/HTML[1]/BODY[1]/TABLE[1]/TBODY[1]/TR[1]/TD[1]/TABLE[1]/TBODY[1]/TR[1]/TD[1]/TABLE[1]/TBODY[1]/TR[1]/TD[3]/IMG[1]</text>
</g>
<!-- 6&#45;&gt;4 -->
<g id="edge38" class="edge"><title>6&#45;&gt;4</title>
<path fill="none" stroke="black" d="M2212.85,-899.962C2213.69,-894.269 2214.5,-887.878 2214.92,-882 2218.32,-834.119 2216.18,-821.949 2213.92,-774 2212.03,-733.956 2233.96,-714.478 2207.92,-684 2184.44,-656.52 2152.42,-693.198 2128.61,-666 2054.1,-580.885 2180.23,-485.918 2092.92,-414 2075.01,-399.25 1361.89,-383.664 1177.22,-379.869"/>
<polygon fill="black" stroke="black" points="1177.14,-376.367 1167.07,-379.662 1177,-383.365 1177.14,-376.367"/>
<text text-anchor="middle" x="2175.57" y="-642.4" font-family="Times,serif" font-size="14.00">../TD[4]/IMG[1]</text>
<text text-anchor="middle" x="2209.98" y="-884.783" font-family="Times,serif" font-size="14.00">/HTML[1]/BODY[1]/TABLE[1]/TBODY[1]/TR[1]/TD[1]/TABLE[1]/TBODY[1]/TR[1]/TD[1]/TABLE[1]/TBODY[1]/TR[1]/TD[4]/IMG[1]</text>
</g>
<!-- 6&#45;&gt;5 -->
<g id="edge40" class="edge"><title>6&#45;&gt;5</title>
<path fill="none" stroke="black" d="M2176.81,-915.454C2111.46,-912.412 1961.23,-905.469 1834.92,-900 1786.44,-897.901 1444.09,-898.908 1398.61,-882 1386.54,-877.514 1387.42,-869.782 1375.92,-864 1347.79,-849.857 1313.3,-840.939 1286.77,-835.646"/>
<polygon fill="black" stroke="black" points="1287.13,-832.153 1276.66,-833.726 1285.83,-839.031 1287.13,-832.153"/>
<text text-anchor="middle" x="1445.57" y="-867.4" font-family="Times,serif" font-size="14.00">../TD[5]/IMG[1]</text>
<text text-anchor="middle" x="2167.56" y="-913.655" font-family="Times,serif" font-size="14.00">/HTML[1]/BODY[1]/TABLE[1]/TBODY[1]/TR[1]/TD[1]/TABLE[1]/TBODY[1]/TR[1]/TD[1]/TABLE[1]/TBODY[1]/TR[1]/TD[5]/IMG[1]</text>
</g>
<!-- 6&#45;&gt;7 -->
<g id="edge42" class="edge"><title>6&#45;&gt;7</title>
<path fill="none" stroke="red" d="M2243.21,-916.253C2291.54,-914.292 2383.39,-907.239 2456.92,-882 2532.99,-855.889 2555.23,-846.999 2613.92,-792 2616,-790.052 2839.01,-452.36 2840.61,-450 2902.98,-357.842 2982.92,-355.278 2982.92,-244 2982.92,-244 2982.92,-244 2982.92,-107 2982.92,-49.8531 1097.19,-23.5005 785.349,-19.5333"/>
<polygon fill="red" stroke="red" points="785.381,-16.0335 775.338,-19.4068 785.293,-23.033 785.381,-16.0335"/>
<text text-anchor="middle" x="2887.57" y="-462.4" font-family="Times,serif" font-size="14.00">../TD[7]/IMG[1]</text>
<text text-anchor="middle" x="2252.06" y="-905.998" font-family="Times,serif" font-size="14.00">/HTML[1]/BODY[1]/TABLE[1]/TBODY[1]/TR[1]/TD[1]/TABLE[1]/TBODY[1]/TR[1]/TD[1]/TABLE[1]/TBODY[1]/TR[1]/TD[7]/IMG[1]</text>
</g>
<!-- 8&#45;&gt;1 -->
<g id="edge48" class="edge"><title>8&#45;&gt;1</title>
<path fill="none" stroke="black" d="M1100.77,-470.189C1049.07,-472.728 946.5,-480.527 862.92,-504 717.961,-544.711 631.547,-544.086 575.92,-684 547.844,-754.616 588.39,-782.815 630.609,-846 650.052,-875.099 670.573,-869.605 687.92,-900 701.922,-924.535 701.92,-933.751 701.92,-962 701.92,-1099 701.92,-1099 701.92,-1099 701.92,-1180.27 796.807,-1138.35 876.92,-1152 1025.77,-1177.36 1495.6,-1184.83 1640.17,-1186.55"/>
<polygon fill="black" stroke="black" points="1640.36,-1190.06 1650.4,-1186.67 1640.44,-1183.06 1640.36,-1190.06"/>
<text text-anchor="middle" x="677.575" y="-822.4" font-family="Times,serif" font-size="14.00">../TD[1]/IMG[2]</text>
<text text-anchor="middle" x="1091.95" y="-469.305" font-family="Times,serif" font-size="14.00">/HTML[1]/BODY[1]/TABLE[1]/TBODY[1]/TR[1]/TD[1]/TABLE[1]/TBODY[1]/TR[1]/TD[1]/TABLE[1]/TBODY[1]/TR[1]/TD[1]/IMG[2]</text>
</g>
<!-- 8&#45;&gt;2 -->
<g id="edge50" class="edge"><title>8&#45;&gt;2</title>
<path fill="none" stroke="black" d="M1100.51,-469.052C1027.66,-471.204 855.132,-487.826 780.92,-594 753.345,-633.45 775.255,-655.849 788.92,-702 827.471,-832.204 822.066,-892.178 931.92,-972 969.514,-999.317 995.094,-966.052 1034.92,-990 1052.29,-1000.45 1045.38,-1015.84 1062.92,-1026 1112.24,-1054.59 1136.49,-1024.13 1189.92,-1044 1203.79,-1049.16 1204.31,-1056.2 1217.92,-1062 1251.82,-1076.43 1292.76,-1085.56 1322.82,-1090.87"/>
<polygon fill="black" stroke="black" points="1322.53,-1094.37 1332.97,-1092.58 1323.7,-1087.46 1322.53,-1094.37"/>
<text text-anchor="middle" x="860.575" y="-777.4" font-family="Times,serif" font-size="14.00">../TD[2]/IMG[1]</text>
<text text-anchor="middle" x="1091.65" y="-468.098" font-family="Times,serif" font-size="14.00">/HTML[1]/BODY[1]/TABLE[1]/TBODY[1]/TR[1]/TD[1]/TABLE[1]/TBODY[1]/TR[1]/TD[1]/TABLE[1]/TBODY[1]/TR[1]/TD[2]/IMG[1]</text>
</g>
<!-- 8&#45;&gt;3 -->
<g id="edge52" class="edge"><title>8&#45;&gt;3</title>
<path fill="none" stroke="black" d="M1165.98,-462.789C1267.49,-448.942 1579.85,-402.238 1659.92,-342 1703.97,-308.858 1675.39,-265.081 1720.92,-234 1753,-212.1 1861.68,-203.692 1923.31,-200.631"/>
<polygon fill="black" stroke="black" points="1923.69,-204.117 1933.51,-200.152 1923.36,-197.125 1923.69,-204.117"/>
<text text-anchor="middle" x="1723.57" y="-327.4" font-family="Times,serif" font-size="14.00">../TD[3]/IMG[1]</text>
<text text-anchor="middle" x="1174.36" y="-451.74" font-family="Times,serif" font-size="14.00">/HTML[1]/BODY[1]/TABLE[1]/TBODY[1]/TR[1]/TD[1]/TABLE[1]/TBODY[1]/TR[1]/TD[1]/TABLE[1]/TBODY[1]/TR[1]/TD[3]/IMG[1]</text>
</g>
<!-- 8&#45;&gt;4 -->
<g id="edge54" class="edge"><title>8&#45;&gt;4</title>
<path fill="none" stroke="black" d="M1133.92,-449.614C1133.92,-437.24 1133.92,-420.369 1133.92,-406.22"/>
<polygon fill="black" stroke="black" points="1137.42,-406.05 1133.92,-396.05 1130.42,-406.05 1137.42,-406.05"/>
<text text-anchor="middle" x="1180.57" y="-417.4" font-family="Times,serif" font-size="14.00">../TD[4]/IMG[1]</text>
<text text-anchor="middle" x="1129.69" y="-434.951" font-family="Times,serif" font-size="14.00">/HTML[1]/BODY[1]/TABLE[1]/TBODY[1]/TR[1]/TD[1]/TABLE[1]/TBODY[1]/TR[1]/TD[1]/TABLE[1]/TBODY[1]/TR[1]/TD[4]/IMG[1]</text>
</g>
<!-- 8&#45;&gt;5 -->
<g id="edge56" class="edge"><title>8&#45;&gt;5</title>
<path fill="none" stroke="black" d="M1103.08,-475.2C1084.21,-480.296 1060.56,-489.163 1043.92,-504 1016.91,-528.076 1033.58,-552.67 1005.92,-576 966.6,-609.168 945.8,-599.427 895.92,-612 873.959,-617.535 810.14,-612.629 795.609,-630 785.343,-642.272 788.536,-651.648 795.609,-666 813.028,-701.342 838.602,-691.606 865.92,-720 893.108,-748.259 883.093,-772.162 916.92,-792 964.041,-819.635 1123.09,-825.519 1201.07,-826.723"/>
<polygon fill="black" stroke="black" points="1201.47,-830.229 1211.52,-826.864 1201.57,-823.23 1201.47,-830.229"/>
<text text-anchor="middle" x="842.575" y="-642.4" font-family="Times,serif" font-size="14.00">../TD[5]/IMG[1]</text>
<text text-anchor="middle" x="1095.52" y="-476.14" font-family="Times,serif" font-size="14.00">/HTML[1]/BODY[1]/TABLE[1]/TBODY[1]/TR[1]/TD[1]/TABLE[1]/TBODY[1]/TR[1]/TD[1]/TABLE[1]/TBODY[1]/TR[1]/TD[5]/IMG[1]</text>
</g>
<!-- 8&#45;&gt;5 -->
<g id="edge62" class="edge"><title>8&#45;&gt;5</title>
<path fill="none" stroke="black" d="M1119.83,-484.42C1096.11,-510.218 1048.94,-560.798 1029.92,-576 993.98,-604.72 964.107,-589.871 941.609,-630 933.784,-643.956 938.323,-650.341 941.609,-666 954.168,-725.855 948.184,-755.052 996.92,-792 1028.2,-815.715 1138.72,-823.388 1201.15,-825.851"/>
<polygon fill="black" stroke="black" points="1201.35,-829.361 1211.47,-826.229 1201.61,-822.366 1201.35,-829.361"/>
<text text-anchor="middle" x="988.575" y="-642.4" font-family="Times,serif" font-size="14.00">../TD[1]/IMG[6]</text>
<text text-anchor="middle" x="1116.79" y="-488.348" font-family="Times,serif" font-size="14.00">/HTML[1]/BODY[1]/TABLE[1]/TBODY[1]/TR[2]/TD[1]/TABLE[1]/TBODY[1]/TR[1]/TD[1]/TABLE[1]/TBODY[1]/TR[1]/TD[1]/DIV[1]/TABLE[1]/TBODY[1]/TR[1]/TD[1]/IMG[6]</text>
</g>
<!-- 8&#45;&gt;6 -->
<g id="edge58" class="edge"><title>8&#45;&gt;6</title>
<path fill="none" stroke="black" d="M1167.11,-471.002C1229.08,-475.038 1366.47,-485.391 1480.92,-504 1486.53,-504.912 1874.53,-592.205 1879.92,-594 1972.79,-624.922 1993.03,-640.911 2080.92,-684 2096.16,-691.473 2099.05,-695.217 2114.61,-702 2137.15,-711.824 2150.58,-701.632 2166.92,-720 2209.52,-767.876 2213.18,-848.018 2211.81,-889.798"/>
<polygon fill="black" stroke="black" points="2208.31,-889.643 2211.36,-899.79 2215.31,-889.958 2208.31,-889.643"/>
<text text-anchor="middle" x="2161.57" y="-687.4" font-family="Times,serif" font-size="14.00">../TD[6]/IMG[1]</text>
<text text-anchor="middle" x="1176.43" y="-461.796" font-family="Times,serif" font-size="14.00">/HTML[1]/BODY[1]/TABLE[1]/TBODY[1]/TR[1]/TD[1]/TABLE[1]/TBODY[1]/TR[1]/TD[1]/TABLE[1]/TBODY[1]/TR[1]/TD[6]/IMG[1]</text>
</g>
<!-- 8&#45;&gt;7 -->
<g id="edge60" class="edge"><title>8&#45;&gt;7</title>
<path fill="none" stroke="red" d="M1100.45,-466.326C1001.68,-464.072 716.162,-455.565 681.92,-432 602.984,-377.679 573.913,-327.094 596.609,-234 617.952,-146.454 629.941,-121.249 689.92,-54 695.75,-47.4623 703.056,-41.5753 710.332,-36.5763"/>
<polygon fill="red" stroke="red" points="712.267,-39.4937 718.77,-31.1301 708.471,-33.6123 712.267,-39.4937"/>
<text text-anchor="middle" x="643.575" y="-237.4" font-family="Times,serif" font-size="14.00">../TD[7]/IMG[1]</text>
<text text-anchor="middle" x="1091.29" y="-464.723" font-family="Times,serif" font-size="14.00">/HTML[1]/BODY[1]/TABLE[1]/TBODY[1]/TR[1]/TD[1]/TABLE[1]/TBODY[1]/TR[1]/TD[1]/TABLE[1]/TBODY[1]/TR[1]/TD[7]/IMG[1]</text>
</g>
<!-- 8&#45;&gt;9 -->
<g id="edge64" class="edge"><title>8&#45;&gt;9</title>
<path fill="none" stroke="black" d="M1166.17,-472.673C1206.39,-477.69 1277.03,-487.94 1335.92,-504 1357.78,-509.961 1361.62,-516.531 1383.61,-522 1445.05,-537.283 1462.66,-528.511 1524.92,-540 1535.07,-541.872 1545.94,-544.303 1556.02,-546.739"/>
<polygon fill="black" stroke="black" points="1555.24,-550.149 1565.79,-549.155 1556.92,-543.354 1555.24,-550.149"/>
<text text-anchor="middle" x="1430.57" y="-507.4" font-family="Times,serif" font-size="14.00">../TD[1]/IMG[7]</text>
<text text-anchor="middle" x="1175.69" y="-464.037" font-family="Times,serif" font-size="14.00">/HTML[1]/BODY[1]/TABLE[1]/TBODY[1]/TR[2]/TD[1]/TABLE[1]/TBODY[1]/TR[1]/TD[1]/TABLE[1]/TBODY[1]/TR[1]/TD[1]/DIV[1]/TABLE[1]/TBODY[1]/TR[1]/TD[1]/IMG[7]</text>
</g>
<!-- 8&#45;&gt;10 -->
<g id="edge132" class="edge"><title>8&#45;&gt;10</title>
<path fill="none" stroke="black" d="M1149.37,-483.957C1155.74,-490.147 1163.2,-497.406 1169.92,-504 1186.15,-519.925 1222.4,-565.587 1242.61,-576 1284.43,-597.547 1300.61,-585.714 1346.92,-594 1434.25,-609.626 1536.4,-628.764 1591.91,-639.236"/>
<polygon fill="black" stroke="black" points="1591.57,-642.734 1602.05,-641.15 1592.87,-635.855 1591.57,-642.734"/>
<text text-anchor="middle" x="1289.57" y="-552.4" font-family="Times,serif" font-size="14.00">../TD[1]/IMG[8]</text>
<text text-anchor="middle" x="1158.81" y="-481.639" font-family="Times,serif" font-size="14.00">/HTML[1]/BODY[1]/TABLE[1]/TBODY[1]/TR[2]/TD[1]/TABLE[1]/TBODY[1]/TR[1]/TD[1]/TABLE[1]/TBODY[1]/TR[1]/TD[1]/DIV[1]/TABLE[1]/TBODY[1]/TR[1]/TD[1]/IMG[8]</text>
</g>
<!-- 8&#45;&gt;13 -->
<g id="edge134" class="edge"><title>8&#45;&gt;13</title>
<path fill="none" stroke="black" d="M1141.83,-485.635C1153,-507.972 1175.07,-548.073 1201.92,-576 1211.66,-586.132 1220.23,-582.233 1227.92,-594 1245.5,-620.917 1255.85,-641.599 1234.92,-666 1200.66,-705.931 1152.18,-644.069 1117.92,-684 1111.91,-691.002 1110.61,-700.649 1111.25,-709.796"/>
<polygon fill="black" stroke="black" points="1107.79,-710.327 1112.65,-719.742 1114.72,-709.352 1107.79,-710.327"/>
<text text-anchor="middle" x="1285.57" y="-597.4" font-family="Times,serif" font-size="14.00">../TD[1]/IMG[9]</text>
<text text-anchor="middle" x="1149.71" y="-486.19" font-family="Times,serif" font-size="14.00">/HTML[1]/BODY[1]/TABLE[1]/TBODY[1]/TR[2]/TD[1]/TABLE[1]/TBODY[1]/TR[1]/TD[1]/TABLE[1]/TBODY[1]/TR[1]/TD[1]/DIV[1]/TABLE[1]/TBODY[1]/TR[1]/TD[1]/IMG[9]</text>
</g>
<!-- 9&#45;&gt;1 -->
<g id="edge66" class="edge"><title>9&#45;&gt;1</title>
<path fill="none" stroke="black" d="M1620.38,-569.604C1626.98,-572.019 1634.13,-574.355 1640.92,-576 1704.89,-591.513 1725.18,-574.081 1787.92,-594 1820.14,-604.23 1828.27,-609.208 1854.92,-630 1940.25,-696.565 1953.23,-723.987 2018.92,-810 2041.92,-840.121 2038.18,-854.837 2064.61,-882 2124.52,-943.574 2184.57,-914.158 2224.92,-990 2232.44,-1004.13 2234.49,-1013.18 2224.92,-1026 2163.44,-1108.4 1839.72,-1163.74 1724.05,-1181.14"/>
<polygon fill="black" stroke="black" points="1723.21,-1177.73 1713.84,-1182.66 1724.24,-1184.65 1723.21,-1177.73"/>
<text text-anchor="middle" x="2111.57" y="-867.4" font-family="Times,serif" font-size="14.00">../TD[1]/IMG[2]</text>
<text text-anchor="middle" x="1630.34" y="-563.113" font-family="Times,serif" font-size="14.00">/HTML[1]/BODY[1]/TABLE[1]/TBODY[1]/TR[1]/TD[1]/TABLE[1]/TBODY[1]/TR[1]/TD[1]/TABLE[1]/TBODY[1]/TR[1]/TD[1]/IMG[2]</text>
</g>
<!-- 9&#45;&gt;2 -->
<g id="edge68" class="edge"><title>9&#45;&gt;2</title>
<path fill="none" stroke="black" d="M1620.91,-569.612C1627.37,-571.969 1634.33,-574.275 1640.92,-576 1690.12,-588.876 1707.05,-574.255 1753.92,-594 1815.68,-620.022 1830.34,-633.949 1874.92,-684 1880.95,-690.776 1940.66,-744.957 1926.92,-792 1905.62,-864.899 1892.72,-886.74 1834.92,-936 1705.47,-1046.32 1496.58,-1082.21 1407.44,-1092.88"/>
<polygon fill="black" stroke="black" points="1406.96,-1089.41 1397.42,-1094.03 1407.76,-1096.37 1406.96,-1089.41"/>
<text text-anchor="middle" x="1968.57" y="-822.4" font-family="Times,serif" font-size="14.00">../TD[2]/IMG[1]</text>
<text text-anchor="middle" x="1630.87" y="-563.115" font-family="Times,serif" font-size="14.00">/HTML[1]/BODY[1]/TABLE[1]/TBODY[1]/TR[1]/TD[1]/TABLE[1]/TBODY[1]/TR[1]/TD[1]/TABLE[1]/TBODY[1]/TR[1]/TD[2]/IMG[1]</text>
</g>
<!-- 9&#45;&gt;3 -->
<g id="edge70" class="edge"><title>9&#45;&gt;3</title>
<path fill="none" stroke="black" d="M1628.05,-555.192C1705.53,-550.198 1894.87,-533.308 1932.92,-486 1942.95,-473.532 1934.85,-465.883 1932.92,-450 1929.94,-425.462 1922.59,-420.538 1919.61,-396 1917.68,-380.117 1917.33,-375.837 1919.61,-360 1926.61,-311.342 1944.94,-256.881 1956.62,-225.406"/>
<polygon fill="black" stroke="black" points="1959.9,-226.623 1960.15,-216.031 1953.35,-224.153 1959.9,-226.623"/>
<text text-anchor="middle" x="1966.57" y="-372.4" font-family="Times,serif" font-size="14.00">../TD[3]/IMG[1]</text>
<text text-anchor="middle" x="1636.79" y="-544.733" font-family="Times,serif" font-size="14.00">/HTML[1]/BODY[1]/TABLE[1]/TBODY[1]/TR[1]/TD[1]/TABLE[1]/TBODY[1]/TR[1]/TD[1]/TABLE[1]/TBODY[1]/TR[1]/TD[3]/IMG[1]</text>
</g>
<!-- 9&#45;&gt;4 -->
<g id="edge72" class="edge"><title>9&#45;&gt;4</title>
<path fill="none" stroke="black" d="M1574.26,-543.771C1556.3,-532.526 1529.38,-516.296 1504.92,-504 1390.55,-446.518 1243.67,-405.96 1174.01,-388.535"/>
<polygon fill="black" stroke="black" points="1174.45,-385.04 1163.9,-386.035 1172.77,-391.835 1174.45,-385.04"/>
<text text-anchor="middle" x="1509.57" y="-462.4" font-family="Times,serif" font-size="14.00">../TD[4]/IMG[1]</text>
<text text-anchor="middle" x="1564.34" y="-536.97" font-family="Times,serif" font-size="14.00">/HTML[1]/BODY[1]/TABLE[1]/TBODY[1]/TR[1]/TD[1]/TABLE[1]/TBODY[1]/TR[1]/TD[1]/TABLE[1]/TBODY[1]/TR[1]/TD[4]/IMG[1]</text>
</g>
<!-- 9&#45;&gt;5 -->
<g id="edge74" class="edge"><title>9&#45;&gt;5</title>
<path fill="none" stroke="black" d="M1628.44,-558.57C1656.53,-560.22 1695.13,-567.611 1714.92,-594 1736.88,-623.285 1701.05,-640.367 1674.92,-666 1665.06,-675.666 1656.66,-672.135 1649.61,-684 1633.14,-711.706 1662.74,-732.272 1640.92,-756 1593.92,-807.118 1381.03,-821.661 1288.31,-825.607"/>
<polygon fill="black" stroke="black" points="1287.99,-822.117 1278.14,-826.017 1288.27,-829.111 1287.99,-822.117"/>
<text text-anchor="middle" x="1696.57" y="-687.4" font-family="Times,serif" font-size="14.00">../TD[5]/IMG[1]</text>
<text text-anchor="middle" x="1637.81" y="-549.463" font-family="Times,serif" font-size="14.00">/HTML[1]/BODY[1]/TABLE[1]/TBODY[1]/TR[1]/TD[1]/TABLE[1]/TBODY[1]/TR[1]/TD[1]/TABLE[1]/TBODY[1]/TR[1]/TD[5]/IMG[1]</text>
</g>
<!-- 9&#45;&gt;5 -->
<g id="edge82" class="edge"><title>9&#45;&gt;5</title>
<path fill="none" stroke="black" d="M1627.15,-562.922C1663.45,-568.042 1719.2,-578.25 1732.92,-594 1789.42,-658.875 1756.98,-676.083 1742.92,-702 1737.57,-711.87 1620.93,-786.093 1603.92,-792 1546.62,-811.899 1370.48,-821.724 1288.16,-825.326"/>
<polygon fill="black" stroke="black" points="1287.97,-821.831 1278.13,-825.755 1288.27,-828.825 1287.97,-821.831"/>
<text text-anchor="middle" x="1801.57" y="-687.4" font-family="Times,serif" font-size="14.00">../TD[1]/IMG[6]</text>
<text text-anchor="middle" x="1636.73" y="-554.468" font-family="Times,serif" font-size="14.00">/HTML[1]/BODY[1]/TABLE[1]/TBODY[1]/TR[2]/TD[1]/TABLE[1]/TBODY[1]/TR[1]/TD[1]/TABLE[1]/TBODY[1]/TR[1]/TD[1]/DIV[1]/TABLE[1]/TBODY[1]/TR[1]/TD[1]/IMG[6]</text>
</g>
<!-- 9&#45;&gt;6 -->
<g id="edge76" class="edge"><title>9&#45;&gt;6</title>
<path fill="none" stroke="black" d="M1627.2,-562.405C1691.43,-569.327 1830.81,-585.132 1850.92,-594 1931.82,-629.675 2123.12,-825.834 2187.97,-893.804"/>
<polygon fill="black" stroke="black" points="2185.81,-896.608 2195.24,-901.438 2190.88,-891.782 2185.81,-896.608"/>
<text text-anchor="middle" x="2097.57" y="-732.4" font-family="Times,serif" font-size="14.00">../TD[6]/IMG[1]</text>
<text text-anchor="middle" x="1636.67" y="-553.587" font-family="Times,serif" font-size="14.00">/HTML[1]/BODY[1]/TABLE[1]/TBODY[1]/TR[1]/TD[1]/TABLE[1]/TBODY[1]/TR[1]/TD[1]/TABLE[1]/TBODY[1]/TR[1]/TD[6]/IMG[1]</text>
</g>
<!-- 9&#45;&gt;7 -->
<g id="edge78" class="edge"><title>9&#45;&gt;7</title>
<path fill="none" stroke="red" d="M1567.12,-547.819C1549.01,-541.444 1525.09,-532.273 1504.92,-522 1491.74,-515.285 1490.69,-509.415 1476.92,-504 1434.89,-487.472 1420.58,-497.552 1376.92,-486 1330.45,-473.702 1321.71,-461.025 1274.92,-450 1211.71,-435.107 1193.17,-446.694 1129.92,-432 1088.2,-422.309 796.376,-335.798 765.609,-306 744.419,-285.478 741.92,-273.498 741.92,-244 741.92,-244 741.92,-244 741.92,-107 741.92,-86.6304 741.92,-63.6087 741.92,-46.2225"/>
<polygon fill="red" stroke="red" points="745.42,-46.1994 741.92,-36.1995 738.42,-46.1995 745.42,-46.1994"/>
<text text-anchor="middle" x="812.575" y="-282.4" font-family="Times,serif" font-size="14.00">../TD[7]/IMG[1]</text>
<text text-anchor="middle" x="1557.17" y="-543.158" font-family="Times,serif" font-size="14.00">/HTML[1]/BODY[1]/TABLE[1]/TBODY[1]/TR[1]/TD[1]/TABLE[1]/TBODY[1]/TR[1]/TD[1]/TABLE[1]/TBODY[1]/TR[1]/TD[7]/IMG[1]</text>
</g>
<!-- 9&#45;&gt;8 -->
<g id="edge80" class="edge"><title>9&#45;&gt;8</title>
<path fill="none" stroke="black" d="M1566.2,-548.82C1553.63,-545.554 1538.64,-542.082 1524.92,-540 1461.89,-530.441 1296.96,-547.686 1238.61,-522 1228.05,-517.353 1229.59,-510.287 1219.92,-504 1205.29,-494.485 1187.65,-486.757 1172.16,-481.007"/>
<polygon fill="black" stroke="black" points="1172.94,-477.571 1162.35,-477.516 1170.6,-484.166 1172.94,-477.571"/>
<text text-anchor="middle" x="1285.57" y="-507.4" font-family="Times,serif" font-size="14.00">../TD[1]/IMG[5]</text>
<text text-anchor="middle" x="1556.37" y="-545.063" font-family="Times,serif" font-size="14.00">/HTML[1]/BODY[1]/TABLE[1]/TBODY[1]/TR[2]/TD[1]/TABLE[1]/TBODY[1]/TR[1]/TD[1]/TABLE[1]/TBODY[1]/TR[1]/TD[1]/DIV[1]/TABLE[1]/TBODY[1]/TR[1]/TD[1]/IMG[5]</text>
</g>
<!-- 9&#45;&gt;10 -->
<g id="edge84" class="edge"><title>9&#45;&gt;10</title>
<path fill="none" stroke="black" d="M1565.22,-566.431C1536.71,-575.017 1500.22,-590.739 1516.61,-612 1535.77,-636.869 1554.92,-620.751 1584.92,-630 1588.71,-631.168 1592.64,-632.448 1596.55,-633.766"/>
<polygon fill="black" stroke="black" points="1595.55,-637.12 1606.14,-637.075 1597.83,-630.503 1595.55,-637.12"/>
<text text-anchor="middle" x="1563.57" y="-597.4" font-family="Times,serif" font-size="14.00">../TD[1]/IMG[8]</text>
<text text-anchor="middle" x="1557.87" y="-567.614" font-family="Times,serif" font-size="14.00">/HTML[1]/BODY[1]/TABLE[1]/TBODY[1]/TR[2]/TD[1]/TABLE[1]/TBODY[1]/TR[1]/TD[1]/TABLE[1]/TBODY[1]/TR[1]/TD[1]/DIV[1]/TABLE[1]/TBODY[1]/TR[1]/TD[1]/IMG[8]</text>
</g>
<!-- 9&#45;&gt;13 -->
<g id="edge130" class="edge"><title>9&#45;&gt;13</title>
<path fill="none" stroke="black" d="M1565.31,-566.272C1552.84,-569.311 1538.18,-572.859 1524.92,-576 1490.3,-584.198 1472.47,-569.238 1446.92,-594 1423.16,-617.034 1453.45,-644.945 1427.92,-666 1381.35,-704.397 1209.85,-654.992 1156.92,-684 1145.68,-690.158 1136.81,-701.092 1130.38,-711.436"/>
<polygon fill="black" stroke="black" points="1127.27,-709.817 1125.36,-720.239 1133.36,-713.283 1127.27,-709.817"/>
<text text-anchor="middle" x="1486.57" y="-642.4" font-family="Times,serif" font-size="14.00">../TD[1]/IMG[9]</text>
<text text-anchor="middle" x="1557.5" y="-566.923" font-family="Times,serif" font-size="14.00">/HTML[1]/BODY[1]/TABLE[1]/TBODY[1]/TR[2]/TD[1]/TABLE[1]/TBODY[1]/TR[1]/TD[1]/TABLE[1]/TBODY[1]/TR[1]/TD[1]/DIV[1]/TABLE[1]/TBODY[1]/TR[1]/TD[1]/IMG[9]</text>
</g>
<!-- 10&#45;&gt;1 -->
<g id="edge86" class="edge"><title>10&#45;&gt;1</title>
<path fill="none" stroke="black" d="M1633.46,-666.254C1634.29,-676.892 1636.28,-690.628 1640.92,-702 1644.65,-711.136 1648.85,-711.531 1653.92,-720 1690.44,-781.073 1699.16,-797.285 1723.92,-864 1732.4,-886.841 1737.92,-892.636 1737.92,-917 1737.92,-1099 1737.92,-1099 1737.92,-1099 1737.92,-1124.24 1721.45,-1148.2 1706.54,-1164.73"/>
<polygon fill="black" stroke="black" points="1703.77,-1162.56 1699.42,-1172.22 1708.85,-1167.39 1703.77,-1162.56"/>
<text text-anchor="middle" x="1784.57" y="-912.4" font-family="Times,serif" font-size="14.00">../TD[1]/IMG[2]</text>
<text text-anchor="middle" x="1638.46" y="-669.317" font-family="Times,serif" font-size="14.00">/HTML[1]/BODY[1]/TABLE[1]/TBODY[1]/TR[1]/TD[1]/TABLE[1]/TBODY[1]/TR[1]/TD[1]/TABLE[1]/TBODY[1]/TR[1]/TD[1]/IMG[2]</text>
</g>
<!-- 10&#45;&gt;2 -->
<g id="edge88" class="edge"><title>10&#45;&gt;2</title>
<path fill="none" stroke="black" d="M1616.35,-664.038C1606.63,-674.752 1597.56,-689.424 1604.92,-702 1613.16,-716.086 1628.68,-705.914 1636.92,-720 1645,-733.811 1643.25,-741.306 1636.92,-756 1609.26,-820.187 1567.87,-810.74 1522.61,-864 1506.69,-882.731 1418.31,-1016.06 1381.26,-1072.19"/>
<polygon fill="black" stroke="black" points="1378.16,-1070.54 1375.58,-1080.82 1384,-1074.4 1378.16,-1070.54"/>
<text text-anchor="middle" x="1569.57" y="-867.4" font-family="Times,serif" font-size="14.00">../TD[2]/IMG[1]</text>
<text text-anchor="middle" x="1613.61" y="-668.055" font-family="Times,serif" font-size="14.00">/HTML[1]/BODY[1]/TABLE[1]/TBODY[1]/TR[1]/TD[1]/TABLE[1]/TBODY[1]/TR[1]/TD[1]/TABLE[1]/TBODY[1]/TR[1]/TD[2]/IMG[1]</text>
</g>
<!-- 10&#45;&gt;3 -->
<g id="edge90" class="edge"><title>10&#45;&gt;3</title>
<path fill="none" stroke="black" d="M1666.17,-646.198C1723.14,-643.317 1841,-630.637 1920.92,-576 1945.15,-559.438 1945.62,-548.16 1958.92,-522 1981.89,-476.811 1969.26,-457.306 1995.61,-414 2001.38,-404.518 2008.77,-406.295 2012.92,-396 2018.9,-381.159 2015.14,-375.845 2012.92,-360 2006.15,-311.632 1988.45,-257.407 1977.09,-225.844"/>
<polygon fill="black" stroke="black" points="1980.23,-224.237 1973.5,-216.051 1973.65,-226.644 1980.23,-224.237"/>
<text text-anchor="middle" x="2042.57" y="-417.4" font-family="Times,serif" font-size="14.00">../TD[3]/IMG[1]</text>
<text text-anchor="middle" x="1674.95" y="-635.808" font-family="Times,serif" font-size="14.00">/HTML[1]/BODY[1]/TABLE[1]/TBODY[1]/TR[1]/TD[1]/TABLE[1]/TBODY[1]/TR[1]/TD[1]/TABLE[1]/TBODY[1]/TR[1]/TD[3]/IMG[1]</text>
</g>
<!-- 10&#45;&gt;4 -->
<g id="edge92" class="edge"><title>10&#45;&gt;4</title>
<path fill="none" stroke="black" d="M1664.49,-642.217C1682.53,-637.688 1703.74,-628.92 1714.92,-612 1719.33,-605.325 1718.12,-601.334 1714.92,-594 1677.34,-507.804 1644.31,-491.482 1559.92,-450 1431.45,-386.846 1257.65,-378.401 1177.6,-378.189"/>
<polygon fill="black" stroke="black" points="1177.39,-374.689 1167.4,-378.206 1177.4,-381.689 1177.39,-374.689"/>
<text text-anchor="middle" x="1718.57" y="-507.4" font-family="Times,serif" font-size="14.00">../TD[4]/IMG[1]</text>
<text text-anchor="middle" x="1672.13" y="-630.167" font-family="Times,serif" font-size="14.00">/HTML[1]/BODY[1]/TABLE[1]/TBODY[1]/TR[1]/TD[1]/TABLE[1]/TBODY[1]/TR[1]/TD[1]/TABLE[1]/TBODY[1]/TR[1]/TD[4]/IMG[1]</text>
</g>
<!-- 10&#45;&gt;5 -->
<g id="edge94" class="edge"><title>10&#45;&gt;5</title>
<path fill="none" stroke="black" d="M1607.16,-659.409C1591.73,-665.926 1571.88,-674.808 1554.92,-684 1541.91,-691.048 1540.74,-696.718 1526.92,-702 1479.7,-720.051 1453.88,-688.162 1414.61,-720 1387.98,-741.592 1412.63,-769.325 1386.92,-792 1359.89,-815.838 1319.17,-824.001 1288.26,-826.543"/>
<polygon fill="black" stroke="black" points="1287.94,-823.057 1278.19,-827.204 1288.39,-830.042 1287.94,-823.057"/>
<text text-anchor="middle" x="1461.57" y="-732.4" font-family="Times,serif" font-size="14.00">../TD[5]/IMG[1]</text>
<text text-anchor="middle" x="1600.48" y="-661.248" font-family="Times,serif" font-size="14.00">/HTML[1]/BODY[1]/TABLE[1]/TBODY[1]/TR[1]/TD[1]/TABLE[1]/TBODY[1]/TR[1]/TD[1]/TABLE[1]/TBODY[1]/TR[1]/TD[5]/IMG[1]</text>
</g>
<!-- 10&#45;&gt;5 -->
<g id="edge102" class="edge"><title>10&#45;&gt;5</title>
<path fill="none" stroke="black" d="M1611.35,-661.879C1601.46,-668.128 1589.76,-676.003 1579.92,-684 1562.28,-698.331 1559.68,-703.931 1543.61,-720 1527.68,-735.931 1526.94,-743.917 1507.92,-756 1438.73,-799.964 1342.67,-816.943 1287.84,-823.324"/>
<polygon fill="black" stroke="black" points="1287.33,-819.859 1277.77,-824.43 1288.09,-826.817 1287.33,-819.859"/>
<text text-anchor="middle" x="1590.57" y="-732.4" font-family="Times,serif" font-size="14.00">../TD[1]/IMG[6]</text>
<text text-anchor="middle" x="1605.98" y="-664.711" font-family="Times,serif" font-size="14.00">/HTML[1]/BODY[1]/TABLE[1]/TBODY[1]/TR[2]/TD[1]/TABLE[1]/TBODY[1]/TR[1]/TD[1]/TABLE[1]/TBODY[1]/TR[1]/TD[1]/DIV[1]/TABLE[1]/TBODY[1]/TR[1]/TD[1]/IMG[6]</text>
</g>
<!-- 10&#45;&gt;6 -->
<g id="edge96" class="edge"><title>10&#45;&gt;6</title>
<path fill="none" stroke="black" d="M1665.33,-652.397C1722.73,-658.672 1837.58,-672.489 1851.92,-684 1912.28,-732.468 1854.78,-798.516 1915.92,-846 1966.16,-885.02 1998.13,-842.263 2057.92,-864 2071.82,-869.055 2072.43,-875.924 2085.92,-882 2112.72,-894.071 2144.67,-902.971 2169.43,-908.776"/>
<polygon fill="black" stroke="black" points="2168.7,-912.198 2179.22,-910.999 2170.25,-905.372 2168.7,-912.198"/>
<text text-anchor="middle" x="1932.57" y="-777.4" font-family="Times,serif" font-size="14.00">../TD[6]/IMG[1]</text>
<text text-anchor="middle" x="1674.81" y="-643.603" font-family="Times,serif" font-size="14.00">/HTML[1]/BODY[1]/TABLE[1]/TBODY[1]/TR[1]/TD[1]/TABLE[1]/TBODY[1]/TR[1]/TD[1]/TABLE[1]/TBODY[1]/TR[1]/TD[6]/IMG[1]</text>
</g>
<!-- 10&#45;&gt;7 -->
<g id="edge98" class="edge"><title>10&#45;&gt;7</title>
<path fill="none" stroke="red" d="M1602.31,-640.464C1538.57,-626.552 1396.37,-593.83 1382.92,-576 1373.28,-563.226 1373.14,-552.661 1382.92,-540 1402.3,-514.92 1432.54,-547.08 1451.92,-522 1456.81,-515.669 1457.28,-509.936 1451.92,-504 1425.42,-474.664 1313.46,-494.823 1274.92,-486 1229.28,-475.552 1221.24,-461.736 1175.92,-450 966.622,-395.806 831.961,-514.485 701.609,-342 666.446,-295.472 714.189,-114 734.008,-45.4328"/>
<polygon fill="red" stroke="red" points="737.377,-46.3796 736.824,-35.7992 730.658,-44.4153 737.377,-46.3796"/>
<text text-anchor="middle" x="748.575" y="-327.4" font-family="Times,serif" font-size="14.00">../TD[7]/IMG[1]</text>
<text text-anchor="middle" x="1592.55" y="-637.033" font-family="Times,serif" font-size="14.00">/HTML[1]/BODY[1]/TABLE[1]/TBODY[1]/TR[1]/TD[1]/TABLE[1]/TBODY[1]/TR[1]/TD[1]/TABLE[1]/TBODY[1]/TR[1]/TD[7]/IMG[1]</text>
</g>
<!-- 10&#45;&gt;8 -->
<g id="edge100" class="edge"><title>10&#45;&gt;8</title>
<path fill="none" stroke="black" d="M1603.28,-639.769C1577.94,-633.322 1540.67,-623.193 1508.92,-612 1431.92,-584.856 1418.44,-562.382 1339.92,-540 1289.32,-525.577 1272.12,-540.632 1222.92,-522 1209.08,-516.761 1207.56,-511.684 1194.92,-504 1185.35,-498.185 1174.81,-492.046 1165.22,-486.56"/>
<polygon fill="black" stroke="black" points="1166.81,-483.435 1156.39,-481.533 1163.35,-489.519 1166.81,-483.435"/>
<text text-anchor="middle" x="1475.57" y="-552.4" font-family="Times,serif" font-size="14.00">../TD[1]/IMG[5]</text>
<text text-anchor="middle" x="1593.45" y="-636.005" font-family="Times,serif" font-size="14.00">/HTML[1]/BODY[1]/TABLE[1]/TBODY[1]/TR[2]/TD[1]/TABLE[1]/TBODY[1]/TR[1]/TD[1]/TABLE[1]/TBODY[1]/TR[1]/TD[1]/DIV[1]/TABLE[1]/TBODY[1]/TR[1]/TD[1]/IMG[5]</text>
</g>
<!-- 10&#45;&gt;9 -->
<g id="edge104" class="edge"><title>10&#45;&gt;9</title>
<path fill="none" stroke="black" d="M1625.59,-630.033C1620.09,-617.291 1612.46,-599.61 1606.18,-585.076"/>
<polygon fill="black" stroke="black" points="1609.27,-583.41 1602.09,-575.617 1602.85,-586.185 1609.27,-583.41"/>
<text text-anchor="middle" x="1664.57" y="-597.4" font-family="Times,serif" font-size="14.00">../TD[1]/IMG[7]</text>
<text text-anchor="middle" x="1618.12" y="-617.788" font-family="Times,serif" font-size="14.00">/HTML[1]/BODY[1]/TABLE[1]/TBODY[1]/TR[2]/TD[1]/TABLE[1]/TBODY[1]/TR[1]/TD[1]/TABLE[1]/TBODY[1]/TR[1]/TD[1]/DIV[1]/TABLE[1]/TBODY[1]/TR[1]/TD[1]/IMG[7]</text>
</g>
<!-- 10&#45;&gt;13 -->
<g id="edge106" class="edge"><title>10&#45;&gt;13</title>
<path fill="none" stroke="black" d="M1602.82,-655.904C1586.39,-659.432 1565.63,-663.499 1546.92,-666 1490.76,-673.508 1345.42,-663.478 1292.61,-684 1280.61,-688.663 1281.52,-696.419 1269.92,-702 1236.71,-717.982 1195.84,-726.863 1164.85,-731.677"/>
<polygon fill="black" stroke="black" points="1164.13,-728.245 1154.75,-733.158 1165.15,-735.171 1164.13,-728.245"/>
<text text-anchor="middle" x="1339.57" y="-687.4" font-family="Times,serif" font-size="14.00">../TD[1]/IMG[9]</text>
<text text-anchor="middle" x="1594.84" y="-656.319" font-family="Times,serif" font-size="14.00">/HTML[1]/BODY[1]/TABLE[1]/TBODY[1]/TR[2]/TD[1]/TABLE[1]/TBODY[1]/TR[1]/TD[1]/TABLE[1]/TBODY[1]/TR[1]/TD[1]/DIV[1]/TABLE[1]/TBODY[1]/TR[1]/TD[1]/IMG[9]</text>
</g>
<!-- 11&#45;&gt;1 -->
<g id="edge170" class="edge"><title>11&#45;&gt;1</title>
<path fill="none" stroke="black" d="M1889.12,-108.911C2058.93,-108.716 2746.3,-110.076 2958.92,-144 3041.69,-157.207 3139.92,-113.178 3139.92,-197 3139.92,-1099 3139.92,-1099 3139.92,-1099 3139.92,-1125.85 3133.85,-1138.03 3110.92,-1152 3050.31,-1188.94 1955.65,-1187.8 1725.26,-1187.15"/>
<polygon fill="black" stroke="black" points="1725.26,-1183.65 1715.25,-1187.12 1725.24,-1190.65 1725.26,-1183.65"/>
<text text-anchor="middle" x="3186.57" y="-642.4" font-family="Times,serif" font-size="14.00">../TD[1]/IMG[2]</text>
<text text-anchor="middle" x="1898.18" y="-99.0877" font-family="Times,serif" font-size="14.00">/HTML[1]/BODY[1]/TABLE[1]/TBODY[1]/TR[1]/TD[1]/TABLE[1]/TBODY[1]/TR[1]/TD[1]/TABLE[1]/TBODY[1]/TR[1]/TD[1]/IMG[2]</text>
</g>
<!-- 11&#45;&gt;2 -->
<g id="edge172" class="edge"><title>11&#45;&gt;2</title>
<path fill="none" stroke="black" d="M1813.29,-111.445C1760.02,-114.876 1659.55,-121.232 1573.92,-126 1354.28,-138.23 788.413,-139.177 589.92,-234 509.501,-272.417 494.599,-294.723 433.92,-360 347.746,-452.703 309.402,-473.204 271.609,-594 247.291,-671.725 289.253,-694.283 305.92,-774 329.323,-885.939 291.09,-933.199 357.92,-1026 376.54,-1051.86 389.31,-1053.15 419.92,-1062 507.049,-1087.2 1147.93,-1094.97 1321.61,-1096.63"/>
<polygon fill="black" stroke="black" points="1321.63,-1100.13 1331.66,-1096.72 1321.69,-1093.13 1321.63,-1100.13"/>
<text text-anchor="middle" x="318.575" y="-597.4" font-family="Times,serif" font-size="14.00">../TD[2]/IMG[1]</text>
<text text-anchor="middle" x="1804.52" y="-110.643" font-family="Times,serif" font-size="14.00">/HTML[1]/BODY[1]/TABLE[1]/TBODY[1]/TR[1]/TD[1]/TABLE[1]/TBODY[1]/TR[1]/TD[1]/TABLE[1]/TBODY[1]/TR[1]/TD[2]/IMG[1]</text>
</g>
<!-- 11&#45;&gt;3 -->
<g id="edge174" class="edge"><title>11&#45;&gt;3</title>
<path fill="none" stroke="black" d="M1844.6,-125.91C1841.54,-137.21 1839.98,-151.816 1847.61,-162 1864.97,-185.187 1896.91,-193.682 1923.38,-196.517"/>
<polygon fill="black" stroke="black" points="1923.33,-200.025 1933.58,-197.368 1923.91,-193.049 1923.33,-200.025"/>
<text text-anchor="middle" x="1894.57" y="-147.4" font-family="Times,serif" font-size="14.00">../TD[3]/IMG[1]</text>
<text text-anchor="middle" x="1846.52" y="-130.124" font-family="Times,serif" font-size="14.00">/HTML[1]/BODY[1]/TABLE[1]/TBODY[1]/TR[1]/TD[1]/TABLE[1]/TBODY[1]/TR[1]/TD[1]/TABLE[1]/TBODY[1]/TR[1]/TD[3]/IMG[1]</text>
</g>
<!-- 11&#45;&gt;4 -->
<g id="edge176" class="edge"><title>11&#45;&gt;4</title>
<path fill="none" stroke="black" d="M1812.83,-110.357C1681.84,-115.83 1252.81,-140.697 1159.61,-234 1129.34,-264.303 1127.92,-317.322 1130.4,-349.589"/>
<polygon fill="black" stroke="black" points="1126.93,-350.047 1131.35,-359.673 1133.9,-349.388 1126.93,-350.047"/>
<text text-anchor="middle" x="1206.57" y="-237.4" font-family="Times,serif" font-size="14.00">../TD[4]/IMG[1]</text>
<text text-anchor="middle" x="1803.98" y="-109.41" font-family="Times,serif" font-size="14.00">/HTML[1]/BODY[1]/TABLE[1]/TBODY[1]/TR[1]/TD[1]/TABLE[1]/TBODY[1]/TR[1]/TD[1]/TABLE[1]/TBODY[1]/TR[1]/TD[4]/IMG[1]</text>
</g>
<!-- 11&#45;&gt;5 -->
<g id="edge178" class="edge"><title>11&#45;&gt;5</title>
<path fill="none" stroke="black" d="M1813.09,-111.317C1702.95,-118.102 1387.27,-137.84 1340.92,-144 1220.92,-159.946 788.823,-248.507 739.92,-270 673.903,-299.014 638.946,-296.422 604.92,-360 550.782,-461.156 612.733,-507.878 660.92,-612 673.245,-638.633 679.181,-644.283 698.92,-666 723.723,-693.291 736.47,-693.31 761.92,-720 775.907,-734.67 775.073,-742.2 789.92,-756 795.201,-760.909 837.115,-789.612 843.92,-792 908.933,-814.817 1111.72,-823.25 1201.45,-825.92"/>
<polygon fill="black" stroke="black" points="1201.47,-829.422 1211.56,-826.211 1201.67,-822.425 1201.47,-829.422"/>
<text text-anchor="middle" x="641.575" y="-462.4" font-family="Times,serif" font-size="14.00">../TD[5]/IMG[1]</text>
<text text-anchor="middle" x="1804.31" y="-110.495" font-family="Times,serif" font-size="14.00">/HTML[1]/BODY[1]/TABLE[1]/TBODY[1]/TR[1]/TD[1]/TABLE[1]/TBODY[1]/TR[1]/TD[1]/TABLE[1]/TBODY[1]/TR[1]/TD[5]/IMG[1]</text>
</g>
<!-- 11&#45;&gt;6 -->
<g id="edge180" class="edge"><title>11&#45;&gt;6</title>
<path fill="none" stroke="black" d="M1889.42,-108.842C2034,-109.141 2541.29,-118.52 2639.92,-234 2645.11,-240.083 2641.17,-244.098 2639.92,-252 2634.01,-289.38 2550.49,-541.51 2534.92,-576 2511.36,-628.175 2478.92,-634.751 2478.92,-692 2478.92,-829 2478.92,-829 2478.92,-829 2478.92,-862.628 2454.92,-866.809 2424.92,-882 2370.3,-909.657 2298.78,-916.331 2253.58,-917.501"/>
<polygon fill="black" stroke="black" points="2253.45,-914.002 2243.52,-917.681 2253.58,-921.001 2253.45,-914.002"/>
<text text-anchor="middle" x="2608.57" y="-507.4" font-family="Times,serif" font-size="14.00">../TD[6]/IMG[1]</text>
<text text-anchor="middle" x="1898.52" y="-99.0936" font-family="Times,serif" font-size="14.00">/HTML[1]/BODY[1]/TABLE[1]/TBODY[1]/TR[1]/TD[1]/TABLE[1]/TBODY[1]/TR[1]/TD[1]/TABLE[1]/TBODY[1]/TR[1]/TD[6]/IMG[1]</text>
</g>
<!-- 11&#45;&gt;7 -->
<g id="edge182" class="edge"><title>11&#45;&gt;7</title>
<path fill="none" stroke="red" d="M1814.74,-101.858C1739.16,-91.2955 1558.9,-67.0563 1406.92,-54 1172.82,-33.8898 891.304,-23.6512 785.195,-20.2848"/>
<polygon fill="red" stroke="red" points="785.291,-16.7862 775.187,-19.9713 785.072,-23.7828 785.291,-16.7862"/>
<text text-anchor="middle" x="1625.57" y="-57.4" font-family="Times,serif" font-size="14.00">../TD[7]/IMG[1]</text>
<text text-anchor="middle" x="1805.19" y="-99.2015" font-family="Times,serif" font-size="14.00">/HTML[1]/BODY[1]/TABLE[1]/TBODY[1]/TR[1]/TD[1]/TABLE[1]/TBODY[1]/TR[1]/TD[1]/TABLE[1]/TBODY[1]/TR[1]/TD[7]/IMG[1]</text>
</g>
<!-- 12&#45;&gt;1 -->
<g id="edge194" class="edge"><title>12&#45;&gt;1</title>
<path fill="none" stroke="black" d="M415.311,-1025.12C398.4,-1047.23 374.022,-1087.45 393.609,-1116 418.755,-1152.65 443.344,-1143.22 486.92,-1152 601.641,-1175.1 1441.1,-1184.65 1640.51,-1186.61"/>
<polygon fill="black" stroke="black" points="1640.56,-1190.11 1650.59,-1186.71 1640.62,-1183.11 1640.56,-1190.11"/>
<text text-anchor="middle" x="440.575" y="-1092.4" font-family="Times,serif" font-size="14.00">../TD[1]/IMG[2]</text>
<text text-anchor="middle" x="413.354" y="-1029.33" font-family="Times,serif" font-size="14.00">/HTML[1]/BODY[1]/TABLE[1]/TBODY[1]/TR[1]/TD[1]/TABLE[1]/TBODY[1]/TR[1]/TD[1]/TABLE[1]/TBODY[1]/TR[1]/TD[1]/IMG[2]</text>
</g>
<!-- 12&#45;&gt;2 -->
<g id="edge196" class="edge"><title>12&#45;&gt;2</title>
<path fill="none" stroke="black" d="M465.654,-1012.94C550.95,-1022.03 769.065,-1045.02 951.609,-1062 1086.86,-1074.58 1247.19,-1087.62 1322.21,-1093.62"/>
<polygon fill="black" stroke="black" points="1321.97,-1097.11 1332.22,-1094.42 1322.53,-1090.13 1321.97,-1097.11"/>
<text text-anchor="middle" x="998.575" y="-1047.4" font-family="Times,serif" font-size="14.00">../TD[2]/IMG[1]</text>
<text text-anchor="middle" x="475.113" y="-1004.09" font-family="Times,serif" font-size="14.00">/HTML[1]/BODY[1]/TABLE[1]/TBODY[1]/TR[1]/TD[1]/TABLE[1]/TBODY[1]/TR[1]/TD[1]/TABLE[1]/TBODY[1]/TR[1]/TD[2]/IMG[1]</text>
</g>
<!-- 12&#45;&gt;3 -->
<g id="edge198" class="edge"><title>12&#45;&gt;3</title>
<path fill="none" stroke="black" d="M429.298,-989.847C429.882,-944.803 428.845,-819.749 402.92,-720 400.717,-711.527 397.761,-710.28 394.92,-702 379.009,-655.641 357.078,-640.488 372.609,-594 405.367,-495.952 435.554,-473.741 519.92,-414 589.689,-364.595 608.129,-348.879 689.92,-324 763.878,-301.503 786.833,-319.663 862.92,-306 989.389,-283.289 1015.81,-252.829 1142.92,-234 1295.76,-211.358 1776.54,-202.017 1923.69,-199.643"/>
<polygon fill="black" stroke="black" points="1923.76,-203.142 1933.7,-199.484 1923.65,-196.143 1923.76,-203.142"/>
<text text-anchor="middle" x="419.575" y="-597.4" font-family="Times,serif" font-size="14.00">../TD[3]/IMG[1]</text>
<text text-anchor="middle" x="425.132" y="-975.157" font-family="Times,serif" font-size="14.00">/HTML[1]/BODY[1]/TABLE[1]/TBODY[1]/TR[1]/TD[1]/TABLE[1]/TBODY[1]/TR[1]/TD[1]/TABLE[1]/TBODY[1]/TR[1]/TD[3]/IMG[1]</text>
</g>
<!-- 12&#45;&gt;4 -->
<g id="edge200" class="edge"><title>12&#45;&gt;4</title>
<path fill="none" stroke="black" d="M434.511,-990.014C448.825,-943.242 482.188,-810.073 430.92,-720 423.169,-706.383 408.359,-715.617 400.609,-702 396.652,-695.047 397.618,-691.42 400.609,-684 417.216,-642.804 445.507,-649.108 469.92,-612 512.836,-546.765 477.125,-499.004 537.92,-450 622.86,-381.532 967.601,-377.569 1090.3,-378.395"/>
<polygon fill="black" stroke="black" points="1090.42,-381.896 1100.45,-378.478 1090.48,-374.896 1090.42,-381.896"/>
<text text-anchor="middle" x="447.575" y="-687.4" font-family="Times,serif" font-size="14.00">../TD[4]/IMG[1]</text>
<text text-anchor="middle" x="432.965" y="-974.534" font-family="Times,serif" font-size="14.00">/HTML[1]/BODY[1]/TABLE[1]/TBODY[1]/TR[1]/TD[1]/TABLE[1]/TBODY[1]/TR[1]/TD[1]/TABLE[1]/TBODY[1]/TR[1]/TD[4]/IMG[1]</text>
</g>
<!-- 12&#45;&gt;5 -->
<g id="edge202" class="edge"><title>12&#45;&gt;5</title>
<path fill="none" stroke="black" d="M460.497,-997.768C528.83,-978.004 695.709,-930.887 837.609,-900 969.972,-871.189 1128.53,-846.272 1202.73,-835.165"/>
<polygon fill="black" stroke="black" points="1203.68,-838.562 1213.06,-833.627 1202.65,-831.639 1203.68,-838.562"/>
<text text-anchor="middle" x="884.575" y="-912.4" font-family="Times,serif" font-size="14.00">../TD[5]/IMG[1]</text>
<text text-anchor="middle" x="468.04" y="-985.603" font-family="Times,serif" font-size="14.00">/HTML[1]/BODY[1]/TABLE[1]/TBODY[1]/TR[1]/TD[1]/TABLE[1]/TBODY[1]/TR[1]/TD[1]/TABLE[1]/TBODY[1]/TR[1]/TD[5]/IMG[1]</text>
</g>
<!-- 12&#45;&gt;6 -->
<g id="edge204" class="edge"><title>12&#45;&gt;6</title>
<path fill="none" stroke="black" d="M466.337,-1003.94C592.476,-993.663 1001.58,-960.655 1133.61,-954 1445.01,-938.303 1523.32,-947.061 1834.92,-936 1955.1,-931.734 2096.86,-924.785 2166.65,-921.238"/>
<polygon fill="black" stroke="black" points="2167.01,-924.724 2176.82,-920.719 2166.66,-917.733 2167.01,-924.724"/>
<text text-anchor="middle" x="1180.57" y="-957.4" font-family="Times,serif" font-size="14.00">../TD[6]/IMG[1]</text>
<text text-anchor="middle" x="475.029" y="-993.394" font-family="Times,serif" font-size="14.00">/HTML[1]/BODY[1]/TABLE[1]/TBODY[1]/TR[1]/TD[1]/TABLE[1]/TBODY[1]/TR[1]/TD[1]/TABLE[1]/TBODY[1]/TR[1]/TD[6]/IMG[1]</text>
</g>
<!-- 12&#45;&gt;7 -->
<g id="edge206" class="edge"><title>12&#45;&gt;7</title>
<path fill="none" stroke="red" d="M407.848,-992.965C340.665,-946.354 135.92,-789.116 135.92,-604 135.92,-604 135.92,-604 135.92,-107 135.92,-50.1426 559.097,-26.8596 698.195,-20.7422"/>
<polygon fill="red" stroke="red" points="698.635,-24.2266 708.475,-20.2988 698.334,-17.2331 698.635,-24.2266"/>
<text text-anchor="middle" x="182.575" y="-507.4" font-family="Times,serif" font-size="14.00">../TD[7]/IMG[1]</text>
<text text-anchor="middle" x="398.022" y="-985.504" font-family="Times,serif" font-size="14.00">/HTML[1]/BODY[1]/TABLE[1]/TBODY[1]/TR[1]/TD[1]/TABLE[1]/TBODY[1]/TR[1]/TD[1]/TABLE[1]/TBODY[1]/TR[1]/TD[7]/IMG[1]</text>
</g>
<!-- 13&#45;&gt;1 -->
<g id="edge108" class="edge"><title>13&#45;&gt;1</title>
<path fill="none" stroke="black" d="M1081.97,-744.262C1054.55,-749.268 1016.43,-758.41 985.92,-774 893.869,-821.044 870.259,-855.589 838.609,-954 810.322,-1041.95 827.742,-1096.92 901.92,-1152 931.713,-1174.12 1480.71,-1183.99 1639.96,-1186.4"/>
<polygon fill="black" stroke="black" points="1640.26,-1189.9 1650.31,-1186.55 1640.36,-1182.9 1640.26,-1189.9"/>
<text text-anchor="middle" x="885.575" y="-957.4" font-family="Times,serif" font-size="14.00">../TD[1]/IMG[2]</text>
<text text-anchor="middle" x="1073.86" y="-744.513" font-family="Times,serif" font-size="14.00">/HTML[1]/BODY[1]/TABLE[1]/TBODY[1]/TR[1]/TD[1]/TABLE[1]/TBODY[1]/TR[1]/TD[1]/TABLE[1]/TBODY[1]/TR[1]/TD[1]/IMG[2]</text>
</g>
<!-- 13&#45;&gt;2 -->
<g id="edge110" class="edge"><title>13&#45;&gt;2</title>
<path fill="none" stroke="black" d="M1079.99,-740.749C1054.58,-743.988 1022.34,-752.455 1002.92,-774 836.992,-958.035 949.266,-949.481 967.92,-972 995.332,-1005.09 1023.6,-972.659 1062.92,-990 1087.32,-1000.76 1086.44,-1015.43 1110.92,-1026 1153.99,-1044.59 1169.53,-1032.14 1214.92,-1044 1255.01,-1054.47 1299.64,-1070.88 1329.71,-1082.66"/>
<polygon fill="black" stroke="black" points="1328.73,-1086.04 1339.32,-1086.46 1331.31,-1079.53 1328.73,-1086.04"/>
<text text-anchor="middle" x="964.575" y="-912.4" font-family="Times,serif" font-size="14.00">../TD[2]/IMG[1]</text>
<text text-anchor="middle" x="1071.63" y="-740.637" font-family="Times,serif" font-size="14.00">/HTML[1]/BODY[1]/TABLE[1]/TBODY[1]/TR[1]/TD[1]/TABLE[1]/TBODY[1]/TR[1]/TD[1]/TABLE[1]/TBODY[1]/TR[1]/TD[2]/IMG[1]</text>
</g>
<!-- 13&#45;&gt;3 -->
<g id="edge112" class="edge"><title>13&#45;&gt;3</title>
<path fill="none" stroke="black" d="M1154.74,-732.725C1190.11,-728.784 1245.1,-723.09 1292.92,-720 1323.93,-717.997 1824.98,-717.479 1851.92,-702 1921.38,-662.095 1962.02,-613.822 1930.92,-540 1917.58,-508.339 1897.3,-512.64 1875.61,-486 1854.95,-460.63 1835.92,-456.718 1835.92,-424 1835.92,-424 1835.92,-424 1835.92,-287 1835.92,-242.861 1887.8,-219.425 1926.26,-208.116"/>
<polygon fill="black" stroke="black" points="1927.5,-211.405 1936.21,-205.368 1925.63,-204.658 1927.5,-211.405"/>
<text text-anchor="middle" x="1922.57" y="-462.4" font-family="Times,serif" font-size="14.00">../TD[3]/IMG[1]</text>
<text text-anchor="middle" x="1163.28" y="-721.932" font-family="Times,serif" font-size="14.00">/HTML[1]/BODY[1]/TABLE[1]/TBODY[1]/TR[1]/TD[1]/TABLE[1]/TBODY[1]/TR[1]/TD[1]/TABLE[1]/TBODY[1]/TR[1]/TD[3]/IMG[1]</text>
</g>
<!-- 13&#45;&gt;4 -->
<g id="edge114" class="edge"><title>13&#45;&gt;4</title>
<path fill="none" stroke="black" d="M1094.78,-723.404C1079.37,-712.644 1063.82,-697.272 1074.92,-684 1103.89,-649.355 1145.95,-700.645 1174.92,-666 1185.18,-653.725 1184.27,-642.98 1174.92,-630 1160.13,-609.477 1144.84,-620.236 1120.92,-612 1075.74,-596.444 1047.17,-615.038 1019.61,-576 976.244,-514.569 1060.38,-435.7 1106.52,-399.197"/>
<polygon fill="black" stroke="black" points="1108.9,-401.782 1114.66,-392.888 1104.61,-396.251 1108.9,-401.782"/>
<text text-anchor="middle" x="1066.57" y="-552.4" font-family="Times,serif" font-size="14.00">../TD[4]/IMG[1]</text>
<text text-anchor="middle" x="1084.97" y="-715.872" font-family="Times,serif" font-size="14.00">/HTML[1]/BODY[1]/TABLE[1]/TBODY[1]/TR[1]/TD[1]/TABLE[1]/TBODY[1]/TR[1]/TD[1]/TABLE[1]/TBODY[1]/TR[1]/TD[4]/IMG[1]</text>
</g>
<!-- 13&#45;&gt;5 -->
<g id="edge116" class="edge"><title>13&#45;&gt;5</title>
<path fill="none" stroke="black" d="M1154.5,-743.997C1176.05,-748.605 1202.59,-757.38 1220.92,-774 1228.69,-781.05 1234.11,-791.109 1237.8,-800.572"/>
<polygon fill="black" stroke="black" points="1234.5,-801.74 1241.05,-810.067 1241.13,-799.472 1234.5,-801.74"/>
<text text-anchor="middle" x="1280.57" y="-777.4" font-family="Times,serif" font-size="14.00">../TD[5]/IMG[1]</text>
<text text-anchor="middle" x="1164.28" y="-736.3" font-family="Times,serif" font-size="14.00">/HTML[1]/BODY[1]/TABLE[1]/TBODY[1]/TR[1]/TD[1]/TABLE[1]/TBODY[1]/TR[1]/TD[1]/TABLE[1]/TBODY[1]/TR[1]/TD[5]/IMG[1]</text>
</g>
<!-- 13&#45;&gt;5 -->
<g id="edge124" class="edge"><title>13&#45;&gt;5</title>
<path fill="none" stroke="black" d="M1081.9,-743.991C1042.8,-750.865 988.798,-765.512 1011.61,-792 1035.61,-819.872 1140.78,-825.862 1201.41,-826.956"/>
<polygon fill="black" stroke="black" points="1201.41,-830.456 1211.46,-827.1 1201.51,-823.457 1201.41,-830.456"/>
<text text-anchor="middle" x="1058.57" y="-777.4" font-family="Times,serif" font-size="14.00">../TD[1]/IMG[6]</text>
<text text-anchor="middle" x="1073.78" y="-744.237" font-family="Times,serif" font-size="14.00">/HTML[1]/BODY[1]/TABLE[1]/TBODY[1]/TR[2]/TD[1]/TABLE[1]/TBODY[1]/TR[1]/TD[1]/TABLE[1]/TBODY[1]/TR[1]/TD[1]/DIV[1]/TABLE[1]/TBODY[1]/TR[1]/TD[1]/IMG[6]</text>
</g>
<!-- 13&#45;&gt;6 -->
<g id="edge118" class="edge"><title>13&#45;&gt;6</title>
<path fill="none" stroke="black" d="M1153.74,-744.751C1196.09,-751.58 1268.67,-763.385 1330.92,-774 1602.76,-820.358 1669.35,-840.134 1941.92,-882 2021.49,-894.222 2114.77,-905.782 2167.65,-912.078"/>
<polygon fill="black" stroke="black" points="2167.33,-915.564 2177.68,-913.265 2168.16,-908.613 2167.33,-915.564"/>
<text text-anchor="middle" x="1769.57" y="-822.4" font-family="Times,serif" font-size="14.00">../TD[6]/IMG[1]</text>
<text text-anchor="middle" x="1163.37" y="-736.424" font-family="Times,serif" font-size="14.00">/HTML[1]/BODY[1]/TABLE[1]/TBODY[1]/TR[1]/TD[1]/TABLE[1]/TBODY[1]/TR[1]/TD[1]/TABLE[1]/TBODY[1]/TR[1]/TD[6]/IMG[1]</text>
</g>
<!-- 13&#45;&gt;7 -->
<g id="edge120" class="edge"><title>13&#45;&gt;7</title>
<path fill="none" stroke="red" d="M1094.95,-723.395C1085.97,-717.464 1075.92,-710.032 1067.92,-702 1040.42,-674.4 1047.38,-655.489 1017.92,-630 882.33,-512.706 821.403,-521.328 656.92,-450 593.709,-422.589 571.989,-429.183 511.609,-396 471.664,-374.048 429.92,-379.579 429.92,-334 429.92,-334 429.92,-334 429.92,-107 429.92,-51.7578 613.391,-29.4915 698.946,-22.1116"/>
<polygon fill="red" stroke="red" points="699.445,-25.5822 709.12,-21.2645 698.864,-18.6064 699.445,-25.5822"/>
<text text-anchor="middle" x="558.575" y="-372.4" font-family="Times,serif" font-size="14.00">../TD[7]/IMG[1]</text>
<text text-anchor="middle" x="1085.07" y="-716.266" font-family="Times,serif" font-size="14.00">/HTML[1]/BODY[1]/TABLE[1]/TBODY[1]/TR[1]/TD[1]/TABLE[1]/TBODY[1]/TR[1]/TD[1]/TABLE[1]/TBODY[1]/TR[1]/TD[7]/IMG[1]</text>
</g>
<!-- 13&#45;&gt;8 -->
<g id="edge122" class="edge"><title>13&#45;&gt;8</title>
<path fill="none" stroke="black" d="M1097.51,-722.605C1084.28,-711.545 1071.32,-696.156 1081.92,-684 1120.54,-639.706 1174.3,-710.294 1212.92,-666 1270.73,-599.702 1143.64,-623.284 1134.61,-612 1108.27,-579.084 1116.57,-526.919 1125.14,-495.523"/>
<polygon fill="black" stroke="black" points="1128.56,-496.31 1128.01,-485.729 1121.84,-494.342 1128.56,-496.31"/>
<text text-anchor="middle" x="1181.57" y="-597.4" font-family="Times,serif" font-size="14.00">../TD[1]/IMG[5]</text>
<text text-anchor="middle" x="1087.9" y="-714.224" font-family="Times,serif" font-size="14.00">/HTML[1]/BODY[1]/TABLE[1]/TBODY[1]/TR[2]/TD[1]/TABLE[1]/TBODY[1]/TR[1]/TD[1]/TABLE[1]/TBODY[1]/TR[1]/TD[1]/DIV[1]/TABLE[1]/TBODY[1]/TR[1]/TD[1]/IMG[5]</text>
</g>
<!-- 13&#45;&gt;9 -->
<g id="edge126" class="edge"><title>13&#45;&gt;9</title>
<path fill="none" stroke="black" d="M1117.71,-719.839C1118.56,-707.967 1121.77,-692.781 1131.92,-684 1158.47,-661.02 1256.45,-679.375 1288.92,-666 1312.82,-656.153 1312.37,-643.191 1334.61,-630 1369.65,-609.211 1379.83,-605.49 1418.92,-594 1464.77,-580.524 1478.12,-585.645 1524.92,-576 1534.83,-573.958 1545.47,-571.509 1555.38,-569.114"/>
<polygon fill="black" stroke="black" points="1556.51,-572.44 1565.39,-566.657 1554.84,-565.642 1556.51,-572.44"/>
<text text-anchor="middle" x="1381.57" y="-642.4" font-family="Times,serif" font-size="14.00">../TD[1]/IMG[7]</text>
<text text-anchor="middle" x="1114.32" y="-704.834" font-family="Times,serif" font-size="14.00">/HTML[1]/BODY[1]/TABLE[1]/TBODY[1]/TR[2]/TD[1]/TABLE[1]/TBODY[1]/TR[1]/TD[1]/TABLE[1]/TBODY[1]/TR[1]/TD[1]/DIV[1]/TABLE[1]/TBODY[1]/TR[1]/TD[1]/IMG[7]</text>
</g>
<!-- 13&#45;&gt;10 -->
<g id="edge128" class="edge"><title>13&#45;&gt;10</title>
<path fill="none" stroke="black" d="M1133.91,-721.437C1149.94,-705.848 1172.3,-684.135 1172.61,-684 1249.02,-650.891 1464.26,-676.102 1546.92,-666 1561.99,-664.158 1578.38,-661.169 1592.77,-658.207"/>
<polygon fill="black" stroke="black" points="1593.79,-661.569 1602.85,-656.072 1592.34,-654.721 1593.79,-661.569"/>
<text text-anchor="middle" x="1219.57" y="-687.4" font-family="Times,serif" font-size="14.00">../TD[1]/IMG[8]</text>
<text text-anchor="middle" x="1137.46" y="-706.489" font-family="Times,serif" font-size="14.00">/HTML[1]/BODY[1]/TABLE[1]/TBODY[1]/TR[2]/TD[1]/TABLE[1]/TBODY[1]/TR[1]/TD[1]/TABLE[1]/TBODY[1]/TR[1]/TD[1]/DIV[1]/TABLE[1]/TBODY[1]/TR[1]/TD[1]/IMG[8]</text>
</g>
<!-- 14&#45;&gt;1 -->
<g id="edge148" class="edge"><title>14&#45;&gt;1</title>
<path fill="none" stroke="black" d="M1712.06,-294.115C1682.35,-298.12 1638.98,-303.429 1600.92,-306 1089.18,-340.567 653.868,-272.867 433.92,-360 382.33,-380.437 382.019,-408.143 331.92,-432 305.242,-444.704 290.901,-431.428 267.92,-450 239.777,-472.743 248.574,-490.996 229.92,-522 157.849,-641.78 52.9195,-642.209 52.9195,-782 52.9195,-1099 52.9195,-1099 52.9195,-1099 52.9195,-1203.47 178.282,-1138.85 281.92,-1152 554.455,-1186.58 1436.35,-1187.39 1640.47,-1187.1"/>
<polygon fill="black" stroke="black" points="1640.5,-1190.6 1650.49,-1187.08 1640.49,-1183.6 1640.5,-1190.6"/>
<text text-anchor="middle" x="108.575" y="-732.4" font-family="Times,serif" font-size="14.00">../TD[1]/IMG[2]</text>
<text text-anchor="middle" x="1703.63" y="-293.899" font-family="Times,serif" font-size="14.00">/HTML[1]/BODY[1]/TABLE[1]/TBODY[1]/TR[1]/TD[1]/TABLE[1]/TBODY[1]/TR[1]/TD[1]/TABLE[1]/TBODY[1]/TR[1]/TD[1]/IMG[2]</text>
</g>
<!-- 14&#45;&gt;2 -->
<g id="edge150" class="edge"><title>14&#45;&gt;2</title>
<path fill="none" stroke="black" d="M1783.51,-294.394C1822.93,-300.591 1888.27,-311.524 1943.92,-324 2003.67,-337.395 2018.91,-340.369 2076.92,-360 2116.95,-373.546 2124.21,-384.656 2164.92,-396 2214.75,-409.888 2229.27,-403.475 2279.92,-414 2299.37,-418.041 2613.77,-488.287 2625.92,-504 2667.24,-557.441 2576.37,-572.501 2540.92,-630 2527.01,-652.561 2521.37,-658.128 2515.61,-684 2506.14,-726.518 2516.92,-738.441 2516.92,-782 2516.92,-919 2516.92,-919 2516.92,-919 2516.92,-1037.93 2362.51,-931.582 2258.92,-990 2238.66,-1001.43 2241.68,-1015.49 2220.92,-1026 2140.73,-1066.6 2111.19,-1051.59 2021.92,-1062 1791.85,-1088.83 1514.02,-1095.12 1408.46,-1096.57"/>
<polygon fill="black" stroke="black" points="1408.16,-1093.07 1398.2,-1096.7 1408.25,-1100.07 1408.16,-1093.07"/>
<text text-anchor="middle" x="2562.57" y="-687.4" font-family="Times,serif" font-size="14.00">../TD[2]/IMG[1]</text>
<text text-anchor="middle" x="1793.13" y="-286.043" font-family="Times,serif" font-size="14.00">/HTML[1]/BODY[1]/TABLE[1]/TBODY[1]/TR[1]/TD[1]/TABLE[1]/TBODY[1]/TR[1]/TD[1]/TABLE[1]/TBODY[1]/TR[1]/TD[2]/IMG[1]</text>
</g>
<!-- 14&#45;&gt;3 -->
<g id="edge152" class="edge"><title>14&#45;&gt;3</title>
<path fill="none" stroke="black" d="M1734.43,-271.091C1726.45,-259.679 1719.52,-244.523 1728.61,-234 1753.22,-205.507 1861.13,-199.781 1922.97,-198.891"/>
<polygon fill="black" stroke="black" points="1923.25,-202.388 1933.21,-198.782 1923.18,-195.389 1923.25,-202.388"/>
<text text-anchor="middle" x="1775.57" y="-237.4" font-family="Times,serif" font-size="14.00">../TD[3]/IMG[1]</text>
<text text-anchor="middle" x="1725.89" y="-260.287" font-family="Times,serif" font-size="14.00">/HTML[1]/BODY[1]/TABLE[1]/TBODY[1]/TR[1]/TD[1]/TABLE[1]/TBODY[1]/TR[1]/TD[1]/TABLE[1]/TBODY[1]/TR[1]/TD[3]/IMG[1]</text>
</g>
<!-- 14&#45;&gt;4 -->
<g id="edge154" class="edge"><title>14&#45;&gt;4</title>
<path fill="none" stroke="black" d="M1710.06,-290.056C1628.45,-292.739 1438.53,-301.292 1378.61,-324 1365.91,-328.812 1366.46,-336.789 1353.92,-342 1295.94,-366.096 1223.01,-373.706 1177.42,-376.049"/>
<polygon fill="black" stroke="black" points="1177.12,-372.559 1167.29,-376.506 1177.43,-379.552 1177.12,-372.559"/>
<text text-anchor="middle" x="1425.57" y="-327.4" font-family="Times,serif" font-size="14.00">../TD[4]/IMG[1]</text>
<text text-anchor="middle" x="1701.15" y="-289.005" font-family="Times,serif" font-size="14.00">/HTML[1]/BODY[1]/TABLE[1]/TBODY[1]/TR[1]/TD[1]/TABLE[1]/TBODY[1]/TR[1]/TD[1]/TABLE[1]/TBODY[1]/TR[1]/TD[4]/IMG[1]</text>
</g>
<!-- 14&#45;&gt;5 -->
<g id="edge156" class="edge"><title>14&#45;&gt;5</title>
<path fill="none" stroke="black" d="M1761.79,-304.872C1766.21,-310.588 1770.76,-317.29 1773.92,-324 1805.54,-391.083 1795.59,-414.138 1813.92,-486 1824.14,-526.079 1825.58,-536.424 1837.61,-576 1852.37,-624.59 1859.33,-635.669 1874.92,-684 1917.18,-815.02 1917.35,-775.793 1901.92,-792 1887.8,-806.823 1554.36,-808.899 1533.92,-810 1446.51,-814.708 1344.28,-820.878 1287.84,-824.342"/>
<polygon fill="black" stroke="black" points="1287.62,-820.849 1277.85,-824.957 1288.05,-827.836 1287.62,-820.849"/>
<text text-anchor="middle" x="1884.57" y="-552.4" font-family="Times,serif" font-size="14.00">../TD[5]/IMG[1]</text>
<text text-anchor="middle" x="1770.64" y="-303.925" font-family="Times,serif" font-size="14.00">/HTML[1]/BODY[1]/TABLE[1]/TBODY[1]/TR[1]/TD[1]/TABLE[1]/TBODY[1]/TR[1]/TD[1]/TABLE[1]/TBODY[1]/TR[1]/TD[5]/IMG[1]</text>
</g>
<!-- 14&#45;&gt;6 -->
<g id="edge158" class="edge"><title>14&#45;&gt;6</title>
<path fill="none" stroke="black" d="M1782,-296.134C1833.58,-307.348 1934.24,-330.855 2016.92,-360 2079.76,-382.152 2245.4,-447.005 2279.92,-504 2292.42,-524.649 2277.32,-592.546 2291.61,-612 2302.27,-626.515 2314.7,-617.769 2327.92,-630 2351.48,-651.791 2364.92,-659.911 2364.92,-692 2364.92,-829 2364.92,-829 2364.92,-829 2364.92,-881.071 2297.95,-902.709 2252.05,-911.425"/>
<polygon fill="black" stroke="black" points="2251.28,-908.007 2242.04,-913.188 2252.49,-914.901 2251.28,-908.007"/>
<text text-anchor="middle" x="2338.57" y="-597.4" font-family="Times,serif" font-size="14.00">../TD[6]/IMG[1]</text>
<text text-anchor="middle" x="1791.76" y="-288.361" font-family="Times,serif" font-size="14.00">/HTML[1]/BODY[1]/TABLE[1]/TBODY[1]/TR[1]/TD[1]/TABLE[1]/TBODY[1]/TR[1]/TD[1]/TABLE[1]/TBODY[1]/TR[1]/TD[6]/IMG[1]</text>
</g>
<!-- 14&#45;&gt;7 -->
<g id="edge160" class="edge"><title>14&#45;&gt;7</title>
<path fill="none" stroke="red" d="M1715.52,-278.235C1601,-247.281 1204.64,-140.314 876.92,-54 844.739,-45.5243 808.2,-36.0611 781.259,-29.1137"/>
<polygon fill="red" stroke="red" points="781.989,-25.6877 771.432,-26.5816 780.242,-32.4662 781.989,-25.6877"/>
<text text-anchor="middle" x="1327.57" y="-147.4" font-family="Times,serif" font-size="14.00">../TD[7]/IMG[1]</text>
<text text-anchor="middle" x="1705.66" y="-274.351" font-family="Times,serif" font-size="14.00">/HTML[1]/BODY[1]/TABLE[1]/TBODY[1]/TR[1]/TD[1]/TABLE[1]/TBODY[1]/TR[1]/TD[1]/TABLE[1]/TBODY[1]/TR[1]/TD[7]/IMG[1]</text>
</g>
</g>
</svg>
