<?xml version="1.0" encoding="UTF-8" standalone="no"?>
<!DOCTYPE svg PUBLIC "-//W3C//DTD SVG 1.1//EN"
 "http://www.w3.org/Graphics/SVG/1.1/DTD/svg11.dtd">
<!-- Generated by graphviz version 2.28.0 (20110509.1545)
 -->
<!-- Title: G Pages: 1 -->
<svg width="1693pt" height="134pt"
 viewBox="0.00 0.00 1692.65 134.00" xmlns="http://www.w3.org/2000/svg" xmlns:xlink="http://www.w3.org/1999/xlink">
<g id="graph1" class="graph" transform="scale(1 1) rotate(0) translate(4 130)">
<title>G</title>
<polygon fill="white" stroke="white" points="-4,5 -4,-130 1689.65,-130 1689.65,5 -4,5"/>
<!-- 1 -->
<g id="node1" class="node"><title>1</title>
<ellipse fill="none" stroke="orange" cx="839" cy="-108" rx="32.2368" ry="18"/>
<text text-anchor="middle" x="839" y="-102.4" font-family="Times,serif" font-size="14.00">index</text>
</g>
<!-- 2 -->
<g id="node2" class="node"><title>2</title>
<ellipse fill="none" stroke="orange" cx="33" cy="-18" rx="33.3419" ry="18"/>
<text text-anchor="middle" x="33" y="-12.4" font-family="Times,serif" font-size="14.00">state1</text>
</g>
<!-- 1&#45;&gt;2 -->
<g id="edge2" class="edge"><title>1&#45;&gt;2</title>
<path fill="none" stroke="black" d="M806.734,-107.207C669.056,-107.864 134.82,-108.052 69.6758,-72 58.8069,-65.985 50.4676,-55.2199 44.5079,-44.9556"/>
<polygon fill="black" stroke="black" points="47.4545,-43.0393 39.6994,-35.8207 41.2603,-46.2999 47.4545,-43.0393"/>
<text text-anchor="middle" x="102.662" y="-57.4" font-family="Times,serif" font-size="14.00">../P[1]/A[1]</text>
<text text-anchor="middle" x="797.683" y="-105.858" font-family="Times,serif" font-size="14.00">/HTML[1]/BODY[1]/DIV[1]/DIV[1]/DIV[1]/DIV[2]/P[1]/A[1]</text>
</g>
<!-- 3 -->
<g id="node3" class="node"><title>3</title>
<ellipse fill="none" stroke="orange" cx="121" cy="-18" rx="33.3419" ry="18"/>
<text text-anchor="middle" x="121" y="-12.4" font-family="Times,serif" font-size="14.00">state2</text>
</g>
<!-- 1&#45;&gt;3 -->
<g id="edge4" class="edge"><title>1&#45;&gt;3</title>
<path fill="none" stroke="black" d="M806.619,-107.001C678.959,-106.781 214.709,-103.782 157.676,-72 146.825,-65.9532 138.488,-55.1838 132.525,-44.925"/>
<polygon fill="black" stroke="black" points="135.472,-43.0107 127.712,-35.7972 129.28,-46.2754 135.472,-43.0107"/>
<text text-anchor="middle" x="190.662" y="-57.4" font-family="Times,serif" font-size="14.00">../P[1]/A[1]</text>
<text text-anchor="middle" x="797.54" y="-105.594" font-family="Times,serif" font-size="14.00">/HTML[1]/BODY[1]/DIV[1]/DIV[1]/DIV[1]/DIV[3]/P[1]/A[1]</text>
</g>
<!-- 4 -->
<g id="node4" class="node"><title>4</title>
<ellipse fill="none" stroke="orange" cx="209" cy="-18" rx="33.3419" ry="18"/>
<text text-anchor="middle" x="209" y="-12.4" font-family="Times,serif" font-size="14.00">state3</text>
</g>
<!-- 1&#45;&gt;4 -->
<g id="edge6" class="edge"><title>1&#45;&gt;4</title>
<path fill="none" stroke="black" d="M806.494,-106.735C689.546,-105.559 294.534,-99.5639 245.579,-72 234.764,-65.9106 226.45,-55.1355 220.502,-44.884"/>
<polygon fill="black" stroke="black" points="223.456,-42.9833 215.7,-35.7658 217.263,-46.2448 223.456,-42.9833"/>
<text text-anchor="middle" x="287.21" y="-57.4" font-family="Times,serif" font-size="14.00">../DIV[1]/A[1]</text>
<text text-anchor="middle" x="797.381" y="-105.252" font-family="Times,serif" font-size="14.00">/HTML[1]/BODY[1]/DIV[1]/DIV[1]/DIV[1]/DIV[5]/UL[1]/LI[2]/DIV[1]/A[1]</text>
</g>
<!-- 5 -->
<g id="node5" class="node"><title>5</title>
<ellipse fill="none" stroke="orange" cx="314" cy="-18" rx="33.3419" ry="18"/>
<text text-anchor="middle" x="314" y="-12.4" font-family="Times,serif" font-size="14.00">state4</text>
</g>
<!-- 1&#45;&gt;5 -->
<g id="edge8" class="edge"><title>1&#45;&gt;5</title>
<path fill="none" stroke="black" d="M806.704,-106.296C704.106,-103.84 390.023,-94.5378 350.579,-72 339.803,-65.8424 331.494,-55.0584 325.539,-44.8184"/>
<polygon fill="black" stroke="black" points="328.495,-42.9218 320.729,-35.7156 322.306,-46.1924 328.495,-42.9218"/>
<text text-anchor="middle" x="392.21" y="-57.4" font-family="Times,serif" font-size="14.00">../DIV[1]/A[1]</text>
<text text-anchor="middle" x="797.534" y="-104.687" font-family="Times,serif" font-size="14.00">/HTML[1]/BODY[1]/DIV[1]/DIV[1]/DIV[1]/DIV[5]/UL[1]/LI[3]/DIV[1]/A[1]</text>
</g>
<!-- 6 -->
<g id="node6" class="node"><title>6</title>
<ellipse fill="none" stroke="orange" cx="419" cy="-18" rx="33.3419" ry="18"/>
<text text-anchor="middle" x="419" y="-12.4" font-family="Times,serif" font-size="14.00">state5</text>
</g>
<!-- 1&#45;&gt;6 -->
<g id="edge10" class="edge"><title>1&#45;&gt;6</title>
<path fill="none" stroke="black" d="M806.642,-107.554C725.146,-108.406 513.737,-107.076 454.579,-72 444.069,-65.7685 436.013,-55.0744 430.246,-44.9172"/>
<polygon fill="black" stroke="black" points="433.282,-43.1682 425.589,-35.8835 427.06,-46.3757 433.282,-43.1682"/>
<text text-anchor="middle" x="496.21" y="-57.4" font-family="Times,serif" font-size="14.00">../DIV[1]/A[1]</text>
<text text-anchor="middle" x="797.602" y="-106.232" font-family="Times,serif" font-size="14.00">/HTML[1]/BODY[1]/DIV[1]/DIV[1]/DIV[1]/DIV[5]/UL[1]/LI[4]/DIV[1]/A[1]</text>
</g>
<!-- 7 -->
<g id="node7" class="node"><title>7</title>
<ellipse fill="none" stroke="orange" cx="524" cy="-18" rx="33.3419" ry="18"/>
<text text-anchor="middle" x="524" y="-12.4" font-family="Times,serif" font-size="14.00">state6</text>
</g>
<!-- 1&#45;&gt;7 -->
<g id="edge12" class="edge"><title>1&#45;&gt;7</title>
<path fill="none" stroke="black" d="M806.442,-106.449C741.219,-104.792 597.304,-98.188 556.579,-72 546.734,-65.6694 539.386,-55.2013 534.186,-45.233"/>
<polygon fill="black" stroke="black" points="537.261,-43.5475 529.846,-35.9802 530.924,-46.5201 537.261,-43.5475"/>
<text text-anchor="middle" x="598.21" y="-57.4" font-family="Times,serif" font-size="14.00">../DIV[1]/A[1]</text>
<text text-anchor="middle" x="797.255" y="-104.798" font-family="Times,serif" font-size="14.00">/HTML[1]/BODY[1]/DIV[1]/DIV[1]/DIV[1]/DIV[5]/UL[1]/LI[5]/DIV[1]/A[1]</text>
</g>
<!-- 8 -->
<g id="node8" class="node"><title>8</title>
<ellipse fill="none" stroke="orange" cx="629" cy="-18" rx="33.3419" ry="18"/>
<text text-anchor="middle" x="629" y="-12.4" font-family="Times,serif" font-size="14.00">state7</text>
</g>
<!-- 1&#45;&gt;8 -->
<g id="edge14" class="edge"><title>1&#45;&gt;8</title>
<path fill="none" stroke="black" d="M807.229,-104.237C761.483,-99.7122 679.983,-89.4353 656.579,-72 647.72,-65.4004 641.459,-55.1193 637.168,-45.3619"/>
<polygon fill="black" stroke="black" points="640.39,-43.9912 633.509,-35.9348 633.864,-46.5237 640.39,-43.9912"/>
<text text-anchor="middle" x="698.21" y="-57.4" font-family="Times,serif" font-size="14.00">../DIV[1]/A[1]</text>
<text text-anchor="middle" x="797.776" y="-101.902" font-family="Times,serif" font-size="14.00">/HTML[1]/BODY[1]/DIV[1]/DIV[1]/DIV[1]/DIV[5]/UL[1]/LI[6]/DIV[1]/A[1]</text>
</g>
<!-- 9 -->
<g id="node9" class="node"><title>9</title>
<ellipse fill="none" stroke="orange" cx="734" cy="-18" rx="33.3419" ry="18"/>
<text text-anchor="middle" x="734" y="-12.4" font-family="Times,serif" font-size="14.00">state8</text>
</g>
<!-- 1&#45;&gt;9 -->
<g id="edge16" class="edge"><title>1&#45;&gt;9</title>
<path fill="none" stroke="black" d="M808.609,-101.316C790.181,-96.42 767.436,-87.5817 752.579,-72 745.833,-64.9244 741.521,-55.2612 738.772,-46.1226"/>
<polygon fill="black" stroke="black" points="742.11,-45.0437 736.285,-36.1937 735.319,-46.7444 742.11,-45.0437"/>
<text text-anchor="middle" x="794.21" y="-57.4" font-family="Times,serif" font-size="14.00">../DIV[1]/A[1]</text>
<text text-anchor="middle" x="798.74" y="-97.3273" font-family="Times,serif" font-size="14.00">/HTML[1]/BODY[1]/DIV[1]/DIV[1]/DIV[1]/DIV[5]/UL[1]/LI[7]/DIV[1]/A[1]</text>
</g>
<!-- 10 -->
<g id="node10" class="node"><title>10</title>
<ellipse fill="none" stroke="orange" cx="839" cy="-18" rx="33.3419" ry="18"/>
<text text-anchor="middle" x="839" y="-12.4" font-family="Times,serif" font-size="14.00">state9</text>
</g>
<!-- 1&#45;&gt;10 -->
<g id="edge18" class="edge"><title>1&#45;&gt;10</title>
<path fill="none" stroke="red" d="M839,-89.614C839,-77.2403 839,-60.3686 839,-46.2198"/>
<polygon fill="red" stroke="red" points="842.5,-46.0504 839,-36.0504 835.5,-46.0504 842.5,-46.0504"/>
<text text-anchor="middle" x="880.21" y="-57.4" font-family="Times,serif" font-size="14.00">../DIV[1]/A[1]</text>
<text text-anchor="middle" x="834.774" y="-74.951" font-family="Times,serif" font-size="14.00">/HTML[1]/BODY[1]/DIV[1]/DIV[1]/DIV[1]/DIV[5]/UL[1]/LI[8]/DIV[1]/A[1]</text>
</g>
<!-- 11 -->
<g id="node11" class="node"><title>11</title>
<ellipse fill="none" stroke="orange" cx="944" cy="-18" rx="38.0859" ry="18"/>
<text text-anchor="middle" x="944" y="-12.4" font-family="Times,serif" font-size="14.00">state12</text>
</g>
<!-- 1&#45;&gt;11 -->
<g id="edge26" class="edge"><title>1&#45;&gt;11</title>
<path fill="none" stroke="black" d="M868.709,-100.505C886.159,-95.3512 907.555,-86.5267 922,-72 929.119,-64.8407 934.05,-55.0438 937.408,-45.8196"/>
<polygon fill="black" stroke="black" points="940.776,-46.7773 940.465,-36.187 934.104,-44.6598 940.776,-46.7773"/>
<text text-anchor="middle" x="971.324" y="-57.4" font-family="Times,serif" font-size="14.00">../H2[2]/A[1]</text>
<text text-anchor="middle" x="876.112" y="-88.1823" font-family="Times,serif" font-size="14.00">/HTML[1]/BODY[1]/DIV[1]/DIV[1]/DIV[2]/DIV[2]/TABLE[1]/TBODY[1]/TR[1]/TD[1]/H2[2]/A[1]</text>
</g>
<!-- 12 -->
<g id="node12" class="node"><title>12</title>
<ellipse fill="none" stroke="orange" cx="1091" cy="-18" rx="38.0859" ry="18"/>
<text text-anchor="middle" x="1091" y="-12.4" font-family="Times,serif" font-size="14.00">state13</text>
</g>
<!-- 1&#45;&gt;12 -->
<g id="edge28" class="edge"><title>1&#45;&gt;12</title>
<path fill="none" stroke="black" d="M870.705,-104.327C906.25,-100.489 965.054,-91.5869 1012,-72 1022.48,-67.6278 1044.49,-52.6625 1062.63,-39.7448"/>
<polygon fill="black" stroke="black" points="1065.07,-42.2997 1071.15,-33.6232 1060.98,-36.6142 1065.07,-42.2997"/>
<text text-anchor="middle" x="1079.32" y="-57.4" font-family="Times,serif" font-size="14.00">../H2[1]/A[1]</text>
<text text-anchor="middle" x="879.223" y="-93.4879" font-family="Times,serif" font-size="14.00">/HTML[1]/BODY[1]/DIV[1]/DIV[1]/DIV[2]/DIV[3]/TABLE[1]/TBODY[1]/TR[1]/TD[1]/H2[1]/A[1]</text>
</g>
<!-- 1&#45;&gt;12 -->
<g id="edge30" class="edge"><title>1&#45;&gt;12</title>
<path fill="none" stroke="black" d="M870.893,-105.336C940.646,-101.369 1101.85,-90.3021 1118,-72 1125.58,-63.41 1121.52,-52.312 1114.48,-42.4927"/>
<polygon fill="black" stroke="black" points="1117.1,-40.1624 1108.07,-34.6285 1111.68,-44.5887 1117.1,-40.1624"/>
<text text-anchor="middle" x="1160.32" y="-57.4" font-family="Times,serif" font-size="14.00">../H2[2]/A[1]</text>
<text text-anchor="middle" x="879.687" y="-94.9754" font-family="Times,serif" font-size="14.00">/HTML[1]/BODY[1]/DIV[1]/DIV[1]/DIV[2]/DIV[3]/TABLE[1]/TBODY[1]/TR[1]/TD[1]/H2[2]/A[1]</text>
</g>
<!-- 13 -->
<g id="node13" class="node"><title>13</title>
<ellipse fill="none" stroke="orange" cx="1287" cy="-18" rx="38.0859" ry="18"/>
<text text-anchor="middle" x="1287" y="-12.4" font-family="Times,serif" font-size="14.00">state10</text>
</g>
<!-- 1&#45;&gt;13 -->
<g id="edge22" class="edge"><title>1&#45;&gt;13</title>
<path fill="none" stroke="black" d="M871.029,-105.759C947.749,-102.489 1140.18,-92.449 1201,-72 1212.73,-68.0563 1237.66,-52.3557 1257.67,-39.0582"/>
<polygon fill="black" stroke="black" points="1259.82,-41.8338 1266.18,-33.3586 1255.92,-36.0192 1259.82,-41.8338"/>
<text text-anchor="middle" x="1271.32" y="-57.4" font-family="Times,serif" font-size="14.00">../H2[2]/A[1]</text>
<text text-anchor="middle" x="879.892" y="-95.5273" font-family="Times,serif" font-size="14.00">/HTML[1]/BODY[1]/DIV[1]/DIV[1]/DIV[2]/DIV[1]/TABLE[1]/TBODY[1]/TR[1]/TD[1]/H2[2]/A[1]</text>
</g>
<!-- 1&#45;&gt;13 -->
<g id="edge20" class="edge"><title>1&#45;&gt;13</title>
<path fill="none" stroke="black" d="M871.444,-107.1C973.649,-107.08 1283.96,-104.335 1314,-72 1321.91,-63.4888 1317.65,-52.2228 1310.39,-42.2669"/>
<polygon fill="black" stroke="black" points="1312.87,-39.7685 1303.79,-34.3014 1307.48,-44.2347 1312.87,-39.7685"/>
<text text-anchor="middle" x="1356.32" y="-57.4" font-family="Times,serif" font-size="14.00">../H2[1]/A[1]</text>
<text text-anchor="middle" x="880.494" y="-97.2452" font-family="Times,serif" font-size="14.00">/HTML[1]/BODY[1]/DIV[1]/DIV[1]/DIV[2]/DIV[1]/TABLE[1]/TBODY[1]/TR[1]/TD[1]/H2[1]/A[1]</text>
</g>
<!-- 14 -->
<g id="node14" class="node"><title>14</title>
<ellipse fill="none" stroke="orange" cx="1434" cy="-18" rx="38.0545" ry="18"/>
<text text-anchor="middle" x="1434" y="-12.4" font-family="Times,serif" font-size="14.00">state11</text>
</g>
<!-- 1&#45;&gt;14 -->
<g id="edge24" class="edge"><title>1&#45;&gt;14</title>
<path fill="none" stroke="black" d="M871.483,-106.596C983.777,-104.975 1351.2,-97.7384 1397,-72 1407.86,-65.8967 1416.26,-55.1199 1422.29,-44.8706"/>
<polygon fill="black" stroke="black" points="1425.53,-46.2244 1427.16,-35.7556 1419.36,-42.9233 1425.53,-46.2244"/>
<text text-anchor="middle" x="1454.32" y="-57.4" font-family="Times,serif" font-size="14.00">../H2[1]/A[1]</text>
<text text-anchor="middle" x="880.476" y="-96.6217" font-family="Times,serif" font-size="14.00">/HTML[1]/BODY[1]/DIV[1]/DIV[1]/DIV[2]/DIV[2]/TABLE[1]/TBODY[1]/TR[1]/TD[1]/H2[1]/A[1]</text>
</g>
<!-- 15 -->
<g id="node15" class="node"><title>15</title>
<ellipse fill="none" stroke="orange" cx="1581" cy="-18" rx="38.0859" ry="18"/>
<text text-anchor="middle" x="1581" y="-12.4" font-family="Times,serif" font-size="14.00">state14</text>
</g>
<!-- 1&#45;&gt;15 -->
<g id="edge32" class="edge"><title>1&#45;&gt;15</title>
<path fill="none" stroke="black" d="M871.413,-107.376C986.765,-108.39 1376.75,-108.943 1495,-72 1506.81,-68.3099 1531.73,-52.5832 1551.72,-39.2114"/>
<polygon fill="black" stroke="black" points="1553.89,-41.9737 1560.21,-33.4763 1549.97,-36.1728 1553.89,-41.9737"/>
<text text-anchor="middle" x="1565.32" y="-57.4" font-family="Times,serif" font-size="14.00">../H2[1]/A[1]</text>
<text text-anchor="middle" x="880.501" y="-97.6045" font-family="Times,serif" font-size="14.00">/HTML[1]/BODY[1]/DIV[1]/DIV[1]/DIV[2]/DIV[4]/TABLE[1]/TBODY[1]/TR[1]/TD[1]/H2[1]/A[1]</text>
</g>
<!-- 1&#45;&gt;15 -->
<g id="edge34" class="edge"><title>1&#45;&gt;15</title>
<path fill="none" stroke="black" d="M871.224,-106.757C1013.59,-105.529 1580.25,-98.9564 1606,-72 1613.91,-63.7245 1610.04,-52.4871 1603.21,-42.4891"/>
<polygon fill="black" stroke="black" points="1605.88,-40.22 1596.98,-34.4746 1600.36,-44.5172 1605.88,-40.22"/>
<text text-anchor="middle" x="1647.32" y="-57.4" font-family="Times,serif" font-size="14.00">../H2[1]/A[2]</text>
<text text-anchor="middle" x="880.244" y="-96.8405" font-family="Times,serif" font-size="14.00">/HTML[1]/BODY[1]/DIV[1]/DIV[1]/DIV[2]/DIV[4]/TABLE[1]/TBODY[1]/TR[1]/TD[1]/H2[1]/A[2]</text>
</g>
</g>
</svg>
